<svg width="81" height="81" viewBox="0 0 81 81" fill="none" xmlns="http://www.w3.org/2000/svg">
<path d="M39.0965 21.4772C39.7773 21.4164 40.2421 21.3924 40.7021 21.3924C41.1637 21.3924 41.6277 21.4164 42.3085 21.4772C42.9709 21.5348 43.3133 21.5812 43.9685 21.7004C44.7301 21.8396 45.1581 21.9388 45.8301 22.1412C45.5869 20.8364 45.3533 20.0244 44.8197 18.5844C44.8197 18.5844 43.8469 20.4764 43.3909 20.3052C41.7645 19.6932 41.1469 16.2508 40.7021 14.2876C40.2573 16.25 39.6381 19.6956 38.0133 20.3052C37.5573 20.4764 36.5853 18.5844 36.5853 18.5844C36.0525 20.0236 35.8181 20.8364 35.5741 22.1412C36.2461 21.9388 36.6733 21.8396 37.4365 21.7004C38.0925 21.5812 38.4341 21.5356 39.0965 21.4772Z" fill="#555969"/>
<path d="M43.885 22.17C43.241 22.0532 42.917 22.0092 42.269 21.9524C41.0186 21.842 40.389 21.842 39.1394 21.9524C38.4898 22.0092 38.1666 22.0532 37.5226 22.17C36.6978 22.3212 36.2874 22.4196 35.4802 22.6676C35.4802 22.6676 35.4802 22.8444 35.4802 23.0596C35.4802 23.2764 35.6938 23.4524 35.957 23.4524H45.4498C45.713 23.4524 45.9266 23.2764 45.9266 23.0596V22.6676C45.1186 22.4196 44.7106 22.3204 43.885 22.17Z" fill="#555969"/>
<path d="M80.6031 37.7077C79.1191 16.9981 61.8135 0.602914 40.7375 0.586914C40.7295 0.586914 40.7143 0.586914 40.7071 0.586914C19.6079 0.586914 2.28632 16.9909 0.802319 37.7077C0.740719 38.6565 0.703125 39.6197 0.703125 40.5837C0.703125 62.6389 18.6439 80.5869 40.7071 80.5869C62.7615 80.5869 80.7031 62.6389 80.7031 40.5837C80.7031 39.6197 80.6647 38.6565 80.6031 37.7077ZM72.3287 24.2637L73.4223 26.9717L76.3359 26.7805L74.0879 28.6469L75.1815 31.3613L72.7039 29.8021L70.4631 31.6757L71.1743 28.8461L68.7039 27.2941L71.6183 27.0949L72.3287 24.2637ZM68.1687 17.7485L70.8983 16.7157L69.2999 19.1557L71.1279 21.4349L68.3135 20.6621L66.7071 23.1093L66.5695 20.1885L63.7479 19.4237L66.4855 18.3917L66.3399 15.4701L68.1687 17.7485ZM57.6455 8.93811L60.0551 10.5973L62.3719 8.81571L61.5383 11.6141L63.9399 13.2733L61.0255 13.3501L60.1919 16.1493L59.2207 13.3965L56.2999 13.4645L58.6167 11.6909L57.6455 8.93811ZM50.1823 6.59891L51.8879 4.21971L51.9031 7.14131L54.6943 8.02131L51.9183 8.94612L51.9407 11.8669L50.2047 9.51891L47.4367 10.4357L49.1335 8.06532L47.3983 5.71012L50.1823 6.59891ZM39.7959 5.59731L40.7071 2.82052L41.6095 5.59731H44.5239L42.1599 7.31012L43.0703 10.0933L40.7079 8.37332L38.3447 10.0933L39.2471 7.31012L36.8839 5.59731H39.7959ZM29.4951 7.14131L29.5263 4.21971L31.2231 6.59891L34.0071 5.71172L32.2711 8.06692L33.9687 10.4373L31.1999 9.52052L29.4639 11.8685L29.4863 8.94772L26.7103 8.02291L29.4951 7.14131ZM19.0335 8.81652L21.3583 10.5981L23.7599 8.93892L22.7887 11.6917L25.1055 13.4653L22.1839 13.3973L21.2127 16.1501L20.3871 13.3509L17.4663 13.2741L19.8671 11.6229L19.0335 8.81652ZM10.5071 16.7157L13.2375 17.7485L15.0647 15.4685L14.9271 18.3901L17.6575 19.4221L14.8359 20.1869L14.6975 23.1077L13.0999 20.6605L10.2783 21.4333L12.1047 19.1541L10.5071 16.7157ZM7.99032 26.9709L9.07593 24.2629L9.78793 27.0925L12.7015 27.2917L10.2311 28.8437L10.9423 31.6733L8.70232 29.8069L6.23192 31.3589L7.31753 28.6517L5.07672 26.7781L7.99032 26.9709ZM5.66553 37.1421L5.88712 34.2277L7.41672 36.7205L10.2543 36.0333L8.36553 38.2581L9.89513 40.7437L7.19513 39.6277L5.29912 41.8517L5.52793 38.9381L2.82872 37.8293L5.66553 37.1421ZM6.44633 49.4549L3.53273 49.2093L6.03273 47.6957L5.36792 44.8493L7.57832 46.7621L10.0711 45.2477L8.93912 47.9389L11.1567 49.8509L8.24313 49.6069L7.11112 52.2981L6.44633 49.4549ZM11.9983 58.9141L11.7151 61.8205L10.2311 59.2973L7.37992 59.9237L9.32233 57.7373L7.84552 55.2213L10.5223 56.3917L12.4655 54.2117L12.1751 57.1181L14.8519 58.2877L11.9983 58.9141ZM19.1791 69.5677L17.0455 67.5797L14.4919 69.0013L15.7223 66.3485L13.5815 64.3605L16.4799 64.7117L17.7111 62.0653L18.2767 64.9333L21.1751 65.2853L18.6207 66.6997L19.1791 69.5677ZM28.7311 74.4765L26.1151 73.1925L24.0807 75.2877L24.4935 72.3973L21.8711 71.1133L24.7471 70.6077L25.1599 67.7173L26.5207 70.3013L29.4047 69.7965L27.3703 71.8925L28.7311 74.4765ZM36.2935 75.7461L34.9783 78.3541L34.5119 75.4701L31.6287 75.0189L34.2207 73.6805L33.7615 70.7973L35.8263 72.8621L38.4263 71.5237L37.1111 74.1309L39.1839 76.1885L36.2935 75.7461ZM12.1743 40.5837C12.1743 39.1069 12.2895 37.6629 12.5031 36.2469C14.4911 23.2773 25.2511 13.1525 38.5119 12.1429C39.2383 12.0893 39.9727 12.0589 40.7071 12.0589C54.9615 12.0589 66.8079 22.5661 68.9031 36.2469C69.1167 37.6629 69.2311 39.1069 69.2311 40.5837C69.2311 56.3141 56.4367 69.1157 40.7071 69.1157C24.9759 69.1157 12.1743 56.3141 12.1743 40.5837ZM46.8935 75.4637L46.4263 78.3541L45.1111 75.7461L42.2279 76.1901L44.3007 74.1325L42.9775 71.5253L45.5775 72.8637L47.6503 70.7989L47.1839 73.6821L49.7839 75.0205L46.8935 75.4637ZM57.3327 75.2877L55.2983 73.1925L52.6751 74.4765L54.0439 71.8925L52.0103 69.7965L54.8855 70.2941L56.2463 67.7165L56.6591 70.6069L59.5423 71.1037L56.9199 72.3965L57.3327 75.2877ZM66.9223 69.0013L64.3671 67.5797L62.2263 69.5677L62.7919 66.6997L60.2383 65.2853L63.1367 64.9333L63.6943 62.0653L64.9263 64.7117L67.8247 64.3605L65.6903 66.3485L66.9223 69.0013ZM71.1743 59.2973L69.6983 61.8133L69.4079 58.9077L66.5551 58.2877L69.2319 57.1181L68.9423 54.2037L70.8847 56.3909L73.5615 55.2205L72.0855 57.7365L74.0279 59.9229L71.1743 59.2973ZM74.9671 49.4549L74.2943 52.2997L73.1623 49.6085L70.2559 49.8525L72.4671 47.9405L71.3343 45.2493L73.8271 46.7637L76.0447 44.8509L75.3719 47.6973L77.8727 49.2109L74.9671 49.4549ZM75.8847 38.9389L76.1063 41.8525L74.2095 39.6285L71.5103 40.7445L73.0399 38.2589L71.1503 36.0341L73.9879 36.7149L75.5167 34.2293L75.7383 37.1437L78.5839 37.8317L75.8847 38.9389Z" fill="#555969"/>
<path d="M21.8596 38.7028H22.6692V32.5604H21.8596V30.7612H27.066C29.3828 30.7612 30.4844 31.626 30.4844 33.1476C30.4844 34.3204 30.1636 34.8924 29.1172 35.31C30.122 35.59 30.9596 36.3284 30.9596 37.682C30.9596 39.6508 29.8564 40.5156 27.1628 40.5156H21.8596V38.7028ZM25.558 34.6972H26.4092C27.1492 34.6972 27.358 34.2924 27.358 33.622C27.358 32.9812 26.9676 32.6036 26.438 32.6036H25.558V34.6972ZM26.6756 38.7028C27.2612 38.7028 27.8052 38.2556 27.8052 37.502C27.8052 36.7892 27.4004 36.274 26.6332 36.274H25.558V38.7028H26.6756Z" fill="#555969"/>
<path d="M39.8613 30.762V33.846H37.4461V32.6028H35.2133V34.5292H37.8645V36.3844H35.2133V38.6604H37.4461V37.3628H39.8613V40.5156H31.4453V38.6604H32.3245V32.6028H31.4453V30.7612H39.8613V30.762Z" fill="#555969"/>
<path d="M40.5586 37.0006H43.1538C43.1538 38.1718 44.3266 38.3678 44.913 38.3958C45.401 38.3958 46.0994 38.2838 46.0994 37.6982C46.0994 36.6102 40.7402 37.0694 40.7402 33.5118C40.7402 31.4462 42.6938 30.511 44.0618 30.511C45.2346 30.511 46.4202 30.8878 46.9778 31.9342L47.1178 30.7622H49.5186V34.2646H46.9922C46.9922 33.2326 46.1826 32.6462 45.2058 32.6462C44.801 32.6462 44.2434 32.8982 44.2434 33.387C44.2434 34.8238 49.7698 34.4894 49.7698 37.7686C49.7698 39.9454 47.7322 40.7262 46.0714 40.7262C44.661 40.7262 43.685 40.0702 43.1546 39.4422L43.0018 40.5166H40.5594L40.5586 37.0006Z" fill="#555969"/>
<path d="M59.689 34.3902H57.6378V32.6038H56.465V38.6614H57.6234V40.5166H52.4314V38.6614H53.5762V32.6038H52.3754V34.3902H50.3242V30.7622H59.6898V34.3902H59.689Z" fill="#555969"/>
<path d="M58.0163 26.7747H23.3867V27.5395H58.0163V26.7747Z" fill="#555969"/>
<path d="M54.6898 24.5684H26.7146V25.3332H54.6898V24.5684Z" fill="#555969"/>
<path d="M23.7187 60.5549C24.0267 60.8165 24.3403 61.0709 24.6611 61.3197H56.7491C57.0683 61.0709 57.3827 60.8165 57.6907 60.5549H23.7187Z" fill="#555969"/>
<path d="M26.8751 62.863C27.3015 63.1294 27.7327 63.387 28.1759 63.6278H53.2391C53.6815 63.387 54.1135 63.1294 54.5399 62.863H26.8751Z" fill="#555969"/>
<path d="M31.5548 65.1709C32.338 65.4629 33.1388 65.7189 33.9548 65.9357H47.4548C48.2708 65.7189 49.0708 65.4629 49.854 65.1709H31.5548Z" fill="#555969"/>
<path d="M21.3243 58.2461C21.5619 58.5069 21.8059 58.7605 22.0539 59.0109H59.3571C59.6051 58.7597 59.8484 58.5069 60.0859 58.2461H21.3243Z" fill="#555969"/>
<path d="M19.4532 55.9382C19.6404 56.1966 19.8333 56.4518 20.0301 56.703H61.382C61.578 56.4518 61.7708 56.1966 61.958 55.9382H19.4532Z" fill="#555969"/>
<path d="M17.9572 53.6294C18.106 53.8862 18.2556 54.143 18.4116 54.3942H62.9948C63.1508 54.143 63.3012 53.8862 63.4492 53.6294H17.9572Z" fill="#555969"/>
<path d="M17.3785 44.9241V44.6721H18.8765C19.9032 44.6721 20.4375 44.6745 20.4795 44.6791C21.0582 44.7211 21.4945 44.8961 21.7885 45.2041C21.9705 45.4001 22.0849 45.6311 22.1315 45.8971C22.1409 45.9391 22.1455 46.0115 22.1455 46.1141C22.1455 46.2448 22.1339 46.3521 22.1105 46.4361C22.0545 46.6881 21.9239 46.9051 21.7185 47.0871C21.4572 47.3111 21.1259 47.4511 20.7245 47.5071C20.5985 47.5258 20.3139 47.5351 19.8705 47.5351H19.3035V48.2491V48.9701H19.6815H20.0595V49.2221V49.4741H19.9685C19.9732 49.4741 19.7492 49.4695 19.2965 49.4601C18.9092 49.4555 18.5219 49.4555 18.1345 49.4601L17.4695 49.4741H17.3785V49.2221V48.9701H17.7565H18.1345V47.0731V45.1761H17.7565H17.3785V44.9241ZM20.3115 45.1901C20.2835 45.1855 20.0969 45.1808 19.7515 45.1761H19.2615V46.1211V47.0731H19.6815C20.0922 47.0731 20.3582 47.0545 20.4795 47.0171C20.6382 46.9705 20.7479 46.8981 20.8085 46.8001C20.8785 46.6788 20.9112 46.4268 20.9065 46.0441C20.9019 45.8248 20.8879 45.6708 20.8645 45.5821C20.8459 45.5028 20.8132 45.4398 20.7665 45.3931C20.6825 45.2951 20.5309 45.2275 20.3115 45.1901ZM22.8815 44.9241V44.6721H24.3305C25.3105 44.6768 25.8821 44.6885 26.0455 44.7071C26.5215 44.7725 26.9041 44.9195 27.1935 45.1481C27.4128 45.3348 27.5528 45.5635 27.6135 45.8341C27.6321 45.9368 27.6321 46.0558 27.6135 46.1911C27.5761 46.3358 27.5178 46.4641 27.4385 46.5761C27.3358 46.7208 27.2051 46.8398 27.0465 46.9331C26.9625 46.9798 26.8505 47.0335 26.7105 47.0941L26.6405 47.1221L26.6965 47.1501C26.8551 47.2528 26.9741 47.3625 27.0535 47.4791C27.1188 47.5631 27.1631 47.6448 27.1865 47.7241C27.2191 47.7941 27.2518 47.9691 27.2845 48.2491C27.3218 48.5338 27.3498 48.7018 27.3685 48.7531C27.4431 48.9958 27.5971 49.1171 27.8305 49.1171C27.8818 49.1171 27.9191 49.1125 27.9425 49.1031C28.0358 49.0238 28.0918 48.9188 28.1105 48.7881C28.1105 48.7368 28.1338 48.6948 28.1805 48.6621C28.2131 48.6481 28.3158 48.6458 28.4885 48.6551C28.5211 48.6551 28.5398 48.6575 28.5445 48.6621C28.5771 48.6808 28.5981 48.7088 28.6075 48.7461C28.6261 48.7881 28.6215 48.8605 28.5935 48.9631C28.5188 49.2385 28.3531 49.4205 28.0965 49.5091C28.0498 49.5231 28.0031 49.5348 27.9565 49.5441C27.8118 49.5675 27.5668 49.5628 27.2215 49.5301C26.5821 49.4648 26.2111 49.2315 26.1085 48.8301C26.0991 48.8021 26.0921 48.7718 26.0875 48.7391C26.0828 48.7065 26.0805 48.5595 26.0805 48.2981C26.0805 48.0135 26.0688 47.8315 26.0455 47.7521C25.9801 47.5468 25.8588 47.4045 25.6815 47.3251C25.6161 47.2971 25.4598 47.2831 25.2125 47.2831H25.1355H24.7645V48.1231V48.9701H25.1425H25.5205V49.2221V49.4741H25.4295C25.4341 49.4741 25.2148 49.4695 24.7715 49.4601C24.3935 49.4555 24.0131 49.4555 23.6305 49.4601C23.1871 49.4695 22.9678 49.4741 22.9725 49.4741H22.8815V49.2221V48.9701H23.2595H23.6375V47.0731V45.1761H23.2595H22.8815V44.9241ZM25.6325 45.1831C25.5951 45.1785 25.4318 45.1761 25.1425 45.1761H24.7645V46.0161V46.8561H25.2125C25.5485 46.8515 25.7678 46.8375 25.8705 46.8141C25.9825 46.7908 26.0898 46.7465 26.1925 46.6811C26.2811 46.6111 26.3395 46.5015 26.3675 46.3521C26.3908 46.1935 26.3931 46.0021 26.3745 45.7781C26.3605 45.5635 26.2928 45.4141 26.1715 45.3301C26.1481 45.3161 26.1225 45.3021 26.0945 45.2881C25.9638 45.2321 25.8098 45.1971 25.6325 45.1831ZM31.4306 44.6021C31.5846 44.5928 31.7783 44.5951 32.0116 44.6091C32.6463 44.6791 33.1573 44.9055 33.5446 45.2881C33.9226 45.6661 34.1489 46.1631 34.2236 46.7791C34.2423 46.9658 34.2423 47.1688 34.2236 47.3881C34.2236 47.3975 34.2236 47.4068 34.2236 47.4161C34.1536 47.9995 33.9389 48.4755 33.5796 48.8441C33.4069 49.0121 33.2109 49.1521 32.9916 49.2641C32.7023 49.4041 32.3756 49.4951 32.0116 49.5371C31.8156 49.5558 31.5963 49.5558 31.3536 49.5371C31.3396 49.5371 31.3279 49.5371 31.3186 49.5371C30.6559 49.4578 30.1356 49.2268 29.7576 48.8441C29.3936 48.4801 29.1766 48.0041 29.1066 47.4161C29.0879 47.2388 29.0879 47.0381 29.1066 46.8141C29.1066 46.8001 29.1066 46.7885 29.1066 46.7791C29.1439 46.4991 29.2023 46.2611 29.2816 46.0651C29.4916 45.5285 29.8439 45.1388 30.3386 44.8961C30.6559 44.7328 31.0199 44.6348 31.4306 44.6021ZM31.8086 45.0571C31.4166 45.0151 31.0829 45.1201 30.8076 45.3721C30.7423 45.4328 30.6839 45.5005 30.6326 45.5751C30.5066 45.7665 30.4203 46.0045 30.3736 46.2891C30.3269 46.6298 30.3199 47.0358 30.3526 47.5071C30.3573 47.5491 30.3619 47.5888 30.3666 47.6261C30.4179 48.1628 30.5859 48.5525 30.8706 48.7951C31.1786 49.0518 31.5286 49.1381 31.9206 49.0541C32.1213 49.0121 32.3009 48.9258 32.4596 48.7951C32.7443 48.5525 32.9123 48.1628 32.9636 47.6261C33.0103 47.2341 33.0126 46.8188 32.9706 46.3801C32.9659 46.3475 32.9613 46.3171 32.9566 46.2891C32.9239 46.0885 32.8679 45.9018 32.7886 45.7291C32.5926 45.3325 32.2659 45.1085 31.8086 45.0571ZM34.9674 44.9241V44.6721H36.5144C37.5737 44.6721 38.1244 44.6745 38.1664 44.6791C38.5537 44.7071 38.8991 44.7981 39.2024 44.9521C39.7997 45.2555 40.1777 45.7501 40.3364 46.4361C40.3457 46.4875 40.3551 46.5388 40.3644 46.5901C40.4437 47.0428 40.4251 47.4698 40.3084 47.8711C40.1311 48.4778 39.7717 48.9165 39.2304 49.1871C38.9737 49.3225 38.6634 49.4135 38.2994 49.4601C38.2481 49.4648 37.6764 49.4695 36.5844 49.4741H34.9674V49.2221V48.9701H35.3454H35.7234V47.0731V45.1761H35.3454H34.9674V44.9241ZM37.8374 45.1831C37.8047 45.1785 37.6251 45.1761 37.2984 45.1761H36.8504V47.0731V48.9701H37.3614C37.7301 48.9655 37.9307 48.9608 37.9634 48.9561C38.3694 48.9048 38.6774 48.7625 38.8874 48.5291C39.0647 48.3285 39.1674 48.0205 39.1954 47.6051C39.2141 47.2318 39.2141 46.8841 39.1954 46.5621C39.1907 46.5388 39.1884 46.5201 39.1884 46.5061C39.1417 45.9835 38.9574 45.6195 38.6354 45.4141C38.5934 45.3908 38.5491 45.3675 38.5024 45.3441C38.3251 45.2601 38.1034 45.2065 37.8374 45.1831ZM41.1402 44.9241V44.6721H41.2312C41.2266 44.6721 41.4506 44.6768 41.9032 44.6861C42.2906 44.6908 42.6779 44.6908 43.0652 44.6861L43.7302 44.6721H43.8212V44.9241V45.1761H43.4432H43.0652V46.6881C43.0699 47.7335 43.0792 48.2888 43.0932 48.3541C43.0932 48.3635 43.0979 48.3821 43.1072 48.4101C43.1446 48.5875 43.2216 48.7251 43.3382 48.8231C43.5296 48.9771 43.8166 49.0518 44.1992 49.0471C44.6426 49.0331 44.9716 48.9188 45.1862 48.7041C45.3216 48.5641 45.4149 48.3658 45.4662 48.1091C45.4709 48.0671 45.4756 47.5655 45.4802 46.6041V45.1761H45.1022H44.7242V44.9241V44.6721H44.7942L45.3052 44.6861C45.6039 44.6908 45.9026 44.6908 46.2012 44.6861C46.5466 44.6768 46.7169 44.6721 46.7122 44.6721H46.7822V44.9241V45.1761H46.4042H46.0262V46.5691C46.0262 47.5165 46.0239 48.0088 46.0192 48.0461C45.9912 48.3681 45.8816 48.6505 45.6902 48.8931C45.4802 49.1638 45.1909 49.3505 44.8222 49.4531C44.6169 49.5138 44.4046 49.5465 44.1852 49.5511C43.7279 49.5605 43.3312 49.4975 42.9952 49.3621C42.8832 49.3201 42.7666 49.2618 42.6452 49.1871C42.4772 49.0845 42.3349 48.9585 42.2182 48.8091C42.0362 48.5711 41.9312 48.3098 41.9032 48.0251C41.8986 47.9925 41.8962 47.5048 41.8962 46.5621V45.1761H41.5182H41.1402V44.9241ZM50.1266 44.6021H50.5186C50.7099 44.6161 50.8873 44.6558 51.0506 44.7211C51.2326 44.7818 51.4076 44.8751 51.5756 45.0011C51.6176 45.0338 51.6386 45.0455 51.6386 45.0361C51.6433 45.0361 51.7296 44.9661 51.8976 44.8261C52.0843 44.6768 52.1753 44.6045 52.1706 44.6091C52.2079 44.5858 52.2756 44.5858 52.3736 44.6091C52.3969 44.6231 52.4109 44.6465 52.4156 44.6791C52.4203 44.7258 52.4226 45.0291 52.4226 45.5891C52.4226 46.2098 52.4156 46.5295 52.4016 46.5481L52.3736 46.5621C52.3549 46.5715 52.2803 46.5761 52.1496 46.5761C52.0189 46.5761 51.9443 46.5715 51.9256 46.5621C51.8929 46.5388 51.8743 46.5038 51.8696 46.4571C51.8323 46.1118 51.7086 45.8131 51.4986 45.5611C51.4053 45.4585 51.3166 45.3768 51.2326 45.3161C51.0833 45.2088 50.9269 45.1435 50.7636 45.1201C50.5583 45.0781 50.3063 45.0898 50.0076 45.1551C49.7089 45.2158 49.4686 45.3231 49.2866 45.4771C49.1793 45.5611 49.0999 45.6451 49.0486 45.7291C48.8526 46.0138 48.7546 46.4618 48.7546 47.0731C48.7546 47.7125 48.8643 48.1745 49.0836 48.4591C49.1069 48.4918 49.1349 48.5245 49.1676 48.5571C49.2283 48.6178 49.2679 48.6551 49.2866 48.6691C49.4686 48.8231 49.7089 48.9305 50.0076 48.9911C50.2689 49.0471 50.4999 49.0635 50.7006 49.0401C51.1253 48.9981 51.4543 48.8091 51.6876 48.4731C51.8276 48.2771 51.9046 48.0601 51.9186 47.8221C51.9186 47.7428 51.9349 47.6938 51.9676 47.6751C51.9863 47.6658 52.0539 47.6611 52.1706 47.6611C52.2873 47.6611 52.3549 47.6658 52.3736 47.6751C52.4063 47.6985 52.4226 47.7521 52.4226 47.8361C52.4086 48.0601 52.3573 48.2631 52.2686 48.4451C52.0493 48.9025 51.6736 49.2245 51.1416 49.4111C50.9456 49.4811 50.7379 49.5255 50.5186 49.5441C50.3693 49.5581 50.1803 49.5558 49.9516 49.5371C49.3636 49.4718 48.8736 49.3038 48.4816 49.0331C48.1083 48.7578 47.8423 48.4148 47.6836 48.0041C47.6136 47.8268 47.5599 47.6168 47.5226 47.3741C47.5039 47.2061 47.5039 47.0148 47.5226 46.8001C47.5226 46.7861 47.5226 46.7745 47.5226 46.7651C47.5693 46.3918 47.6859 46.0558 47.8726 45.7571C48.1573 45.2951 48.5889 44.9661 49.1676 44.7701C49.4663 44.6768 49.7859 44.6208 50.1266 44.6021ZM53.312 44.7911V44.7491H55.671H58.037V44.7911L58.114 45.6801C58.156 46.2635 58.1793 46.5598 58.184 46.5691V46.6111H57.932C57.764 46.6111 57.68 46.6088 57.68 46.6041C57.68 46.5108 57.6683 46.3895 57.645 46.2401C57.617 46.0301 57.5773 45.8575 57.526 45.7221C57.456 45.5588 57.337 45.4375 57.169 45.3581C57.099 45.3208 57.0057 45.2928 56.889 45.2741C56.847 45.2648 56.728 45.2578 56.532 45.2531H56.259V47.1081V48.9701H56.798H57.33V49.2221V49.4741H57.218L56.392 49.4601C55.9113 49.4555 55.433 49.4555 54.957 49.4601L54.131 49.4741H54.019V49.2221V48.9701H54.558H55.09V47.1081V45.2531H54.817C54.621 45.2578 54.502 45.2648 54.46 45.2741C54.2407 45.3161 54.0727 45.3978 53.956 45.5191C53.8813 45.5938 53.8207 45.7058 53.774 45.8551C53.7367 45.9905 53.7063 46.1981 53.683 46.4781C53.6737 46.5575 53.669 46.5995 53.669 46.6041C53.669 46.6088 53.585 46.6111 53.417 46.6111H53.165V46.5691L53.242 45.6801C53.284 45.0968 53.3073 44.8005 53.312 44.7911ZM60.2896 44.6021C60.4856 44.5835 60.6746 44.5905 60.8566 44.6231C61.1133 44.6605 61.356 44.7538 61.5846 44.9031C61.6126 44.9265 61.6336 44.9358 61.6476 44.9311C61.671 44.9078 61.7316 44.8541 61.8296 44.7701C61.951 44.6675 62.014 44.6138 62.0186 44.6091C62.0326 44.5998 62.0653 44.5951 62.1166 44.5951C62.1726 44.5951 62.2076 44.5998 62.2216 44.6091C62.245 44.6231 62.259 44.6558 62.2636 44.7071C62.2683 44.7725 62.2706 45.0151 62.2706 45.4351C62.2706 45.9578 62.2543 46.2308 62.2216 46.2541C62.203 46.2635 62.1353 46.2681 62.0186 46.2681C61.902 46.2681 61.8343 46.2635 61.8156 46.2541C61.7876 46.2401 61.769 46.1911 61.7596 46.1071C61.7316 45.9578 61.6873 45.8201 61.6266 45.6941C61.5706 45.5775 61.4936 45.4748 61.3956 45.3861C61.195 45.1901 60.915 45.0851 60.5556 45.0711C60.173 45.0571 59.9303 45.1831 59.8276 45.4491C59.8043 45.5145 59.7926 45.5891 59.7926 45.6731C59.7926 45.7665 59.809 45.8481 59.8416 45.9181C59.9116 46.0628 60.0376 46.1701 60.2196 46.2401C60.2523 46.2588 60.432 46.3008 60.7586 46.3661C61.0946 46.4361 61.2813 46.4781 61.3186 46.4921C61.524 46.5435 61.7083 46.6298 61.8716 46.7511C62.2076 46.9985 62.4106 47.3368 62.4806 47.7661C62.4993 47.8968 62.4993 48.0601 62.4806 48.2561C62.4526 48.4335 62.399 48.6038 62.3196 48.7671C62.2263 48.9585 62.1026 49.1125 61.9486 49.2291C61.734 49.3925 61.475 49.4951 61.1716 49.5371C61.055 49.5558 60.8753 49.5581 60.6326 49.5441C60.6093 49.5395 60.5906 49.5371 60.5766 49.5371C60.1753 49.4951 59.8533 49.3948 59.6106 49.2361C59.5826 49.2175 59.5616 49.2105 59.5476 49.2151C59.5243 49.2385 59.4636 49.2921 59.3656 49.3761C59.2443 49.4788 59.1813 49.5325 59.1766 49.5371C59.1626 49.5465 59.13 49.5511 59.0786 49.5511C59.0226 49.5511 58.9876 49.5465 58.9736 49.5371C58.9503 49.5231 58.9363 49.4905 58.9316 49.4391C58.927 49.3738 58.9246 49.1335 58.9246 48.7181C58.9246 48.2095 58.9293 47.9481 58.9386 47.9341C58.9433 47.9248 58.9526 47.9131 58.9666 47.8991C58.99 47.8851 59.0576 47.8781 59.1696 47.8781C59.291 47.8781 59.361 47.8828 59.3796 47.8921C59.4123 47.9108 59.4286 47.9598 59.4286 48.0391C59.4426 48.2911 59.5313 48.4988 59.6946 48.6621C59.816 48.7835 59.984 48.8791 60.1986 48.9491C60.474 49.0378 60.7493 49.0681 61.0246 49.0401C61.062 49.0355 61.0946 49.0308 61.1226 49.0261C61.2533 48.9981 61.3606 48.9421 61.4446 48.8581C61.538 48.7648 61.5986 48.6388 61.6266 48.4801C61.664 48.2421 61.5986 48.0391 61.4306 47.8711C61.3606 47.7918 61.2696 47.7358 61.1576 47.7031C61.139 47.6938 60.9523 47.6495 60.5976 47.5701C60.2616 47.5048 60.0703 47.4628 60.0236 47.4441C59.6783 47.3461 59.4076 47.1618 59.2116 46.8911C59.011 46.6251 58.9153 46.3265 58.9246 45.9951C58.9386 45.6638 59.0366 45.3791 59.2186 45.1411C59.3913 44.9078 59.6433 44.7468 59.9746 44.6581C60.0866 44.6301 60.1916 44.6115 60.2896 44.6021Z" fill="#555969"/>
</svg>
