<svg width="47" height="52" viewBox="0 0 47 52" fill="none" xmlns="http://www.w3.org/2000/svg">
<path d="M9.73102 38.0146H10.011C10.1477 38.0246 10.2743 38.053 10.391 38.0996C10.521 38.143 10.646 38.2096 10.766 38.2996C10.796 38.323 10.811 38.3313 10.811 38.3246C10.8143 38.3246 10.876 38.2746 10.996 38.1746C11.1293 38.068 11.1943 38.0163 11.191 38.0196C11.2177 38.003 11.266 38.003 11.336 38.0196C11.3527 38.0296 11.3627 38.0463 11.366 38.0696C11.3693 38.103 11.371 38.3196 11.371 38.7196C11.371 39.163 11.366 39.3913 11.356 39.4046L11.336 39.4146C11.3227 39.4213 11.2693 39.4246 11.176 39.4246C11.0827 39.4246 11.0293 39.4213 11.016 39.4146C10.9927 39.398 10.9793 39.373 10.976 39.3396C10.9493 39.093 10.861 38.8796 10.711 38.6996C10.6443 38.6263 10.581 38.568 10.521 38.5246C10.4143 38.448 10.3027 38.4013 10.186 38.3846C10.0393 38.3546 9.85935 38.363 9.64602 38.4096C9.43268 38.453 9.26102 38.5296 9.13102 38.6396C9.05435 38.6996 8.99768 38.7596 8.96102 38.8196C8.82102 39.023 8.75102 39.343 8.75102 39.7796C8.75102 40.2363 8.82935 40.5663 8.98602 40.7696C9.00268 40.793 9.02268 40.8163 9.04602 40.8396C9.08935 40.883 9.11768 40.9096 9.13102 40.9196C9.26102 41.0296 9.43268 41.1063 9.64602 41.1496C9.83268 41.1896 9.99768 41.2013 10.141 41.1846C10.4443 41.1546 10.6793 41.0196 10.846 40.7796C10.946 40.6396 11.001 40.4846 11.011 40.3146C11.011 40.258 11.0227 40.223 11.046 40.2096C11.0593 40.203 11.1077 40.1996 11.191 40.1996C11.2743 40.1996 11.3227 40.203 11.336 40.2096C11.3593 40.2263 11.371 40.2646 11.371 40.3246C11.361 40.4846 11.3243 40.6296 11.261 40.7596C11.1043 41.0863 10.836 41.3163 10.456 41.4496C10.316 41.4996 10.1677 41.5313 10.011 41.5446C9.90435 41.5546 9.76935 41.553 9.60602 41.5396C9.18602 41.493 8.83602 41.373 8.55602 41.1796C8.28935 40.983 8.09935 40.738 7.98602 40.4446C7.93602 40.318 7.89768 40.168 7.87102 39.9946C7.85768 39.8746 7.85768 39.738 7.87102 39.5846C7.87102 39.5746 7.87102 39.5663 7.87102 39.5596C7.90435 39.293 7.98768 39.053 8.12102 38.8396C8.32435 38.5096 8.63268 38.2746 9.04602 38.1346C9.25935 38.068 9.48768 38.028 9.73102 38.0146ZM11.8913 38.2446V38.0646H11.9563C11.953 38.0646 12.113 38.068 12.4363 38.0746C12.713 38.078 12.9896 38.078 13.2663 38.0746L13.7413 38.0646H13.8063V38.2446V38.4246H13.5363H13.2663V39.5046C13.2696 40.2513 13.2763 40.648 13.2863 40.6946C13.2863 40.7013 13.2896 40.7146 13.2963 40.7346C13.323 40.8613 13.378 40.9596 13.4613 41.0296C13.598 41.1396 13.803 41.193 14.0763 41.1896C14.393 41.1796 14.628 41.098 14.7813 40.9446C14.878 40.8446 14.9446 40.703 14.9813 40.5196C14.9846 40.4896 14.988 40.1313 14.9913 39.4446V38.4246H14.7213H14.4513V38.2446V38.0646H14.5013L14.8663 38.0746C15.0796 38.078 15.293 38.078 15.5063 38.0746C15.753 38.068 15.8746 38.0646 15.8713 38.0646H15.9213V38.2446V38.4246H15.6513H15.3813V39.4196C15.3813 40.0963 15.3796 40.448 15.3763 40.4746C15.3563 40.7046 15.278 40.9063 15.1413 41.0796C14.9913 41.273 14.7846 41.4063 14.5213 41.4796C14.3746 41.523 14.223 41.5463 14.0663 41.5496C13.7396 41.5563 13.4563 41.5113 13.2163 41.4146C13.1363 41.3846 13.053 41.343 12.9663 41.2896C12.8463 41.2163 12.7446 41.1263 12.6613 41.0196C12.5313 40.8496 12.4563 40.663 12.4363 40.4596C12.433 40.4363 12.4313 40.088 12.4313 39.4146V38.4246H12.1613H11.8913V38.2446ZM17.4151 38.0146C17.5551 38.0013 17.6901 38.0063 17.8201 38.0296C18.0035 38.0563 18.1768 38.123 18.3401 38.2296C18.3601 38.2463 18.3751 38.253 18.3851 38.2496C18.4018 38.233 18.4451 38.1946 18.5151 38.1346C18.6018 38.0613 18.6468 38.023 18.6501 38.0196C18.6601 38.013 18.6835 38.0096 18.7201 38.0096C18.7601 38.0096 18.7851 38.013 18.7951 38.0196C18.8118 38.0296 18.8218 38.053 18.8251 38.0896C18.8285 38.1363 18.8301 38.3096 18.8301 38.6096C18.8301 38.983 18.8185 39.178 18.7951 39.1946C18.7818 39.2013 18.7335 39.2046 18.6501 39.2046C18.5668 39.2046 18.5185 39.2013 18.5051 39.1946C18.4851 39.1846 18.4718 39.1496 18.4651 39.0896C18.4451 38.983 18.4135 38.8846 18.3701 38.7946C18.3301 38.7113 18.2751 38.638 18.2051 38.5746C18.0618 38.4346 17.8618 38.3596 17.6051 38.3496C17.3318 38.3396 17.1585 38.4296 17.0851 38.6196C17.0685 38.6663 17.0601 38.7196 17.0601 38.7796C17.0601 38.8463 17.0718 38.9046 17.0951 38.9546C17.1451 39.058 17.2351 39.1346 17.3651 39.1846C17.3885 39.198 17.5168 39.228 17.7501 39.2746C17.9901 39.3246 18.1235 39.3546 18.1501 39.3646C18.2968 39.4013 18.4285 39.463 18.5451 39.5496C18.7851 39.7263 18.9301 39.968 18.9801 40.2746C18.9935 40.368 18.9935 40.4846 18.9801 40.6246C18.9601 40.7513 18.9218 40.873 18.8651 40.9896C18.7985 41.1263 18.7101 41.2363 18.6001 41.3196C18.4468 41.4363 18.2618 41.5096 18.0451 41.5396C17.9618 41.553 17.8335 41.5546 17.6601 41.5446C17.6435 41.5413 17.6301 41.5396 17.6201 41.5396C17.3335 41.5096 17.1035 41.438 16.9301 41.3246C16.9101 41.3113 16.8951 41.3063 16.8851 41.3096C16.8685 41.3263 16.8251 41.3646 16.7551 41.4246C16.6685 41.498 16.6235 41.5363 16.6201 41.5396C16.6101 41.5463 16.5868 41.5496 16.5501 41.5496C16.5101 41.5496 16.4851 41.5463 16.4751 41.5396C16.4585 41.5296 16.4485 41.5063 16.4451 41.4696C16.4418 41.423 16.4401 41.2513 16.4401 40.9546C16.4401 40.5913 16.4435 40.4046 16.4501 40.3946C16.4535 40.388 16.4601 40.3796 16.4701 40.3696C16.4868 40.3596 16.5351 40.3546 16.6151 40.3546C16.7018 40.3546 16.7518 40.358 16.7651 40.3646C16.7885 40.378 16.8001 40.413 16.8001 40.4696C16.8101 40.6496 16.8735 40.798 16.9901 40.9146C17.0768 41.0013 17.1968 41.0696 17.3501 41.1196C17.5468 41.183 17.7435 41.2046 17.9401 41.1846C17.9668 41.1813 17.9901 41.178 18.0101 41.1746C18.1035 41.1546 18.1801 41.1146 18.2401 41.0546C18.3068 40.988 18.3501 40.898 18.3701 40.7846C18.3968 40.6146 18.3501 40.4696 18.2301 40.3496C18.1801 40.293 18.1151 40.253 18.0351 40.2296C18.0218 40.223 17.8885 40.1913 17.6351 40.1346C17.3951 40.088 17.2585 40.058 17.2251 40.0446C16.9785 39.9746 16.7851 39.843 16.6451 39.6496C16.5018 39.4596 16.4335 39.2463 16.4401 39.0096C16.4501 38.773 16.5201 38.5696 16.6501 38.3996C16.7735 38.233 16.9535 38.118 17.1901 38.0546C17.2701 38.0346 17.3451 38.0213 17.4151 38.0146ZM19.6235 38.1496V38.1196H21.3085H22.9985V38.1496L23.0535 38.7846C23.0835 39.2013 23.1001 39.413 23.1035 39.4196V39.4496H22.9235C22.8035 39.4496 22.7435 39.448 22.7435 39.4446C22.7435 39.378 22.7351 39.2913 22.7185 39.1846C22.6985 39.0346 22.6701 38.9113 22.6335 38.8146C22.5835 38.698 22.4985 38.6113 22.3785 38.5546C22.3285 38.528 22.2618 38.508 22.1785 38.4946C22.1485 38.488 22.0635 38.483 21.9235 38.4796H21.7285V39.8046V41.1346H22.1135H22.4935V41.3146V41.4946H22.4135L21.8235 41.4846C21.4801 41.4813 21.1385 41.4813 20.7985 41.4846L20.2085 41.4946H20.1285V41.3146V41.1346H20.5135H20.8935V39.8046V38.4796H20.6985C20.5585 38.483 20.4735 38.488 20.4435 38.4946C20.2868 38.5246 20.1668 38.583 20.0835 38.6696C20.0301 38.723 19.9868 38.803 19.9535 38.9096C19.9268 39.0063 19.9051 39.1546 19.8885 39.3546C19.8818 39.4113 19.8785 39.4413 19.8785 39.4446C19.8785 39.448 19.8185 39.4496 19.6985 39.4496H19.5185V39.4196L19.5735 38.7846C19.6035 38.368 19.6201 38.1563 19.6235 38.1496ZM25.3025 38.0146C25.4125 38.008 25.5508 38.0096 25.7175 38.0196C26.1708 38.0696 26.5358 38.2313 26.8125 38.5046C27.0825 38.7746 27.2442 39.1296 27.2975 39.5696C27.3108 39.703 27.3108 39.848 27.2975 40.0046C27.2975 40.0113 27.2975 40.018 27.2975 40.0246C27.2475 40.4413 27.0942 40.7813 26.8375 41.0446C26.7142 41.1646 26.5742 41.2646 26.4175 41.3446C26.2108 41.4446 25.9775 41.5096 25.7175 41.5396C25.5775 41.553 25.4208 41.553 25.2475 41.5396C25.2375 41.5396 25.2292 41.5396 25.2225 41.5396C24.7492 41.483 24.3775 41.318 24.1075 41.0446C23.8475 40.7846 23.6925 40.4446 23.6425 40.0246C23.6292 39.898 23.6292 39.7546 23.6425 39.5946C23.6425 39.5846 23.6425 39.5763 23.6425 39.5696C23.6692 39.3696 23.7108 39.1996 23.7675 39.0596C23.9175 38.6763 24.1692 38.398 24.5225 38.2246C24.7492 38.108 25.0092 38.038 25.3025 38.0146ZM25.5725 38.3396C25.2925 38.3096 25.0542 38.3846 24.8575 38.5646C24.8108 38.608 24.7692 38.6563 24.7325 38.7096C24.6425 38.8463 24.5808 39.0163 24.5475 39.2196C24.5142 39.463 24.5092 39.753 24.5325 40.0896C24.5358 40.1196 24.5392 40.148 24.5425 40.1746C24.5792 40.558 24.6992 40.8363 24.9025 41.0096C25.1225 41.193 25.3725 41.2546 25.6525 41.1946C25.7958 41.1646 25.9242 41.103 26.0375 41.0096C26.2408 40.8363 26.3608 40.558 26.3975 40.1746C26.4308 39.8946 26.4325 39.598 26.4025 39.2846C26.3992 39.2613 26.3958 39.2396 26.3925 39.2196C26.3692 39.0763 26.3292 38.943 26.2725 38.8196C26.1325 38.5363 25.8992 38.3763 25.5725 38.3396ZM27.8288 38.2446V38.0646H28.5288H29.2338L29.2588 38.0796C29.2921 38.0963 29.3205 38.1346 29.3438 38.1946L29.8688 39.4446L30.3638 40.6246L30.8588 39.4446L31.3838 38.1946C31.4071 38.1346 31.4371 38.0963 31.4738 38.0796L31.4988 38.0646H32.1938H32.8938V38.2446V38.4246H32.6238H32.3538V39.7796V41.1346H32.6238H32.8938V41.3146V41.4946H32.8338C32.8371 41.4946 32.6838 41.4913 32.3738 41.4846C32.1105 41.4813 31.8471 41.4813 31.5838 41.4846C31.2738 41.4913 31.1205 41.4946 31.1238 41.4946H31.0638V41.3146V41.1346H31.3338H31.6038V39.7996L31.5988 38.4746C31.5821 38.508 31.3755 39.0013 30.9788 39.9546C30.5655 40.9346 30.3555 41.428 30.3488 41.4346C30.3321 41.4613 30.3071 41.4796 30.2738 41.4896C30.2405 41.4996 30.1788 41.5013 30.0888 41.4946C30.0755 41.4946 30.0655 41.493 30.0588 41.4896C30.0255 41.4796 30.0005 41.4613 29.9838 41.4346C29.9771 41.428 29.7721 40.9446 29.3688 39.9846C28.9655 39.018 28.7638 38.5363 28.7638 38.5396L28.7588 39.8246V39.8346V41.1346H29.0288H29.2988V41.3146V41.4946H29.2488C29.2521 41.4946 29.1305 41.4913 28.8838 41.4846C28.6705 41.4813 28.4571 41.4813 28.2438 41.4846C27.9971 41.4913 27.8755 41.4946 27.8788 41.4946H27.8288V41.3146V41.1346H28.0988H28.3688V39.7796V38.4246H28.0988H27.8288V38.2446ZM33.2878 38.2746V38.0946H34.8378H36.3928V38.1146C36.3961 38.128 36.4228 38.343 36.4728 38.7596C36.5161 39.1663 36.5411 39.3813 36.5478 39.4046V39.4246H36.3678H36.1878L36.1778 39.3396C36.1478 39.123 36.1078 38.958 36.0578 38.8446C35.9544 38.6346 35.7628 38.5096 35.4828 38.4696C35.3928 38.4596 35.2244 38.4546 34.9778 38.4546H34.6628V38.9996V39.5496H34.7528C34.9061 39.5496 35.0178 39.5313 35.0878 39.4946C35.1444 39.4713 35.1861 39.4346 35.2128 39.3846C35.2594 39.308 35.2828 39.1896 35.2828 39.0296V38.9646H35.4628H35.6428V39.7296V40.4946H35.4628H35.2828V40.4296C35.2828 40.2696 35.2594 40.1513 35.2128 40.0746C35.1861 40.0246 35.1444 39.988 35.0878 39.9646C35.0178 39.928 34.9061 39.9096 34.7528 39.9096H34.6628V40.5196V41.1346H34.9878C35.2244 41.1346 35.3578 41.133 35.3878 41.1296C35.7278 41.1063 35.9678 40.9963 36.1078 40.7996C36.1244 40.7796 36.1461 40.7413 36.1728 40.6846C36.2328 40.568 36.2844 40.3846 36.3278 40.1346C36.3344 40.068 36.3411 40.028 36.3478 40.0146V39.9996H36.5278H36.7078V40.0146C36.7044 40.0213 36.6661 40.2646 36.5928 40.7446C36.5194 41.228 36.4811 41.473 36.4778 41.4796V41.4946H34.8828H33.2878V41.3146V41.1346H33.5578H33.8278V39.7946V38.4546H33.5578H33.2878V38.2746ZM37.0671 38.2446V38.0646H38.1021C38.8021 38.068 39.2104 38.0763 39.3271 38.0896C39.6671 38.1363 39.9404 38.2413 40.1471 38.4046C40.3037 38.538 40.4037 38.7013 40.4471 38.8946C40.4604 38.968 40.4604 39.053 40.4471 39.1496C40.4204 39.253 40.3787 39.3446 40.3221 39.4246C40.2487 39.528 40.1554 39.613 40.0421 39.6796C39.9821 39.713 39.9021 39.7513 39.8021 39.7946L39.7521 39.8146L39.7921 39.8346C39.9054 39.908 39.9904 39.9863 40.0471 40.0696C40.0937 40.1296 40.1254 40.188 40.1421 40.2446C40.1654 40.2946 40.1887 40.4196 40.2121 40.6196C40.2387 40.823 40.2587 40.943 40.2721 40.9796C40.3254 41.153 40.4354 41.2396 40.6021 41.2396C40.6387 41.2396 40.6654 41.2363 40.6821 41.2296C40.7487 41.173 40.7887 41.098 40.8021 41.0046C40.8021 40.968 40.8187 40.938 40.8521 40.9146C40.8754 40.9046 40.9487 40.903 41.0721 40.9096C41.0954 40.9096 41.1087 40.9113 41.1121 40.9146C41.1354 40.928 41.1504 40.948 41.1571 40.9746C41.1704 41.0046 41.1671 41.0563 41.1471 41.1296C41.0937 41.3263 40.9754 41.4563 40.7921 41.5196C40.7587 41.5296 40.7254 41.538 40.6921 41.5446C40.5887 41.5613 40.4137 41.558 40.1671 41.5346C39.7104 41.488 39.4454 41.3213 39.3721 41.0346C39.3654 41.0146 39.3604 40.993 39.3571 40.9696C39.3537 40.9463 39.3521 40.8413 39.3521 40.6546C39.3521 40.4513 39.3437 40.3213 39.3271 40.2646C39.2804 40.118 39.1937 40.0163 39.0671 39.9596C39.0204 39.9396 38.9087 39.9296 38.7321 39.9296H38.6771H38.4121V40.5296V41.1346H38.6821H38.9521V41.3146V41.4946H38.8871C38.8904 41.4946 38.7337 41.4913 38.4171 41.4846C38.1471 41.4813 37.8754 41.4813 37.6021 41.4846C37.2854 41.4913 37.1287 41.4946 37.1321 41.4946H37.0671V41.3146V41.1346H37.3371H37.6071V39.7796V38.4246H37.3371H37.0671V38.2446ZM39.0321 38.4296C39.0054 38.4263 38.8887 38.4246 38.6821 38.4246H38.4121V39.0246V39.6246H38.7321C38.9721 39.6213 39.1287 39.6113 39.2021 39.5946C39.2821 39.578 39.3587 39.5463 39.4321 39.4996C39.4954 39.4496 39.5371 39.3713 39.5571 39.2646C39.5737 39.1513 39.5754 39.0146 39.5621 38.8546C39.5521 38.7013 39.5037 38.5946 39.4171 38.5346C39.4004 38.5246 39.3821 38.5146 39.3621 38.5046C39.2687 38.4646 39.1587 38.4396 39.0321 38.4296ZM12.7862 43.0146C12.9262 43.0013 13.0612 43.0063 13.1912 43.0296C13.3745 43.0563 13.5479 43.123 13.7112 43.2296C13.7312 43.2463 13.7462 43.253 13.7562 43.2496C13.7729 43.233 13.8162 43.1946 13.8862 43.1346C13.9729 43.0613 14.0179 43.023 14.0212 43.0196C14.0312 43.013 14.0545 43.0096 14.0912 43.0096C14.1312 43.0096 14.1562 43.013 14.1662 43.0196C14.1829 43.0296 14.1929 43.053 14.1962 43.0896C14.1995 43.1363 14.2012 43.3096 14.2012 43.6096C14.2012 43.983 14.1895 44.178 14.1662 44.1946C14.1529 44.2013 14.1045 44.2046 14.0212 44.2046C13.9379 44.2046 13.8895 44.2013 13.8762 44.1946C13.8562 44.1846 13.8429 44.1496 13.8362 44.0896C13.8162 43.983 13.7845 43.8846 13.7412 43.7946C13.7012 43.7113 13.6462 43.638 13.5762 43.5746C13.4329 43.4346 13.2329 43.3596 12.9762 43.3496C12.7029 43.3396 12.5295 43.4296 12.4562 43.6196C12.4395 43.6663 12.4312 43.7196 12.4312 43.7796C12.4312 43.8463 12.4429 43.9046 12.4662 43.9546C12.5162 44.058 12.6062 44.1346 12.7362 44.1846C12.7595 44.198 12.8879 44.228 13.1212 44.2746C13.3612 44.3246 13.4945 44.3546 13.5212 44.3646C13.6679 44.4013 13.7995 44.463 13.9162 44.5496C14.1562 44.7263 14.3012 44.968 14.3512 45.2746C14.3645 45.368 14.3645 45.4846 14.3512 45.6246C14.3312 45.7513 14.2929 45.873 14.2362 45.9896C14.1695 46.1263 14.0812 46.2363 13.9712 46.3196C13.8179 46.4363 13.6329 46.5096 13.4162 46.5396C13.3329 46.553 13.2045 46.5546 13.0312 46.5446C13.0145 46.5413 13.0012 46.5396 12.9912 46.5396C12.7045 46.5096 12.4745 46.438 12.3012 46.3246C12.2812 46.3113 12.2662 46.3063 12.2562 46.3096C12.2395 46.3263 12.1962 46.3646 12.1262 46.4246C12.0395 46.498 11.9945 46.5363 11.9912 46.5396C11.9812 46.5463 11.9579 46.5496 11.9212 46.5496C11.8812 46.5496 11.8562 46.5463 11.8462 46.5396C11.8295 46.5296 11.8195 46.5063 11.8162 46.4696C11.8129 46.423 11.8112 46.2513 11.8112 45.9546C11.8112 45.5913 11.8145 45.4046 11.8212 45.3946C11.8245 45.388 11.8312 45.3796 11.8412 45.3696C11.8579 45.3596 11.9062 45.3546 11.9862 45.3546C12.0729 45.3546 12.1229 45.358 12.1362 45.3646C12.1595 45.378 12.1712 45.413 12.1712 45.4696C12.1812 45.6496 12.2445 45.798 12.3612 45.9146C12.4479 46.0013 12.5679 46.0696 12.7212 46.1196C12.9179 46.183 13.1145 46.2046 13.3112 46.1846C13.3379 46.1813 13.3612 46.178 13.3812 46.1746C13.4745 46.1546 13.5512 46.1146 13.6112 46.0546C13.6779 45.988 13.7212 45.898 13.7412 45.7846C13.7679 45.6146 13.7212 45.4696 13.6012 45.3496C13.5512 45.293 13.4862 45.253 13.4062 45.2296C13.3929 45.223 13.2595 45.1913 13.0062 45.1346C12.7662 45.088 12.6295 45.058 12.5962 45.0446C12.3495 44.9746 12.1562 44.843 12.0162 44.6496C11.8729 44.4596 11.8045 44.2463 11.8112 44.0096C11.8212 43.773 11.8912 43.5696 12.0212 43.3996C12.1445 43.233 12.3245 43.118 12.5612 43.0546C12.6412 43.0346 12.7162 43.0213 12.7862 43.0146ZM14.8796 43.2746V43.0946H16.4296H17.9846V43.1146C17.9879 43.128 18.0146 43.343 18.0646 43.7596C18.1079 44.1663 18.1329 44.3813 18.1396 44.4046V44.4246H17.9596H17.7796L17.7696 44.3396C17.7396 44.123 17.6996 43.958 17.6496 43.8446C17.5462 43.6346 17.3546 43.5096 17.0746 43.4696C16.9846 43.4596 16.8162 43.4546 16.5696 43.4546H16.2546V43.9996V44.5496H16.3446C16.4979 44.5496 16.6096 44.5313 16.6796 44.4946C16.7362 44.4713 16.7779 44.4346 16.8046 44.3846C16.8512 44.308 16.8746 44.1896 16.8746 44.0296V43.9646H17.0546H17.2346V44.7296V45.4946H17.0546H16.8746V45.4296C16.8746 45.2696 16.8512 45.1513 16.8046 45.0746C16.7779 45.0246 16.7362 44.988 16.6796 44.9646C16.6096 44.928 16.4979 44.9096 16.3446 44.9096H16.2546V45.5196V46.1346H16.5796C16.8162 46.1346 16.9496 46.133 16.9796 46.1296C17.3196 46.1063 17.5596 45.9963 17.6996 45.7996C17.7162 45.7796 17.7379 45.7413 17.7646 45.6846C17.8246 45.568 17.8762 45.3846 17.9196 45.1346C17.9262 45.068 17.9329 45.028 17.9396 45.0146V44.9996H18.1196H18.2996V45.0146C18.2962 45.0213 18.2579 45.2646 18.1846 45.7446C18.1112 46.228 18.0729 46.473 18.0696 46.4796V46.4946H16.4746H14.8796V46.3146V46.1346H15.1496H15.4196V44.7946V43.4546H15.1496H14.8796V43.2746ZM18.6589 43.2446V43.0646H19.6939C20.3939 43.068 20.8022 43.0763 20.9189 43.0896C21.2589 43.1363 21.5322 43.2413 21.7389 43.4046C21.8955 43.538 21.9955 43.7013 22.0389 43.8946C22.0522 43.968 22.0522 44.053 22.0389 44.1496C22.0122 44.253 21.9705 44.3446 21.9139 44.4246C21.8405 44.528 21.7472 44.613 21.6339 44.6796C21.5739 44.713 21.4939 44.7513 21.3939 44.7946L21.3439 44.8146L21.3839 44.8346C21.4972 44.908 21.5822 44.9863 21.6389 45.0696C21.6855 45.1296 21.7172 45.188 21.7339 45.2446C21.7572 45.2946 21.7805 45.4196 21.8039 45.6196C21.8305 45.823 21.8505 45.943 21.8639 45.9796C21.9172 46.153 22.0272 46.2396 22.1939 46.2396C22.2305 46.2396 22.2572 46.2363 22.2739 46.2296C22.3405 46.173 22.3805 46.098 22.3939 46.0046C22.3939 45.968 22.4105 45.938 22.4439 45.9146C22.4672 45.9046 22.5405 45.903 22.6639 45.9096C22.6872 45.9096 22.7005 45.9113 22.7039 45.9146C22.7272 45.928 22.7422 45.948 22.7489 45.9746C22.7622 46.0046 22.7589 46.0563 22.7389 46.1296C22.6855 46.3263 22.5672 46.4563 22.3839 46.5196C22.3505 46.5296 22.3172 46.538 22.2839 46.5446C22.1805 46.5613 22.0055 46.558 21.7589 46.5346C21.3022 46.488 21.0372 46.3213 20.9639 46.0346C20.9572 46.0146 20.9522 45.993 20.9489 45.9696C20.9455 45.9463 20.9439 45.8413 20.9439 45.6546C20.9439 45.4513 20.9355 45.3213 20.9189 45.2646C20.8722 45.118 20.7855 45.0163 20.6589 44.9596C20.6122 44.9396 20.5005 44.9296 20.3239 44.9296H20.2689H20.0039V45.5296V46.1346H20.2739H20.5439V46.3146V46.4946H20.4789C20.4822 46.4946 20.3255 46.4913 20.0089 46.4846C19.7389 46.4813 19.4672 46.4813 19.1939 46.4846C18.8772 46.4913 18.7205 46.4946 18.7239 46.4946H18.6589V46.3146V46.1346H18.9289H19.1989V44.7796V43.4246H18.9289H18.6589V43.2446ZM20.6239 43.4296C20.5972 43.4263 20.4805 43.4246 20.2739 43.4246H20.0039V44.0246V44.6246H20.3239C20.5639 44.6213 20.7205 44.6113 20.7939 44.5946C20.8739 44.578 20.9505 44.5463 21.0239 44.4996C21.0872 44.4496 21.1289 44.3713 21.1489 44.2646C21.1655 44.1513 21.1672 44.0146 21.1539 43.8546C21.1439 43.7013 21.0955 43.5946 21.0089 43.5346C20.9922 43.5246 20.9739 43.5146 20.9539 43.5046C20.8605 43.4646 20.7505 43.4396 20.6239 43.4296ZM22.9004 43.2446V43.0646H22.9554L23.3754 43.0746C23.6187 43.078 23.8804 43.078 24.1604 43.0746L24.6454 43.0646H24.7104V43.2446V43.4246H24.5004H24.2904L24.7304 44.4596C25.0237 45.1563 25.1704 45.503 25.1704 45.4996L26.0504 43.4346C26.0504 43.428 25.9821 43.4246 25.8454 43.4246H25.6354V43.2446V43.0646H25.6854L26.0554 43.0746C26.2687 43.078 26.4637 43.078 26.6404 43.0746C26.8437 43.068 26.9471 43.0646 26.9504 43.0646H26.9904V43.2446V43.4246H26.7354H26.4754L25.8354 44.9396C25.4021 45.953 25.1837 46.463 25.1804 46.4696C25.1637 46.4963 25.1371 46.5163 25.1004 46.5296C25.0671 46.5396 24.9787 46.5413 24.8354 46.5346C24.8121 46.5346 24.7971 46.533 24.7904 46.5296C24.7537 46.5163 24.7271 46.4963 24.7104 46.4696C24.7071 46.463 24.4887 45.953 24.0554 44.9396L23.4154 43.4246H23.1554H22.9004V43.2446ZM27.2211 43.2446V43.0646H27.2911L27.7811 43.0746C28.0678 43.078 28.3528 43.078 28.6361 43.0746L29.1311 43.0646H29.1961V43.2446V43.4246H28.9111H28.6261V44.7796V46.1346H28.9111H29.1961V46.3146V46.4946H29.1261L28.6361 46.4846C28.3528 46.4813 28.0678 46.4813 27.7811 46.4846L27.2861 46.4946H27.2211V46.3146V46.1346H27.5061H27.7911V44.7796V43.4246H27.5061H27.2211V43.2446ZM31.4888 43.0146H31.7688C31.9055 43.0246 32.0322 43.053 32.1488 43.0996C32.2788 43.143 32.4038 43.2096 32.5238 43.2996C32.5538 43.323 32.5688 43.3313 32.5688 43.3246C32.5722 43.3246 32.6338 43.2746 32.7538 43.1746C32.8872 43.068 32.9522 43.0163 32.9488 43.0196C32.9755 43.003 33.0238 43.003 33.0938 43.0196C33.1105 43.0296 33.1205 43.0463 33.1238 43.0696C33.1272 43.103 33.1288 43.3196 33.1288 43.7196C33.1288 44.163 33.1238 44.3913 33.1138 44.4046L33.0938 44.4146C33.0805 44.4213 33.0272 44.4246 32.9338 44.4246C32.8405 44.4246 32.7872 44.4213 32.7738 44.4146C32.7505 44.398 32.7372 44.373 32.7338 44.3396C32.7072 44.093 32.6188 43.8796 32.4688 43.6996C32.4022 43.6263 32.3388 43.568 32.2788 43.5246C32.1722 43.448 32.0605 43.4013 31.9438 43.3846C31.7972 43.3546 31.6172 43.363 31.4038 43.4096C31.1905 43.453 31.0188 43.5296 30.8888 43.6396C30.8122 43.6996 30.7555 43.7596 30.7188 43.8196C30.5788 44.023 30.5088 44.343 30.5088 44.7796C30.5088 45.2363 30.5872 45.5663 30.7438 45.7696C30.7605 45.793 30.7805 45.8163 30.8038 45.8396C30.8472 45.883 30.8755 45.9096 30.8888 45.9196C31.0188 46.0296 31.1905 46.1063 31.4038 46.1496C31.5905 46.1896 31.7555 46.2013 31.8988 46.1846C32.2022 46.1546 32.4372 46.0196 32.6038 45.7796C32.7038 45.6396 32.7588 45.4846 32.7688 45.3146C32.7688 45.258 32.7805 45.223 32.8038 45.2096C32.8172 45.203 32.8655 45.1996 32.9488 45.1996C33.0322 45.1996 33.0805 45.203 33.0938 45.2096C33.1172 45.2263 33.1288 45.2646 33.1288 45.3246C33.1188 45.4846 33.0822 45.6296 33.0188 45.7596C32.8622 46.0863 32.5938 46.3163 32.2138 46.4496C32.0738 46.4996 31.9255 46.5313 31.7688 46.5446C31.6622 46.5546 31.5272 46.553 31.3638 46.5396C30.9438 46.493 30.5938 46.373 30.3138 46.1796C30.0472 45.983 29.8572 45.738 29.7438 45.4446C29.6938 45.318 29.6555 45.168 29.6288 44.9946C29.6155 44.8746 29.6155 44.738 29.6288 44.5846C29.6288 44.5746 29.6288 44.5663 29.6288 44.5596C29.6622 44.293 29.7455 44.053 29.8788 43.8396C30.0822 43.5096 30.3905 43.2746 30.8038 43.1346C31.0172 43.068 31.2455 43.028 31.4888 43.0146ZM33.6491 43.2746V43.0946H35.1991H36.7541V43.1146C36.7574 43.128 36.7841 43.343 36.8341 43.7596C36.8774 44.1663 36.9024 44.3813 36.9091 44.4046V44.4246H36.7291H36.5491L36.5391 44.3396C36.5091 44.123 36.4691 43.958 36.4191 43.8446C36.3158 43.6346 36.1241 43.5096 35.8441 43.4696C35.7541 43.4596 35.5858 43.4546 35.3391 43.4546H35.0241V43.9996V44.5496H35.1141C35.2674 44.5496 35.3791 44.5313 35.4491 44.4946C35.5058 44.4713 35.5474 44.4346 35.5741 44.3846C35.6208 44.308 35.6441 44.1896 35.6441 44.0296V43.9646H35.8241H36.0041V44.7296V45.4946H35.8241H35.6441V45.4296C35.6441 45.2696 35.6208 45.1513 35.5741 45.0746C35.5474 45.0246 35.5058 44.988 35.4491 44.9646C35.3791 44.928 35.2674 44.9096 35.1141 44.9096H35.0241V45.5196V46.1346H35.3491C35.5858 46.1346 35.7191 46.133 35.7491 46.1296C36.0891 46.1063 36.3291 45.9963 36.4691 45.7996C36.4858 45.7796 36.5074 45.7413 36.5341 45.6846C36.5941 45.568 36.6458 45.3846 36.6891 45.1346C36.6958 45.068 36.7024 45.028 36.7091 45.0146V44.9996H36.8891H37.0691V45.0146C37.0658 45.0213 37.0274 45.2646 36.9541 45.7446C36.8808 46.228 36.8424 46.473 36.8391 46.4796V46.4946H35.2441H33.6491V46.3146V46.1346H33.9191H34.1891V44.7946V43.4546H33.9191H33.6491V43.2746Z" fill="#E1E0E6"/>
<path d="M33.3152 21.8282C35.0734 16.4082 34.9467 16.7268 36.9114 10.6796C35.4001 11.029 34.6685 11.2401 33.2567 11.7238C32.8976 13.226 32.7179 15.3644 32.3579 16.8666C32.3301 16.9792 32.317 17.0358 32.2897 17.1484C31.0046 17.672 30.3871 17.9649 29.2141 18.5976C28.2926 17.6331 27.7977 17.1651 26.7424 16.2718C26.752 16.1562 26.7555 16.0991 26.7651 15.983C26.8853 14.4429 26.9459 12.2853 27.0671 10.7447C25.8815 9.85049 25.2559 9.42432 23.943 8.625C22.6297 9.42432 22.0046 9.85049 20.819 10.7447C20.9396 12.2848 20.9997 14.4424 21.1209 15.983C21.1305 16.0986 21.134 16.1557 21.1436 16.2718C20.0878 17.1656 19.593 17.6331 18.672 18.5976C17.4985 17.9639 16.8819 17.6715 15.5964 17.1479C15.5691 17.0343 15.5555 16.9787 15.5287 16.8661C15.1692 15.3639 14.9884 13.225 14.6294 11.7228C13.2186 11.2391 12.4854 11.028 10.9736 10.6791C12.9394 16.7268 12.8116 16.4076 14.5703 21.8277L33.3152 21.8282Z" fill="#E1E0E6"/>
<path d="M32.1002 25.0186H15.7775C15.2675 25.0186 14.8691 24.6051 14.8691 24.0941V22.7529H33.0152V24.0941C33.0152 24.6051 32.6107 25.0186 32.1002 25.0186Z" fill="#E1E0E6"/>
<path d="M41.5485 51.44H6.33446C3.33158 51.44 0.888672 48.9971 0.888672 45.9942V7.95196C0.888672 7.67828 1.11035 7.45712 1.38352 7.45712H2.95085L1.31081 2.41024C1.25628 2.24058 1.29616 2.05425 1.41684 1.92246C1.53752 1.79118 1.71931 1.73412 1.89301 1.77502L12.466 4.21843C14.1777 4.6138 15.1452 4.89051 16.7791 5.45049L16.81 5.46109L16.8246 5.45049C18.2066 4.40778 18.9958 3.87204 20.4925 2.96062L23.6832 1.01862C23.8407 0.922178 24.0402 0.922178 24.1982 1.01862L27.389 2.96062C28.8922 3.87608 29.6814 4.41182 31.0594 5.45149L31.073 5.4621L31.1038 5.45149C32.7534 4.88546 33.68 4.62036 35.414 4.21893L45.9889 1.77149C46.1642 1.73059 46.3454 1.78764 46.4656 1.91893C46.5858 2.05021 46.6267 2.23654 46.5716 2.4062L44.9301 7.45661H46.4979C46.7716 7.45661 46.9928 7.67828 46.9928 7.95146V45.9942C46.9938 48.9971 44.5509 51.44 41.5485 51.44ZM1.87887 8.4468V45.9942C1.87887 48.4507 3.87792 50.4498 6.33446 50.4498H41.5485C44.005 50.4498 46.0036 48.4512 46.0036 45.9942V8.4468H44.2499C44.0914 8.4468 43.9429 8.37106 43.8495 8.24281C43.7566 8.11455 43.7303 7.94943 43.7788 7.79896L45.3603 2.93285L35.6372 5.18287C33.9421 5.5752 33.0367 5.83424 31.4249 6.38715L31.1457 6.48258C30.9897 6.53611 30.819 6.50833 30.6877 6.41038L30.4635 6.24223C29.1159 5.22427 28.3443 4.70115 26.8744 3.80589L23.9412 2.02042L21.007 3.80589C19.5432 4.69711 18.7727 5.22074 17.4199 6.24122L17.1947 6.40987C17.0634 6.50884 16.8918 6.5356 16.7372 6.48208L16.458 6.38614C14.8614 5.83878 13.9161 5.56864 12.2423 5.18236L2.52266 2.93639L4.10262 7.79846C4.1516 7.94943 4.12534 8.11405 4.03193 8.2423C3.93902 8.37056 3.79057 8.4463 3.63151 8.4463L1.87887 8.4468Z" fill="#E1E0E6"/>
<path d="M41.5465 49.7069H6.33247C4.28494 49.7069 2.61914 48.0416 2.61914 45.9941V9.43691C2.61914 9.30008 2.73023 9.18949 2.86656 9.18949H5.3337L3.76788 4.37135C3.74011 4.28652 3.76031 4.19311 3.8204 4.12746C3.88049 4.06182 3.97188 4.03506 4.05873 4.05374L12.0737 5.90587C13.7187 6.28558 14.6473 6.55118 16.2142 7.08894L17.114 7.39696L17.8613 6.83647C19.1938 5.83063 19.9527 5.31559 21.3903 4.44002L23.8095 2.96762C23.8887 2.91965 23.9877 2.91965 24.067 2.96762L26.4862 4.44002C27.9313 5.32013 28.6892 5.83467 30.0127 6.83395L30.7635 7.39796L31.6633 7.08945C33.2473 6.54613 34.1365 6.29164 35.8023 5.90587L43.8187 4.05071C43.9066 4.03153 43.997 4.0593 44.0571 4.12443C44.1172 4.19008 44.1374 4.28349 44.1101 4.36782L42.5433 9.18848H45.0099C45.1467 9.18848 45.2573 9.29906 45.2573 9.4359V45.9931C45.2593 48.0416 43.594 49.7069 41.5465 49.7069ZM3.11449 9.68433V45.9946C3.11449 47.769 4.55811 49.2126 6.33247 49.2126H41.5465C43.3209 49.2126 44.764 47.769 44.764 45.9946V9.68433H42.2045C42.1252 9.68433 42.0505 9.64646 42.0045 9.58234C41.9575 9.51821 41.9449 9.4354 41.9697 9.36067L43.5057 4.6319L35.9154 6.38859C34.2698 6.76931 33.3912 7.02077 31.8254 7.55803L30.8019 7.90896C30.7246 7.93472 30.6378 7.92159 30.5732 7.87261L29.7173 7.22982C28.4085 6.24165 27.6591 5.73318 26.2307 4.86367L23.9392 3.46953L21.6488 4.86316C20.2279 5.72813 19.4776 6.23761 18.1597 7.23184L17.3069 7.8716C17.2412 7.92159 17.1554 7.93472 17.0781 7.90795L16.0551 7.55753C14.507 7.02633 13.5885 6.76376 11.9631 6.38859L4.37482 4.63493L5.91035 9.36067C5.93509 9.4359 5.92196 9.51821 5.8755 9.58234C5.82905 9.64646 5.75483 9.68433 5.67555 9.68433H3.11449Z" fill="#E1E0E6"/>
<path d="M41.1558 28.6594C41.1558 28.6594 40.618 28.7028 39.6763 28.7553C38.7351 28.7977 37.3904 28.8866 35.7766 28.9426C34.1628 29.0063 32.2804 29.0588 30.2632 29.0946C29.2548 29.1073 28.2126 29.135 27.1538 29.1371C26.0944 29.1426 25.0184 29.1482 23.9434 29.1542C22.8673 29.1487 21.7913 29.1431 20.7329 29.1376C19.6736 29.1376 18.6324 29.1083 17.6235 29.0956C15.6068 29.0613 13.7244 29.0083 12.1106 28.9442C10.4968 28.8886 9.15213 28.7987 8.21042 28.7563C7.26921 28.7038 6.73145 28.6599 6.73145 28.6599C6.73145 28.6599 7.2687 28.616 8.21042 28.5634C9.15163 28.521 10.4963 28.4306 12.1106 28.3756C13.7244 28.3115 15.6068 28.2585 17.6235 28.2241C18.6324 28.2115 19.6741 28.1822 20.7329 28.1817C21.7918 28.1762 22.8678 28.1706 23.9434 28.165C25.0189 28.1711 26.0949 28.1767 27.1538 28.1822C28.2126 28.1842 29.2548 28.212 30.2632 28.2246C32.2804 28.26 34.1628 28.313 35.7766 28.3766C37.3899 28.4322 38.7346 28.5215 39.6763 28.5639C40.6175 28.6154 41.1558 28.6594 41.1558 28.6594Z" fill="#E1E0E6"/>
<path d="M12.9766 35.6006H13.4457V32.0408H12.9766V30.9971H15.9936C17.3367 30.9971 17.976 31.4985 17.976 32.3801C17.976 33.0598 17.7902 33.3915 17.1832 33.6339C17.7659 33.796 18.2512 34.2246 18.2512 35.0093C18.2512 36.15 17.6119 36.6514 16.0506 36.6514H12.9771V35.6006H12.9766ZM15.12 33.2784H15.6139C16.0431 33.2784 16.1643 33.0441 16.1643 32.6553C16.1643 32.2837 15.9375 32.065 15.6295 32.065H15.12V33.2784ZM15.7679 35.6006C16.1077 35.6006 16.4228 35.3416 16.4228 34.9048C16.4228 34.4923 16.1885 34.1928 15.7436 34.1928H15.1205V35.6006H15.7679Z" fill="#E1E0E6"/>
<path d="M23.4153 30.9971V32.7851H22.0156V32.0655H20.722V33.1814H22.2585V34.2575H20.722V35.5764H22.0156V34.8235H23.4153V36.6519H18.5371V35.5764H19.0476V32.065H18.5371V30.9971H23.4153Z" fill="#E1E0E6"/>
<path d="M23.8203 34.6134H25.325C25.325 35.293 26.0047 35.4061 26.3445 35.4223C26.6278 35.4223 27.0322 35.3577 27.0322 35.0178C27.0322 34.3872 23.9258 34.6538 23.9258 32.5911C23.9258 31.3934 25.0584 30.8516 25.8512 30.8516C26.5303 30.8516 27.2181 31.0702 27.5417 31.6766L27.623 30.997H29.0141V33.0274H27.5503C27.5503 32.429 27.0807 32.0892 26.5147 32.0892C26.2799 32.0892 25.9562 32.2346 25.9562 32.5179C25.9562 33.351 29.1601 33.1571 29.1601 35.0582C29.1601 36.3196 27.979 36.773 27.0161 36.773C26.1996 36.773 25.6336 36.3928 25.3255 36.0287L25.2367 36.6513H23.8203V34.6134Z" fill="#E1E0E6"/>
<path d="M34.9076 33.1007H33.7185V32.065H33.0388V35.5764H33.7104V36.6519H30.7009V35.5764H31.3644V32.065H30.6686V33.1007H29.4795V30.9971H34.9081V33.1007H34.9076Z" fill="#E1E0E6"/>
</svg>
