<svg width="74" height="81" viewBox="0 0 74 81" fill="none" xmlns="http://www.w3.org/2000/svg">
<path d="M16.8383 60.9542H17.2303C17.4216 60.9682 17.5989 61.0078 17.7623 61.0732C17.9443 61.1338 18.1193 61.2272 18.2873 61.3532C18.3293 61.3858 18.3503 61.3975 18.3503 61.3882C18.3549 61.3882 18.4413 61.3182 18.6093 61.1782C18.7959 61.0288 18.8869 60.9565 18.8823 60.9612C18.9196 60.9378 18.9873 60.9378 19.0853 60.9612C19.1086 60.9752 19.1226 60.9985 19.1273 61.0312C19.1319 61.0778 19.1343 61.3812 19.1343 61.9412C19.1343 62.5618 19.1273 62.8815 19.1133 62.9002L19.0853 62.9142C19.0666 62.9235 18.9919 62.9282 18.8613 62.9282C18.7306 62.9282 18.6559 62.9235 18.6373 62.9142C18.6046 62.8908 18.5859 62.8558 18.5813 62.8092C18.5439 62.4638 18.4203 62.1652 18.2103 61.9132C18.1169 61.8105 18.0283 61.7288 17.9443 61.6682C17.7949 61.5608 17.6386 61.4955 17.4753 61.4722C17.2699 61.4302 17.0179 61.4418 16.7193 61.5072C16.4206 61.5678 16.1803 61.6752 15.9983 61.8292C15.8909 61.9132 15.8116 61.9972 15.7603 62.0812C15.5643 62.3658 15.4663 62.8138 15.4663 63.4252C15.4663 64.0645 15.5759 64.5265 15.7953 64.8112C15.8186 64.8438 15.8466 64.8765 15.8793 64.9092C15.9399 64.9698 15.9796 65.0072 15.9983 65.0212C16.1803 65.1752 16.4206 65.2825 16.7193 65.3432C16.9806 65.3992 17.2116 65.4155 17.4123 65.3922C17.8369 65.3502 18.1659 65.1612 18.3993 64.8252C18.5393 64.6292 18.6163 64.4122 18.6303 64.1742C18.6303 64.0948 18.6466 64.0458 18.6793 64.0272C18.6979 64.0178 18.7656 64.0132 18.8823 64.0132C18.9989 64.0132 19.0666 64.0178 19.0853 64.0272C19.1179 64.0505 19.1343 64.1042 19.1343 64.1882C19.1203 64.4122 19.0689 64.6152 18.9803 64.7972C18.7609 65.2545 18.3853 65.5765 17.8533 65.7632C17.6573 65.8332 17.4496 65.8775 17.2303 65.8962C17.0809 65.9102 16.8919 65.9078 16.6633 65.8892C16.0753 65.8238 15.5853 65.6558 15.1933 65.3852C14.8199 65.1098 14.5539 64.7668 14.3953 64.3562C14.3253 64.1788 14.2716 63.9688 14.2343 63.7262C14.2156 63.5582 14.2156 63.3668 14.2343 63.1522C14.2343 63.1382 14.2343 63.1265 14.2343 63.1172C14.2809 62.7438 14.3976 62.4078 14.5843 62.1092C14.8689 61.6472 15.3006 61.3182 15.8793 61.1222C16.1779 61.0288 16.4976 60.9728 16.8383 60.9542ZM19.8626 61.2762V61.0242H19.9536C19.949 61.0242 20.173 61.0288 20.6256 61.0382C21.013 61.0428 21.4003 61.0428 21.7876 61.0382L22.4526 61.0242H22.5436V61.2762V61.5282H22.1656H21.7876V63.0402C21.7923 64.0855 21.8016 64.6408 21.8156 64.7062C21.8156 64.7155 21.8203 64.7342 21.8296 64.7622C21.867 64.9395 21.944 65.0772 22.0606 65.1752C22.252 65.3292 22.539 65.4038 22.9216 65.3992C23.365 65.3852 23.694 65.2708 23.9086 65.0562C24.044 64.9162 24.1373 64.7178 24.1886 64.4612C24.1933 64.4192 24.198 63.9175 24.2026 62.9562V61.5282H23.8246H23.4466V61.2762V61.0242H23.5166L24.0276 61.0382C24.3263 61.0428 24.625 61.0428 24.9236 61.0382C25.269 61.0288 25.4393 61.0242 25.4346 61.0242H25.5046V61.2762V61.5282H25.1266H24.7486V62.9212C24.7486 63.8685 24.7463 64.3608 24.7416 64.3982C24.7136 64.7202 24.604 65.0025 24.4126 65.2452C24.2026 65.5158 23.9133 65.7025 23.5446 65.8052C23.3393 65.8658 23.127 65.8985 22.9076 65.9032C22.4503 65.9125 22.0536 65.8495 21.7176 65.7142C21.6056 65.6722 21.489 65.6138 21.3676 65.5392C21.1996 65.4365 21.0573 65.3105 20.9406 65.1612C20.7586 64.9232 20.6536 64.6618 20.6256 64.3772C20.621 64.3445 20.6186 63.8568 20.6186 62.9142V61.5282H20.2406H19.8626V61.2762ZM27.596 60.9542C27.792 60.9355 27.981 60.9425 28.163 60.9752C28.4197 61.0125 28.6623 61.1058 28.891 61.2552C28.919 61.2785 28.94 61.2878 28.954 61.2832C28.9773 61.2598 29.038 61.2062 29.136 61.1222C29.2573 61.0195 29.3203 60.9658 29.325 60.9612C29.339 60.9518 29.3717 60.9472 29.423 60.9472C29.479 60.9472 29.514 60.9518 29.528 60.9612C29.5513 60.9752 29.5653 61.0078 29.57 61.0592C29.5747 61.1245 29.577 61.3672 29.577 61.7872C29.577 62.3098 29.5607 62.5828 29.528 62.6062C29.5093 62.6155 29.4417 62.6202 29.325 62.6202C29.2083 62.6202 29.1407 62.6155 29.122 62.6062C29.094 62.5922 29.0753 62.5432 29.066 62.4592C29.038 62.3098 28.9937 62.1722 28.933 62.0462C28.877 61.9295 28.8 61.8268 28.702 61.7382C28.5013 61.5422 28.2213 61.4372 27.862 61.4232C27.4793 61.4092 27.2367 61.5352 27.134 61.8012C27.1107 61.8665 27.099 61.9412 27.099 62.0252C27.099 62.1185 27.1153 62.2002 27.148 62.2702C27.218 62.4148 27.344 62.5222 27.526 62.5922C27.5587 62.6108 27.7383 62.6528 28.065 62.7182C28.401 62.7882 28.5877 62.8302 28.625 62.8442C28.8303 62.8955 29.0147 62.9818 29.178 63.1032C29.514 63.3505 29.717 63.6888 29.787 64.1182C29.8057 64.2488 29.8057 64.4122 29.787 64.6082C29.759 64.7855 29.7053 64.9558 29.626 65.1192C29.5327 65.3105 29.409 65.4645 29.255 65.5812C29.0403 65.7445 28.7813 65.8472 28.478 65.8892C28.3613 65.9078 28.1817 65.9102 27.939 65.8962C27.9157 65.8915 27.897 65.8892 27.883 65.8892C27.4817 65.8472 27.1597 65.7468 26.917 65.5882C26.889 65.5695 26.868 65.5625 26.854 65.5672C26.8307 65.5905 26.77 65.6442 26.672 65.7282C26.5507 65.8308 26.4877 65.8845 26.483 65.8892C26.469 65.8985 26.4363 65.9032 26.385 65.9032C26.329 65.9032 26.294 65.8985 26.28 65.8892C26.2567 65.8752 26.2427 65.8425 26.238 65.7912C26.2333 65.7258 26.231 65.4855 26.231 65.0702C26.231 64.5615 26.2357 64.3002 26.245 64.2862C26.2497 64.2768 26.259 64.2652 26.273 64.2512C26.2963 64.2372 26.364 64.2302 26.476 64.2302C26.5973 64.2302 26.6673 64.2348 26.686 64.2442C26.7187 64.2628 26.735 64.3118 26.735 64.3912C26.749 64.6432 26.8377 64.8508 27.001 65.0142C27.1223 65.1355 27.2903 65.2312 27.505 65.3012C27.7803 65.3898 28.0557 65.4202 28.331 65.3922C28.3683 65.3875 28.401 65.3828 28.429 65.3782C28.5597 65.3502 28.667 65.2942 28.751 65.2102C28.8443 65.1168 28.905 64.9908 28.933 64.8322C28.9703 64.5942 28.905 64.3912 28.737 64.2232C28.667 64.1438 28.576 64.0878 28.464 64.0552C28.4453 64.0458 28.2587 64.0015 27.904 63.9222C27.568 63.8568 27.3767 63.8148 27.33 63.7962C26.9847 63.6982 26.714 63.5138 26.518 63.2432C26.3173 62.9772 26.2217 62.6785 26.231 62.3472C26.245 62.0158 26.343 61.7312 26.525 61.4932C26.6977 61.2598 26.9497 61.0988 27.281 61.0102C27.393 60.9822 27.498 60.9635 27.596 60.9542ZM30.6877 61.1432V61.1012H33.0467H35.4127V61.1432L35.4897 62.0322C35.5317 62.6155 35.555 62.9118 35.5597 62.9212V62.9632H35.3077C35.1397 62.9632 35.0557 62.9608 35.0557 62.9562C35.0557 62.8628 35.044 62.7415 35.0207 62.5922C34.9927 62.3822 34.953 62.2095 34.9017 62.0742C34.8317 61.9108 34.7127 61.7895 34.5447 61.7102C34.4747 61.6728 34.3814 61.6448 34.2647 61.6262C34.2227 61.6168 34.1037 61.6098 33.9077 61.6052H33.6347V63.4602V65.3222H34.1737H34.7057V65.5742V65.8262H34.5937L33.7677 65.8122C33.287 65.8075 32.8087 65.8075 32.3327 65.8122L31.5067 65.8262H31.3947V65.5742V65.3222H31.9337H32.4657V63.4602V61.6052H32.1927C31.9967 61.6098 31.8777 61.6168 31.8357 61.6262C31.6164 61.6682 31.4484 61.7498 31.3317 61.8712C31.257 61.9458 31.1964 62.0578 31.1497 62.2072C31.1124 62.3425 31.082 62.5502 31.0587 62.8302C31.0494 62.9095 31.0447 62.9515 31.0447 62.9562C31.0447 62.9608 30.9607 62.9632 30.7927 62.9632H30.5407V62.9212L30.6177 62.0322C30.6597 61.4488 30.683 61.1525 30.6877 61.1432ZM38.6383 60.9542C38.7923 60.9448 38.986 60.9472 39.2193 60.9612C39.854 61.0312 40.365 61.2575 40.7523 61.6402C41.1303 62.0182 41.3567 62.5152 41.4313 63.1312C41.45 63.3178 41.45 63.5208 41.4313 63.7402C41.4313 63.7495 41.4313 63.7588 41.4313 63.7682C41.3613 64.3515 41.1467 64.8275 40.7873 65.1962C40.6147 65.3642 40.4187 65.5042 40.1993 65.6162C39.91 65.7562 39.5833 65.8472 39.2193 65.8892C39.0233 65.9078 38.804 65.9078 38.5613 65.8892C38.5473 65.8892 38.5357 65.8892 38.5263 65.8892C37.8637 65.8098 37.3433 65.5788 36.9653 65.1962C36.6013 64.8322 36.3843 64.3562 36.3143 63.7682C36.2957 63.5908 36.2957 63.3902 36.3143 63.1662C36.3143 63.1522 36.3143 63.1405 36.3143 63.1312C36.3517 62.8512 36.41 62.6132 36.4893 62.4172C36.6993 61.8805 37.0517 61.4908 37.5463 61.2482C37.8637 61.0848 38.2277 60.9868 38.6383 60.9542ZM39.0163 61.4092C38.6243 61.3672 38.2907 61.4722 38.0153 61.7242C37.95 61.7848 37.8917 61.8525 37.8403 61.9272C37.7143 62.1185 37.628 62.3565 37.5813 62.6412C37.5347 62.9818 37.5277 63.3878 37.5603 63.8592C37.565 63.9012 37.5697 63.9408 37.5743 63.9782C37.6257 64.5148 37.7937 64.9045 38.0783 65.1472C38.3863 65.4038 38.7363 65.4902 39.1283 65.4062C39.329 65.3642 39.5087 65.2778 39.6673 65.1472C39.952 64.9045 40.12 64.5148 40.1713 63.9782C40.218 63.5862 40.2203 63.1708 40.1783 62.7322C40.1737 62.6995 40.169 62.6692 40.1643 62.6412C40.1317 62.4405 40.0757 62.2538 39.9963 62.0812C39.8003 61.6845 39.4737 61.4605 39.0163 61.4092ZM42.1751 61.2762V61.0242H43.1551H44.1421L44.1771 61.0452C44.2238 61.0685 44.2635 61.1222 44.2961 61.2062L45.0311 62.9562L45.7241 64.6082L46.4171 62.9562L47.1521 61.2062C47.1848 61.1222 47.2268 61.0685 47.2781 61.0452L47.3131 61.0242H48.2861H49.2661V61.2762V61.5282H48.8881H48.5101V63.4252V65.3222H48.8881H49.2661V65.5742V65.8262H49.1821C49.1868 65.8262 48.9721 65.8215 48.5381 65.8122C48.1695 65.8075 47.8008 65.8075 47.4321 65.8122C46.9981 65.8215 46.7835 65.8262 46.7881 65.8262H46.7041V65.5742V65.3222H47.0821H47.4601V63.4532L47.4531 61.5982C47.4298 61.6448 47.1405 62.3355 46.5851 63.6702C46.0065 65.0422 45.7125 65.7328 45.7031 65.7422C45.6798 65.7795 45.6448 65.8052 45.5981 65.8192C45.5515 65.8332 45.4651 65.8355 45.3391 65.8262C45.3205 65.8262 45.3065 65.8238 45.2971 65.8192C45.2505 65.8052 45.2155 65.7795 45.1921 65.7422C45.1828 65.7328 44.8958 65.0562 44.3311 63.7122C43.7665 62.3588 43.4841 61.6845 43.4841 61.6892L43.4771 63.4882V63.5022V65.3222H43.8551H44.2331V65.5742V65.8262H44.1631C44.1678 65.8262 43.9975 65.8215 43.6521 65.8122C43.3535 65.8075 43.0548 65.8075 42.7561 65.8122C42.4108 65.8215 42.2405 65.8262 42.2451 65.8262H42.1751V65.5742V65.3222H42.5531H42.9311V63.4252V61.5282H42.5531H42.1751V61.2762ZM49.8177 61.3182V61.0662H51.9877H54.1647V61.0942C54.1694 61.1128 54.2067 61.4138 54.2767 61.9972C54.3374 62.5665 54.3724 62.8675 54.3817 62.9002V62.9282H54.1297H53.8777L53.8637 62.8092C53.8217 62.5058 53.7657 62.2748 53.6957 62.1162C53.551 61.8222 53.2827 61.6472 52.8907 61.5912C52.7647 61.5772 52.529 61.5702 52.1837 61.5702H51.7427V62.3332V63.1032H51.8687C52.0834 63.1032 52.2397 63.0775 52.3377 63.0262C52.417 62.9935 52.4754 62.9422 52.5127 62.8722C52.578 62.7648 52.6107 62.5992 52.6107 62.3752V62.2842H52.8627H53.1147V63.3552V64.4262H52.8627H52.6107V64.3352C52.6107 64.1112 52.578 63.9455 52.5127 63.8382C52.4754 63.7682 52.417 63.7168 52.3377 63.6842C52.2397 63.6328 52.0834 63.6072 51.8687 63.6072H51.7427V64.4612V65.3222H52.1977C52.529 65.3222 52.7157 65.3198 52.7577 65.3152C53.2337 65.2825 53.5697 65.1285 53.7657 64.8532C53.789 64.8252 53.8194 64.7715 53.8567 64.6922C53.9407 64.5288 54.013 64.2722 54.0737 63.9222C54.083 63.8288 54.0924 63.7728 54.1017 63.7542V63.7332H54.3537H54.6057V63.7542C54.601 63.7635 54.5474 64.1042 54.4447 64.7762C54.342 65.4528 54.2884 65.7958 54.2837 65.8052V65.8262H52.0507H49.8177V65.5742V65.3222H50.1957H50.5737V63.4462V61.5702H50.1957H49.8177V61.3182ZM55.1087 61.2762V61.0242H56.5577C57.5377 61.0288 58.1094 61.0405 58.2727 61.0592C58.7487 61.1245 59.1314 61.2715 59.4207 61.5002C59.6401 61.6868 59.7801 61.9155 59.8407 62.1862C59.8594 62.2888 59.8594 62.4078 59.8407 62.5432C59.8034 62.6878 59.7451 62.8162 59.6657 62.9282C59.5631 63.0728 59.4324 63.1918 59.2737 63.2852C59.1897 63.3318 59.0777 63.3855 58.9377 63.4462L58.8677 63.4742L58.9237 63.5022C59.0824 63.6048 59.2014 63.7145 59.2807 63.8312C59.3461 63.9152 59.3904 63.9968 59.4137 64.0762C59.4464 64.1462 59.4791 64.3212 59.5117 64.6012C59.5491 64.8858 59.5771 65.0538 59.5957 65.1052C59.6704 65.3478 59.8244 65.4692 60.0577 65.4692C60.1091 65.4692 60.1464 65.4645 60.1697 65.4552C60.2631 65.3758 60.3191 65.2708 60.3377 65.1402C60.3377 65.0888 60.3611 65.0468 60.4077 65.0142C60.4404 65.0002 60.5431 64.9978 60.7157 65.0072C60.7484 65.0072 60.7671 65.0095 60.7717 65.0142C60.8044 65.0328 60.8254 65.0608 60.8347 65.0982C60.8534 65.1402 60.8487 65.2125 60.8207 65.3152C60.7461 65.5905 60.5804 65.7725 60.3237 65.8612C60.2771 65.8752 60.2304 65.8868 60.1837 65.8962C60.0391 65.9195 59.7941 65.9148 59.4487 65.8822C58.8094 65.8168 58.4384 65.5835 58.3357 65.1822C58.3264 65.1542 58.3194 65.1238 58.3147 65.0912C58.3101 65.0585 58.3077 64.9115 58.3077 64.6502C58.3077 64.3655 58.2961 64.1835 58.2727 64.1042C58.2074 63.8988 58.0861 63.7565 57.9087 63.6772C57.8434 63.6492 57.6871 63.6352 57.4397 63.6352H57.3627H56.9917V64.4752V65.3222H57.3697H57.7477V65.5742V65.8262H57.6567C57.6614 65.8262 57.4421 65.8215 56.9987 65.8122C56.6207 65.8075 56.2404 65.8075 55.8577 65.8122C55.4144 65.8215 55.1951 65.8262 55.1997 65.8262H55.1087V65.5742V65.3222H55.4867H55.8647V63.4252V61.5282H55.4867H55.1087V61.2762ZM57.8597 61.5352C57.8224 61.5305 57.6591 61.5282 57.3697 61.5282H56.9917V62.3682V63.2082H57.4397C57.7757 63.2035 57.9951 63.1895 58.0977 63.1662C58.2097 63.1428 58.3171 63.0985 58.4197 63.0332C58.5084 62.9632 58.5667 62.8535 58.5947 62.7042C58.6181 62.5455 58.6204 62.3542 58.6017 62.1302C58.5877 61.9155 58.5201 61.7662 58.3987 61.6822C58.3754 61.6682 58.3497 61.6542 58.3217 61.6402C58.1911 61.5842 58.0371 61.5492 57.8597 61.5352ZM21.1155 68.9542C21.3115 68.9355 21.5005 68.9425 21.6825 68.9752C21.9392 69.0125 22.1819 69.1058 22.4105 69.2552C22.4385 69.2785 22.4595 69.2878 22.4735 69.2832C22.4969 69.2598 22.5575 69.2062 22.6555 69.1222C22.7769 69.0195 22.8399 68.9658 22.8445 68.9612C22.8585 68.9518 22.8912 68.9472 22.9425 68.9472C22.9985 68.9472 23.0335 68.9518 23.0475 68.9612C23.0709 68.9752 23.0849 69.0078 23.0895 69.0592C23.0942 69.1245 23.0965 69.3672 23.0965 69.7872C23.0965 70.3098 23.0802 70.5828 23.0475 70.6062C23.0289 70.6155 22.9612 70.6202 22.8445 70.6202C22.7279 70.6202 22.6602 70.6155 22.6415 70.6062C22.6135 70.5922 22.5949 70.5432 22.5855 70.4592C22.5575 70.3098 22.5132 70.1722 22.4525 70.0462C22.3965 69.9295 22.3195 69.8268 22.2215 69.7382C22.0209 69.5422 21.7409 69.4372 21.3815 69.4232C20.9989 69.4092 20.7562 69.5352 20.6535 69.8012C20.6302 69.8665 20.6185 69.9412 20.6185 70.0252C20.6185 70.1185 20.6349 70.2002 20.6675 70.2702C20.7375 70.4148 20.8635 70.5222 21.0455 70.5922C21.0782 70.6108 21.2579 70.6528 21.5845 70.7182C21.9205 70.7882 22.1072 70.8302 22.1445 70.8442C22.3499 70.8955 22.5342 70.9818 22.6975 71.1032C23.0335 71.3505 23.2365 71.6888 23.3065 72.1182C23.3252 72.2488 23.3252 72.4122 23.3065 72.6082C23.2785 72.7855 23.2249 72.9558 23.1455 73.1192C23.0522 73.3105 22.9285 73.4645 22.7745 73.5812C22.5599 73.7445 22.3009 73.8472 21.9975 73.8892C21.8809 73.9078 21.7012 73.9102 21.4585 73.8962C21.4352 73.8915 21.4165 73.8892 21.4025 73.8892C21.0012 73.8472 20.6792 73.7468 20.4365 73.5882C20.4085 73.5695 20.3875 73.5625 20.3735 73.5672C20.3502 73.5905 20.2895 73.6442 20.1915 73.7282C20.0702 73.8308 20.0072 73.8845 20.0025 73.8892C19.9885 73.8985 19.9559 73.9032 19.9045 73.9032C19.8485 73.9032 19.8135 73.8985 19.7995 73.8892C19.7762 73.8752 19.7622 73.8425 19.7575 73.7912C19.7529 73.7258 19.7505 73.4855 19.7505 73.0702C19.7505 72.5615 19.7552 72.3002 19.7645 72.2862C19.7692 72.2768 19.7785 72.2652 19.7925 72.2512C19.8159 72.2372 19.8835 72.2302 19.9955 72.2302C20.1169 72.2302 20.1869 72.2348 20.2055 72.2442C20.2382 72.2628 20.2545 72.3118 20.2545 72.3912C20.2685 72.6432 20.3572 72.8508 20.5205 73.0142C20.6419 73.1355 20.8099 73.2312 21.0245 73.3012C21.2999 73.3898 21.5752 73.4202 21.8505 73.3922C21.8879 73.3875 21.9205 73.3828 21.9485 73.3782C22.0792 73.3502 22.1865 73.2942 22.2705 73.2102C22.3639 73.1168 22.4245 72.9908 22.4525 72.8322C22.4899 72.5942 22.4245 72.3912 22.2565 72.2232C22.1865 72.1438 22.0955 72.0878 21.9835 72.0552C21.9649 72.0458 21.7782 72.0015 21.4235 71.9222C21.0875 71.8568 20.8962 71.8148 20.8495 71.7962C20.5042 71.6982 20.2335 71.5138 20.0375 71.2432C19.8369 70.9772 19.7412 70.6785 19.7505 70.3472C19.7645 70.0158 19.8625 69.7312 20.0445 69.4932C20.2172 69.2598 20.4692 69.0988 20.8005 69.0102C20.9125 68.9822 21.0175 68.9635 21.1155 68.9542ZM24.0462 69.3182V69.0662H26.2162H28.3932V69.0942C28.3979 69.1128 28.4352 69.4138 28.5052 69.9972C28.5659 70.5665 28.6009 70.8675 28.6102 70.9002V70.9282H28.3582H28.1062L28.0922 70.8092C28.0502 70.5058 27.9942 70.2748 27.9242 70.1162C27.7796 69.8222 27.5112 69.6472 27.1192 69.5912C26.9932 69.5772 26.7576 69.5702 26.4122 69.5702H25.9712V70.3332V71.1032H26.0972C26.3119 71.1032 26.4682 71.0775 26.5662 71.0262C26.6456 70.9935 26.7039 70.9422 26.7412 70.8722C26.8066 70.7648 26.8392 70.5992 26.8392 70.3752V70.2842H27.0912H27.3432V71.3552V72.4262H27.0912H26.8392V72.3352C26.8392 72.1112 26.8066 71.9455 26.7412 71.8382C26.7039 71.7682 26.6456 71.7168 26.5662 71.6842C26.4682 71.6328 26.3119 71.6072 26.0972 71.6072H25.9712V72.4612V73.3222H26.4262C26.7576 73.3222 26.9442 73.3198 26.9862 73.3152C27.4622 73.2825 27.7982 73.1285 27.9942 72.8532C28.0176 72.8252 28.0479 72.7715 28.0852 72.6922C28.1692 72.5288 28.2416 72.2722 28.3022 71.9222C28.3116 71.8288 28.3209 71.7728 28.3302 71.7542V71.7332H28.5822H28.8342V71.7542C28.8296 71.7635 28.7759 72.1042 28.6732 72.7762C28.5706 73.4528 28.5169 73.7958 28.5122 73.8052V73.8262H26.2792H24.0462V73.5742V73.3222H24.4242H24.8022V71.4462V69.5702H24.4242H24.0462V69.3182ZM29.3372 69.2762V69.0242H30.7862C31.7662 69.0288 32.3379 69.0405 32.5012 69.0592C32.9772 69.1245 33.3599 69.2715 33.6492 69.5002C33.8686 69.6868 34.0086 69.9155 34.0692 70.1862C34.0879 70.2888 34.0879 70.4078 34.0692 70.5432C34.0319 70.6878 33.9736 70.8162 33.8942 70.9282C33.7916 71.0728 33.6609 71.1918 33.5022 71.2852C33.4182 71.3318 33.3062 71.3855 33.1662 71.4462L33.0962 71.4742L33.1522 71.5022C33.3109 71.6048 33.4299 71.7145 33.5092 71.8312C33.5746 71.9152 33.6189 71.9968 33.6422 72.0762C33.6749 72.1462 33.7076 72.3212 33.7402 72.6012C33.7776 72.8858 33.8056 73.0538 33.8242 73.1052C33.8989 73.3478 34.0529 73.4692 34.2862 73.4692C34.3376 73.4692 34.3749 73.4645 34.3982 73.4552C34.4916 73.3758 34.5476 73.2708 34.5662 73.1402C34.5662 73.0888 34.5896 73.0468 34.6362 73.0142C34.6689 73.0002 34.7716 72.9978 34.9442 73.0072C34.9769 73.0072 34.9956 73.0095 35.0002 73.0142C35.0329 73.0328 35.0539 73.0608 35.0632 73.0982C35.0819 73.1402 35.0772 73.2125 35.0492 73.3152C34.9746 73.5905 34.8089 73.7725 34.5522 73.8612C34.5056 73.8752 34.4589 73.8868 34.4122 73.8962C34.2676 73.9195 34.0226 73.9148 33.6772 73.8822C33.0379 73.8168 32.6669 73.5835 32.5642 73.1822C32.5549 73.1542 32.5479 73.1238 32.5432 73.0912C32.5386 73.0585 32.5362 72.9115 32.5362 72.6502C32.5362 72.3655 32.5246 72.1835 32.5012 72.1042C32.4359 71.8988 32.3146 71.7565 32.1372 71.6772C32.0719 71.6492 31.9156 71.6352 31.6682 71.6352H31.5912H31.2202V72.4752V73.3222H31.5982H31.9762V73.5742V73.8262H31.8852C31.8899 73.8262 31.6706 73.8215 31.2272 73.8122C30.8492 73.8075 30.4689 73.8075 30.0862 73.8122C29.6429 73.8215 29.4236 73.8262 29.4282 73.8262H29.3372V73.5742V73.3222H29.7152H30.0932V71.4252V69.5282H29.7152H29.3372V69.2762ZM32.0882 69.5352C32.0509 69.5305 31.8876 69.5282 31.5982 69.5282H31.2202V70.3682V71.2082H31.6682C32.0042 71.2035 32.2236 71.1895 32.3262 71.1662C32.4382 71.1428 32.5456 71.0985 32.6482 71.0332C32.7369 70.9632 32.7952 70.8535 32.8232 70.7042C32.8466 70.5455 32.8489 70.3542 32.8302 70.1302C32.8162 69.9155 32.7486 69.7662 32.6272 69.6822C32.6039 69.6682 32.5782 69.6542 32.5502 69.6402C32.4196 69.5842 32.2656 69.5492 32.0882 69.5352ZM35.2754 69.2762V69.0242H35.3524L35.9404 69.0382C36.281 69.0428 36.6474 69.0428 37.0394 69.0382L37.7184 69.0242H37.8094V69.2762V69.5282H37.5154H37.2214L37.8374 70.9772C38.248 71.9525 38.4534 72.4378 38.4534 72.4332L39.6854 69.5422C39.6854 69.5328 39.5897 69.5282 39.3984 69.5282H39.1044V69.2762V69.0242H39.1744L39.6924 69.0382C39.991 69.0428 40.264 69.0428 40.5114 69.0382C40.796 69.0288 40.9407 69.0242 40.9454 69.0242H41.0014V69.2762V69.5282H40.6444H40.2804L39.3844 71.6492C38.7777 73.0678 38.472 73.7818 38.4674 73.7912C38.444 73.8285 38.4067 73.8565 38.3554 73.8752C38.3087 73.8892 38.185 73.8915 37.9844 73.8822C37.9517 73.8822 37.9307 73.8798 37.9214 73.8752C37.87 73.8565 37.8327 73.8285 37.8094 73.7912C37.8047 73.7818 37.499 73.0678 36.8924 71.6492L35.9964 69.5282H35.6324H35.2754V69.2762ZM41.3244 69.2762V69.0242H41.4224L42.1084 69.0382C42.5097 69.0428 42.9087 69.0428 43.3054 69.0382L43.9984 69.0242H44.0894V69.2762V69.5282H43.6904H43.2914V71.4252V73.3222H43.6904H44.0894V73.5742V73.8262H43.9914L43.3054 73.8122C42.9087 73.8075 42.5097 73.8075 42.1084 73.8122L41.4154 73.8262H41.3244V73.5742V73.3222H41.7234H42.1224V71.4252V69.5282H41.7234H41.3244V69.2762ZM47.2992 68.9542H47.6912C47.8825 68.9682 48.0599 69.0078 48.2232 69.0732C48.4052 69.1338 48.5802 69.2272 48.7482 69.3532C48.7902 69.3858 48.8112 69.3975 48.8112 69.3882C48.8159 69.3882 48.9022 69.3182 49.0702 69.1782C49.2569 69.0288 49.3479 68.9565 49.3432 68.9612C49.3805 68.9378 49.4482 68.9378 49.5462 68.9612C49.5695 68.9752 49.5835 68.9985 49.5882 69.0312C49.5929 69.0778 49.5952 69.3812 49.5952 69.9412C49.5952 70.5618 49.5882 70.8815 49.5742 70.9002L49.5462 70.9142C49.5275 70.9235 49.4529 70.9282 49.3222 70.9282C49.1915 70.9282 49.1169 70.9235 49.0982 70.9142C49.0655 70.8908 49.0469 70.8558 49.0422 70.8092C49.0049 70.4638 48.8812 70.1652 48.6712 69.9132C48.5779 69.8105 48.4892 69.7288 48.4052 69.6682C48.2559 69.5608 48.0995 69.4955 47.9362 69.4722C47.7309 69.4302 47.4789 69.4418 47.1802 69.5072C46.8815 69.5678 46.6412 69.6752 46.4592 69.8292C46.3519 69.9132 46.2725 69.9972 46.2212 70.0812C46.0252 70.3658 45.9272 70.8138 45.9272 71.4252C45.9272 72.0645 46.0369 72.5265 46.2562 72.8112C46.2795 72.8438 46.3075 72.8765 46.3402 72.9092C46.4009 72.9698 46.4405 73.0072 46.4592 73.0212C46.6412 73.1752 46.8815 73.2825 47.1802 73.3432C47.4415 73.3992 47.6725 73.4155 47.8732 73.3922C48.2979 73.3502 48.6269 73.1612 48.8602 72.8252C49.0002 72.6292 49.0772 72.4122 49.0912 72.1742C49.0912 72.0948 49.1075 72.0458 49.1402 72.0272C49.1589 72.0178 49.2265 72.0132 49.3432 72.0132C49.4599 72.0132 49.5275 72.0178 49.5462 72.0272C49.5789 72.0505 49.5952 72.1042 49.5952 72.1882C49.5812 72.4122 49.5299 72.6152 49.4412 72.7972C49.2219 73.2545 48.8462 73.5765 48.3142 73.7632C48.1182 73.8332 47.9105 73.8775 47.6912 73.8962C47.5419 73.9102 47.3529 73.9078 47.1242 73.8892C46.5362 73.8238 46.0462 73.6558 45.6542 73.3852C45.2809 73.1098 45.0149 72.7668 44.8562 72.3562C44.7862 72.1788 44.7325 71.9688 44.6952 71.7262C44.6765 71.5582 44.6765 71.3668 44.6952 71.1522C44.6952 71.1382 44.6952 71.1265 44.6952 71.1172C44.7419 70.7438 44.8585 70.4078 45.0452 70.1092C45.3299 69.6472 45.7615 69.3182 46.3402 69.1222C46.6389 69.0288 46.9585 68.9728 47.2992 68.9542ZM50.3236 69.3182V69.0662H52.4936H54.6706V69.0942C54.6752 69.1128 54.7126 69.4138 54.7826 69.9972C54.8432 70.5665 54.8782 70.8675 54.8876 70.9002V70.9282H54.6356H54.3836L54.3696 70.8092C54.3276 70.5058 54.2716 70.2748 54.2016 70.1162C54.0569 69.8222 53.7886 69.6472 53.3966 69.5912C53.2706 69.5772 53.0349 69.5702 52.6896 69.5702H52.2486V70.3332V71.1032H52.3746C52.5892 71.1032 52.7456 71.0775 52.8436 71.0262C52.9229 70.9935 52.9812 70.9422 53.0186 70.8722C53.0839 70.7648 53.1166 70.5992 53.1166 70.3752V70.2842H53.3686H53.6206V71.3552V72.4262H53.3686H53.1166V72.3352C53.1166 72.1112 53.0839 71.9455 53.0186 71.8382C52.9812 71.7682 52.9229 71.7168 52.8436 71.6842C52.7456 71.6328 52.5892 71.6072 52.3746 71.6072H52.2486V72.4612V73.3222H52.7036C53.0349 73.3222 53.2216 73.3198 53.2636 73.3152C53.7396 73.2825 54.0756 73.1285 54.2716 72.8532C54.2949 72.8252 54.3252 72.7715 54.3626 72.6922C54.4466 72.5288 54.5189 72.2722 54.5796 71.9222C54.5889 71.8288 54.5982 71.7728 54.6076 71.7542V71.7332H54.8596H55.1116V71.7542C55.1069 71.7635 55.0532 72.1042 54.9506 72.7762C54.8479 73.4528 54.7942 73.7958 54.7896 73.8052V73.8262H52.5566H50.3236V73.5742V73.3222H50.7016H51.0796V71.4462V69.5702H50.7016H50.3236V69.3182Z" fill="#555969"/>
<path d="M51.3736 33.673C54.1592 25.0857 53.9585 25.5905 57.0713 16.0096C54.6769 16.5632 53.5176 16.8976 51.2808 17.664C50.712 20.044 50.4272 23.4321 49.8568 25.8121C49.8128 25.9905 49.792 26.0801 49.7488 26.2585C47.7128 27.0881 46.7344 27.5521 44.876 28.5545C43.416 27.0265 42.632 26.2849 40.96 24.8697C40.9752 24.6865 40.9808 24.5961 40.996 24.4121C41.1864 21.9721 41.2824 18.5536 41.4744 16.1128C39.5959 14.696 38.6047 14.0208 36.5247 12.7544C34.4439 14.0208 33.4535 14.696 31.5751 16.1128C31.7663 18.5528 31.8615 21.9713 32.0535 24.4121C32.0687 24.5953 32.0743 24.6857 32.0895 24.8697C30.4167 26.2857 29.6327 27.0265 28.1735 28.5545C26.3142 27.5505 25.3374 27.0873 23.3006 26.2577C23.2574 26.0777 23.2358 25.9897 23.1934 25.8113C22.6238 23.4313 22.3374 20.0425 21.7686 17.6624C19.5334 16.896 18.3718 16.5616 15.9766 16.0088C19.091 25.5905 18.8886 25.0849 21.675 33.6722L51.3736 33.673Z" fill="#555969"/>
<path d="M49.4486 38.7273H23.5876C22.7796 38.7273 22.1484 38.0721 22.1484 37.2625V35.1377H50.8982V37.2625C50.8982 38.0721 50.2574 38.7273 49.4486 38.7273Z" fill="#555969"/>
<path d="M64.4197 80.5869H8.62807C3.87043 80.5869 0 76.7165 0 71.9588V11.6864C0 11.2528 0.351211 10.9024 0.784015 10.9024H3.26722L0.668816 2.90633C0.582415 2.63753 0.645609 2.34232 0.83681 2.13352C1.02801 1.92552 1.31602 1.83512 1.59122 1.89992L18.3425 5.77115C21.0546 6.39756 22.5874 6.83596 25.1762 7.72317L25.225 7.73997L25.2482 7.72317C27.4378 6.07116 28.6882 5.22235 31.0594 3.77834L36.1147 0.701515C36.3643 0.548714 36.6803 0.548714 36.9307 0.701515L41.9859 3.77834C44.3675 5.22875 45.6179 6.07755 47.8012 7.72477L47.8228 7.74157L47.8716 7.72477C50.4852 6.82796 51.9532 6.40796 54.7004 5.77195L71.4549 1.89432C71.7325 1.82952 72.0197 1.91992 72.2101 2.12792C72.4006 2.33592 72.4653 2.63113 72.3781 2.89993L69.7773 10.9016H72.2613C72.6949 10.9016 73.0454 11.2528 73.0454 11.6856V71.9588C73.047 76.7165 69.1765 80.5869 64.4197 80.5869ZM1.56882 12.4704V71.9588C1.56882 75.8509 4.73604 79.0181 8.62807 79.0181H64.4197C68.3117 79.0181 71.4781 75.8517 71.4781 71.9588V12.4704H68.6997C68.4485 12.4704 68.2133 12.3504 68.0653 12.1472C67.9181 11.944 67.8765 11.6824 67.9533 11.444L70.4589 3.73434L55.054 7.29916C52.3684 7.92077 50.934 8.33117 48.3804 9.20718L47.938 9.35838C47.6908 9.44318 47.4204 9.39918 47.2124 9.24398L46.8572 8.97758C44.7219 7.36476 43.4995 6.53596 41.1707 5.11755L36.5235 2.28872L31.8746 5.11755C29.5554 6.52956 28.3346 7.35916 26.1914 8.97598L25.8346 9.24318C25.6266 9.39998 25.3546 9.44238 25.1098 9.35758L24.6674 9.20558C22.1378 8.33837 20.6402 7.91037 17.9881 7.29836L2.58883 3.73994L5.09204 11.4432C5.16964 11.6824 5.12804 11.9432 4.98004 12.1464C4.83284 12.3496 4.59764 12.4696 4.34564 12.4696L1.56882 12.4704Z" fill="#555969"/>
<path d="M64.417 77.8412H8.62543C5.38141 77.8412 2.74219 75.2028 2.74219 71.9587V14.0391C2.74219 13.8223 2.91819 13.6471 3.13419 13.6471H7.04303L4.56221 6.01344C4.51821 5.87904 4.55021 5.73103 4.64541 5.62703C4.74061 5.52303 4.88541 5.48063 5.02302 5.51023L17.7215 8.44466C20.3279 9.04626 21.7991 9.46706 24.2816 10.3191L25.7072 10.8071L26.8912 9.91907C29.0024 8.32546 30.2048 7.50945 32.4824 6.12224L36.3152 3.78942C36.4408 3.71342 36.5977 3.71342 36.7233 3.78942L40.5561 6.12224C42.8457 7.51665 44.0465 8.33185 46.1433 9.91507L47.3329 10.8087L48.7585 10.3199C51.2682 9.45906 52.677 9.05586 55.3162 8.44466L68.0171 5.50543C68.1563 5.47503 68.2995 5.51903 68.3947 5.62223C68.4899 5.72623 68.5219 5.87424 68.4787 6.00784L65.9963 13.6455H69.9043C70.1211 13.6455 70.2963 13.8207 70.2963 14.0375V71.9571C70.2995 75.2028 67.6611 77.8412 64.417 77.8412ZM3.527 14.4311V71.9595C3.527 74.7708 5.81421 77.058 8.62543 77.058H64.417C67.2283 77.058 69.5147 74.7708 69.5147 71.9595V14.4311H65.4595C65.3339 14.4311 65.2155 14.3711 65.1427 14.2695C65.0683 14.1679 65.0483 14.0367 65.0875 13.9183L67.5211 6.42624L55.4954 9.20946C52.8882 9.81267 51.4962 10.2111 49.0153 11.0623L47.3937 11.6183C47.2713 11.6591 47.1337 11.6383 47.0313 11.5607L45.6753 10.5423C43.6017 8.97666 42.4145 8.17105 40.1513 6.79344L36.5208 4.58463L32.892 6.79264C30.6408 8.16305 29.452 8.97026 27.364 10.5455L26.0128 11.5591C25.9088 11.6383 25.7728 11.6591 25.6504 11.6167L24.0296 11.0615C21.5767 10.2199 20.1215 9.80387 17.5463 9.20946L5.52381 6.43104L7.95663 13.9183C7.99583 14.0375 7.97503 14.1679 7.90143 14.2695C7.82783 14.3711 7.71023 14.4311 7.58463 14.4311H3.527Z" fill="#555969"/>
<path d="M63.7944 44.4939C63.7944 44.4939 62.9424 44.5627 61.4504 44.6459C59.9591 44.7131 57.8287 44.8539 55.2719 44.9427C52.7151 45.0435 49.7327 45.1267 46.5367 45.1835C44.939 45.2035 43.2878 45.2475 41.6102 45.2507C39.9318 45.2595 38.227 45.2683 36.5238 45.2779C34.819 45.2691 33.1142 45.2603 31.4373 45.2515C29.7589 45.2515 28.1093 45.2051 26.5109 45.1851C23.3157 45.1307 20.3333 45.0467 17.7764 44.9451C15.2196 44.8571 13.0892 44.7147 11.5972 44.6475C10.106 44.5643 9.25397 44.4947 9.25397 44.4947C9.25397 44.4947 10.1052 44.4251 11.5972 44.3419C13.0884 44.2747 15.2188 44.1315 17.7764 44.0443C20.3333 43.9427 23.3157 43.8587 26.5109 43.8043C28.1093 43.7843 29.7597 43.7379 31.4373 43.7371C33.115 43.7283 34.8198 43.7195 36.5238 43.7107C38.2278 43.7203 39.9326 43.7291 41.6102 43.7379C43.2878 43.7411 44.939 43.7851 46.5367 43.8051C49.7327 43.8611 52.7151 43.9451 55.2719 44.0459C57.8279 44.1339 59.9583 44.2755 61.4504 44.3427C62.9416 44.4243 63.7944 44.4939 63.7944 44.4939Z" fill="#555969"/>
<path d="M19.1483 55.4924H19.8915V49.8523H19.1483V48.1987H23.9284C26.0564 48.1987 27.0692 48.9931 27.0692 50.3899C27.0692 51.4668 26.7748 51.9924 25.8132 52.3764C26.7364 52.6332 27.5052 53.3124 27.5052 54.5556C27.5052 56.3628 26.4924 57.1572 24.0187 57.1572H19.1491V55.4924H19.1483ZM22.5443 51.8132H23.3268C24.0068 51.8132 24.1988 51.442 24.1988 50.826C24.1988 50.2371 23.8395 49.8907 23.3515 49.8907H22.5443V51.8132ZM23.5707 55.4924C24.1092 55.4924 24.6084 55.082 24.6084 54.39C24.6084 53.7364 24.2371 53.262 23.5323 53.262H22.5451V55.4924H23.5707Z" fill="#555969"/>
<path d="M35.682 48.1987V51.0316H33.4644V49.8915H31.4148V51.6596H33.8492V53.3644H31.4148V55.454H33.4644V54.2612H35.682V57.158H27.9531V55.454H28.7619V49.8907H27.9531V48.1987H35.682Z" fill="#555969"/>
<path d="M36.3241 53.9283H38.7081C38.7081 55.0051 39.7849 55.1843 40.3233 55.2099C40.7721 55.2099 41.4129 55.1075 41.4129 54.5691C41.4129 53.5699 36.4913 53.9923 36.4913 50.7243C36.4913 48.8267 38.2857 47.9683 39.5417 47.9683C40.6177 47.9683 41.7073 48.3147 42.2201 49.2755L42.3489 48.1987H44.553V51.4155H42.2337C42.2337 50.4675 41.4897 49.9291 40.5929 49.9291C40.2209 49.9291 39.7081 50.1595 39.7081 50.6083C39.7081 51.9283 44.7842 51.6211 44.7842 54.6331C44.7842 56.6315 42.9129 57.3499 41.3873 57.3499C40.0937 57.3499 39.1969 56.7475 38.7089 56.1707L38.5681 57.1571H36.3241V53.9283Z" fill="#555969"/>
<path d="M53.8968 51.5316H52.0128V49.8907H50.936V55.454H52V57.158H47.232V55.454H48.2832V49.8907H47.1808V51.5316H45.2968V48.1987H53.8976V51.5316H53.8968Z" fill="#555969"/>
</svg>
