<svg width="52" height="52" viewBox="0 0 52 52" fill="none" xmlns="http://www.w3.org/2000/svg">
<path d="M25.0338 14.1316C25.4635 14.0932 25.7569 14.0781 26.0472 14.0781C26.3385 14.0781 26.6314 14.0932 27.0611 14.1316C27.4792 14.168 27.6953 14.1973 28.1088 14.2725C28.5895 14.3603 28.8597 14.423 29.2838 14.5507C29.1303 13.7272 28.9829 13.2146 28.6461 12.3058C28.6461 12.3058 28.0321 13.4999 27.7443 13.3919C26.7177 13.0056 26.3279 10.8329 26.0472 9.59375C25.7664 10.8324 25.3756 13.0071 24.3501 13.3919C24.0623 13.4999 23.4488 12.3058 23.4488 12.3058C23.1125 13.2141 22.9646 13.7272 22.8105 14.5507C23.2347 14.423 23.5043 14.3603 23.986 14.2725C24.4001 14.1973 24.6157 14.1685 25.0338 14.1316Z" fill="#E1E0E6"/>
<path d="M28.0598 14.569C27.6533 14.4953 27.4488 14.4675 27.0398 14.4317C26.2506 14.362 25.8532 14.362 25.0645 14.4317C24.6545 14.4675 24.4505 14.4953 24.044 14.569C23.5234 14.6644 23.2644 14.7265 22.7549 14.8831C22.7549 14.8831 22.7549 14.9947 22.7549 15.1305C22.7549 15.2673 22.8897 15.3784 23.0558 15.3784H29.0474C29.2135 15.3784 29.3484 15.2673 29.3484 15.1305V14.8831C28.8384 14.7265 28.5808 14.6639 28.0598 14.569Z" fill="#E1E0E6"/>
<path d="M51.2362 24.3759C50.2996 11.3046 39.3768 0.956388 26.0742 0.946289C26.0692 0.946289 26.0596 0.946289 26.055 0.946289C12.7378 0.946289 1.80493 11.3 0.868273 24.3759C0.829393 24.9747 0.805664 25.5827 0.805664 26.1911C0.805664 40.1117 12.1294 51.44 26.055 51.44C39.9751 51.44 51.2993 40.1117 51.2993 26.1911C51.2993 25.5827 51.2751 24.9747 51.2362 24.3759ZM46.0137 15.8904L46.7039 17.5996L48.5429 17.4789L47.124 18.6569L47.8143 20.3702L46.2505 19.3861L44.8362 20.5686L45.285 18.7827L43.7258 17.8031L45.5653 17.6774L46.0137 15.8904ZM43.388 11.7782L45.1108 11.1263L44.102 12.6664L45.2557 14.1049L43.4794 13.6172L42.4655 15.1618L42.3786 13.3182L40.5977 12.8355L42.3256 12.1842L42.2337 10.3401L43.388 11.7782ZM36.746 6.21732L38.2669 7.26456L39.7292 6.14007L39.2031 7.90633L40.7189 8.95358L38.8794 9.00205L38.3533 10.7688L37.7403 9.03133L35.8967 9.07425L37.359 7.95481L36.746 6.21732ZM32.0355 4.74089L33.112 3.23921L33.1216 5.08323L34.8833 5.63867L33.1312 6.22238L33.1453 8.0659L32.0496 6.5839L30.3026 7.16257L31.3735 5.66644L30.2783 4.17991L32.0355 4.74089ZM25.4799 4.10871L26.055 2.35608L26.6246 4.10871H28.4641L26.972 5.18978L27.5466 6.94645L26.0555 5.86084L24.5639 6.94645L25.1335 5.18978L23.6419 4.10871H25.4799ZM18.9783 5.08323L18.998 3.23921L20.069 4.74089L21.8262 4.18092L20.7305 5.66745L21.8019 7.16358L20.0544 6.58492L18.9586 8.06691L18.9728 6.22338L17.2207 5.63967L18.9783 5.08323ZM12.3753 6.14057L13.8426 7.26507L15.3584 6.21783L14.7454 7.95531L16.2078 9.07476L14.3637 9.03184L13.7507 10.7693L13.2296 9.00255L11.3861 8.95408L12.9014 7.91189L12.3753 6.14057ZM6.99367 11.1263L8.71701 11.7782L9.87029 10.3391L9.78344 12.1831L11.5068 12.8345L9.72588 13.3172L9.63852 15.1608L8.63016 13.6162L6.84925 14.1039L8.00202 12.6654L6.99367 11.1263ZM5.40513 17.5991L6.09033 15.8899L6.53973 17.6759L8.37871 17.8016L6.81946 18.7812L7.26835 20.5671L5.85452 19.3891L4.29528 20.3687L4.98048 18.66L3.56615 17.4774L5.40513 17.5991ZM3.93779 24.0189L4.07765 22.1794L5.04309 23.7528L6.8341 23.319L5.64195 24.7233L6.60739 26.2921L4.90323 25.5877L3.70652 26.9914L3.85094 25.1524L2.14728 24.4526L3.93779 24.0189ZM4.4306 31.7903L2.59163 31.6353L4.16955 30.68L3.74995 28.8834L5.14509 30.0907L6.71848 29.1349L6.00399 30.8335L7.40367 32.0403L5.56469 31.8863L4.8502 33.5849L4.4306 31.7903ZM7.93487 37.7607L7.75612 39.5952L6.81946 38.0026L5.01986 38.398L6.24585 37.018L5.31374 35.4299L7.00326 36.1687L8.22975 34.7927L8.04645 36.6271L9.73598 37.3654L7.93487 37.7607ZM12.4672 44.485L11.1205 43.2302L9.50875 44.1275L10.2853 42.4531L8.93414 41.1983L10.7635 41.42L11.5406 39.7497L11.8976 41.5599L13.727 41.782L12.1147 42.6748L12.4672 44.485ZM18.4961 47.5833L16.845 46.7728L15.5609 48.0953L15.8215 46.2709L14.1663 45.4605L15.9815 45.1414L16.2421 43.317L17.101 44.948L18.9213 44.6294L17.6372 45.9523L18.4961 47.5833ZM23.2693 48.3846L22.4392 50.0307L22.1448 48.2104L20.325 47.9256L21.961 47.0808L21.6712 45.261L22.9744 46.5643L24.6155 45.7195L23.7853 47.3651L25.0936 48.6638L23.2693 48.3846ZM8.04595 26.1911C8.04595 25.259 8.11866 24.3476 8.25348 23.4538C9.50825 15.2678 16.2996 8.87733 24.6695 8.2401C25.128 8.20627 25.5915 8.18708 26.055 8.18708C35.052 8.18708 42.5291 14.8189 43.8515 23.4538C43.9863 24.3476 44.0585 25.259 44.0585 26.1911C44.0585 36.1197 35.9831 44.1997 26.055 44.1997C16.126 44.1997 8.04595 36.1197 8.04595 26.1911ZM29.9597 48.2063L29.6648 50.0307L28.8347 48.3846L27.0149 48.6648L28.3232 47.3661L27.488 45.7205L29.1291 46.5653L30.4374 45.2621L30.143 47.0818L31.784 47.9266L29.9597 48.2063ZM36.5486 48.0953L35.2646 46.7728L33.6089 47.5833L34.4728 45.9523L33.1893 44.6294L35.004 44.9434L35.8629 43.3165L36.1235 45.1409L37.9433 45.4544L36.2881 46.2704L36.5486 48.0953ZM42.6013 44.1275L40.9885 43.2302L39.6373 44.485L39.9943 42.6748L38.3825 41.782L40.2119 41.5599L40.5639 39.7497L41.3415 41.42L43.1709 41.1983L41.8237 42.4531L42.6013 44.1275ZM45.285 38.0026L44.3534 39.5906L44.1701 37.7567L42.3695 37.3654L44.0591 36.6271L43.8763 34.7877L45.1022 36.1682L46.7918 35.4294L45.8602 37.0174L47.0861 38.3974L45.285 38.0026ZM47.6789 31.7903L47.2543 33.5859L46.5398 31.8873L44.7054 32.0413L46.101 30.8345L45.386 29.1359L46.9594 30.0917L48.3591 28.8844L47.9344 30.681L49.5129 31.6363L47.6789 31.7903ZM48.2581 25.153L48.398 26.9919L47.2008 25.5882L45.4971 26.2926L46.4625 24.7238L45.2699 23.3195L47.0609 23.7492L48.0258 22.1804L48.1657 24.0199L49.9618 24.4541L48.2581 25.153Z" fill="#E1E0E6"/>
<path d="M14.1572 25.0032H14.6682V21.1263H14.1572V19.9907H17.4434C18.9057 19.9907 19.601 20.5366 19.601 21.4969C19.601 22.2372 19.3985 22.5982 18.738 22.8618C19.3722 23.0385 19.9009 23.5046 19.9009 24.3589C19.9009 25.6016 19.2046 26.1474 17.5045 26.1474H14.1572V25.0032ZM16.4915 22.475H17.0288C17.4959 22.475 17.6277 22.2195 17.6277 21.7964C17.6277 21.3919 17.3813 21.1536 17.047 21.1536H16.4915V22.475ZM17.1969 25.0032C17.5666 25.0032 17.9099 24.721 17.9099 24.2453C17.9099 23.7954 17.6544 23.4702 17.1702 23.4702H16.4915V25.0032H17.1969Z" fill="#E1E0E6"/>
<path d="M25.516 19.9912V21.9378H23.9916V21.1531H22.5824V22.369H24.2557V23.5399H22.5824V24.9765H23.9916V24.1575H25.516V26.1474H20.2041V24.9765H20.759V21.1531H20.2041V19.9907H25.516V19.9912Z" fill="#E1E0E6"/>
<path d="M25.9619 23.9291H27.5999C27.5999 24.6683 28.3402 24.792 28.7103 24.8097C29.0183 24.8097 29.4591 24.739 29.4591 24.3694C29.4591 23.6826 26.0765 23.9725 26.0765 21.727C26.0765 20.4233 27.3096 19.833 28.173 19.833C28.9133 19.833 29.6616 20.0708 30.0135 20.7313L30.1019 19.9916H31.6172V22.2022H30.0226C30.0226 21.5508 29.5116 21.1807 28.8951 21.1807C28.6396 21.1807 28.2877 21.3397 28.2877 21.6483C28.2877 22.5551 31.7758 22.3441 31.7758 24.4138C31.7758 25.7877 30.4897 26.2805 29.4414 26.2805C28.5512 26.2805 27.9352 25.8665 27.6004 25.4701L27.504 26.1482H25.9624L25.9619 23.9291Z" fill="#E1E0E6"/>
<path d="M38.0319 22.2811H36.7372V21.1536H35.997V24.977H36.7281V26.1479H33.4511V24.977H34.1737V21.1536H33.4157V22.2811H32.1211V19.9912H38.0324V22.2811H38.0319Z" fill="#E1E0E6"/>
<path d="M36.9793 17.4741H15.1221V17.9568H36.9793V17.4741Z" fill="#E1E0E6"/>
<path d="M34.8759 16.082H17.2188V16.5647H34.8759V16.082Z" fill="#E1E0E6"/>
<path d="M15.333 38.7959C15.5274 38.961 15.7253 39.1216 15.9278 39.2786H36.1808C36.3823 39.1216 36.5807 38.961 36.7751 38.7959H15.333Z" fill="#E1E0E6"/>
<path d="M17.3232 40.2529C17.5924 40.4211 17.8645 40.5837 18.1443 40.7356H33.9634C34.2427 40.5837 34.5153 40.4211 34.7845 40.2529H17.3232Z" fill="#E1E0E6"/>
<path d="M20.2793 41.71C20.7736 41.8943 21.2791 42.0558 21.7941 42.1927H30.3149C30.8299 42.0558 31.3349 41.8943 31.8292 41.71H20.2793Z" fill="#E1E0E6"/>
<path d="M13.8223 37.3394C13.9722 37.504 14.1262 37.664 14.2828 37.8221H37.8275C37.984 37.6635 38.1375 37.504 38.2875 37.3394H13.8223Z" fill="#E1E0E6"/>
<path d="M12.6465 35.8813C12.7646 36.0444 12.8863 36.2055 13.0105 36.3641H39.1107C39.2344 36.2055 39.3561 36.0444 39.4743 35.8813H12.6465Z" fill="#E1E0E6"/>
<path d="M11.6963 34.4248C11.7902 34.5869 11.8846 34.749 11.9831 34.9075H40.1227C40.2212 34.749 40.3161 34.5869 40.4095 34.4248H11.6963Z" fill="#E1E0E6"/>
<path d="M9.3991 28.7651V28.5851H10.4691C11.2024 28.5851 11.5841 28.5868 11.6141 28.5901C12.0274 28.6201 12.3391 28.7451 12.5491 28.9651C12.6791 29.1051 12.7608 29.2701 12.7941 29.4601C12.8008 29.4901 12.8041 29.5418 12.8041 29.6151C12.8041 29.7085 12.7958 29.7851 12.7791 29.8451C12.7391 30.0251 12.6458 30.1801 12.4991 30.3101C12.3124 30.4701 12.0758 30.5701 11.7891 30.6101C11.6991 30.6235 11.4958 30.6301 11.1791 30.6301H10.7741V31.1401V31.6551H11.0441H11.3141V31.8351V32.0151H11.2491C11.2524 32.0151 11.0924 32.0118 10.7691 32.0051C10.4924 32.0018 10.2158 32.0018 9.9391 32.0051L9.4641 32.0151H9.3991V31.8351V31.6551H9.6691H9.9391V30.3001V28.9451H9.6691H9.3991V28.7651ZM11.4941 28.9551C11.4741 28.9518 11.3408 28.9485 11.0941 28.9451H10.7441V29.6201V30.3001H11.0441C11.3374 30.3001 11.5274 30.2868 11.6141 30.2601C11.7274 30.2268 11.8058 30.1751 11.8491 30.1051C11.8991 30.0185 11.9224 29.8385 11.9191 29.5651C11.9158 29.4085 11.9058 29.2985 11.8891 29.2351C11.8758 29.1785 11.8524 29.1335 11.8191 29.1001C11.7591 29.0301 11.6508 28.9818 11.4941 28.9551ZM13.3298 28.7651V28.5851H14.3648C15.0648 28.5885 15.4731 28.5968 15.5898 28.6101C15.9298 28.6568 16.2031 28.7618 16.4098 28.9251C16.5664 29.0585 16.6664 29.2218 16.7098 29.4151C16.7231 29.4885 16.7231 29.5735 16.7098 29.6701C16.6831 29.7735 16.6414 29.8651 16.5848 29.9451C16.5114 30.0485 16.4181 30.1335 16.3048 30.2001C16.2448 30.2335 16.1648 30.2718 16.0648 30.3151L16.0148 30.3351L16.0548 30.3551C16.1681 30.4285 16.2531 30.5068 16.3098 30.5901C16.3564 30.6501 16.3881 30.7085 16.4048 30.7651C16.4281 30.8151 16.4514 30.9401 16.4748 31.1401C16.5014 31.3435 16.5214 31.4635 16.5348 31.5001C16.5881 31.6735 16.6981 31.7601 16.8648 31.7601C16.9014 31.7601 16.9281 31.7568 16.9448 31.7501C17.0114 31.6935 17.0514 31.6185 17.0648 31.5251C17.0648 31.4885 17.0814 31.4585 17.1148 31.4351C17.1381 31.4251 17.2114 31.4235 17.3348 31.4301C17.3581 31.4301 17.3714 31.4318 17.3748 31.4351C17.3981 31.4485 17.4131 31.4685 17.4198 31.4951C17.4331 31.5251 17.4298 31.5768 17.4098 31.6501C17.3564 31.8468 17.2381 31.9768 17.0548 32.0401C17.0214 32.0501 16.9881 32.0585 16.9548 32.0651C16.8514 32.0818 16.6764 32.0785 16.4298 32.0551C15.9731 32.0085 15.7081 31.8418 15.6348 31.5551C15.6281 31.5351 15.6231 31.5135 15.6198 31.4901C15.6164 31.4668 15.6148 31.3618 15.6148 31.1751C15.6148 30.9718 15.6064 30.8418 15.5898 30.7851C15.5431 30.6385 15.4564 30.5368 15.3298 30.4801C15.2831 30.4601 15.1714 30.4501 14.9948 30.4501H14.9398H14.6748V31.0501V31.6551H14.9448H15.2148V31.8351V32.0151H15.1498C15.1531 32.0151 14.9964 32.0118 14.6798 32.0051C14.4098 32.0018 14.1381 32.0018 13.8648 32.0051C13.5481 32.0118 13.3914 32.0151 13.3948 32.0151H13.3298V31.8351V31.6551H13.5998H13.8698V30.3001V28.9451H13.5998H13.3298V28.7651ZM15.2948 28.9501C15.2681 28.9468 15.1514 28.9451 14.9448 28.9451H14.6748V29.5451V30.1451H14.9948C15.2348 30.1418 15.3914 30.1318 15.4648 30.1151C15.5448 30.0985 15.6214 30.0668 15.6948 30.0201C15.7581 29.9701 15.7998 29.8918 15.8198 29.7851C15.8364 29.6718 15.8381 29.5351 15.8248 29.3751C15.8148 29.2218 15.7664 29.1151 15.6798 29.0551C15.6631 29.0451 15.6448 29.0351 15.6248 29.0251C15.5314 28.9851 15.4214 28.9601 15.2948 28.9501ZM19.4363 28.5351C19.5463 28.5285 19.6846 28.5301 19.8513 28.5401C20.3046 28.5901 20.6696 28.7518 20.9463 29.0251C21.2163 29.2951 21.378 29.6501 21.4313 30.0901C21.4446 30.2235 21.4446 30.3685 21.4313 30.5251C21.4313 30.5318 21.4313 30.5385 21.4313 30.5451C21.3813 30.9618 21.228 31.3018 20.9713 31.5651C20.848 31.6851 20.708 31.7851 20.5513 31.8651C20.3446 31.9651 20.1113 32.0301 19.8513 32.0601C19.7113 32.0735 19.5546 32.0735 19.3813 32.0601C19.3713 32.0601 19.363 32.0601 19.3563 32.0601C18.883 32.0035 18.5113 31.8385 18.2413 31.5651C17.9813 31.3051 17.8263 30.9651 17.7763 30.5451C17.763 30.4185 17.763 30.2751 17.7763 30.1151C17.7763 30.1051 17.7763 30.0968 17.7763 30.0901C17.803 29.8901 17.8446 29.7201 17.9013 29.5801C18.0513 29.1968 18.303 28.9185 18.6563 28.7451C18.883 28.6285 19.143 28.5585 19.4363 28.5351ZM19.7063 28.8601C19.4263 28.8301 19.188 28.9051 18.9913 29.0851C18.9446 29.1285 18.903 29.1768 18.8663 29.2301C18.7763 29.3668 18.7146 29.5368 18.6813 29.7401C18.648 29.9835 18.643 30.2735 18.6663 30.6101C18.6696 30.6401 18.673 30.6685 18.6763 30.6951C18.713 31.0785 18.833 31.3568 19.0363 31.5301C19.2563 31.7135 19.5063 31.7751 19.7863 31.7151C19.9296 31.6851 20.058 31.6235 20.1713 31.5301C20.3746 31.3568 20.4946 31.0785 20.5313 30.6951C20.5646 30.4151 20.5663 30.1185 20.5363 29.8051C20.533 29.7818 20.5296 29.7601 20.5263 29.7401C20.503 29.5968 20.463 29.4635 20.4063 29.3401C20.2663 29.0568 20.033 28.8968 19.7063 28.8601ZM21.9626 28.7651V28.5851H23.0676C23.8242 28.5851 24.2176 28.5868 24.2476 28.5901C24.5242 28.6101 24.7709 28.6751 24.9876 28.7851C25.4142 29.0018 25.6842 29.3551 25.7976 29.8451C25.8042 29.8818 25.8109 29.9185 25.8176 29.9551C25.8742 30.2785 25.8609 30.5835 25.7776 30.8701C25.6509 31.3035 25.3942 31.6168 25.0076 31.8101C24.8242 31.9068 24.6026 31.9718 24.3426 32.0051C24.3059 32.0085 23.8976 32.0118 23.1176 32.0151H21.9626V31.8351V31.6551H22.2326H22.5026V30.3001V28.9451H22.2326H21.9626V28.7651ZM24.0126 28.9501C23.9892 28.9468 23.8609 28.9451 23.6276 28.9451H23.3076V30.3001V31.6551H23.6726C23.9359 31.6518 24.0792 31.6485 24.1026 31.6451C24.3926 31.6085 24.6126 31.5068 24.7626 31.3401C24.8892 31.1968 24.9626 30.9768 24.9826 30.6801C24.9959 30.4135 24.9959 30.1651 24.9826 29.9351C24.9792 29.9185 24.9776 29.9051 24.9776 29.8951C24.9442 29.5218 24.8126 29.2618 24.5826 29.1151C24.5526 29.0985 24.5209 29.0818 24.4876 29.0651C24.3609 29.0051 24.2026 28.9668 24.0126 28.9501ZM26.3718 28.7651V28.5851H26.4368C26.4334 28.5851 26.5934 28.5885 26.9168 28.5951C27.1934 28.5985 27.4701 28.5985 27.7468 28.5951L28.2218 28.5851H28.2868V28.7651V28.9451H28.0168H27.7468V30.0251C27.7501 30.7718 27.7568 31.1685 27.7668 31.2151C27.7668 31.2218 27.7701 31.2351 27.7768 31.2551C27.8034 31.3818 27.8584 31.4801 27.9418 31.5501C28.0784 31.6601 28.2834 31.7135 28.5568 31.7101C28.8734 31.7001 29.1084 31.6185 29.2618 31.4651C29.3584 31.3651 29.4251 31.2235 29.4618 31.0401C29.4651 31.0101 29.4684 30.6518 29.4718 29.9651V28.9451H29.2018H28.9318V28.7651V28.5851H28.9818L29.3468 28.5951C29.5601 28.5985 29.7734 28.5985 29.9868 28.5951C30.2334 28.5885 30.3551 28.5851 30.3518 28.5851H30.4018V28.7651V28.9451H30.1318H29.8618V29.9401C29.8618 30.6168 29.8601 30.9685 29.8568 30.9951C29.8368 31.2251 29.7584 31.4268 29.6218 31.6001C29.4718 31.7935 29.2651 31.9268 29.0018 32.0001C28.8551 32.0435 28.7034 32.0668 28.5468 32.0701C28.2201 32.0768 27.9368 32.0318 27.6968 31.9351C27.6168 31.9051 27.5334 31.8635 27.4468 31.8101C27.3268 31.7368 27.2251 31.6468 27.1418 31.5401C27.0118 31.3701 26.9368 31.1835 26.9168 30.9801C26.9134 30.9568 26.9118 30.6085 26.9118 29.9351V28.9451H26.6418H26.3718V28.7651ZM32.7906 28.5351H33.0706C33.2073 28.5451 33.3339 28.5735 33.4506 28.6201C33.5806 28.6635 33.7056 28.7301 33.8256 28.8201C33.8556 28.8435 33.8706 28.8518 33.8706 28.8451C33.8739 28.8451 33.9356 28.7951 34.0556 28.6951C34.1889 28.5885 34.2539 28.5368 34.2506 28.5401C34.2773 28.5235 34.3256 28.5235 34.3956 28.5401C34.4123 28.5501 34.4223 28.5668 34.4256 28.5901C34.4289 28.6235 34.4306 28.8401 34.4306 29.2401C34.4306 29.6835 34.4256 29.9118 34.4156 29.9251L34.3956 29.9351C34.3823 29.9418 34.3289 29.9451 34.2356 29.9451C34.1423 29.9451 34.0889 29.9418 34.0756 29.9351C34.0523 29.9185 34.0389 29.8935 34.0356 29.8601C34.0089 29.6135 33.9206 29.4001 33.7706 29.2201C33.7039 29.1468 33.6406 29.0885 33.5806 29.0451C33.4739 28.9685 33.3623 28.9218 33.2456 28.9051C33.0989 28.8751 32.9189 28.8835 32.7056 28.9301C32.4923 28.9735 32.3206 29.0501 32.1906 29.1601C32.1139 29.2201 32.0573 29.2801 32.0206 29.3401C31.8806 29.5435 31.8106 29.8635 31.8106 30.3001C31.8106 30.7568 31.8889 31.0868 32.0456 31.2901C32.0623 31.3135 32.0823 31.3368 32.1056 31.3601C32.1489 31.4035 32.1773 31.4301 32.1906 31.4401C32.3206 31.5501 32.4923 31.6268 32.7056 31.6701C32.8923 31.7101 33.0573 31.7218 33.2006 31.7051C33.5039 31.6751 33.7389 31.5401 33.9056 31.3001C34.0056 31.1601 34.0606 31.0051 34.0706 30.8351C34.0706 30.7785 34.0823 30.7435 34.1056 30.7301C34.1189 30.7235 34.1673 30.7201 34.2506 30.7201C34.3339 30.7201 34.3823 30.7235 34.3956 30.7301C34.4189 30.7468 34.4306 30.7851 34.4306 30.8451C34.4206 31.0051 34.3839 31.1501 34.3206 31.2801C34.1639 31.6068 33.8956 31.8368 33.5156 31.9701C33.3756 32.0201 33.2273 32.0518 33.0706 32.0651C32.9639 32.0751 32.8289 32.0735 32.6656 32.0601C32.2456 32.0135 31.8956 31.8935 31.6156 31.7001C31.3489 31.5035 31.1589 31.2585 31.0456 30.9651C30.9956 30.8385 30.9573 30.6885 30.9306 30.5151C30.9173 30.3951 30.9173 30.2585 30.9306 30.1051C30.9306 30.0951 30.9306 30.0868 30.9306 30.0801C30.9639 29.8135 31.0473 29.5735 31.1806 29.3601C31.3839 29.0301 31.6923 28.7951 32.1056 28.6551C32.3189 28.5885 32.5473 28.5485 32.7906 28.5351ZM35.0659 28.6701V28.6401H36.7509H38.4409V28.6701L38.4959 29.3051C38.5259 29.7218 38.5425 29.9335 38.5459 29.9401V29.9701H38.3659C38.2459 29.9701 38.1859 29.9685 38.1859 29.9651C38.1859 29.8985 38.1775 29.8118 38.1609 29.7051C38.1409 29.5551 38.1125 29.4318 38.0759 29.3351C38.0259 29.2185 37.9409 29.1318 37.8209 29.0751C37.7709 29.0485 37.7042 29.0285 37.6209 29.0151C37.5909 29.0085 37.5059 29.0035 37.3659 29.0001H37.1709V30.3251V31.6551H37.5559H37.9359V31.8351V32.0151H37.8559L37.2659 32.0051C36.9225 32.0018 36.5809 32.0018 36.2409 32.0051L35.6509 32.0151H35.5709V31.8351V31.6551H35.9559H36.3359V30.3251V29.0001H36.1409C36.0009 29.0035 35.9159 29.0085 35.8859 29.0151C35.7292 29.0451 35.6092 29.1035 35.5259 29.1901C35.4725 29.2435 35.4292 29.3235 35.3959 29.4301C35.3692 29.5268 35.3475 29.6751 35.3309 29.8751C35.3242 29.9318 35.3209 29.9618 35.3209 29.9651C35.3209 29.9685 35.2609 29.9701 35.1409 29.9701H34.9609V29.9401L35.0159 29.3051C35.0459 28.8885 35.0625 28.6768 35.0659 28.6701ZM40.0499 28.5351C40.1899 28.5218 40.3249 28.5268 40.4549 28.5501C40.6382 28.5768 40.8115 28.6435 40.9749 28.7501C40.9949 28.7668 41.0099 28.7735 41.0199 28.7701C41.0365 28.7535 41.0799 28.7151 41.1499 28.6551C41.2365 28.5818 41.2815 28.5435 41.2849 28.5401C41.2949 28.5335 41.3182 28.5301 41.3549 28.5301C41.3949 28.5301 41.4199 28.5335 41.4299 28.5401C41.4465 28.5501 41.4565 28.5735 41.4599 28.6101C41.4632 28.6568 41.4649 28.8301 41.4649 29.1301C41.4649 29.5035 41.4532 29.6985 41.4299 29.7151C41.4165 29.7218 41.3682 29.7251 41.2849 29.7251C41.2015 29.7251 41.1532 29.7218 41.1399 29.7151C41.1199 29.7051 41.1065 29.6701 41.0999 29.6101C41.0799 29.5035 41.0482 29.4051 41.0049 29.3151C40.9649 29.2318 40.9099 29.1585 40.8399 29.0951C40.6965 28.9551 40.4965 28.8801 40.2399 28.8701C39.9665 28.8601 39.7932 28.9501 39.7199 29.1401C39.7032 29.1868 39.6949 29.2401 39.6949 29.3001C39.6949 29.3668 39.7065 29.4251 39.7299 29.4751C39.7799 29.5785 39.8699 29.6551 39.9999 29.7051C40.0232 29.7185 40.1515 29.7485 40.3849 29.7951C40.6249 29.8451 40.7582 29.8751 40.7849 29.8851C40.9315 29.9218 41.0632 29.9835 41.1799 30.0701C41.4199 30.2468 41.5649 30.4885 41.6149 30.7951C41.6282 30.8885 41.6282 31.0051 41.6149 31.1451C41.5949 31.2718 41.5565 31.3935 41.4999 31.5101C41.4332 31.6468 41.3449 31.7568 41.2349 31.8401C41.0815 31.9568 40.8965 32.0301 40.6799 32.0601C40.5965 32.0735 40.4682 32.0751 40.2949 32.0651C40.2782 32.0618 40.2649 32.0601 40.2549 32.0601C39.9682 32.0301 39.7382 31.9585 39.5649 31.8451C39.5449 31.8318 39.5299 31.8268 39.5199 31.8301C39.5032 31.8468 39.4599 31.8851 39.3899 31.9451C39.3032 32.0185 39.2582 32.0568 39.2549 32.0601C39.2449 32.0668 39.2215 32.0701 39.1849 32.0701C39.1449 32.0701 39.1199 32.0668 39.1099 32.0601C39.0932 32.0501 39.0832 32.0268 39.0799 31.9901C39.0765 31.9435 39.0749 31.7718 39.0749 31.4751C39.0749 31.1118 39.0782 30.9251 39.0849 30.9151C39.0882 30.9085 39.0949 30.9001 39.1049 30.8901C39.1215 30.8801 39.1699 30.8751 39.2499 30.8751C39.3365 30.8751 39.3865 30.8785 39.3999 30.8851C39.4232 30.8985 39.4349 30.9335 39.4349 30.9901C39.4449 31.1701 39.5082 31.3185 39.6249 31.4351C39.7115 31.5218 39.8315 31.5901 39.9849 31.6401C40.1815 31.7035 40.3782 31.7251 40.5749 31.7051C40.6015 31.7018 40.6249 31.6985 40.6449 31.6951C40.7382 31.6751 40.8149 31.6351 40.8749 31.5751C40.9415 31.5085 40.9849 31.4185 41.0049 31.3051C41.0315 31.1351 40.9849 30.9901 40.8649 30.8701C40.8149 30.8135 40.7499 30.7735 40.6699 30.7501C40.6565 30.7435 40.5232 30.7118 40.2699 30.6551C40.0299 30.6085 39.8932 30.5785 39.8599 30.5651C39.6132 30.4951 39.4199 30.3635 39.2799 30.1701C39.1365 29.9801 39.0682 29.7668 39.0749 29.5301C39.0849 29.2935 39.1549 29.0901 39.2849 28.9201C39.4082 28.7535 39.5882 28.6385 39.8249 28.5751C39.9049 28.5551 39.9799 28.5418 40.0499 28.5351Z" fill="#E1E0E6"/>
</svg>
