<svg width="25" height="26" viewBox="0 0 25 26" fill="none" xmlns="http://www.w3.org/2000/svg">
<path d="M20.3073 4.85872H17.1823V3.29622C17.1823 3.15809 17.1274 3.02561 17.0297 2.92794C16.9321 2.83026 16.7996 2.77539 16.6615 2.77539C16.5233 2.77539 16.3908 2.83026 16.2932 2.92794C16.1955 3.02561 16.1406 3.15809 16.1406 3.29622V4.85872H8.84896V3.29622C8.84896 3.15809 8.79409 3.02561 8.69641 2.92794C8.59874 2.83026 8.46626 2.77539 8.32813 2.77539C8.18999 2.77539 8.05752 2.83026 7.95984 2.92794C7.86217 3.02561 7.80729 3.15809 7.80729 3.29622V4.85872H4.68229C3.99188 4.85955 3.32998 5.13418 2.84178 5.62238C2.35358 6.11058 2.07895 6.77248 2.07812 7.46289V21.0046C2.07895 21.695 2.35358 22.3569 2.84178 22.8451C3.32998 23.3333 3.99188 23.6079 4.68229 23.6087H20.3073C20.9978 23.6082 21.6599 23.3336 22.1481 22.8454C22.6364 22.3571 22.9109 21.6951 22.9115 21.0046V7.46289C22.9109 6.77239 22.6364 6.11033 22.1481 5.62208C21.6599 5.13382 20.9978 4.85928 20.3073 4.85872ZM21.8698 21.0046C21.8698 21.419 21.7052 21.8164 21.4121 22.1094C21.1191 22.4024 20.7217 22.5671 20.3073 22.5671H4.68229C4.26789 22.5671 3.87046 22.4024 3.57744 22.1094C3.28441 21.8164 3.11979 21.419 3.11979 21.0046V12.1504H21.8698V21.0046ZM21.8698 11.1087H3.11979V7.46289C3.11979 6.60039 3.81771 5.90039 4.68229 5.90039H7.80729V7.46289C7.80729 7.60102 7.86217 7.7335 7.95984 7.83118C8.05752 7.92885 8.18999 7.98372 8.32813 7.98372C8.46626 7.98372 8.59874 7.92885 8.69641 7.83118C8.79409 7.7335 8.84896 7.60102 8.84896 7.46289V5.90039H16.1406V7.46289C16.1406 7.60102 16.1955 7.7335 16.2932 7.83118C16.3908 7.92885 16.5233 7.98372 16.6615 7.98372C16.7996 7.98372 16.9321 7.92885 17.0297 7.83118C17.1274 7.7335 17.1823 7.60102 17.1823 7.46289V5.90039H20.3073C20.7217 5.90039 21.1191 6.06501 21.4121 6.35804C21.7052 6.65106 21.8698 7.04849 21.8698 7.46289V11.1087Z" fill="#FF861D"/>
</svg>
