<svg width="23" height="26" viewBox="0 0 23 26" fill="none" xmlns="http://www.w3.org/2000/svg">
<path d="M11.5352 1.89062C12.5712 1.89062 13.5647 2.30218 14.2973 3.03474C15.0299 3.7673 15.4414 4.76087 15.4414 5.79688V6.57812H7.62891V5.79688C7.62891 4.76087 8.04046 3.7673 8.77302 3.03474C9.50558 2.30218 10.4992 1.89062 11.5352 1.89062ZM17.0039 6.57812V5.79688C17.0039 4.34647 16.4277 2.95547 15.4021 1.92988C14.3766 0.904295 12.9856 0.328125 11.5352 0.328125C10.0848 0.328125 8.69376 0.904295 7.66817 1.92988C6.64258 2.95547 6.06641 4.34647 6.06641 5.79688V6.57812H0.597656V22.2031C0.597656 23.0319 0.926896 23.8268 1.51295 24.4128C2.099 24.9989 2.89385 25.3281 3.72266 25.3281H19.3477C20.1765 25.3281 20.9713 24.9989 21.5574 24.4128C22.1434 23.8268 22.4727 23.0319 22.4727 22.2031V6.57812H17.0039ZM2.16016 8.14062H20.9102V22.2031C20.9102 22.6175 20.7455 23.015 20.4525 23.308C20.1595 23.601 19.7621 23.7656 19.3477 23.7656H3.72266C3.30826 23.7656 2.91083 23.601 2.6178 23.308C2.32478 23.015 2.16016 22.6175 2.16016 22.2031V8.14062Z" fill="white"/>
</svg>
