<svg width="88" height="73" viewBox="0 0 88 73" fill="none" xmlns="http://www.w3.org/2000/svg">
<path d="M43.722 50.8756C53.635 50.8756 63.548 53.1576 72.626 57.7216C74.442 54.1076 76.255 50.4926 78.07 46.8796C67.286 41.4586 55.502 38.7446 43.721 38.7446C31.941 38.7446 20.161 41.4576 9.375 46.8796C11.19 50.4936 13.004 54.1076 14.819 57.7216C23.897 53.1576 33.809 50.8756 43.722 50.8756ZM68.203 50.1996C68.267 50.3336 68.359 50.4196 68.485 50.4586C68.658 50.5166 68.831 50.4826 68.992 50.3606C69.075 50.3026 69.144 50.2026 69.196 50.0556C69.268 49.8456 69.248 49.5976 69.118 49.3176C69.01 49.1176 68.846 48.8156 68.621 48.4126C68.433 48.0726 68.315 47.7856 68.267 47.5496C68.221 47.2876 68.239 47.0286 68.325 46.7696C68.483 46.3036 68.774 46.0066 69.2 45.8866C69.459 45.8156 69.753 45.8356 70.066 45.9486C70.371 46.0566 70.604 46.2116 70.777 46.4136C70.909 46.5686 70.999 46.7496 71.036 46.9576C71.073 47.1676 71.064 47.3836 71.002 47.6106C70.717 47.5556 70.435 47.5016 70.152 47.4496C70.204 47.2326 70.198 47.0466 70.132 46.8926C70.086 46.7806 69.985 46.6986 69.844 46.6466C69.692 46.5916 69.55 46.6126 69.427 46.7096C69.326 46.7876 69.251 46.8996 69.197 47.0486C69.117 47.2816 69.142 47.5556 69.272 47.8746C69.324 47.9956 69.41 48.1466 69.525 48.3296C69.663 48.5486 69.75 48.6976 69.79 48.7786C69.92 49.0406 70.009 49.2846 70.049 49.5096C70.067 49.6146 70.075 49.7086 70.084 49.7916C70.092 50.0016 70.075 50.1786 70.02 50.3216C69.893 50.6756 69.683 50.9406 69.395 51.1166C69.203 51.2376 68.975 51.2906 68.719 51.2766C68.576 51.2686 68.425 51.2336 68.258 51.1746C67.947 51.0636 67.718 50.8996 67.565 50.6796C67.436 50.4996 67.358 50.2856 67.327 50.0426C67.298 49.7976 67.321 49.5366 67.393 49.2586C67.658 49.3266 67.919 49.3986 68.184 49.4696C68.114 49.7766 68.12 50.0216 68.203 50.1996ZM66.592 44.8706C66.966 44.9846 67.248 45.2046 67.433 45.5296C67.619 45.8516 67.652 46.1826 67.542 46.5196C67.254 47.4116 66.964 48.3066 66.673 49.2016C66.567 49.5416 66.345 49.7886 66.023 49.9526C65.701 50.1136 65.367 50.1406 65.019 50.0366C64.598 49.9086 64.178 49.7836 63.758 49.6656C64.253 47.9336 64.745 46.2026 65.237 44.4716C65.692 44.5996 66.144 44.7326 66.592 44.8706ZM61.582 43.5286C62.04 43.6366 62.497 43.7456 62.955 43.8606C63.438 43.9846 63.761 44.1996 63.922 44.5006C64.066 44.7636 64.08 45.0846 63.98 45.4596C63.911 45.7136 63.842 45.9646 63.773 46.2166C63.672 46.5856 63.442 46.8566 63.077 47.0326C63.08 47.8456 63.08 48.6586 63.071 49.4706C62.777 49.3896 62.487 49.3126 62.196 49.2366C62.205 48.5386 62.208 47.8396 62.205 47.1406C62.184 47.1346 62.159 47.1276 62.133 47.1206C61.972 47.0806 61.814 47.0416 61.653 47.0026C61.492 47.6606 61.328 48.3176 61.167 48.9766C60.896 48.9106 60.626 48.8456 60.358 48.7826C60.766 47.0316 61.174 45.2786 61.582 43.5286ZM59.876 43.1496C59.833 44.9786 59.764 46.8036 59.672 48.6256C59.387 48.5626 59.103 48.5016 58.817 48.4416C58.837 48.0226 58.86 47.6046 58.878 47.1866C58.59 47.1256 58.302 47.0686 58.012 47.0116C57.867 47.4056 57.721 47.7976 57.577 48.1916C57.292 48.1366 57.01 48.0836 56.725 48.0336C57.352 46.3186 58 44.6096 58.67 42.9086C59.073 42.9856 59.477 43.0666 59.876 43.1496ZM54.17 42.1716C54.199 43.1466 54.219 44.1226 54.234 45.0966C54.505 44.1626 54.778 43.2276 55.06 42.2956C55.368 42.3416 55.675 42.3876 55.983 42.4366C55.986 43.4116 55.983 44.3846 55.978 45.3596C56.271 44.4316 56.568 43.5066 56.87 42.5796C57.178 42.6316 57.486 42.6856 57.794 42.7426C57.169 44.4566 56.565 46.1776 55.982 47.9026C55.722 47.8576 55.46 47.8166 55.202 47.7746C55.199 46.7736 55.193 45.7706 55.179 44.7676C54.88 45.7236 54.584 46.6796 54.296 47.6366C54.034 47.5986 53.773 47.5626 53.51 47.5276C53.444 45.7046 53.358 43.8806 53.245 42.0546C53.555 42.0906 53.862 42.1306 54.17 42.1716ZM51.215 41.8346C51.621 41.8726 52.026 41.9146 52.435 41.9596C52.565 43.7826 52.671 45.6066 52.754 47.4296C52.467 47.3936 52.176 47.3596 51.889 47.3276C51.871 46.9106 51.851 46.4916 51.831 46.0736C51.54 46.0416 51.246 46.0126 50.956 45.9846C50.847 46.3886 50.74 46.7936 50.634 47.1986C50.349 47.1726 50.061 47.1466 49.774 47.1236C50.231 45.3566 50.711 43.5936 51.215 41.8346ZM45.855 41.5066C46.698 41.5276 47.541 41.5646 48.384 41.6126C48.369 41.8856 48.352 42.1566 48.337 42.4296C47.797 42.3976 47.253 42.3716 46.712 42.3516C46.694 42.8426 46.674 43.3326 46.657 43.8216C47.045 43.8366 47.433 43.8536 47.822 43.8736C47.807 44.1466 47.794 44.4206 47.779 44.6926C47.393 44.6726 47.01 44.6546 46.625 44.6406C46.608 45.1316 46.591 45.6196 46.57 46.1106C47.086 46.1296 47.6 46.1556 48.116 46.1836C48.101 46.4576 48.084 46.7306 48.069 47.0006C47.284 46.9546 46.499 46.9226 45.712 46.9026C45.759 45.1056 45.806 43.3046 45.855 41.5066ZM42.724 41.8086C42.997 41.5536 43.331 41.4246 43.719 41.4226C44.111 41.4226 44.442 41.5526 44.712 41.8086C44.982 42.0636 45.108 42.3706 45.104 42.7266C45.101 42.9306 45.098 43.1366 45.095 43.3426C44.795 43.3366 44.493 43.3336 44.194 43.3326C44.194 43.1216 44.197 42.9116 44.197 42.6996C44.194 42.5706 44.148 42.4606 44.051 42.3666C43.953 42.2746 43.832 42.2286 43.692 42.2286C43.55 42.2306 43.433 42.2776 43.338 42.3696C43.24 42.4616 43.194 42.5716 43.191 42.7006C43.2 43.6846 43.209 44.6706 43.217 45.6546C43.22 45.7836 43.266 45.8936 43.36 45.9846C43.455 46.0736 43.567 46.1186 43.7 46.1166C43.832 46.1166 43.944 46.0736 44.039 45.9816C44.135 45.8926 44.184 45.7826 44.184 45.6536C44.187 45.4066 44.187 45.1576 44.187 44.9086C44.48 44.9106 44.777 44.9146 45.07 44.9176C45.064 45.1706 45.061 45.4206 45.055 45.6716C45.05 46.0306 44.914 46.3336 44.653 46.5806C44.394 46.8256 44.087 46.9486 43.726 46.9486C43.361 46.9506 43.053 46.8276 42.791 46.5806C42.531 46.3326 42.394 46.0306 42.388 45.6756C42.368 44.6946 42.351 43.7136 42.33 42.7306C42.32 42.3726 42.453 42.0656 42.724 41.8086ZM39.457 41.6016C39.918 42.7876 40.358 43.9786 40.784 45.1696C40.735 43.9606 40.686 42.7526 40.635 41.5436C40.931 41.5316 41.228 41.5226 41.524 41.5136C41.576 43.3136 41.63 45.1116 41.682 46.9096C41.389 46.9186 41.092 46.9306 40.796 46.9416C40.367 45.8066 39.921 44.6746 39.457 43.5456C39.523 44.6966 39.59 45.8476 39.656 46.9986C39.38 47.0136 39.103 47.0306 38.83 47.0506C38.706 45.2546 38.583 43.4596 38.459 41.6636C38.79 41.6416 39.124 41.6216 39.457 41.6016ZM37.849 41.7086C37.87 41.9816 37.89 42.2526 37.913 42.5256C37.372 42.5656 36.831 42.6146 36.29 42.6666C36.339 43.1556 36.388 43.6436 36.435 44.1316C36.82 44.0936 37.208 44.0596 37.597 44.0276C37.618 44.2986 37.64 44.5716 37.663 44.8416C37.28 44.8736 36.897 44.9076 36.515 44.9456C36.561 45.4346 36.61 45.9226 36.659 46.4106C37.172 46.3616 37.686 46.3156 38.199 46.2766C38.221 46.5486 38.242 46.8216 38.263 47.0926C37.48 47.1526 36.695 47.2266 35.914 47.3116C35.719 45.5216 35.523 43.7336 35.327 41.9446C36.166 41.8516 37.006 41.7746 37.849 41.7086ZM33.191 42.2116C33.401 43.7256 33.608 45.2386 33.815 46.7516C34.293 46.6876 34.771 46.6266 35.252 46.5706C35.283 46.8386 35.314 47.1056 35.347 47.3746C34.599 47.4626 33.851 47.5616 33.105 47.6726C32.84 45.8946 32.576 44.1156 32.311 42.3366C32.604 42.2926 32.897 42.2526 33.191 42.2116ZM30.184 42.6836C30.452 44.1886 30.716 45.6936 30.984 47.1986C31.459 47.1146 31.936 47.0346 32.414 46.9596C32.458 47.2266 32.498 47.4936 32.541 47.7596C31.796 47.8776 31.051 48.0056 30.308 48.1456C29.975 46.3786 29.641 44.6116 29.307 42.8456C29.597 42.7906 29.89 42.7356 30.184 42.6836ZM28.701 42.9566C28.753 43.2246 28.808 43.4916 28.859 43.7596C28.327 43.8646 27.792 43.9756 27.259 44.0926C27.366 44.5706 27.469 45.0516 27.575 45.5286C27.955 45.4446 28.338 45.3646 28.72 45.2866C28.775 45.5546 28.829 45.8216 28.881 46.0896C28.504 46.1676 28.127 46.2466 27.75 46.3286C27.854 46.8086 27.96 47.2866 28.064 47.7676C28.571 47.6556 29.077 47.5516 29.586 47.4506C29.638 47.7186 29.693 47.9866 29.744 48.2536C28.969 48.4056 28.196 48.5716 27.428 48.7496C27.022 46.9956 26.617 45.2416 26.211 43.4886C27.041 43.2996 27.87 43.1206 28.701 42.9566ZM23.237 44.5726C23.435 44.2576 23.726 44.0476 24.109 43.9496C24.488 43.8486 24.848 43.8896 25.174 44.0706C25.502 44.2486 25.703 44.5136 25.786 44.8596C25.836 45.0606 25.885 45.2596 25.933 45.4576C25.639 45.5296 25.343 45.6016 25.049 45.6766C25 45.4726 24.948 45.2686 24.894 45.0636C24.865 44.9366 24.787 44.8446 24.669 44.7786C24.548 44.7156 24.422 44.7006 24.283 44.7356C24.148 44.7716 24.042 44.8476 23.97 44.9606C23.898 45.0756 23.881 45.1936 23.915 45.3206C24.168 46.2696 24.425 47.2226 24.678 48.1726C24.709 48.2986 24.787 48.3916 24.9 48.4546C25.015 48.5176 25.133 48.5326 25.265 48.4996C25.395 48.4666 25.493 48.3946 25.564 48.2826C25.633 48.1706 25.651 48.0536 25.622 47.9286C25.562 47.6866 25.499 47.4466 25.438 47.2066C25.726 47.1326 26.013 47.0626 26.301 46.9926C26.359 47.2366 26.419 47.4796 26.477 47.7246C26.56 48.0756 26.508 48.4006 26.313 48.7056C26.12 49.0106 25.852 49.2056 25.501 49.2986C25.144 49.3906 24.811 49.3506 24.493 49.1756C24.179 49.0016 23.97 48.7456 23.875 48.4036C23.61 47.4566 23.346 46.5126 23.081 45.5666C22.984 45.2196 23.035 44.8876 23.237 44.5726ZM20.147 45.1556C20.527 45.6186 20.904 46.0816 21.275 46.5496C21.318 45.9556 21.365 45.3596 21.417 44.7636C21.733 44.6686 22.053 44.5766 22.372 44.4866C22.242 45.4536 22.124 46.4186 22.023 47.3856C22.645 48.1426 23.255 48.9046 23.85 49.6746C23.563 49.7566 23.275 49.8396 22.99 49.9266C22.619 49.4396 22.248 48.9546 21.868 48.4706C21.825 49.0836 21.788 49.6966 21.756 50.3056C21.472 50.3976 21.187 50.4896 20.901 50.5846C20.962 49.6116 21.037 48.6366 21.123 47.6616C20.493 46.9216 19.855 46.1896 19.201 45.4626C19.517 45.3596 19.833 45.2556 20.147 45.1556ZM18.61 45.6576C18.699 45.9146 18.785 46.1746 18.875 46.4326C18.354 46.6096 17.836 46.7926 17.321 46.9806C17.488 47.4406 17.657 47.9026 17.824 48.3636C18.195 48.2286 18.566 48.0956 18.938 47.9666C19.027 48.2256 19.116 48.4836 19.206 48.7406C18.84 48.8686 18.472 48.9996 18.106 49.1316C18.273 49.5936 18.443 50.0556 18.61 50.5156C19.102 50.3356 19.593 50.1616 20.089 49.9936C20.179 50.2506 20.265 50.5106 20.354 50.7686C19.6 51.0246 18.849 51.2956 18.101 51.5776C17.465 49.8946 16.83 48.2096 16.194 46.5266C16.996 46.2226 17.802 45.9336 18.61 45.6576Z" fill="#555969"/>
<path d="M65.2791 49.2736C65.4081 49.3106 65.532 49.3006 65.644 49.2386C65.759 49.1766 65.839 49.0866 65.877 48.9646C66.155 48.0666 66.437 47.1676 66.717 46.2686C66.757 46.1456 66.74 46.0236 66.674 45.9096C66.602 45.7926 66.5071 45.7136 66.3741 45.6736C66.2051 45.6216 66.0321 45.5696 65.8621 45.5186C65.5031 46.7216 65.1451 47.9245 64.7891 49.1255C64.9511 49.1725 65.1151 49.2216 65.2791 49.2736Z" fill="#555969"/>
<path d="M62.7267 46.3007C62.8447 46.2347 62.9197 46.1397 62.9487 46.0157C63.0177 45.7627 63.0847 45.5077 63.1467 45.2527C63.2277 44.9507 63.1007 44.7557 62.7757 44.6727C62.6037 44.6277 62.4277 44.5847 62.2547 44.5427C62.1197 45.1027 61.9817 45.6607 61.8438 46.2187C62.0127 46.2617 62.1827 46.3037 62.3527 46.3447C62.4857 46.3807 62.6087 46.3657 62.7267 46.3007Z" fill="#555969"/>
<path d="M51.6931 43.1238C51.5141 43.8168 51.3371 44.5128 51.1641 45.2068C51.3741 45.2268 51.5811 45.2498 51.7911 45.2708C51.7631 44.5568 51.7311 43.8408 51.6931 43.1238Z" fill="#555969"/>
<path d="M59.0269 44.2378C58.7829 44.9108 58.5379 45.5848 58.2969 46.2608C58.5039 46.3008 58.7109 46.3428 58.9179 46.3848C58.9569 45.6708 58.9949 44.9538 59.0269 44.2378Z" fill="#555969"/>
<path d="M67.94 41.2999V6.73515C67.94 4.69891 66.179 3.04346 64.012 3.04346H23.428C21.261 3.04346 19.5 4.69891 19.5 6.73515V41.3008C19.992 41.1567 20.479 40.9992 20.974 40.8615V6.73515C20.974 5.43077 22.076 4.37034 23.428 4.37034H64.012C65.365 4.37034 66.467 5.43077 66.467 6.73515V40.8624C66.962 40.9965 67.447 41.1558 67.94 41.2999Z" fill="#555969"/>
<path d="M43.7162 67.5287C34.7182 67.5287 27.3293 60.9647 23.5973 55.6787C23.1173 55.8417 22.6332 55.9847 22.1562 56.1577C26.0842 61.9427 34.0282 69.0017 43.7162 69.0017C53.4052 69.0017 61.3503 61.9427 65.2783 56.1577C64.8033 55.9837 64.3172 55.8417 63.8372 55.6787C60.1063 60.9647 52.7172 67.5287 43.7162 67.5287Z" fill="#555969"/>
<path d="M17.0746 4.01216C17.0746 2.53044 18.4126 1.32598 20.0586 1.32598H67.3816C69.0276 1.32598 70.3646 2.53044 70.3646 4.01216V42.0228C70.8626 42.1848 71.3466 42.3757 71.8386 42.5467V4.01216C71.8386 1.80039 69.8386 0 67.3816 0H20.0586C17.6006 0 15.6016 1.80039 15.6016 4.01216V42.5458C16.0926 42.3748 16.5766 42.1857 17.0746 42.0219V4.01216Z" fill="#555969"/>
<path d="M68.0533 57.2559C63.9873 63.2699 54.9233 71.4999 43.7213 71.4999C32.5223 71.4999 23.4553 63.2709 19.3923 57.2579C18.9353 57.4489 18.4832 57.6479 18.0312 57.8509C22.3162 64.3789 31.9013 72.9739 43.7213 72.9739C55.5423 72.9739 65.1303 64.3759 69.4143 57.8499C68.9623 57.6469 68.5113 57.4469 68.0533 57.2559Z" fill="#555969"/>
<path d="M87.4433 58.6596C84.3763 56.2886 81.1593 54.1996 77.8333 52.3926C76.6993 54.4816 75.5653 56.5736 74.4323 58.6626C74.2623 58.9756 74.0923 59.2896 73.9223 59.6006C73.9253 59.6096 73.9283 59.6176 73.9313 59.6266C72.3313 59.4486 69.8763 59.5806 68.9453 59.8256C74.4843 62.0126 76.8523 63.9866 81.6953 67.8656C81.7783 65.6266 81.7473 63.3536 81.6003 61.0576C83.4903 60.1846 85.4413 59.3846 87.4433 58.6596Z" fill="#555969"/>
<path d="M13.512 59.6266C13.515 59.6176 13.518 59.6096 13.521 59.6006C13.351 59.2896 13.182 58.9766 13.012 58.6626C11.878 56.5736 10.744 54.4816 9.61102 52.3926C6.28502 54.1996 3.067 56.2886 0 58.6596C2.003 59.3846 3.954 60.1846 5.845 61.0566C5.699 63.3526 5.666 65.6256 5.75 67.8646C10.593 63.9856 12.961 62.0116 18.5 59.8246C17.566 59.5806 15.112 59.4476 13.512 59.6266Z" fill="#555969"/>
<path d="M23.5527 14.0746V13.7506H23.6697C23.6637 13.7506 23.9517 13.7566 24.5337 13.7686C25.0317 13.7746 25.5297 13.7746 26.0277 13.7686L26.8827 13.7506H26.9997V14.0746V14.3986H26.5137H26.0277V15.3886V16.3876H27.2517H28.4667V15.3886V14.3986H27.9807H27.4947V14.0746V13.7506H27.6117L28.4667 13.7686C28.9647 13.7746 29.4627 13.7746 29.9607 13.7686C30.5427 13.7566 30.8307 13.7506 30.8247 13.7506H30.9417V14.0746V14.3986H30.4557H29.9697V16.8376V19.2766H30.4557H30.9417V19.6006V19.9246H30.8247L29.9697 19.9066C29.4717 19.9006 28.9737 19.9006 28.4757 19.9066C27.8937 19.9186 27.6057 19.9246 27.6117 19.9246H27.4947V19.6006V19.2766H27.9807H28.4667V18.1516V17.0356H27.2517H26.0277V18.1516V19.2766H26.5137H26.9997V19.6006V19.9246H26.8827C26.8887 19.9246 26.6007 19.9186 26.0187 19.9066C25.5207 19.9006 25.0227 19.9006 24.5247 19.9066L23.6697 19.9246H23.5527V19.6006V19.2766H24.0387H24.5247V16.8376V14.3986H24.0387H23.5527V14.0746ZM34.9322 13.6516H35.4722H35.4812C35.5592 13.6816 35.6042 13.7146 35.6162 13.7506L37.7762 19.2316L37.7942 19.2766H38.2802H38.7572V19.6006V19.9246H38.6492L37.8752 19.9066C37.4372 19.9006 36.9632 19.9006 36.4532 19.9066L35.5802 19.9246H35.4632V19.6006V19.2766H35.8502L36.2372 19.2676L36.0752 18.8626L35.9132 18.4576H34.8062C34.0682 18.4576 33.6992 18.4606 33.6992 18.4666L33.5372 18.8716L33.3842 19.2676C33.3842 19.2736 33.5132 19.2766 33.7712 19.2766H34.1492V19.6006V19.9246H34.0592L33.3932 19.9066C33.0032 19.9006 32.6432 19.9006 32.3132 19.9066L31.7462 19.9246H31.6652V19.6006V19.2766H32.1422H32.6282L32.6462 19.2316L34.8062 13.7506C34.8242 13.7206 34.8662 13.6876 34.9322 13.6516ZM35.2382 16.7296L34.8152 15.6496H34.8062L33.9602 17.8096H34.8152L35.6612 17.8006L35.2382 16.7296ZM41.4584 13.6606C41.7104 13.6366 41.9534 13.6456 42.1874 13.6876C42.5174 13.7356 42.8294 13.8556 43.1234 14.0476C43.1594 14.0776 43.1864 14.0896 43.2044 14.0836C43.2344 14.0536 43.3124 13.9846 43.4384 13.8766C43.5944 13.7446 43.6754 13.6756 43.6814 13.6696C43.6994 13.6576 43.7414 13.6516 43.8074 13.6516C43.8794 13.6516 43.9244 13.6576 43.9424 13.6696C43.9724 13.6876 43.9904 13.7296 43.9964 13.7956C44.0024 13.8796 44.0054 14.1916 44.0054 14.7316C44.0054 15.4036 43.9844 15.7546 43.9424 15.7846C43.9184 15.7966 43.8314 15.8026 43.6814 15.8026C43.5314 15.8026 43.4444 15.7966 43.4204 15.7846C43.3844 15.7666 43.3604 15.7036 43.3484 15.5956C43.3124 15.4036 43.2554 15.2266 43.1774 15.0646C43.1054 14.9146 43.0064 14.7826 42.8804 14.6686C42.6224 14.4166 42.2624 14.2816 41.8004 14.2636C41.3084 14.2456 40.9964 14.4076 40.8644 14.7496C40.8344 14.8336 40.8194 14.9296 40.8194 15.0376C40.8194 15.1576 40.8404 15.2626 40.8824 15.3526C40.9724 15.5386 41.1344 15.6766 41.3684 15.7666C41.4104 15.7906 41.6414 15.8446 42.0614 15.9286C42.4934 16.0186 42.7334 16.0726 42.7814 16.0906C43.0454 16.1566 43.2824 16.2676 43.4924 16.4236C43.9244 16.7416 44.1854 17.1766 44.2754 17.7286C44.2994 17.8966 44.2994 18.1066 44.2754 18.3586C44.2394 18.5866 44.1704 18.8056 44.0684 19.0156C43.9484 19.2616 43.7894 19.4596 43.5914 19.6096C43.3154 19.8196 42.9824 19.9516 42.5924 20.0056C42.4424 20.0296 42.2114 20.0326 41.8994 20.0146C41.8694 20.0086 41.8454 20.0056 41.8274 20.0056C41.3114 19.9516 40.8974 19.8226 40.5854 19.6186C40.5494 19.5946 40.5224 19.5856 40.5044 19.5916C40.4744 19.6216 40.3964 19.6906 40.2704 19.7986C40.1144 19.9306 40.0334 19.9996 40.0274 20.0056C40.0094 20.0176 39.9674 20.0236 39.9014 20.0236C39.8294 20.0236 39.7844 20.0176 39.7664 20.0056C39.7364 19.9876 39.7184 19.9456 39.7124 19.8796C39.7064 19.7956 39.7034 19.4866 39.7034 18.9526C39.7034 18.2986 39.7094 17.9626 39.7214 17.9446C39.7274 17.9326 39.7394 17.9176 39.7574 17.8996C39.7874 17.8816 39.8744 17.8726 40.0184 17.8726C40.1744 17.8726 40.2644 17.8786 40.2884 17.8906C40.3304 17.9146 40.3514 17.9776 40.3514 18.0796C40.3694 18.4036 40.4834 18.6706 40.6934 18.8806C40.8494 19.0366 41.0654 19.1596 41.3414 19.2496C41.6954 19.3636 42.0494 19.4026 42.4034 19.3666C42.4514 19.3606 42.4934 19.3546 42.5294 19.3486C42.6974 19.3126 42.8354 19.2406 42.9434 19.1326C43.0634 19.0126 43.1414 18.8506 43.1774 18.6466C43.2254 18.3406 43.1414 18.0796 42.9254 17.8636C42.8354 17.7616 42.7184 17.6896 42.5744 17.6476C42.5504 17.6356 42.3104 17.5786 41.8544 17.4766C41.4224 17.3926 41.1764 17.3386 41.1164 17.3146C40.6724 17.1886 40.3244 16.9516 40.0724 16.6036C39.8144 16.2616 39.6914 15.8776 39.7034 15.4516C39.7214 15.0256 39.8474 14.6596 40.0814 14.3536C40.3034 14.0536 40.6274 13.8466 41.0534 13.7326C41.1974 13.6966 41.3324 13.6726 41.4584 13.6606ZM47.2065 13.6606C47.4585 13.6366 47.7015 13.6456 47.9355 13.6876C48.2655 13.7356 48.5775 13.8556 48.8715 14.0476C48.9075 14.0776 48.9345 14.0896 48.9525 14.0836C48.9825 14.0536 49.0605 13.9846 49.1865 13.8766C49.3425 13.7446 49.4235 13.6756 49.4295 13.6696C49.4475 13.6576 49.4895 13.6516 49.5555 13.6516C49.6275 13.6516 49.6725 13.6576 49.6905 13.6696C49.7205 13.6876 49.7385 13.7296 49.7445 13.7956C49.7505 13.8796 49.7535 14.1916 49.7535 14.7316C49.7535 15.4036 49.7325 15.7546 49.6905 15.7846C49.6665 15.7966 49.5795 15.8026 49.4295 15.8026C49.2795 15.8026 49.1925 15.7966 49.1685 15.7846C49.1325 15.7666 49.1085 15.7036 49.0965 15.5956C49.0605 15.4036 49.0035 15.2266 48.9255 15.0646C48.8535 14.9146 48.7545 14.7826 48.6285 14.6686C48.3705 14.4166 48.0105 14.2816 47.5485 14.2636C47.0565 14.2456 46.7445 14.4076 46.6125 14.7496C46.5825 14.8336 46.5675 14.9296 46.5675 15.0376C46.5675 15.1576 46.5885 15.2626 46.6305 15.3526C46.7205 15.5386 46.8825 15.6766 47.1165 15.7666C47.1585 15.7906 47.3895 15.8446 47.8095 15.9286C48.2415 16.0186 48.4815 16.0726 48.5295 16.0906C48.7935 16.1566 49.0305 16.2676 49.2405 16.4236C49.6725 16.7416 49.9335 17.1766 50.0235 17.7286C50.0475 17.8966 50.0475 18.1066 50.0235 18.3586C49.9875 18.5866 49.9185 18.8056 49.8165 19.0156C49.6965 19.2616 49.5375 19.4596 49.3395 19.6096C49.0635 19.8196 48.7305 19.9516 48.3405 20.0056C48.1905 20.0296 47.9595 20.0326 47.6475 20.0146C47.6175 20.0086 47.5935 20.0056 47.5755 20.0056C47.0595 19.9516 46.6455 19.8226 46.3335 19.6186C46.2975 19.5946 46.2705 19.5856 46.2525 19.5916C46.2225 19.6216 46.1445 19.6906 46.0185 19.7986C45.8625 19.9306 45.7815 19.9996 45.7755 20.0056C45.7575 20.0176 45.7155 20.0236 45.6495 20.0236C45.5775 20.0236 45.5325 20.0176 45.5145 20.0056C45.4845 19.9876 45.4665 19.9456 45.4605 19.8796C45.4545 19.7956 45.4515 19.4866 45.4515 18.9526C45.4515 18.2986 45.4575 17.9626 45.4695 17.9446C45.4755 17.9326 45.4875 17.9176 45.5055 17.8996C45.5355 17.8816 45.6225 17.8726 45.7665 17.8726C45.9225 17.8726 46.0125 17.8786 46.0365 17.8906C46.0785 17.9146 46.0995 17.9776 46.0995 18.0796C46.1175 18.4036 46.2315 18.6706 46.4415 18.8806C46.5975 19.0366 46.8135 19.1596 47.0895 19.2496C47.4435 19.3636 47.7975 19.4026 48.1515 19.3666C48.1995 19.3606 48.2415 19.3546 48.2775 19.3486C48.4455 19.3126 48.5835 19.2406 48.6915 19.1326C48.8115 19.0126 48.8895 18.8506 48.9255 18.6466C48.9735 18.3406 48.8895 18.0796 48.6735 17.8636C48.5835 17.7616 48.4665 17.6896 48.3225 17.6476C48.2985 17.6356 48.0585 17.5786 47.6025 17.4766C47.1705 17.3926 46.9245 17.3386 46.8645 17.3146C46.4205 17.1886 46.0725 16.9516 45.8205 16.6036C45.5625 16.2616 45.4395 15.8776 45.4515 15.4516C45.4695 15.0256 45.5955 14.6596 45.8295 14.3536C46.0515 14.0536 46.3755 13.8466 46.8015 13.7326C46.9455 13.6966 47.0805 13.6726 47.2065 13.6606ZM50.9745 14.0746V13.7506H51.0915C51.0855 13.7506 51.3735 13.7566 51.9555 13.7686C52.4535 13.7746 52.9875 13.7746 53.5575 13.7686L54.5385 13.7506H54.6645V14.0746V14.3986H54.0615H53.4495V16.8376V19.2766H53.8365C54.1125 19.2766 54.2775 19.2706 54.3315 19.2586C54.5775 19.2286 54.7995 19.1476 54.9975 19.0156C55.3635 18.7636 55.5945 18.3436 55.6905 17.7556C55.7385 17.4916 55.7625 17.3206 55.7625 17.2426C55.7625 17.2366 55.8705 17.2336 56.0865 17.2336H56.4105V17.2786C56.3985 17.3086 56.3535 17.7406 56.2755 18.5746C56.1855 19.4326 56.1375 19.8676 56.1315 19.8796V19.9246H53.5485H50.9745V19.6006V19.2766H51.4605H51.9465V16.8376V14.3986H51.4605H50.9745V14.0746ZM57.206 14.1286V13.8046H59.996H62.795V13.8406C62.801 13.8646 62.849 14.2516 62.939 15.0016C63.017 15.7336 63.062 16.1206 63.074 16.1626V16.1986H62.75H62.426L62.408 16.0456C62.354 15.6556 62.282 15.3586 62.192 15.1546C62.006 14.7766 61.661 14.5516 61.157 14.4796C60.995 14.4616 60.692 14.4526 60.248 14.4526H59.681V15.4336V16.4236H59.843C60.119 16.4236 60.32 16.3906 60.446 16.3246C60.548 16.2826 60.623 16.2166 60.671 16.1266C60.755 15.9886 60.797 15.7756 60.797 15.4876V15.3706H61.121H61.445V16.7476V18.1246H61.121H60.797V18.0076C60.797 17.7196 60.755 17.5066 60.671 17.3686C60.623 17.2786 60.548 17.2126 60.446 17.1706C60.32 17.1046 60.119 17.0716 59.843 17.0716H59.681V18.1696V19.2766H60.266C60.692 19.2766 60.932 19.2736 60.986 19.2676C61.598 19.2256 62.03 19.0276 62.282 18.6736C62.312 18.6376 62.351 18.5686 62.399 18.4666C62.507 18.2566 62.6 17.9266 62.678 17.4766C62.69 17.3566 62.702 17.2846 62.714 17.2606V17.2336H63.038H63.362V17.2606C63.356 17.2726 63.287 17.7106 63.155 18.5746C63.023 19.4446 62.954 19.8856 62.948 19.8976V19.9246H60.077H57.206V19.6006V19.2766H57.692H58.178V16.8646V14.4526H57.692H57.206V14.1286ZM29.8412 24.1286V23.8046H32.5592H35.2862V23.8406C35.2982 23.8826 35.3432 24.2696 35.4212 25.0016C35.5112 25.7516 35.5592 26.1386 35.5652 26.1626V26.1986H35.2412H34.9172C34.9172 26.1746 34.9082 26.1116 34.8902 26.0096C34.8602 25.7696 34.8272 25.5866 34.7912 25.4606C34.6712 24.9926 34.4072 24.6896 33.9992 24.5516C33.9392 24.5276 33.8732 24.5096 33.8012 24.4976C33.6812 24.4736 33.3872 24.4586 32.9192 24.4526H32.3162V25.4966V26.5406H32.4602C32.8082 26.5406 33.0482 26.4746 33.1802 26.3426C33.2942 26.2286 33.3602 26.0036 33.3782 25.6676V25.4876H33.7022H34.0262V26.8646V28.2416H33.7022H33.3782V28.0616C33.3602 27.7256 33.2942 27.5006 33.1802 27.3866C33.0482 27.2546 32.8082 27.1886 32.4602 27.1886H32.3162V28.2326V29.2766H32.9282H33.5312V29.6006V29.9246H33.4052L32.4242 29.9066C31.8542 29.9006 31.3202 29.9006 30.8222 29.9066C30.2402 29.9186 29.9522 29.9246 29.9582 29.9246H29.8412V29.6006V29.2766H30.3272H30.8132V26.8646V24.4526H30.3272H29.8412V24.1286ZM36.3539 24.0746V23.7506H38.2169C39.4769 23.7566 40.2119 23.7716 40.4219 23.7956C41.0339 23.8796 41.5259 24.0686 41.8979 24.3626C42.1799 24.6026 42.3599 24.8966 42.4379 25.2446C42.4619 25.3766 42.4619 25.5296 42.4379 25.7036C42.3899 25.8896 42.3149 26.0546 42.2129 26.1986C42.0809 26.3846 41.9129 26.5376 41.7089 26.6576C41.6009 26.7176 41.4569 26.7866 41.2769 26.8646L41.1869 26.9006L41.2589 26.9366C41.4629 27.0686 41.6159 27.2096 41.7179 27.3596C41.8019 27.4676 41.8589 27.5726 41.8889 27.6746C41.9309 27.7646 41.9729 27.9896 42.0149 28.3496C42.0629 28.7156 42.0989 28.9316 42.1229 28.9976C42.2189 29.3096 42.4169 29.4656 42.7169 29.4656C42.7829 29.4656 42.8309 29.4596 42.8609 29.4476C42.9809 29.3456 43.0529 29.2106 43.0769 29.0426C43.0769 28.9766 43.1069 28.9226 43.1669 28.8806C43.2089 28.8626 43.3409 28.8596 43.5629 28.8716C43.6049 28.8716 43.6289 28.8746 43.6349 28.8806C43.6769 28.9046 43.7039 28.9406 43.7159 28.9886C43.7399 29.0426 43.7339 29.1356 43.6979 29.2676C43.6019 29.6216 43.3889 29.8556 43.0589 29.9696C42.9989 29.9876 42.9389 30.0026 42.8789 30.0146C42.6929 30.0446 42.3779 30.0386 41.9339 29.9966C41.1119 29.9126 40.6349 29.6126 40.5029 29.0966C40.4909 29.0606 40.4819 29.0216 40.4759 28.9796C40.4699 28.9376 40.4669 28.7486 40.4669 28.4126C40.4669 28.0466 40.4519 27.8126 40.4219 27.7106C40.3379 27.4466 40.1819 27.2636 39.9539 27.1616C39.8699 27.1256 39.6689 27.1076 39.3509 27.1076H39.2519H38.7749V28.1876V29.2766H39.2609H39.7469V29.6006V29.9246H39.6299C39.6359 29.9246 39.3539 29.9186 38.7839 29.9066C38.2979 29.9006 37.8089 29.9006 37.3169 29.9066C36.7469 29.9186 36.4649 29.9246 36.4709 29.9246H36.3539V29.6006V29.2766H36.8399H37.3259V26.8376V24.3986H36.8399H36.3539V24.0746ZM39.8909 24.4076C39.8429 24.4016 39.6329 24.3986 39.2609 24.3986H38.7749V25.4786V26.5586H39.3509C39.7829 26.5526 40.0649 26.5346 40.1969 26.5046C40.3409 26.4746 40.4789 26.4176 40.6109 26.3336C40.7249 26.2436 40.7999 26.1026 40.8359 25.9106C40.8659 25.7066 40.8689 25.4606 40.8449 25.1726C40.8269 24.8966 40.7399 24.7046 40.5839 24.5966C40.5539 24.5786 40.5209 24.5606 40.4849 24.5426C40.3169 24.4706 40.1189 24.4256 39.8909 24.4076ZM44.1147 24.1286V23.8046H46.9047H49.7037V23.8406C49.7097 23.8646 49.7577 24.2516 49.8477 25.0016C49.9257 25.7336 49.9707 26.1206 49.9827 26.1626V26.1986H49.6587H49.3347L49.3167 26.0456C49.2627 25.6556 49.1907 25.3586 49.1007 25.1546C48.9147 24.7766 48.5697 24.5516 48.0657 24.4796C47.9037 24.4616 47.6007 24.4526 47.1567 24.4526H46.5897V25.4336V26.4236H46.7517C47.0277 26.4236 47.2287 26.3906 47.3547 26.3246C47.4567 26.2826 47.5317 26.2166 47.5797 26.1266C47.6637 25.9886 47.7057 25.7756 47.7057 25.4876V25.3706H48.0297H48.3537V26.7476V28.1246H48.0297H47.7057V28.0076C47.7057 27.7196 47.6637 27.5066 47.5797 27.3686C47.5317 27.2786 47.4567 27.2126 47.3547 27.1706C47.2287 27.1046 47.0277 27.0716 46.7517 27.0716H46.5897V28.1696V29.2766H47.1747C47.6007 29.2766 47.8407 29.2736 47.8947 29.2676C48.5067 29.2256 48.9387 29.0276 49.1907 28.6736C49.2207 28.6376 49.2597 28.5686 49.3077 28.4666C49.4157 28.2566 49.5087 27.9266 49.5867 27.4766C49.5987 27.3566 49.6107 27.2846 49.6227 27.2606V27.2336H49.9467H50.2707V27.2606C50.2647 27.2726 50.1957 27.7106 50.0637 28.5746C49.9317 29.4446 49.8627 29.8856 49.8567 29.8976V29.9246H46.9857H44.1147V29.6006V29.2766H44.6007H45.0867V26.8646V24.4526H44.6007H44.1147V24.1286ZM50.9174 24.1286V23.8046H53.7074H56.5064V23.8406C56.5124 23.8646 56.5604 24.2516 56.6504 25.0016C56.7284 25.7336 56.7734 26.1206 56.7854 26.1626V26.1986H56.4614H56.1374L56.1194 26.0456C56.0654 25.6556 55.9934 25.3586 55.9034 25.1546C55.7174 24.7766 55.3724 24.5516 54.8684 24.4796C54.7064 24.4616 54.4034 24.4526 53.9594 24.4526H53.3924V25.4336V26.4236H53.5544C53.8304 26.4236 54.0314 26.3906 54.1574 26.3246C54.2594 26.2826 54.3344 26.2166 54.3824 26.1266C54.4664 25.9886 54.5084 25.7756 54.5084 25.4876V25.3706H54.8324H55.1564V26.7476V28.1246H54.8324H54.5084V28.0076C54.5084 27.7196 54.4664 27.5066 54.3824 27.3686C54.3344 27.2786 54.2594 27.2126 54.1574 27.1706C54.0314 27.1046 53.8304 27.0716 53.5544 27.0716H53.3924V28.1696V29.2766H53.9774C54.4034 29.2766 54.6434 29.2736 54.6974 29.2676C55.3094 29.2256 55.7414 29.0276 55.9934 28.6736C56.0234 28.6376 56.0624 28.5686 56.1104 28.4666C56.2184 28.2566 56.3114 27.9266 56.3894 27.4766C56.4014 27.3566 56.4134 27.2846 56.4254 27.2606V27.2336H56.7494H57.0734V27.2606C57.0674 27.2726 56.9984 27.7106 56.8664 28.5746C56.7344 29.4446 56.6654 29.8856 56.6594 29.8976V29.9246H53.7884H50.9174V29.6006V29.2766H51.4034H51.8894V26.8646V24.4526H51.4034H50.9174V24.1286Z" fill="#555969"/>
</svg>
