<svg width="87" height="74" viewBox="0 0 87 74" fill="none" xmlns="http://www.w3.org/2000/svg">
<path d="M49.7818 11.9802C49.2438 13.3472 48.0438 14.4542 46.8228 14.3562C45.2248 14.2242 44.0698 12.4302 44.2418 10.3422C44.2628 10.0632 44.3087 9.79323 44.3727 9.53223H43.2657H42.1578C42.2208 9.79323 42.2667 10.0622 42.2887 10.3422C42.4607 12.4302 41.3028 14.2242 39.7078 14.3562C38.4878 14.4542 37.2847 13.3472 36.7487 11.9802L35.2188 11.9732L38.5568 19.1222H43.2668H47.9727L51.3138 11.9732L49.7818 11.9802Z" fill="#555969"/>
<path d="M36.7321 10.3391C36.7321 10.8771 36.2971 11.3101 35.7591 11.3101C35.2241 11.3101 34.7891 10.8771 34.7891 10.3391C34.7891 9.80411 35.2241 9.37012 35.7591 9.37012C36.2981 9.37112 36.7321 9.80411 36.7321 10.3391Z" fill="#555969"/>
<path d="M49.7969 10.3391C49.7969 10.8771 50.2339 11.3101 50.7669 11.3101C51.3049 11.3101 51.7369 10.8771 51.7369 10.3391C51.7369 9.80411 51.3049 9.37012 50.7669 9.37012C50.2329 9.37112 49.7969 9.80411 49.7969 10.3391Z" fill="#555969"/>
<path d="M30.4136 18.2789L29.0396 18.2729L28.2526 19.4019L27.8326 18.091L26.5156 17.69L27.6336 16.888L27.6046 15.5129L28.7146 16.3259L30.0146 15.8749L29.5826 17.1829L30.4136 18.2789Z" fill="#555969"/>
<path d="M56.1016 18.2789L57.4806 18.2729L58.2656 19.4019L58.6836 18.091L60.0026 17.69L58.8836 16.888L58.9136 15.5129L57.8036 16.3259L56.5036 15.8749L56.9356 17.1829L56.1016 18.2789Z" fill="#555969"/>
<path d="M30.4136 57.1631L29.0396 57.1681L28.2526 56.04L27.8326 57.351L26.5156 57.7501L27.6336 58.553L27.6046 59.928L28.7146 59.1151L30.0146 59.566L29.5826 58.2581L30.4136 57.1631Z" fill="#555969"/>
<path d="M56.1016 57.1631L57.4806 57.1681L58.2656 56.04L58.6836 57.351L60.0026 57.7501L58.8836 58.553L58.9136 59.928L57.8036 59.1151L56.5036 59.566L56.9356 58.2581L56.1016 57.1631Z" fill="#555969"/>
<path d="M44.3244 62.9689L43.1124 62.3229L41.8884 62.9549L42.1294 61.5989L41.1484 60.6309L42.5134 60.4419L43.1294 59.2109L43.7334 60.4509L45.0944 60.6579L44.1004 61.6099L44.3244 62.9689Z" fill="#555969"/>
<path d="M43.2596 6.354C42.5736 6.354 42.0156 6.913 42.0156 7.597C42.0156 8.284 42.5746 8.84001 43.2596 8.84001C43.9446 8.84001 44.5016 8.283 44.5016 7.597C44.5016 6.913 43.9436 6.354 43.2596 6.354Z" fill="#555969"/>
<path d="M86.523 45.3069H0V47.9519H86.523V45.3069Z" fill="#555969"/>
<path d="M86.523 26.395H0V29.039H86.523V26.395Z" fill="#555969"/>
<path d="M43.2586 2.87201C57.5406 2.87201 69.7386 11.745 74.6726 24.276H77.7536C72.6806 10.126 59.1556 0 43.2586 0C27.3596 0 13.8376 10.126 8.76562 24.276H11.8426C16.7776 11.745 28.9726 2.87201 43.2586 2.87201Z" fill="#555969"/>
<path d="M43.2599 70.4161C29.3809 70.4161 17.4679 62.0391 12.2759 50.0701H9.17188C14.5289 63.6621 27.7639 73.2861 43.2609 73.2861C58.7549 73.2861 71.9919 63.6621 77.3489 50.0701H74.2449C69.0499 62.0391 57.1359 70.4161 43.2599 70.4161Z" fill="#555969"/>
<path d="M5.40846 40.6284H3.28846V33.4418L2.9618 32.8151H5.41513L6.6418 35.3484L7.81513 37.8751L7.48846 34.9084V32.8151H9.61513V40.6284H7.5818L5.99513 37.5418L5.01513 35.6084L5.40846 38.1684V40.6284ZM12.775 37.6084C12.775 38.3462 12.8306 38.8595 12.9417 39.1484C13.0572 39.4373 13.2572 39.5818 13.5417 39.5818C13.7506 39.5818 13.9084 39.5306 14.015 39.4284C14.1217 39.3218 14.2017 39.1062 14.255 38.7818C14.3128 38.4529 14.3417 37.9618 14.3417 37.3084V35.7018C14.3417 35.0662 14.2795 34.5929 14.155 34.2818C14.0306 33.9706 13.8261 33.8151 13.5417 33.8151C13.2572 33.8151 13.0572 33.9684 12.9417 34.2751C12.8306 34.5773 12.775 35.1306 12.775 35.9351V37.6084ZM13.4017 40.7684C13.0328 40.7684 12.6995 40.7351 12.4017 40.6684C12.1084 40.6018 11.855 40.5084 11.6417 40.3884C11.4284 40.2684 11.2417 40.1151 11.0817 39.9284C10.9261 39.7418 10.7995 39.5418 10.7017 39.3284C10.6084 39.1151 10.5328 38.8662 10.475 38.5818C10.4172 38.2929 10.3772 38.0062 10.355 37.7218C10.3328 37.4329 10.3217 37.1084 10.3217 36.7484C10.3217 36.2151 10.3484 35.7506 10.4017 35.3551C10.4595 34.9595 10.5639 34.5884 10.715 34.2418C10.8661 33.8906 11.0661 33.6062 11.315 33.3884C11.5684 33.1706 11.8928 32.9995 12.2884 32.8751C12.6884 32.7506 13.1595 32.6884 13.7017 32.6884C14.075 32.6884 14.4106 32.724 14.7084 32.7951C15.0061 32.8618 15.2617 32.9551 15.475 33.0751C15.6884 33.1951 15.8728 33.3506 16.0284 33.5418C16.1884 33.7329 16.315 33.9373 16.4084 34.1551C16.5061 34.3684 16.5839 34.6195 16.6417 34.9084C16.6995 35.1973 16.7395 35.484 16.7617 35.7684C16.7839 36.0529 16.795 36.3751 16.795 36.7351C16.795 37.2684 16.7661 37.7329 16.7084 38.1284C16.6506 38.524 16.5461 38.8951 16.395 39.2418C16.2439 39.584 16.0417 39.864 15.7884 40.0818C15.535 40.2951 15.2084 40.464 14.8084 40.5884C14.4128 40.7084 13.9439 40.7684 13.4017 40.7684ZM22.4235 37.6084C22.4235 38.3462 22.479 38.8595 22.5901 39.1484C22.7057 39.4373 22.9057 39.5818 23.1901 39.5818C23.399 39.5818 23.5568 39.5306 23.6635 39.4284C23.7701 39.3218 23.8501 39.1062 23.9035 38.7818C23.9612 38.4529 23.9901 37.9618 23.9901 37.3084V35.7018C23.9901 35.0662 23.9279 34.5929 23.8035 34.2818C23.679 33.9706 23.4746 33.8151 23.1901 33.8151C22.9057 33.8151 22.7057 33.9684 22.5901 34.2751C22.479 34.5773 22.4235 35.1306 22.4235 35.9351V37.6084ZM23.0501 40.7684C22.6812 40.7684 22.3479 40.7351 22.0501 40.6684C21.7568 40.6018 21.5035 40.5084 21.2901 40.3884C21.0768 40.2684 20.8901 40.1151 20.7301 39.9284C20.5746 39.7418 20.4479 39.5418 20.3501 39.3284C20.2568 39.1151 20.1812 38.8662 20.1235 38.5818C20.0657 38.2929 20.0257 38.0062 20.0035 37.7218C19.9812 37.4329 19.9701 37.1084 19.9701 36.7484C19.9701 36.2151 19.9968 35.7506 20.0501 35.3551C20.1079 34.9595 20.2124 34.5884 20.3635 34.2418C20.5146 33.8906 20.7146 33.6062 20.9635 33.3884C21.2168 33.1706 21.5412 32.9995 21.9368 32.8751C22.3368 32.7506 22.8079 32.6884 23.3501 32.6884C23.7235 32.6884 24.059 32.724 24.3568 32.7951C24.6546 32.8618 24.9101 32.9551 25.1235 33.0751C25.3368 33.1951 25.5212 33.3506 25.6768 33.5418C25.8368 33.7329 25.9635 33.9373 26.0568 34.1551C26.1546 34.3684 26.2324 34.6195 26.2901 34.9084C26.3479 35.1973 26.3879 35.484 26.4101 35.7684C26.4324 36.0529 26.4435 36.3751 26.4435 36.7351C26.4435 37.2684 26.4146 37.7329 26.3568 38.1284C26.299 38.524 26.1946 38.8951 26.0435 39.2418C25.8924 39.584 25.6901 39.864 25.4368 40.0818C25.1835 40.2951 24.8568 40.464 24.4568 40.5884C24.0612 40.7084 23.5924 40.7684 23.0501 40.7684ZM29.8561 39.3218C30.1717 39.3218 30.4028 39.2329 30.5495 39.0551C30.6961 38.8773 30.7695 38.6662 30.7695 38.4218V37.9551C30.7695 37.6662 30.6761 37.4618 30.4895 37.3418C30.3028 37.2173 30.0917 37.1551 29.8561 37.1551H29.3361V39.3218H29.8561ZM30.6761 34.8151C30.6761 34.5484 30.6028 34.364 30.4561 34.2618C30.3095 34.1551 30.0983 34.1018 29.8228 34.1018H29.3361V36.0284H29.8761C30.1339 36.0284 30.3317 35.9284 30.4695 35.7284C30.6072 35.524 30.6761 35.2751 30.6761 34.9818V34.8151ZM30.3095 40.6884C29.9628 40.6884 29.5139 40.6795 28.9628 40.6618C28.4117 40.644 28.0161 40.6329 27.7761 40.6284H27.1361V32.8151H28.2895C28.5695 32.8151 28.8895 32.8062 29.2495 32.7884C29.6095 32.7662 29.8695 32.7551 30.0295 32.7551C30.5495 32.7551 30.9872 32.7973 31.3428 32.8818C31.7028 32.9662 31.985 33.0929 32.1895 33.2618C32.3939 33.4306 32.5383 33.6262 32.6228 33.8484C32.7117 34.0706 32.7561 34.3351 32.7561 34.6418C32.7561 35.1129 32.6472 35.5173 32.4295 35.8551C32.2117 36.1929 31.8961 36.404 31.4828 36.4884C32.5317 36.5818 33.0561 37.1973 33.0561 38.3351C33.0561 38.6773 33.005 38.9884 32.9028 39.2684C32.8006 39.544 32.6428 39.7906 32.4295 40.0084C32.2206 40.2218 31.9361 40.3884 31.5761 40.5084C31.2161 40.6284 30.7939 40.6884 30.3095 40.6884ZM33.6791 40.6284V32.8151H35.8858V38.8418H37.8724V40.6284H33.6791ZM38.5038 40.6284V32.8151H40.7771V40.6284H38.5038ZM46.4469 39.9218C45.8825 40.4862 45.2113 40.7684 44.4336 40.7684C43.8825 40.7684 43.4047 40.6729 43.0002 40.4818C42.6002 40.2906 42.2825 40.0151 42.0469 39.6551C41.8113 39.2951 41.638 38.884 41.5269 38.4218C41.4202 37.9595 41.3669 37.4329 41.3669 36.8418C41.3669 36.4018 41.3891 36.0062 41.4336 35.6551C41.4825 35.304 41.5602 34.9684 41.6669 34.6484C41.7736 34.3284 41.9202 34.0529 42.1069 33.8218C42.2936 33.5862 42.5225 33.3818 42.7936 33.2084C43.0647 33.0351 43.3936 32.9062 43.7802 32.8218C44.1669 32.7329 44.6069 32.6884 45.1002 32.6884C45.3225 32.6884 45.5336 32.7018 45.7336 32.7284C45.938 32.7551 46.1113 32.7884 46.2536 32.8284C46.3958 32.864 46.5291 32.9106 46.6536 32.9684C46.7825 33.0218 46.8825 33.0706 46.9536 33.1151C47.0291 33.1551 47.098 33.1995 47.1602 33.2484C47.2225 33.2973 47.2602 33.3306 47.2736 33.3484C47.2913 33.3662 47.3047 33.3795 47.3136 33.3884L47.2136 34.9218H46.0002L45.6202 34.0351C45.5225 33.9818 45.3647 33.9551 45.1469 33.9551C44.9691 33.9551 44.8225 33.9706 44.7069 34.0018C44.5913 34.0329 44.4758 34.0995 44.3602 34.2018C44.2491 34.2995 44.1602 34.444 44.0936 34.6351C44.0313 34.8218 43.9802 35.0773 43.9402 35.4018C43.9002 35.7218 43.8802 36.1129 43.8802 36.5751C43.8802 37.5395 43.9313 38.2551 44.0336 38.7218C44.1402 39.1884 44.3513 39.4218 44.6669 39.4218C44.8225 39.4218 44.9536 39.4084 45.0602 39.3818C45.1669 39.3506 45.2669 39.2973 45.3602 39.2218C45.4536 39.1418 45.5225 39.0262 45.5669 38.8751C45.6113 38.7195 45.6336 38.5218 45.6336 38.2818V37.6018L44.7536 37.4018V36.0418H47.7202L47.7136 40.6284H46.5269L46.4469 39.9218ZM52.2195 40.6284L51.9195 39.3818H50.0261L49.7728 40.6284H47.8128L49.8461 33.3551L49.6861 32.8151H52.4395L54.6661 40.6284H52.2195ZM50.8861 35.1084L50.2995 38.0218H51.5928L50.8861 35.1084ZM56.1691 40.6284V34.5818H54.6091V32.8151H59.9824V34.5818H58.4224V40.6284H56.1691ZM60.5936 40.6284V32.8151H62.867V40.6284H60.5936ZM66.0367 37.6084C66.0367 38.3462 66.0923 38.8595 66.2034 39.1484C66.319 39.4373 66.519 39.5818 66.8034 39.5818C67.0123 39.5818 67.1701 39.5306 67.2767 39.4284C67.3834 39.3218 67.4634 39.1062 67.5167 38.7818C67.5745 38.4529 67.6034 37.9618 67.6034 37.3084V35.7018C67.6034 35.0662 67.5412 34.5929 67.4167 34.2818C67.2923 33.9706 67.0879 33.8151 66.8034 33.8151C66.519 33.8151 66.319 33.9684 66.2034 34.2751C66.0923 34.5773 66.0367 35.1306 66.0367 35.9351V37.6084ZM66.6634 40.7684C66.2945 40.7684 65.9612 40.7351 65.6634 40.6684C65.3701 40.6018 65.1167 40.5084 64.9034 40.3884C64.6901 40.2684 64.5034 40.1151 64.3434 39.9284C64.1879 39.7418 64.0612 39.5418 63.9634 39.3284C63.8701 39.1151 63.7945 38.8662 63.7367 38.5818C63.679 38.2929 63.639 38.0062 63.6167 37.7218C63.5945 37.4329 63.5834 37.1084 63.5834 36.7484C63.5834 36.2151 63.6101 35.7506 63.6634 35.3551C63.7212 34.9595 63.8256 34.5884 63.9767 34.2418C64.1279 33.8906 64.3279 33.6062 64.5767 33.3884C64.8301 33.1706 65.1545 32.9995 65.5501 32.8751C65.9501 32.7506 66.4212 32.6884 66.9634 32.6884C67.3367 32.6884 67.6723 32.724 67.9701 32.7951C68.2679 32.8618 68.5234 32.9551 68.7367 33.0751C68.9501 33.1951 69.1345 33.3506 69.2901 33.5418C69.4501 33.7329 69.5767 33.9373 69.6701 34.1551C69.7679 34.3684 69.8456 34.6195 69.9034 34.9084C69.9612 35.1973 70.0012 35.484 70.0234 35.7684C70.0456 36.0529 70.0567 36.3751 70.0567 36.7351C70.0567 37.2684 70.0279 37.7329 69.9701 38.1284C69.9123 38.524 69.8079 38.8951 69.6567 39.2418C69.5056 39.584 69.3034 39.864 69.0501 40.0818C68.7967 40.2951 68.4701 40.464 68.0701 40.5884C67.6745 40.7084 67.2056 40.7684 66.6634 40.7684ZM72.8694 40.6284H70.7494V33.4418L70.4227 32.8151H72.8761L74.1027 35.3484L75.2761 37.8751L74.9494 34.9084V32.8151H77.0761V40.6284H75.0427L73.4561 37.5418L72.4761 35.6084L72.8694 38.1684V40.6284ZM80.3026 40.7684C79.9604 40.7684 79.6404 40.7373 79.3426 40.6751C79.0493 40.6173 78.8026 40.5395 78.6026 40.4418C78.4026 40.344 78.2382 40.2506 78.1093 40.1618C77.9849 40.0729 77.8804 39.984 77.796 39.8951L77.9626 38.2751C78.1449 38.5195 78.3893 38.7329 78.696 38.9151C79.0026 39.0929 79.3337 39.1818 79.6893 39.1818C80.0449 39.1818 80.3004 39.144 80.456 39.0684C80.616 38.9929 80.696 38.8551 80.696 38.6551C80.696 38.4418 80.6049 38.2595 80.4226 38.1084C80.2449 37.9573 79.936 37.7751 79.496 37.5618C79.336 37.4818 79.2004 37.4106 79.0893 37.3484C78.9782 37.2818 78.8293 37.1751 78.6426 37.0284C78.4604 36.8773 78.3115 36.7218 78.196 36.5618C78.0804 36.3973 77.9782 36.1884 77.8893 35.9351C77.8004 35.6773 77.756 35.4018 77.756 35.1084C77.756 33.5218 78.6515 32.7284 80.4426 32.7284C80.7271 32.7284 80.9937 32.7595 81.2426 32.8218C81.496 32.8795 81.6937 32.944 81.836 33.0151C81.9782 33.0862 82.1071 33.1706 82.2226 33.2684C82.3426 33.3618 82.4182 33.4284 82.4493 33.4684C82.4804 33.504 82.5026 33.5329 82.516 33.5551L82.1826 34.8418C82.0093 34.6373 81.7915 34.4862 81.5293 34.3884C81.2715 34.2862 81.0249 34.2351 80.7893 34.2351C80.2204 34.2351 79.936 34.4129 79.936 34.7684C79.936 34.8618 79.9537 34.9462 79.9893 35.0218C80.0249 35.0973 80.0826 35.1662 80.1626 35.2284C80.2426 35.2906 80.316 35.344 80.3826 35.3884C80.4537 35.4329 80.5493 35.4884 80.6693 35.5551C80.7937 35.6173 80.8871 35.6684 80.9493 35.7084C81.5982 35.984 82.0737 36.3106 82.376 36.6884C82.6826 37.0662 82.836 37.5262 82.836 38.0684C82.836 38.9484 82.6182 39.6195 82.1826 40.0818C81.7515 40.5395 81.1249 40.7684 80.3026 40.7684Z" fill="#555969"/>
</svg>
