<svg width="81" height="72" viewBox="0 0 81 72" fill="none" xmlns="http://www.w3.org/2000/svg">
<path d="M80.2384 38.291C80.2384 44.838 74.9295 50.145 68.3815 50.145H12.3784C5.82943 50.145 0.523438 44.838 0.523438 38.291C0.523438 31.744 5.82943 26.438 12.3784 26.438H68.3815C74.9295 26.439 80.2384 31.744 80.2384 38.291Z" fill="#555969"/>
<path d="M40.4172 61.584C48.4592 61.584 55.6362 57.882 60.3412 52.092H20.4922C25.1992 57.882 32.3742 61.584 40.4172 61.584Z" fill="#555969"/>
<path d="M65.9033 52.0929C60.0493 61.3479 49.3533 67.0869 37.6943 66.0479C27.9513 65.1819 19.7053 59.7709 14.8463 52.0929H12.3713C11.4743 52.0929 10.5993 52.0009 9.75131 51.8359L9.44531 54.4859L12.5853 55.7259L12.7273 59.0949L16.0173 59.8289L16.6813 63.1359L20.0473 63.3489L21.2233 66.5119L24.5803 66.1939L26.2363 69.1319L29.5033 68.2909L31.6003 70.9319L34.6963 69.5879L37.1783 71.8689L40.0283 70.0639L42.8363 71.9319L45.3673 69.7029L48.4323 71.1069L50.5813 68.5079L53.8303 69.4129L55.5413 66.5079L58.8943 66.8919L60.1303 63.7549L63.5013 63.6119L64.2363 60.3209L67.5433 59.6549L67.7573 56.2899L70.9193 55.1149L70.6163 51.8929C69.8843 52.0139 69.1393 52.0909 68.3753 52.0909H65.9033V52.0929Z" fill="#555969"/>
<path d="M12.4349 24.491C17.3269 12.571 29.548 4.685 43.055 5.886C54.671 6.92 64.155 14.405 68.309 24.491H68.378C70.019 24.491 71.5849 24.794 73.0439 25.32L73.822 22.511L70.92 20.799L71.304 17.448L68.166 16.21L68.0229 12.841L64.7329 12.107L64.0689 8.798L60.7 8.585L59.529 5.422L56.17 5.738L54.5139 2.8L51.252 3.643L49.149 1L46.0559 2.347L43.572 0.0640011L40.722 1.87L37.9149 0L35.3849 2.23L32.318 0.824001L30.171 3.424L26.9219 2.52L25.209 5.425L21.86 5.039L20.6209 8.175L17.252 8.32L16.5139 11.61L13.21 12.277L12.9949 15.641L9.83295 16.815L10.1479 20.172L7.21094 21.828L8.05194 25.094L7.81995 25.278C9.24895 24.777 10.7789 24.49 12.3749 24.49L12.4349 24.491Z" fill="#555969"/>
<path d="M40.4245 10.2451C30.3525 10.2451 21.6415 16.0481 17.4375 24.4901H63.4135C59.2095 16.0481 50.4975 10.2451 40.4245 10.2451ZM29.1585 19.7991L28.5665 21.4371L28.0805 19.7631L26.3385 19.7051L27.7825 18.7291L27.2995 17.0541L28.6755 18.1251L30.1165 17.1491L29.5245 18.7881L30.8995 19.8581L29.1585 19.7991ZM41.8205 15.9161L40.3845 14.8721L38.9455 15.9161L39.4975 14.2261L38.0575 13.1821H39.8345L40.3855 11.4921L40.9325 13.1821H42.7085L41.2705 14.2261L41.8205 15.9161ZM52.7675 19.7621L52.2855 21.4361L51.6925 19.7981L49.9515 19.8561L51.3255 18.7861L50.7325 17.1471L52.1735 18.1231L53.5485 17.0521L53.0655 18.7271L54.5085 19.7031L52.7675 19.7621Z" fill="#555969"/>
<path d="M13.4145 42.6755H10.7665V33.2995H11.8225C12.1051 33.2995 12.5318 33.2889 13.1025 33.2675C13.6731 33.2409 14.1425 33.2275 14.5105 33.2275C15.5451 33.2275 16.3291 33.5022 16.8625 34.0515C17.3958 34.6009 17.6625 35.4249 17.6625 36.5235C17.6625 37.1849 17.5745 37.7875 17.3985 38.3315C17.2278 38.8702 16.9958 39.3129 16.7025 39.6595C16.4091 40.0062 16.0758 40.2729 15.7025 40.4595C15.3291 40.6462 14.9345 40.7395 14.5185 40.7395C14.4651 40.7395 14.4091 40.7395 14.3505 40.7395C14.2971 40.7395 14.2465 40.7395 14.1985 40.7395C14.1558 40.7342 14.1025 40.7315 14.0385 40.7315C13.9798 40.7262 13.9318 40.7235 13.8945 40.7235C13.8625 40.7182 13.8145 40.7155 13.7505 40.7155C13.6918 40.7102 13.6518 40.7075 13.6305 40.7075C13.6091 40.7075 13.5691 40.7049 13.5105 40.6995C13.4518 40.6942 13.4198 40.6915 13.4145 40.6915V42.6755ZM15.0385 36.1715C15.0385 35.7769 14.9318 35.4569 14.7185 35.2115C14.5051 34.9662 14.1985 34.8435 13.7985 34.8435H13.4145V39.0035H13.7105C14.1318 39.0035 14.4571 38.8622 14.6865 38.5795C14.9211 38.2969 15.0385 37.8889 15.0385 37.3555V36.1715ZM22.8665 42.6755L22.5065 41.1795H20.2345L19.9305 42.6755H17.5785L20.0185 33.9475L19.8265 33.2995H23.1305L25.8025 42.6755H22.8665ZM21.2665 36.0515L20.5625 39.5475H22.1145L21.2665 36.0515ZM27.838 42.6755V39.7475L25.182 33.2995H28.214L29.038 35.7155L29.59 37.6915L30.046 35.7155L30.67 33.2995H33.054L30.71 39.6995V42.6755H27.838ZM40.9837 42.6755L40.6237 41.1795H38.3517L38.0477 42.6755H35.6957L38.1357 33.9475L37.9437 33.2995H41.2477L43.9197 42.6755H40.9837ZM39.3837 36.0515L38.6797 39.5475H40.2317L39.3837 36.0515ZM46.8832 42.6755H44.2352V33.2995H49.5152V35.3395L46.8832 35.1795V37.3555H49.0432V39.3395L46.8832 39.1795V42.6755ZM51.6529 42.6755V35.4195H49.7809V33.2995H56.2289V35.4195H54.3569V42.6755H51.6529ZM62.6103 42.6755H56.9383V33.2995H62.4903L62.3303 35.1875L59.5863 35.1075V36.9155H61.7463V38.7875L59.5863 38.6275V40.7555L62.6103 40.6755V42.6755ZM65.9688 39.5555V42.6755H63.3128V33.2995H64.3688C64.6248 33.2995 65.0061 33.2889 65.5128 33.2675C66.0194 33.2409 66.4381 33.2275 66.7688 33.2275C67.9208 33.2275 68.7794 33.4809 69.3448 33.9875C69.9154 34.4942 70.2008 35.2702 70.2008 36.3155C70.2008 36.9342 70.0648 37.4835 69.7928 37.9635C69.5261 38.4435 69.1714 38.8249 68.7288 39.1075C68.9688 39.1662 69.1741 39.3022 69.3448 39.5155C69.5208 39.7289 69.6568 39.9822 69.7528 40.2755C69.8488 40.5635 69.9314 40.8569 70.0008 41.1555C70.0754 41.4489 70.1581 41.7395 70.2488 42.0275C70.3448 42.3155 70.4488 42.5315 70.5608 42.6755H67.6088C67.5501 42.6009 67.5048 42.3929 67.4728 42.0515C67.4408 41.7049 67.3954 41.2915 67.3368 40.8115C67.2834 40.3262 67.2061 39.9209 67.1048 39.5955C67.0941 39.5955 67.0808 39.5955 67.0648 39.5955C66.9634 39.5955 66.8541 39.5955 66.7368 39.5955C66.6248 39.5902 66.5261 39.5849 66.4408 39.5795C66.3554 39.5742 66.2648 39.5689 66.1688 39.5635C66.0781 39.5582 66.0114 39.5555 65.9688 39.5555ZM65.9688 38.0675H66.2248C66.3581 38.0675 66.4701 38.0622 66.5608 38.0515C66.6514 38.0409 66.7501 38.0222 66.8568 37.9955C66.9688 37.9635 67.0594 37.9155 67.1288 37.8515C67.2034 37.7875 67.2728 37.7049 67.3368 37.6035C67.4008 37.5022 67.4488 37.3715 67.4808 37.2115C67.5128 37.0515 67.5288 36.8649 67.5288 36.6515V36.0195C67.5288 35.5555 67.4061 35.2329 67.1608 35.0515C66.9208 34.8649 66.5741 34.7715 66.1208 34.7715H65.9688V38.0675Z" fill="#1C1C22"/>
</svg>
