<svg width="58" height="52" viewBox="0 0 58 52" fill="none" xmlns="http://www.w3.org/2000/svg">
<path d="M35.6156 18.9548H22.1797C21.8449 18.9548 21.5732 18.6831 21.5732 18.3484L21.5768 17.4688H36.2271L36.2225 18.3484C36.222 18.6831 35.9504 18.9548 35.6156 18.9548Z" fill="#E1E0E6"/>
<path d="M21.2117 14.321C21.241 14.4654 21.2687 14.6033 21.295 14.732C21.3228 14.8613 21.348 14.982 21.3712 15.0946C21.3965 15.19 21.4202 15.2784 21.4409 15.3582C21.5252 15.6773 21.5737 15.8596 21.5737 15.8596L21.5717 16.8619H36.2215L36.224 15.8596C36.224 15.8596 36.2725 15.6773 36.3573 15.3582C36.378 15.2784 36.4018 15.19 36.4265 15.0946C36.4502 14.982 36.476 14.8613 36.5028 14.732C36.5295 14.6028 36.5568 14.4654 36.5871 14.321C36.6113 14.1771 36.6265 14.0256 36.6477 13.8681C36.6961 13.5586 36.7037 13.2 36.7123 12.8284C36.7017 12.6386 36.6916 12.4431 36.6805 12.2437C36.6482 12.0397 36.6199 11.8337 36.577 11.6241C36.4669 11.205 36.328 10.7677 36.0725 10.3688L35.9822 10.2189C35.9514 10.1689 35.9115 10.124 35.8771 10.0775C35.8039 9.98408 35.7322 9.89067 35.6565 9.80079C35.4898 9.63517 35.3283 9.4645 35.1394 9.3317C34.9612 9.18325 34.7627 9.07721 34.5714 8.96209C34.3734 8.86716 34.1785 8.76768 33.9786 8.70154C33.7806 8.62175 33.5817 8.57278 33.3873 8.51774C33.2893 8.49401 33.1914 8.47583 33.0959 8.45462C33 8.43291 32.9035 8.41625 32.8091 8.40413C32.4309 8.34 32.0679 8.32283 31.726 8.3092C31.3847 8.30466 31.0651 8.3092 30.7722 8.33192C30.6853 8.33748 30.6081 8.34505 30.5263 8.35262C30.5278 8.37888 30.5303 8.40413 30.5303 8.42988C30.5303 8.87928 30.3788 9.28929 30.1304 9.60487C30.1365 9.61548 30.143 9.62356 30.1491 9.63518C30.2203 9.78514 30.2819 9.96086 30.3263 10.1593C30.347 10.2588 30.3652 10.3628 30.3814 10.4688C30.3915 10.5799 30.4101 10.6849 30.4147 10.7996C30.4314 11.0253 30.4339 11.2606 30.4298 11.4974C30.4253 11.616 30.4208 11.7352 30.4167 11.8529C30.4071 11.9725 30.399 12.0917 30.39 12.2099C30.3687 12.4462 30.3425 12.68 30.3132 12.9062C30.2799 13.1339 30.2536 13.3515 30.2147 13.5601C30.1784 13.7671 30.1481 13.9655 30.1102 14.1428C30.0789 14.3018 30.0496 14.4478 30.0229 14.5805C29.6659 14.5679 29.2927 14.5604 28.8989 14.5604C28.505 14.5604 28.1314 14.5679 27.7749 14.5805C27.7486 14.4472 27.7193 14.3018 27.6875 14.1428C27.6496 13.965 27.6194 13.7671 27.583 13.5596C27.5446 13.351 27.5179 13.1339 27.4845 12.9062C27.4542 12.68 27.429 12.4462 27.4078 12.2099C27.3987 12.0917 27.3901 11.9725 27.381 11.8529C27.3765 11.7352 27.3719 11.6155 27.3674 11.4969C27.3633 11.2601 27.3669 11.0253 27.383 10.7996C27.3876 10.6844 27.4063 10.5794 27.4164 10.4688C27.432 10.3628 27.4507 10.2588 27.4719 10.1593C27.5163 9.96086 27.5769 9.78514 27.6491 9.63518C27.6552 9.62407 27.6618 9.61598 27.6678 9.60487C27.4194 9.28929 27.2679 8.87877 27.2679 8.42988C27.2679 8.40362 27.2704 8.37838 27.2709 8.35262C27.1896 8.34505 27.1124 8.33748 27.0255 8.33192C26.7332 8.3092 26.413 8.30466 26.0717 8.3092C25.7299 8.32233 25.3668 8.3395 24.9886 8.40413C24.8937 8.41625 24.7977 8.43341 24.7023 8.45462C24.6059 8.47583 24.5084 8.49401 24.4105 8.51774C24.2161 8.57278 24.0166 8.62175 23.8192 8.70154C23.6187 8.76768 23.4243 8.86716 23.2259 8.96209C23.035 9.07721 22.8366 9.18325 22.6583 9.3317C22.4695 9.4645 22.3084 9.63517 22.1423 9.80079C22.066 9.89067 21.9948 9.98408 21.9216 10.0775C21.8863 10.1245 21.8469 10.1694 21.8161 10.2189L21.7257 10.3688C21.4702 10.7677 21.3313 11.205 21.2213 11.6241C21.1778 11.8332 21.1496 12.0392 21.1172 12.2437C21.1066 12.4431 21.096 12.6386 21.0859 12.8284C21.094 13.1995 21.1016 13.558 21.1501 13.8681C21.1713 14.0256 21.1869 14.1771 21.2117 14.321ZM31.6377 9.29535C31.9386 9.34988 32.2552 9.40997 32.5637 9.50843C32.6425 9.52964 32.7192 9.55489 32.795 9.58367C32.8712 9.61195 32.9495 9.6377 33.0242 9.66749C33.1712 9.73465 33.3247 9.79322 33.4615 9.87452C33.6064 9.94521 33.7316 10.0391 33.8629 10.1224C33.9791 10.2219 34.1053 10.3098 34.2012 10.4214C34.3108 10.5208 34.3876 10.643 34.4754 10.7521L34.5789 10.9344C34.5951 10.9652 34.6158 10.9914 34.6289 11.0238L34.6663 11.1202C34.7824 11.3671 34.8213 11.6479 34.8556 11.916C34.8627 12.0548 34.8597 12.1957 34.8647 12.3285C34.8526 12.4689 34.84 12.6057 34.8279 12.7385C34.7789 13.0107 34.743 13.2647 34.6678 13.506C34.634 13.6257 34.6062 13.7413 34.5729 13.8474C34.535 13.9514 34.5007 14.0494 34.4668 14.1418C34.434 14.2337 34.4042 14.32 34.3764 14.3998C34.3381 14.4917 34.3027 14.576 34.2704 14.6517C34.1831 14.8613 34.122 15.0067 34.0917 15.0789C33.5529 14.9507 32.899 14.83 32.1179 14.7371C32.1168 14.6058 32.1158 14.4674 32.1148 14.315C32.1158 14.1125 32.1042 13.8974 32.0977 13.6686C32.0921 13.4414 32.0719 13.197 32.0573 12.9476C32.0391 12.6966 32.0143 12.4371 31.9835 12.173C31.9664 12.0402 31.9487 11.9074 31.9305 11.7736C31.9083 11.6388 31.8846 11.504 31.8619 11.3686C31.8109 11.0985 31.7508 10.8278 31.674 10.5612C31.6402 10.4279 31.5892 10.2951 31.5478 10.1654C31.4988 10.0341 31.4478 9.90582 31.3912 9.78009C31.3004 9.58367 31.1898 9.39785 31.0661 9.22213C31.2514 9.24233 31.4402 9.26505 31.6377 9.29535ZM22.9411 11.917C22.9754 11.6489 23.0148 11.3681 23.1309 11.1212L23.1688 11.0248C23.1804 10.993 23.2021 10.9662 23.2183 10.9354L23.3218 10.7531C23.4097 10.6435 23.4859 10.5218 23.5965 10.4224C23.6914 10.3108 23.8182 10.2229 23.9343 10.1234C24.0656 10.0401 24.1908 9.94571 24.3357 9.87553C24.4731 9.79423 24.6261 9.73566 24.7725 9.6685C24.8482 9.63871 24.926 9.61296 25.0023 9.58468C25.0775 9.55539 25.1547 9.53065 25.2335 9.50944C25.542 9.41098 25.8586 9.35089 26.1596 9.29636C26.3565 9.26606 26.5458 9.24334 26.7307 9.22415C26.6075 9.40037 26.4959 9.58569 26.406 9.78211C26.3494 9.90784 26.2974 10.0361 26.2489 10.1674C26.2075 10.2972 26.1565 10.4299 26.1227 10.5633C26.0465 10.8294 25.9859 11.1005 25.9344 11.3707C25.9122 11.506 25.8884 11.6408 25.8657 11.7751C25.8485 11.9094 25.8314 12.0422 25.8132 12.175C25.7824 12.4391 25.7581 12.6986 25.7395 12.9496C25.7248 13.1985 25.7051 13.4429 25.6996 13.6706C25.6925 13.8994 25.6814 14.1145 25.6824 14.317C25.6809 14.4695 25.6804 14.6083 25.6789 14.7391C24.8982 14.8325 24.2438 14.9527 23.7056 15.0809C23.6753 15.0087 23.6142 14.8633 23.5268 14.6538C23.495 14.578 23.4597 14.4937 23.4213 14.4018C23.393 14.322 23.3632 14.2357 23.3304 14.1438C23.2981 14.0514 23.2622 13.9534 23.2254 13.8494C23.1915 13.7434 23.1643 13.6282 23.1304 13.5081C23.0552 13.2672 23.0183 13.0132 22.9699 12.7406C22.9577 12.6072 22.9456 12.4709 22.9335 12.3305C22.9381 12.1962 22.935 12.0559 22.9411 11.917Z" fill="#E1E0E6"/>
<path d="M27.877 8.43088C27.877 7.77295 28.3359 7.24023 28.9015 7.24023C29.468 7.24023 29.9265 7.77345 29.9265 8.43088C29.9265 9.08831 29.468 9.62051 28.9015 9.62051C28.3359 9.62102 27.877 9.08831 27.877 8.43088Z" fill="#E1E0E6"/>
<path d="M23.8934 2.99268C23.8934 2.99268 23.6283 3.03459 23.1299 3.11336C22.8825 3.15931 22.5715 3.18809 22.216 3.27241C21.8625 3.36583 21.4561 3.47237 21.0016 3.59255C19.2005 4.08941 16.6248 5.01042 13.99 6.87971C11.3694 8.7288 8.68007 11.4893 6.82088 15.0547C6.60629 15.5076 6.38967 15.9641 6.17103 16.4241L6.00743 16.77C5.95693 16.8871 5.91856 17.0098 5.87412 17.13C5.78727 17.3713 5.70042 17.6127 5.61307 17.8561C5.22225 18.8129 5.00815 19.8375 4.7471 20.8554C4.62541 21.3664 4.58198 21.8956 4.49513 22.4167L4.3795 23.2024C4.33961 23.4649 4.3482 23.7326 4.33002 23.9972C4.30578 24.5278 4.28205 25.0595 4.25832 25.5923C4.27397 26.1245 4.31436 26.6562 4.34163 27.1889L4.38657 27.9872L4.5118 28.7759C4.60067 29.3005 4.66732 29.8292 4.77386 30.3478C5.05612 31.3703 5.26819 32.4099 5.67871 33.3774L5.95188 34.1121L6.08872 34.4787L6.2599 34.8286C6.48813 35.2947 6.71485 35.7587 6.94056 36.2197C7.04356 36.4555 7.18899 36.6671 7.32027 36.8847C7.45408 37.1018 7.58688 37.318 7.71968 37.5336C7.85298 37.7492 7.98427 37.9633 8.11656 38.1774C8.24229 38.395 8.41195 38.5823 8.55687 38.7843C8.85781 39.1812 9.15573 39.5745 9.45111 39.9654C9.76721 40.3375 10.106 40.6854 10.4272 41.0409C10.5887 41.2171 10.7503 41.3923 10.9109 41.5665C11.0725 41.7392 11.2583 41.8861 11.429 42.0457C11.7769 42.3583 12.1212 42.6668 12.4606 42.9718C12.8054 43.2697 13.1831 43.5171 13.5341 43.7862C13.7128 43.918 13.889 44.0478 14.0647 44.1776L14.3268 44.3715L14.6025 44.5386C14.9701 44.7588 15.3316 44.9754 15.6866 45.188C15.8638 45.294 16.0396 45.3995 16.2133 45.5035C16.3966 45.5904 16.5783 45.6767 16.7576 45.7616C17.4802 46.0918 18.1492 46.4624 18.844 46.676C19.1843 46.7982 19.5161 46.9174 19.8387 47.033C20.0003 47.0885 20.1573 47.1537 20.3169 47.1991C20.478 47.2395 20.6375 47.2789 20.7936 47.3183C21.4202 47.4693 22.0019 47.6344 22.5477 47.7455C23.1001 47.8263 23.6071 47.9005 24.0646 47.9671C24.2938 47.9984 24.5094 48.0383 24.7144 48.0575C24.9199 48.0666 25.1128 48.0752 25.2926 48.0833C25.6516 48.0989 25.9571 48.1126 26.2045 48.1237C26.6998 48.1459 26.9634 48.1575 26.9634 48.1575V48.9689C26.9634 48.9689 26.6903 48.9538 26.1777 48.925C25.9217 48.9104 25.6061 48.8922 25.235 48.872C25.0497 48.8614 24.8498 48.8498 24.6367 48.8377C24.4251 48.8154 24.2024 48.772 23.9656 48.7372C23.493 48.6624 22.9699 48.5796 22.4003 48.4892C21.8373 48.3681 21.2369 48.1908 20.5921 48.0267C20.4315 47.9843 20.2674 47.9409 20.1013 47.8969C19.9372 47.848 19.7756 47.7793 19.609 47.7202C19.2777 47.5965 18.9364 47.4698 18.587 47.339C17.874 47.1092 17.1873 46.7209 16.4476 46.3715C16.2638 46.2817 16.0779 46.1908 15.8901 46.0984C15.7119 45.9888 15.5321 45.8787 15.3508 45.7676C14.9883 45.5449 14.6192 45.3172 14.243 45.0854L13.9612 44.9097L13.6941 44.7077C13.5154 44.5724 13.3351 44.4361 13.1538 44.2993C12.7958 44.0185 12.4111 43.759 12.0601 43.4489C11.7153 43.1318 11.3658 42.8102 11.0124 42.485C10.8387 42.3194 10.6503 42.1664 10.4862 41.9871C10.3236 41.8064 10.16 41.6246 9.99544 41.4423C9.67026 41.0737 9.32791 40.7132 9.00828 40.3269C8.70986 39.9234 8.40892 39.517 8.10596 39.1065C7.96053 38.8969 7.78936 38.7035 7.66262 38.4793C7.53032 38.2592 7.39803 38.0375 7.26422 37.8153C7.13092 37.5937 6.99761 37.3705 6.8633 37.1468C6.73101 36.9221 6.58558 36.704 6.48258 36.4616C6.25788 35.9879 6.03116 35.5103 5.80394 35.0311L5.63327 34.6711L5.49744 34.2954L5.22679 33.5415C4.81981 32.5483 4.6148 31.4849 4.34012 30.4397C4.23812 29.909 4.17601 29.3692 4.09219 28.8335L3.97454 28.0286L3.93768 27.2156C3.91698 26.6738 3.88264 26.131 3.87305 25.5902C3.90385 25.05 3.93364 24.5092 3.96444 23.9699C3.98615 23.7008 3.9806 23.4301 4.02453 23.1635L4.15026 22.3667C4.24468 21.838 4.29518 21.3023 4.42545 20.7852C4.70115 19.7546 4.9314 18.72 5.33889 17.7546C5.43028 17.5097 5.52067 17.2658 5.61155 17.0224C5.65851 16.9017 5.69891 16.7785 5.75092 16.6599L5.92058 16.3125C6.14679 15.85 6.37149 15.3905 6.59467 14.9345C8.51748 11.3509 11.2618 8.60256 13.9188 6.77468C16.5894 4.9271 19.1833 4.03487 20.993 3.55871C21.45 3.44359 21.858 3.34159 22.2125 3.25272C22.5689 3.17294 22.881 3.14719 23.1289 3.10477C23.6273 3.03156 23.8934 2.99268 23.8934 2.99268Z" fill="#E1E0E6"/>
<path d="M20.4466 43.0273C20.4466 43.0273 20.8834 43.2086 21.4332 43.5681C21.7185 43.7181 22.0336 43.9125 22.3426 44.1599C22.4966 44.2836 22.6491 44.4205 22.7961 44.5699C22.8698 44.6452 22.9415 44.7239 23.0112 44.8063C23.0829 44.879 23.1531 44.9547 23.2197 45.0345C23.7549 45.6742 24.017 46.4362 24.1377 47.0345C24.2589 47.6334 24.2316 48.0682 24.2316 48.0682C24.2316 48.0682 23.6565 47.9646 22.9324 47.698C22.7526 47.6268 22.5603 47.5642 22.3729 47.4577C22.1861 47.3496 21.9978 47.2305 21.8155 47.0997C21.4499 46.8381 21.1091 46.5316 20.848 46.1792C20.5824 45.8409 20.4446 45.4167 20.3602 45.0562C20.2789 44.6866 20.2643 44.3382 20.2779 44.0382C20.3067 43.4384 20.4466 43.0273 20.4466 43.0273Z" fill="#E1E0E6"/>
<path d="M17.0598 41.5181C17.0598 41.5181 17.4481 41.7685 17.9015 42.226C18.3852 42.6305 18.9528 43.2232 19.3179 43.9832C19.7036 44.6926 19.8016 45.4662 19.797 46.0554C19.794 46.6462 19.6809 47.0537 19.6809 47.0537C19.6809 47.0537 19.1537 46.8442 18.517 46.4523C18.1913 46.2741 17.8768 45.9636 17.5763 45.6555C17.2794 45.3379 17.0138 44.9819 16.8325 44.5972C16.4922 43.7878 16.5669 43.0051 16.7053 42.4451C16.8477 41.8811 17.0598 41.5181 17.0598 41.5181Z" fill="#E1E0E6"/>
<path d="M14.0033 39.3447C14.0033 39.3447 14.329 39.6573 14.6799 40.1774C14.8446 40.4521 15.0753 40.7071 15.2505 41.0413C15.4333 41.367 15.5909 41.7346 15.6883 42.135C15.9049 42.904 15.86 43.6347 15.7358 44.1962C15.6166 44.7536 15.4278 45.1152 15.4278 45.1152C15.4278 45.1152 14.9662 44.8178 14.4356 44.3265C13.9407 43.7841 13.3923 43.0333 13.202 42.2279C13.0455 41.3796 13.252 40.6646 13.4923 40.1562C13.7332 39.6492 14.0033 39.3447 14.0033 39.3447Z" fill="#E1E0E6"/>
<path d="M11.4214 36.5894C11.4214 36.5894 11.6764 36.9484 11.9162 37.5078C11.9779 37.6467 12.0329 37.8037 12.0945 37.9618C12.1642 38.1143 12.2293 38.2769 12.2864 38.448C12.4005 38.7909 12.4838 39.1686 12.502 39.565C12.5121 39.7634 12.504 39.9578 12.4858 40.1436C12.4752 40.3214 12.4515 40.494 12.4182 40.6587C12.3515 40.9884 12.2465 41.2873 12.1359 41.5378C11.9147 42.0397 11.6643 42.3457 11.6643 42.3457C11.6643 42.3457 11.5689 42.2538 11.4214 42.0917C11.2815 41.9215 11.0573 41.712 10.8842 41.3974C10.7024 41.0919 10.5161 40.7364 10.3701 40.3572C10.2303 39.974 10.1045 39.5912 10.1217 39.1651C10.1308 38.3339 10.46 37.6962 10.7832 37.2609C11.1073 36.8267 11.4214 36.5894 11.4214 36.5894Z" fill="#E1E0E6"/>
<path d="M9.42411 33.354C9.42411 33.354 9.60084 33.7438 9.72707 34.321C9.82301 34.9153 10.0058 35.6298 9.88713 36.3897C9.8326 36.7669 9.71293 37.1168 9.57811 37.4213C9.45289 37.7197 9.29636 37.9803 9.14386 38.1949C8.83737 38.6251 8.54147 38.8639 8.54147 38.8639C8.54147 38.8639 8.46775 38.7599 8.35767 38.5791C8.23901 38.4034 8.11379 38.1312 8.00018 37.8066C7.88353 37.4839 7.77295 37.1128 7.70479 36.7275C7.67096 36.5351 7.64773 36.3397 7.63965 36.1448C7.64621 35.9428 7.66944 35.7404 7.71034 35.5449C7.87293 34.7598 8.30516 34.2195 8.69295 33.869C9.08125 33.5191 9.42411 33.354 9.42411 33.354Z" fill="#E1E0E6"/>
<path d="M8.10057 29.7593C8.10057 29.7593 8.1955 30.1647 8.20661 30.7368C8.22024 31.0216 8.17884 31.3594 8.16116 31.6957C8.14097 32.0325 8.07987 32.3865 7.95616 32.7329C7.7148 33.4221 7.24621 33.9604 6.88569 34.2992C6.51405 34.6436 6.18634 34.8102 6.18634 34.8102C6.18634 34.8102 6.13535 34.6976 6.06516 34.5062C6.01012 34.3078 5.947 34.025 5.89651 33.6983C5.8031 33.0419 5.72836 32.2199 6.06364 31.5008C6.36661 30.7914 6.8766 30.3622 7.31084 30.1052C7.74459 29.8497 8.10057 29.7593 8.10057 29.7593Z" fill="#E1E0E6"/>
<path d="M7.51996 25.936C7.51996 25.936 7.53056 26.342 7.43159 26.8904C7.38665 27.1646 7.29375 27.4781 7.1973 27.7952C7.11399 28.1108 6.98977 28.4355 6.80648 28.7384C6.44141 29.3454 5.91526 29.7564 5.48152 30.0094C5.04979 30.2639 4.71451 30.3537 4.71451 30.3537C4.71451 30.3537 4.68422 30.2381 4.67816 30.0387C4.66705 29.8397 4.65948 29.5615 4.67412 29.2434C4.70442 28.6061 4.80692 27.8149 5.26035 27.1984C5.68299 26.5844 6.24751 26.2759 6.7065 26.1138C7.1665 25.9537 7.51996 25.936 7.51996 25.936Z" fill="#E1E0E6"/>
<path d="M7.70836 22.0433C7.70836 22.0433 7.63968 22.4301 7.43922 22.9305C7.34581 23.1824 7.1913 23.4607 7.04789 23.7439C6.90853 24.0287 6.72776 24.312 6.497 24.5645C6.03549 25.0694 5.46036 25.3542 5.00289 25.5082C4.5439 25.6632 4.20508 25.6814 4.20508 25.6814C4.20508 25.6814 4.23942 25.2219 4.38989 24.6256C4.54491 24.0307 4.78526 23.3016 5.33312 22.8068C5.85018 22.3074 6.44298 22.1226 6.90752 22.0569C7.37156 21.9928 7.70836 22.0433 7.70836 22.0433Z" fill="#E1E0E6"/>
<path d="M8.66436 18.244C8.66436 18.244 8.5255 18.5974 8.24071 19.0337C8.10135 19.2528 7.91351 19.4902 7.708 19.7265C7.52219 19.9673 7.2985 20.2006 7.03239 20.394C6.50069 20.7813 5.90588 20.9373 5.44487 20.9929C4.98436 21.0484 4.65918 20.9994 4.65918 20.9994C4.65918 20.9994 4.78087 20.5728 5.03788 20.0411C5.16664 19.7755 5.32822 19.4846 5.52414 19.2114C5.70996 18.9352 5.99979 18.6989 6.28205 18.5106C6.86374 18.1389 7.45705 18.0773 7.90695 18.1041C8.35685 18.1319 8.66436 18.244 8.66436 18.244Z" fill="#E1E0E6"/>
<path d="M10.3741 14.6811C10.3741 14.6811 10.1761 14.9906 9.82622 15.3511C9.65101 15.5319 9.43691 15.7263 9.18949 15.9056C8.94712 16.0868 8.70829 16.2737 8.41795 16.4029C7.84535 16.666 7.25861 16.6968 6.81678 16.6589C6.37496 16.6211 6.08008 16.51 6.08008 16.51C6.08008 16.51 6.27498 16.1313 6.61632 15.6793C6.78699 15.4541 6.99402 15.2108 7.22932 14.9916C7.48835 14.7841 7.78071 14.6038 8.08721 14.4831C8.70324 14.2428 9.27231 14.2968 9.68939 14.4069C10.1065 14.5175 10.3741 14.6811 10.3741 14.6811Z" fill="#E1E0E6"/>
<path d="M12.7748 11.4998C12.7748 11.4998 12.5304 11.7568 12.1346 12.0345C11.7468 12.3198 11.1625 12.5945 10.5995 12.754C10.0158 12.8954 9.4609 12.8116 9.05644 12.6904C8.65097 12.5702 8.39648 12.4076 8.39648 12.4076C8.39648 12.4076 8.64946 12.0875 9.05341 11.726C9.43717 11.3493 10.0497 10.9999 10.6702 10.8888C11.2913 10.7767 11.8144 10.9332 12.1845 11.114C12.5552 11.2958 12.7748 11.4998 12.7748 11.4998Z" fill="#E1E0E6"/>
<path d="M15.7922 8.84732C15.7922 8.84732 15.7735 8.85743 15.7387 8.87611C15.7033 8.89328 15.6518 8.91954 15.5922 8.95791C15.47 9.03113 15.2948 9.12807 15.0828 9.223C14.6642 9.41993 14.0749 9.58404 13.4952 9.6012C12.9236 9.62746 12.4232 9.44417 12.0693 9.2538C11.7148 9.06395 11.5088 8.86298 11.5088 8.86298C11.5088 8.86298 11.8042 8.60849 12.248 8.34289C12.4631 8.20302 12.7383 8.0884 13.0317 8.0071C13.323 7.92278 13.6305 7.86926 13.9305 7.8738C14.5314 7.88239 14.9914 8.12425 15.3044 8.3641C15.6235 8.61354 15.7922 8.84732 15.7922 8.84732Z" fill="#E1E0E6"/>
<path d="M19.2882 6.83141C19.2882 6.83141 19.21 6.85766 19.0757 6.88998C18.9429 6.92684 18.7636 6.99299 18.546 7.04197C18.1133 7.14397 17.5427 7.21264 16.9827 7.09246C16.4369 6.99703 16.0127 6.74355 15.7183 6.49462C15.4255 6.24972 15.2725 6.02199 15.2725 6.02199C15.2725 6.02199 15.5956 5.83668 16.0587 5.66954C16.5394 5.53473 17.1705 5.44485 17.728 5.56199C18.2875 5.68318 18.6672 5.98563 18.9232 6.28809C19.1746 6.58096 19.2882 6.83141 19.2882 6.83141Z" fill="#E1E0E6"/>
<path d="M23.146 5.54478C23.146 5.54478 22.8299 5.56599 22.4083 5.59628C21.9826 5.61143 21.4363 5.57003 20.9379 5.3529C20.435 5.12265 20.0987 4.83231 19.8709 4.53742C19.6473 4.25264 19.5498 4.01128 19.5498 4.01128C19.5498 4.01128 19.6331 3.983 19.775 3.94614C19.9184 3.91483 20.1123 3.84919 20.3532 3.84566C20.8283 3.81839 21.4317 3.84566 21.9291 4.06127C22.4264 4.27183 22.7269 4.64094 22.9087 4.96965C23.0879 5.28979 23.146 5.54478 23.146 5.54478Z" fill="#E1E0E6"/>
<path d="M17.4609 51.0111C17.4609 51.0111 18.1219 51.2449 19.0318 51.3929C19.4958 51.4358 20.02 51.457 20.5451 51.4237C20.8077 51.407 21.0702 51.3772 21.3252 51.3303C21.4525 51.3065 21.5777 51.2782 21.7004 51.2459C21.8251 51.2045 21.9463 51.1571 22.065 51.1061C23.0097 50.6925 23.5303 50.0492 23.8217 49.5145C24.112 48.9788 24.1817 48.5501 24.1817 48.5501C24.1817 48.5501 23.598 48.4768 22.7931 48.5102C22.5921 48.5142 22.374 48.5425 22.1528 48.547C21.9317 48.5506 21.7019 48.5617 21.4681 48.5854C20.9996 48.6324 20.5128 48.7258 20.0488 48.8924C19.5802 49.0727 19.201 49.2363 18.8687 49.465C18.5395 49.6852 18.2709 49.9291 18.0613 50.1573C17.6407 50.6143 17.4609 51.0111 17.4609 51.0111Z" fill="#E1E0E6"/>
<path d="M12.6963 48.4947C12.6963 48.4947 13.2795 48.8341 14.1071 49.1547C14.9614 49.4228 16.0718 49.643 17.0256 49.4814C18.0027 49.2713 18.6253 48.7624 19.009 48.311C19.3918 47.859 19.5438 47.4667 19.5438 47.4667C19.5438 47.4667 19.0035 47.2854 18.2319 47.1617C17.8386 47.1173 17.422 46.9996 16.964 46.9643C16.5096 46.9193 16.0284 46.9158 15.5558 46.9855C14.6322 47.084 13.9198 47.4384 13.4305 47.7974C12.9437 48.1519 12.6963 48.4947 12.6963 48.4947Z" fill="#E1E0E6"/>
<path d="M8.55078 45.106C8.55078 45.106 9.03906 45.5337 9.76213 45.9896C10.111 46.2315 10.5786 46.4072 11.0356 46.5739C11.5006 46.7324 11.9849 46.8445 12.4494 46.8647C13.4017 46.8748 14.1051 46.4941 14.5555 46.1462C15.009 45.7922 15.2316 45.4499 15.2316 45.4499C15.2316 45.4499 14.753 45.1767 14.043 44.9146C13.3684 44.6 12.4671 44.2754 11.5491 44.2193C10.6665 44.1229 9.91058 44.3385 9.3809 44.5839C8.85072 44.8278 8.55078 45.106 8.55078 45.106Z" fill="#E1E0E6"/>
<path d="M5.18164 40.9896C5.18164 40.9896 5.56439 41.4829 6.16476 42.0474C6.31624 42.1873 6.47479 42.3363 6.65505 42.4731C6.84289 42.6039 7.04133 42.7311 7.24684 42.8483C7.65786 43.0841 8.09716 43.2795 8.53495 43.386C8.75409 43.4391 8.96263 43.4678 9.16056 43.4759C9.36658 43.4759 9.55997 43.4577 9.74023 43.4259C10.1008 43.3628 10.4078 43.2482 10.6587 43.1245C11.1596 42.8771 11.4383 42.5973 11.4383 42.5973C11.4383 42.5973 11.3374 42.5095 11.1581 42.3756C10.9859 42.2338 10.7047 42.0757 10.4249 41.8525C10.1356 41.6379 9.79224 41.4122 9.41202 41.2118C9.03786 41.0078 8.59958 40.8517 8.20067 40.7124C7.37863 40.4554 6.6187 40.5185 6.06932 40.6513C5.51944 40.7826 5.18164 40.9896 5.18164 40.9896Z" fill="#E1E0E6"/>
<path d="M2.70117 36.3074C2.70117 36.3074 2.97081 36.8437 3.43384 37.489C3.86607 38.1495 4.626 38.8372 5.41219 39.2063C5.81059 39.3886 6.18222 39.4724 6.5276 39.4886C6.88258 39.4981 7.19715 39.4487 7.46023 39.3805C7.98486 39.2437 8.30398 39.0341 8.30398 39.0341C8.30398 39.0341 8.2242 38.9326 8.07878 38.772C7.92477 38.617 7.73542 38.3827 7.50365 38.1242C7.26785 37.8672 6.98407 37.5885 6.6599 37.3289C6.49781 37.1986 6.32563 37.0729 6.14435 36.9573C5.97823 36.8331 5.80403 36.7179 5.62073 36.6185C4.88756 36.2191 4.15489 36.1347 3.60804 36.1565C3.06018 36.1762 2.70117 36.3074 2.70117 36.3074Z" fill="#E1E0E6"/>
<path d="M1.21387 31.2472C1.21387 31.2472 1.36636 31.8031 1.68144 32.4989C1.84656 32.8433 2.01773 33.2316 2.2909 33.5785C2.56155 33.9259 2.87057 34.2506 3.21191 34.499C3.90116 34.9948 4.56111 35.1009 5.09635 35.0706C5.62098 35.0433 5.96484 34.909 5.96484 34.909C5.96484 34.909 5.90779 34.7979 5.79973 34.6192C5.70732 34.4338 5.57705 34.1748 5.40133 33.888C5.05898 33.3104 4.50557 32.6282 3.91782 32.1C3.29927 31.5835 2.62214 31.3638 2.10004 31.279C1.57894 31.1921 1.21387 31.2472 1.21387 31.2472Z" fill="#E1E0E6"/>
<path d="M0.773438 26.0298C0.773438 26.0298 0.810805 26.5797 0.9739 27.2906C1.06024 27.6451 1.15618 28.041 1.33291 28.4197C1.52176 28.7979 1.75151 29.1624 2.02569 29.4619C2.57607 30.0627 3.19866 30.2895 3.68391 30.3718C4.17118 30.4526 4.52918 30.3925 4.52918 30.3925C4.52918 30.3925 4.49181 30.2778 4.44839 30.0839C4.39941 29.8901 4.32367 29.6219 4.21309 29.3164C3.99243 28.7065 3.61574 27.9536 3.16281 27.3441C2.67858 26.7387 2.08073 26.4039 1.60457 26.2257C1.12841 26.047 0.773438 26.0298 0.773438 26.0298Z" fill="#E1E0E6"/>
<path d="M1.36236 20.8584C1.36236 20.8584 1.29218 21.382 1.30934 22.0814C1.32399 22.4308 1.33358 22.8211 1.43457 23.2109C1.5401 23.6007 1.68653 23.987 1.88801 24.3208C2.28994 24.9898 2.83376 25.3241 3.27508 25.4963C3.71589 25.6679 4.05925 25.6816 4.05925 25.6816C4.05925 25.6816 4.06884 25.2236 3.97745 24.6071C3.8911 23.9905 3.67246 23.2084 3.36344 22.5489C3.02311 21.887 2.52423 21.4583 2.10917 21.2007C1.69411 20.9422 1.36236 20.8584 1.36236 20.8584Z" fill="#E1E0E6"/>
<path d="M2.96184 15.9268C2.96184 15.9268 2.79723 16.4034 2.68058 17.0629C2.62504 17.3921 2.57101 17.7637 2.57657 18.1445C2.60131 18.5312 2.66493 18.9216 2.78965 19.2745C3.0401 19.9814 3.48748 20.4025 3.86921 20.6515C4.25196 20.8994 4.56906 20.9792 4.56906 20.9792C4.56906 20.9792 4.66702 20.55 4.70034 19.9531C4.71751 19.6542 4.71852 19.3124 4.68418 18.9569C4.63975 18.5984 4.63016 18.248 4.52412 17.9006C4.33022 17.2123 3.94243 16.7135 3.60058 16.3918C3.25823 16.0686 2.96184 15.9268 2.96184 15.9268Z" fill="#E1E0E6"/>
<path d="M5.49428 11.439C5.49428 11.439 5.25241 11.8545 5.02115 12.4494C4.90552 12.7468 4.79393 13.0886 4.71819 13.4416C4.64649 13.797 4.64901 14.1848 4.69496 14.5378C4.79696 15.2497 5.13628 15.734 5.44732 16.0435C5.75786 16.352 6.04062 16.4904 6.04062 16.4904C6.04062 16.4904 6.21331 16.1051 6.35722 15.5502C6.42892 15.272 6.49406 14.9498 6.5289 14.6095C6.58646 14.2813 6.61979 13.9364 6.59202 13.593C6.539 12.9078 6.26684 12.365 6.00629 11.9974C5.74624 11.6288 5.49428 11.439 5.49428 11.439Z" fill="#E1E0E6"/>
<path d="M8.83977 7.56689C8.83977 7.56689 8.53781 7.91076 8.21415 8.4253C7.89907 8.9469 7.5239 9.60281 7.50875 10.3087C7.47239 10.9975 7.69861 11.5196 7.93088 11.8715C8.16366 12.2229 8.40047 12.4088 8.40047 12.4088C8.40047 12.4088 8.63375 12.079 8.87158 11.5827C9.09072 11.0702 9.3952 10.4541 9.47195 9.79873C9.54769 9.14383 9.39318 8.58283 9.21645 8.18747C9.03972 7.79311 8.83977 7.56689 8.83977 7.56689Z" fill="#E1E0E6"/>
<path d="M12.8714 4.45898C12.8714 4.45898 12.8487 4.47362 12.8083 4.50089C12.7664 4.52816 12.7083 4.57007 12.6422 4.63218C12.5063 4.75135 12.3215 4.92353 12.1236 5.13459C11.7338 5.56329 11.2712 6.12023 11.1041 6.75141C10.943 7.39167 11.0556 7.9264 11.2051 8.30208C11.3561 8.67775 11.5414 8.89791 11.5414 8.89791C11.5414 8.89791 11.8201 8.6308 12.1332 8.20816C12.2841 7.98851 12.4669 7.75775 12.6341 7.50326C12.7987 7.24625 12.9441 6.96197 13.0411 6.66052C13.2334 6.05863 13.192 5.50168 13.1006 5.09975C13.0163 4.70691 12.8714 4.45898 12.8714 4.45898Z" fill="#E1E0E6"/>
<path d="M17.4174 2.22412C17.4174 2.22412 17.3225 2.26148 17.168 2.3347C17.0165 2.41145 16.815 2.54577 16.5909 2.70381C16.145 3.02596 15.6239 3.48294 15.3331 4.01312C15.0548 4.56906 15.0644 5.10328 15.1306 5.48148C15.1992 5.86321 15.329 6.10458 15.329 6.10458C15.329 6.10458 15.638 5.90512 16.0092 5.56631C16.3985 5.25981 16.866 4.83667 17.1574 4.30497C17.4503 3.77882 17.5114 3.24056 17.5104 2.86691C17.5058 2.48366 17.4174 2.22412 17.4174 2.22412Z" fill="#E1E0E6"/>
<path d="M22.289 0.946289C22.289 0.946289 21.9027 0.999306 21.4316 1.23006C20.9579 1.44567 20.3889 1.77439 20.0172 2.21469C19.6411 2.64187 19.5552 3.16954 19.5411 3.52855C19.5305 3.89816 19.6042 4.14912 19.6042 4.14912C19.6042 4.14912 19.686 4.11681 19.8183 4.05369C19.9526 3.99613 20.1293 3.88201 20.3439 3.7896C20.7671 3.58561 21.2801 3.27153 21.6522 2.83274C22.0234 2.3889 22.186 1.91426 22.2546 1.56383C22.3218 1.20482 22.289 0.946289 22.289 0.946289Z" fill="#E1E0E6"/>
<path d="M26.962 2.76315C26.962 2.76315 26.7085 2.94947 26.3116 3.14387C25.9132 3.33828 25.3775 3.53925 24.7756 3.56904C24.1768 3.64326 23.6143 3.56651 23.1866 3.4524C22.7594 3.34131 22.4746 3.20901 22.4746 3.20901C22.4746 3.20901 22.6892 3.00047 23.0704 2.76618C23.4512 2.53643 24.0021 2.26377 24.6398 2.1855C25.2821 2.15217 25.8739 2.29659 26.2914 2.44908C26.7111 2.60157 26.962 2.76315 26.962 2.76315Z" fill="#E1E0E6"/>
<path d="M34.065 3.1377C34.065 3.1377 34.3295 3.17658 34.8254 3.24929C35.0718 3.29171 35.3818 3.31745 35.7363 3.39673C36.0882 3.48509 36.4937 3.58709 36.9472 3.70071C38.7457 4.17434 41.3225 5.06051 43.9764 6.89647C46.6167 8.71273 49.3434 11.4434 51.2546 15.0043C51.4763 15.4567 51.6995 15.9132 51.9237 16.3732L52.0928 16.7191C52.1448 16.8362 52.1847 16.9594 52.2312 17.0791C52.321 17.3209 52.4109 17.5628 52.5018 17.8067C52.9068 18.7656 53.1355 19.7941 53.4097 20.8177C53.539 21.3317 53.589 21.8639 53.6829 22.3885L53.8081 23.1808C53.8515 23.4448 53.8465 23.715 53.8677 23.9821C53.8985 24.5178 53.9283 25.0546 53.9586 25.5924C53.949 26.1301 53.9146 26.6689 53.8939 27.2072L53.8581 28.0151L53.7409 28.8154C53.6576 29.3476 53.596 29.8833 53.495 30.4105C53.2213 31.4497 53.0189 32.5065 52.6139 33.4931L52.3448 34.2425L52.21 34.6151L52.0408 34.9731C51.8151 35.4493 51.5899 35.9234 51.3667 36.394C51.2642 36.6349 51.1193 36.852 50.988 37.0752C50.8547 37.2974 50.7224 37.519 50.5901 37.7397C50.4573 37.9609 50.326 38.1805 50.1942 38.4002C50.068 38.6228 49.8983 38.8152 49.7534 39.0227C49.452 39.4307 49.1531 39.8352 48.8572 40.2356C48.5396 40.6194 48.1987 40.9774 47.8756 41.3434C47.7125 41.5247 47.5499 41.706 47.3883 41.8852C47.2252 42.063 47.0384 42.2155 46.8657 42.3801C46.5142 42.7038 46.1668 43.0229 45.8245 43.338C45.4761 43.646 45.0938 43.9035 44.7384 44.1832C44.5576 44.3196 44.3783 44.4549 44.2011 44.5892L43.9355 44.7902L43.6553 44.9649C43.2821 45.1946 42.915 45.4203 42.555 45.6425C42.3747 45.7531 42.196 45.8627 42.0193 45.9712C41.8329 46.0626 41.6481 46.1525 41.4653 46.2424C40.7302 46.5898 40.0475 46.9755 39.339 47.2038C38.9911 47.3335 38.6528 47.4593 38.3231 47.582C38.1575 47.6411 37.9974 47.7092 37.8338 47.7582C37.6692 47.8021 37.5066 47.8445 37.3466 47.887C36.7048 48.0501 36.11 48.2263 35.55 48.3464C34.9839 48.4363 34.4639 48.5186 33.9943 48.5929C33.759 48.6277 33.5373 48.6706 33.3277 48.6928C33.1157 48.705 32.9182 48.7161 32.7329 48.7267C32.3643 48.7474 32.0502 48.765 31.7963 48.7792C31.2868 48.808 31.0156 48.8226 31.0156 48.8226V48.0112C31.0156 48.0112 31.2782 47.999 31.7695 47.9768C32.0149 47.9662 32.3189 47.9526 32.6754 47.937C32.8536 47.9289 33.045 47.9208 33.25 47.9117C33.4535 47.8925 33.6676 47.8531 33.8953 47.8218C34.3502 47.7552 34.8537 47.682 35.402 47.6017C35.9438 47.4916 36.522 47.3275 37.1446 47.1775C37.3001 47.1386 37.4576 47.0993 37.6182 47.0594C37.7768 47.0144 37.9323 46.9493 38.0929 46.8942C38.4135 46.7791 38.7432 46.661 39.081 46.5393C39.7713 46.3277 40.4363 45.9596 41.1538 45.6314C41.332 45.5471 41.5123 45.4612 41.6946 45.3749C41.8673 45.2719 42.042 45.1669 42.2177 45.0618C42.5702 44.8503 42.9292 44.6351 43.2942 44.4165L43.5689 44.2504L43.8295 44.058C44.0032 43.9292 44.1784 43.7995 44.3556 43.6692C44.7045 43.4021 45.0802 43.1557 45.4231 42.8598C45.7599 42.5568 46.1017 42.2503 46.4476 41.9398C46.6172 41.7817 46.8016 41.6358 46.9626 41.4641C47.1217 41.2909 47.2823 41.1167 47.4433 40.9415C47.7619 40.5881 48.0992 40.2432 48.4133 39.8736C48.7067 39.4858 49.0026 39.0944 49.3015 38.7001C49.4454 38.4991 49.6136 38.3133 49.7388 38.0972C49.8696 37.8851 50.0008 37.671 50.1326 37.4574C50.2644 37.2433 50.3967 37.0282 50.5295 36.8131C50.6603 36.596 50.8052 36.3859 50.9072 36.1517C51.1309 35.6937 51.3566 35.2332 51.5828 34.7701L51.7535 34.4222L51.8888 34.0582L52.161 33.3285C52.5695 32.3676 52.7785 31.335 53.0598 30.3186C53.1653 29.8036 53.2309 29.2779 53.3193 28.7568L53.444 27.9721L53.489 27.1794C53.5157 26.6502 53.5561 26.1215 53.5718 25.5929C53.548 25.0637 53.5243 24.535 53.5006 24.0074C53.4829 23.7448 53.4915 23.4787 53.4516 23.2186L53.3365 22.4375C53.2501 21.9194 53.2072 21.3943 53.0865 20.8868C52.827 19.8754 52.6144 18.857 52.2261 17.9067C52.1398 17.6648 52.0534 17.425 51.9671 17.1851C51.9221 17.066 51.8848 16.9443 51.8348 16.8276L51.6722 16.4848C51.4551 16.0273 51.2405 15.5733 51.0269 15.1234C49.1793 11.5813 46.5077 8.83796 43.9037 7.00049C41.2861 5.14281 38.7271 4.22887 36.9376 3.73454C36.4856 3.61537 36.0822 3.50883 35.7308 3.41642C35.3783 3.3326 35.0688 3.30332 34.8229 3.25888C34.3285 3.18011 34.065 3.1377 34.065 3.1377Z" fill="#E1E0E6"/>
<path d="M40.521 51.0111C40.521 51.0111 39.8601 51.2449 38.9502 51.3929C38.4861 51.4358 37.9615 51.457 37.4363 51.4237C37.1743 51.407 36.9122 51.3772 36.6572 51.3303C36.5295 51.3065 36.4043 51.2782 36.2815 51.2459C36.1573 51.2045 36.0356 51.1571 35.9175 51.1061C34.9717 50.6925 34.4522 50.0492 34.1603 49.5145C33.87 48.9788 33.8008 48.5501 33.8008 48.5501C33.8008 48.5501 34.3845 48.4768 35.1894 48.5102C35.3898 48.5142 35.6085 48.5425 35.8296 48.547C36.0508 48.5506 36.2805 48.5617 36.5148 48.5854C36.9829 48.6329 37.4692 48.7258 37.9337 48.8924C38.4018 49.0727 38.7815 49.2363 39.1132 49.465C39.4425 49.6852 39.7116 49.9291 39.9212 50.1573C40.3413 50.6143 40.521 51.0111 40.521 51.0111Z" fill="#E1E0E6"/>
<path d="M45.2806 48.4948C45.2806 48.4948 44.6979 48.8341 43.8703 49.1548C43.0154 49.4229 41.9056 49.6431 40.9512 49.4815C39.9732 49.2714 39.3516 48.7624 38.9683 48.311C38.5851 47.8591 38.4336 47.4668 38.4336 47.4668C38.4336 47.4668 38.9739 47.2855 39.7449 47.1618C40.1383 47.1174 40.5543 46.9997 41.0128 46.9639C41.4678 46.9194 41.948 46.9159 42.4211 46.9856C43.3446 47.0845 44.0571 47.4385 44.5464 47.7975C45.0332 48.152 45.2806 48.4948 45.2806 48.4948Z" fill="#E1E0E6"/>
<path d="M49.424 45.106C49.424 45.106 48.9357 45.5337 48.2127 45.9896C47.8633 46.2315 47.3962 46.4072 46.9392 46.5739C46.4747 46.7324 45.9899 46.8445 45.5249 46.8647C44.5731 46.8748 43.8697 46.4941 43.4188 46.1462C42.9658 45.7922 42.7432 45.4499 42.7432 45.4499C42.7432 45.4499 43.2218 45.1767 43.9318 44.9146C44.6069 44.6 45.5077 44.2754 46.4257 44.2193C47.3083 44.1229 48.0647 44.3385 48.5944 44.5839C49.1241 44.8278 49.424 45.106 49.424 45.106Z" fill="#E1E0E6"/>
<path d="M52.7962 40.9896C52.7962 40.9896 52.4135 41.4834 51.8131 42.0475C51.6616 42.1873 51.5036 42.3363 51.3228 42.4731C51.135 42.6039 50.9365 42.7311 50.731 42.8488C50.3205 43.0841 49.8812 43.2795 49.4429 43.386C49.2233 43.4386 49.0158 43.4673 48.8178 43.4754C48.6118 43.4754 48.4179 43.4572 48.2382 43.4249C47.8776 43.3623 47.5701 43.2477 47.3197 43.124C46.8188 42.8766 46.54 42.5968 46.54 42.5968C46.54 42.5968 46.6415 42.5095 46.8208 42.3752C46.993 42.2333 47.2732 42.0752 47.554 41.852C47.8433 41.6379 48.1866 41.4117 48.5669 41.2113C48.9405 41.0073 49.3793 40.8512 49.7772 40.7119C50.5998 40.4549 51.3592 40.518 51.9091 40.6508C52.4589 40.7826 52.7962 40.9896 52.7962 40.9896Z" fill="#E1E0E6"/>
<path d="M55.281 36.3074C55.281 36.3074 55.0114 36.8437 54.5488 37.489C54.1166 38.1499 53.3562 38.8372 52.5695 39.2063C52.1721 39.3886 51.8005 39.4724 51.4546 39.4885C51.0996 39.4981 50.785 39.4492 50.522 39.3805C49.9973 39.2436 49.6787 39.0341 49.6787 39.0341C49.6787 39.0341 49.7585 38.9326 49.9039 38.772C50.0579 38.617 50.2473 38.3832 50.479 38.1242C50.7143 37.8672 50.9981 37.5885 51.3228 37.3289C51.4844 37.1986 51.6566 37.0729 51.8378 36.9573C52.0045 36.8336 52.1787 36.7179 52.362 36.6185C53.0946 36.2196 53.8278 36.1347 54.3747 36.1564C54.9225 36.1761 55.281 36.3074 55.281 36.3074Z" fill="#E1E0E6"/>
<path d="M56.7656 31.2475C56.7656 31.2475 56.6121 31.8029 56.2975 32.4987C56.1319 32.8431 55.9618 33.2319 55.6881 33.5783C55.4179 33.9257 55.1084 34.2504 54.7671 34.4988C54.0783 34.9946 53.4184 35.1007 52.8826 35.0704C52.358 35.0431 52.0146 34.9088 52.0146 34.9088C52.0146 34.9088 52.0712 34.7982 52.1793 34.619C52.2717 34.4336 52.4019 34.1751 52.5777 33.8878C52.9205 33.3102 53.4734 32.628 54.0612 32.0998C54.6797 31.5833 55.3573 31.3636 55.879 31.2788C56.4 31.1919 56.7656 31.2475 56.7656 31.2475Z" fill="#E1E0E6"/>
<path d="M57.2045 26.0298C57.2045 26.0298 57.1676 26.5797 57.0045 27.2906C56.9177 27.6451 56.8212 28.041 56.6455 28.4197C56.4561 28.7979 56.2269 29.1624 55.9522 29.4619C55.4023 30.0627 54.7792 30.2895 54.294 30.3718C53.8067 30.4525 53.4492 30.3925 53.4492 30.3925C53.4492 30.3925 53.4861 30.2778 53.53 30.0839C53.579 29.8901 53.6547 29.6219 53.7648 29.3164C53.986 28.7065 54.3622 27.9536 54.8156 27.3441C55.2998 26.7387 55.8972 26.4039 56.3733 26.2257C56.8495 26.047 57.2045 26.0298 57.2045 26.0298Z" fill="#E1E0E6"/>
<path d="M56.6125 20.8584C56.6125 20.8584 56.6827 21.382 56.6655 22.0814C56.6504 22.4308 56.6413 22.8211 56.5398 23.2109C56.4343 23.6007 56.2878 23.987 56.0874 24.3208C55.6849 24.9898 55.1416 25.3241 54.6998 25.4963C54.2595 25.6679 53.9161 25.6816 53.9161 25.6816C53.9161 25.6816 53.9065 25.2236 53.9974 24.6071C54.0843 23.9905 54.3024 23.2084 54.6119 22.5489C54.9518 21.887 55.4511 21.4583 55.8657 21.2007C56.2813 20.9422 56.6125 20.8584 56.6125 20.8584Z" fill="#E1E0E6"/>
<path d="M55.0213 15.9268C55.0213 15.9268 55.1865 16.4034 55.3026 17.0624C55.3581 17.3921 55.4127 17.7637 55.4066 18.1445C55.3824 18.5312 55.3182 18.9216 55.1935 19.2745C54.9431 19.9814 54.4962 20.4025 54.114 20.6515C53.7317 20.8994 53.4146 20.9792 53.4146 20.9792C53.4146 20.9792 53.3167 20.55 53.2823 19.9531C53.2662 19.6537 53.2652 19.3124 53.2995 18.9569C53.3439 18.5984 53.3535 18.248 53.4591 17.9006C53.653 17.2123 54.0413 16.713 54.3831 16.3918C54.7249 16.0686 55.0213 15.9268 55.0213 15.9268Z" fill="#E1E0E6"/>
<path d="M52.4902 11.439C52.4902 11.439 52.7326 11.8545 52.9638 12.4494C53.079 12.7468 53.1906 13.0886 53.2668 13.4416C53.338 13.797 53.3355 14.1848 53.2895 14.5378C53.188 15.2497 52.8487 15.734 52.5377 16.0435C52.2266 16.352 51.9444 16.4904 51.9444 16.4904C51.9444 16.4904 51.7717 16.1051 51.6278 15.5502C51.5556 15.272 51.4909 14.9498 51.4561 14.6095C51.3985 14.2813 51.3652 13.9364 51.3925 13.593C51.446 12.9078 51.7182 12.365 51.9787 11.9974C52.2388 11.6288 52.4902 11.439 52.4902 11.439Z" fill="#E1E0E6"/>
<path d="M49.1394 7.56641C49.1394 7.56641 49.4414 7.91078 49.7651 8.42531C50.0801 8.94641 50.4558 9.60283 50.471 10.3087C50.5068 10.9975 50.2811 11.5196 50.0488 11.8715C49.8161 12.223 49.5787 12.4088 49.5787 12.4088C49.5787 12.4088 49.3455 12.079 49.1076 11.5827C48.8885 11.0697 48.584 10.4542 48.5073 9.79875C48.431 9.14384 48.5855 8.58285 48.7623 8.18748C48.9395 7.79262 49.1394 7.56641 49.1394 7.56641Z" fill="#E1E0E6"/>
<path d="M45.1081 4.4585C45.1081 4.4585 45.1303 4.47314 45.1717 4.50091C45.2126 4.52818 45.2712 4.57009 45.3373 4.6322C45.4726 4.75137 45.6585 4.92355 45.8559 5.13461C46.2462 5.56331 46.7082 6.12025 46.8764 6.75143C47.0375 7.39169 46.9249 7.92642 46.7744 8.3021C46.6244 8.67777 46.4391 8.89793 46.4391 8.89793C46.4391 8.89793 46.1604 8.63082 45.8468 8.20818C45.6963 7.98853 45.513 7.75777 45.3459 7.50328C45.1818 7.24627 45.0359 6.96199 44.9394 6.66054C44.7465 6.05865 44.7879 5.50171 44.8798 5.09927C44.9637 4.70693 45.1081 4.4585 45.1081 4.4585Z" fill="#E1E0E6"/>
<path d="M40.5661 2.22412C40.5661 2.22412 40.661 2.26148 40.815 2.3347C40.9675 2.41145 41.1685 2.54577 41.3927 2.70381C41.839 3.02596 42.3601 3.48294 42.6505 4.01312C42.9292 4.56906 42.9186 5.10328 42.853 5.48148C42.7843 5.86271 42.654 6.10458 42.654 6.10458C42.654 6.10458 42.3455 5.90512 41.9739 5.56631C41.5841 5.25981 41.117 4.83667 40.8261 4.30497C40.5328 3.77882 40.4712 3.24056 40.4727 2.86691C40.4777 2.48366 40.5661 2.22412 40.5661 2.22412Z" fill="#E1E0E6"/>
<path d="M35.6906 0.946289C35.6906 0.946289 36.0769 0.999306 36.548 1.23006C37.0216 1.44567 37.5912 1.77439 37.9628 2.21469C38.3385 2.64187 38.4243 3.16954 38.4385 3.52855C38.4491 3.89816 38.3748 4.14912 38.3748 4.14912C38.3748 4.14912 38.2935 4.11681 38.1612 4.05369C38.0269 3.99613 37.8502 3.88201 37.6356 3.7896C37.212 3.58561 36.6989 3.27153 36.3268 2.83274C35.9562 2.3889 35.7936 1.91426 35.7254 1.56383C35.6578 1.20482 35.6906 0.946289 35.6906 0.946289Z" fill="#E1E0E6"/>
<path d="M37.5246 43.0273C37.5246 43.0273 37.0878 43.2086 36.5379 43.5681C36.2531 43.7181 35.938 43.9125 35.629 44.1599C35.4745 44.2836 35.322 44.4205 35.1751 44.5699C35.1013 44.6452 35.0296 44.7239 34.96 44.8063C34.8878 44.879 34.8186 44.9547 34.7514 45.0345C34.2157 45.6742 33.9541 46.4362 33.8339 47.0345C33.7123 47.6334 33.74 48.0682 33.74 48.0682C33.74 48.0682 34.3147 47.9646 35.0387 47.698C35.2185 47.6268 35.4114 47.5642 35.5982 47.4577C35.785 47.3496 35.9734 47.2305 36.1562 47.0997C36.5212 46.8381 36.8621 46.5316 37.1231 46.1792C37.3882 45.8409 37.5271 45.4167 37.6109 45.0562C37.6922 44.6866 37.7073 44.3382 37.6932 44.0382C37.6644 43.4384 37.5246 43.0273 37.5246 43.0273Z" fill="#E1E0E6"/>
<path d="M40.9166 41.5181C40.9166 41.5181 40.5289 41.7685 40.0749 42.226C39.5917 42.6305 39.0236 43.2232 38.6586 43.9832C38.2728 44.6931 38.1743 45.4662 38.1789 46.0554C38.1824 46.6462 38.2955 47.0537 38.2955 47.0537C38.2955 47.0537 38.8222 46.8442 39.4594 46.4523C39.7851 46.2741 40.0997 45.9636 40.4001 45.6555C40.6975 45.3374 40.9626 44.9819 41.1439 44.5972C41.4847 43.7878 41.41 43.0051 41.2711 42.4451C41.1287 41.8811 40.9166 41.5181 40.9166 41.5181Z" fill="#E1E0E6"/>
<path d="M43.9634 39.3447C43.9634 39.3447 43.6372 39.6573 43.2862 40.1774C43.1226 40.4521 42.8914 40.7071 42.7156 41.0413C42.5339 41.367 42.3758 41.7346 42.2779 42.135C42.0618 42.904 42.1072 43.6347 42.2309 44.1962C42.3501 44.7536 42.5389 45.1152 42.5389 45.1152C42.5389 45.1152 42.9999 44.8178 43.5311 44.3265C44.0265 43.7841 44.5748 43.0333 44.7647 42.2279C44.9217 41.3796 44.7147 40.6646 44.4744 40.1567C44.234 39.6492 43.9634 39.3447 43.9634 39.3447Z" fill="#E1E0E6"/>
<path d="M46.555 36.5894C46.555 36.5894 46.3 36.9484 46.0601 37.5078C45.998 37.6467 45.944 37.8037 45.8814 37.9618C45.8122 38.1143 45.7466 38.2769 45.689 38.448C45.5749 38.7909 45.4926 39.1686 45.4739 39.565C45.4643 39.7634 45.4719 39.9578 45.4901 40.1436C45.5007 40.3214 45.5239 40.494 45.5582 40.6587C45.6249 40.9884 45.7294 41.2873 45.8405 41.5378C46.0612 42.0397 46.3121 42.3457 46.3121 42.3457C46.3121 42.3457 46.4075 42.2538 46.555 42.0917C46.6949 41.9215 46.9185 41.712 47.0917 41.3974C47.274 41.0919 47.4598 40.7364 47.6058 40.3577C47.7456 39.974 47.8719 39.5912 47.8537 39.1651C47.8456 38.3339 47.5159 37.6962 47.1927 37.2609C46.8691 36.8267 46.555 36.5894 46.555 36.5894Z" fill="#E1E0E6"/>
<path d="M48.5505 33.354C48.5505 33.354 48.3738 33.7433 48.2481 34.3205C48.1522 34.9148 47.9689 35.6293 48.0875 36.3892C48.1421 36.7664 48.2617 37.1163 48.3965 37.4208C48.5223 37.7192 48.6788 37.9798 48.8313 38.1944C49.1368 38.6246 49.4337 38.8634 49.4337 38.8634C49.4337 38.8634 49.5074 38.7594 49.6175 38.5786C49.7361 38.4029 49.8614 38.1307 49.975 37.806C50.0921 37.4834 50.2022 37.1123 50.2699 36.727C50.3037 36.5346 50.3269 36.3392 50.335 36.1443C50.3284 35.9423 50.3052 35.7398 50.2648 35.5444C50.1022 34.7592 49.67 34.219 49.2817 33.8685C48.8939 33.5186 48.5505 33.354 48.5505 33.354Z" fill="#E1E0E6"/>
<path d="M49.8755 29.7593C49.8755 29.7593 49.7801 30.1647 49.7695 30.7368C49.7554 31.0216 49.7968 31.3594 49.8149 31.6957C49.8351 32.0325 49.8957 32.3865 50.0194 32.7329C50.2608 33.4221 50.7294 33.9604 51.0899 34.2992C51.4615 34.6441 51.7897 34.8107 51.7897 34.8107C51.7897 34.8107 51.8402 34.6981 51.9109 34.5057C51.9655 34.3073 52.0286 34.0245 52.0791 33.6978C52.173 33.0414 52.2477 32.2193 51.9124 31.5008C51.6095 30.7909 51.099 30.3617 50.6647 30.1047C50.231 29.8497 49.8755 29.7593 49.8755 29.7593Z" fill="#E1E0E6"/>
<path d="M50.4505 25.936C50.4505 25.936 50.4404 26.342 50.5394 26.8904C50.5838 27.1646 50.6767 27.4781 50.7731 27.7952C50.8565 28.1108 50.9812 28.4355 51.163 28.7384C51.529 29.3454 52.0547 29.7564 52.4884 30.0099C52.9201 30.2639 53.2554 30.3537 53.2554 30.3537C53.2554 30.3537 53.2867 30.2386 53.2923 30.0387C53.3029 29.8397 53.311 29.5615 53.2958 29.2434C53.2655 28.6061 53.1635 27.8149 52.7101 27.1984C52.2875 26.5844 51.7224 26.2759 51.2634 26.1138C50.8039 25.9537 50.4505 25.936 50.4505 25.936Z" fill="#E1E0E6"/>
<path d="M50.2666 22.0433C50.2666 22.0433 50.3358 22.4301 50.5357 22.9305C50.6296 23.1824 50.7837 23.4607 50.9276 23.7439C51.0669 24.0287 51.2472 24.312 51.4779 24.5645C51.9395 25.0694 52.5146 25.3542 52.9721 25.5082C53.4316 25.6632 53.7704 25.6814 53.7704 25.6814C53.7704 25.6814 53.736 25.2219 53.5851 24.6256C53.43 24.0307 53.1897 23.3016 52.6418 22.8068C52.1248 22.3074 51.532 22.1226 51.0679 22.0569C50.6039 21.9928 50.2666 22.0433 50.2666 22.0433Z" fill="#E1E0E6"/>
<path d="M49.3125 18.244C49.3125 18.244 49.4514 18.5974 49.7361 19.0337C49.876 19.2528 50.0633 19.4901 50.2689 19.7265C50.4552 19.9673 50.6789 20.2006 50.9445 20.394C51.4767 20.7813 52.0715 20.9368 52.5325 20.9928C52.9925 21.0484 53.3177 20.9994 53.3177 20.9994C53.3177 20.9994 53.1965 20.5727 52.939 20.041C52.8107 19.7754 52.6491 19.4846 52.4527 19.2114C52.2669 18.9357 51.9776 18.6994 51.6953 18.5111C51.1136 18.1394 50.5198 18.0778 50.0699 18.1046C49.62 18.1319 49.3125 18.244 49.3125 18.244Z" fill="#E1E0E6"/>
<path d="M47.6016 14.6811C47.6016 14.6811 47.8 14.9906 48.1499 15.3511C48.3251 15.5319 48.5382 15.7263 48.7862 15.9056C49.0285 16.0868 49.2679 16.2737 49.5582 16.4029C50.1303 16.666 50.7175 16.6968 51.1589 16.6584C51.6007 16.6211 51.8961 16.51 51.8961 16.51C51.8961 16.51 51.7007 16.1313 51.3598 15.6793C51.1887 15.4536 50.9821 15.2108 50.7468 14.9916C50.4878 14.7841 50.1954 14.6038 49.8884 14.4831C49.2719 14.2428 48.7033 14.2968 48.2863 14.4069C47.8697 14.5175 47.6016 14.6811 47.6016 14.6811Z" fill="#E1E0E6"/>
<path d="M45.2002 11.4998C45.2002 11.4998 45.4446 11.7568 45.841 12.0345C46.2283 12.3198 46.813 12.594 47.376 12.754C47.9602 12.8954 48.5146 12.8116 48.9191 12.6904C49.325 12.5697 49.579 12.4076 49.579 12.4076C49.579 12.4076 49.3266 12.0875 48.9226 11.726C48.5384 11.3493 47.9264 10.9999 47.3053 10.8888C46.6847 10.7767 46.1616 10.9332 45.791 11.114C45.4209 11.2958 45.2002 11.4998 45.2002 11.4998Z" fill="#E1E0E6"/>
<path d="M42.1865 8.84778C42.1865 8.84778 42.2057 8.85788 42.24 8.87656C42.2759 8.89373 42.3269 8.91999 42.387 8.95836C42.5092 9.03158 42.6839 9.12853 42.896 9.22345C43.3151 9.42038 43.9043 9.58449 44.483 9.60166C45.0551 9.62792 45.5555 9.44462 45.9089 9.25426C46.2634 9.0639 46.4694 8.86293 46.4694 8.86293C46.4694 8.86293 46.174 8.60894 45.7302 8.34335C45.5156 8.20348 45.2404 8.08885 44.9465 8.00756C44.6552 7.92323 44.3482 7.86971 44.0477 7.87375C43.4474 7.88284 42.9874 8.1247 42.6738 8.36455C42.3552 8.61399 42.1865 8.84778 42.1865 8.84778Z" fill="#E1E0E6"/>
<path d="M38.6855 6.83091C38.6855 6.83091 38.7638 6.85716 38.8981 6.88948C39.0309 6.92634 39.2102 6.99249 39.4278 7.04147C39.8605 7.14347 40.4316 7.21214 40.9916 7.09196C41.5369 6.99653 41.9616 6.74305 42.2555 6.49412C42.5488 6.24922 42.7018 6.02149 42.7018 6.02149C42.7018 6.02149 42.3782 5.83668 41.9156 5.66954C41.4349 5.53473 40.8038 5.44485 40.2458 5.56199C39.6863 5.68318 39.3071 5.98564 39.0506 6.2881C38.7992 6.58046 38.6855 6.83091 38.6855 6.83091Z" fill="#E1E0E6"/>
<path d="M34.8232 5.54478C34.8232 5.54478 35.1393 5.56599 35.561 5.59628C35.9861 5.61143 36.5335 5.57003 37.0318 5.3529C37.5348 5.12265 37.8711 4.83231 38.0978 4.53742C38.322 4.25264 38.4199 4.01128 38.4199 4.01128C38.4199 4.01128 38.3361 3.983 38.1947 3.94614C38.0513 3.91483 37.8574 3.84919 37.6161 3.84566C37.1409 3.81839 36.5375 3.84566 36.0401 4.06127C35.5428 4.27183 35.2423 4.64094 35.0611 4.96965C34.8818 5.28979 34.8232 5.54478 34.8232 5.54478Z" fill="#E1E0E6"/>
<path d="M31.0156 2.90967C31.0156 2.90967 31.2651 2.74859 31.6816 2.5956C32.0967 2.4421 32.685 2.29768 33.3232 2.33101C33.9574 2.40927 34.5053 2.68144 34.883 2.91118C35.2622 3.14497 35.4753 3.35301 35.4753 3.35301C35.4753 3.35301 35.1915 3.4853 34.7678 3.59638C34.3417 3.71151 33.7827 3.78877 33.1889 3.71404C32.5895 3.68525 32.0578 3.48429 31.6625 3.2904C31.2681 3.0965 31.0156 2.90967 31.0156 2.90967Z" fill="#E1E0E6"/>
<path d="M14.5463 21.9541C16.1137 21.9541 16.4106 22.6297 16.4106 23.3993C16.4106 24.291 15.6001 24.7368 14.6337 24.7368H14.1202V25.7836H14.5317V26.6753H12.3574V25.7836H12.7361V22.8383H12.3574V21.9536H14.5463V21.9541ZM14.1212 24.0072H14.4251C14.8165 24.0072 15.0866 23.8047 15.0866 23.4472C15.0866 23.0483 14.8503 22.8317 14.459 22.8317H14.1212V24.0072Z" fill="#E1E0E6"/>
<path d="M18.8766 21.9541C20.4435 21.9541 20.7474 22.5752 20.7474 23.3457C20.7474 23.8729 20.3289 24.244 19.7684 24.3248C20.2344 24.3925 20.653 24.7979 20.653 25.2837C20.653 25.574 20.6939 25.7432 20.8151 25.7432C20.9166 25.7432 20.9706 25.6619 20.9706 25.5266V25.3039H21.4231V25.6755C21.4231 26.236 21.1867 26.7566 20.4369 26.7566C19.5518 26.7566 19.1261 26.29 19.1261 25.5003C19.1261 24.8853 19.0524 24.7368 18.451 24.7368V25.7836H18.8625V26.6753H16.6807V25.7836H17.0594V22.8383H16.6807V21.9536H18.8766V21.9541ZM18.451 23.9799H18.755C19.1468 23.9799 19.4033 23.7911 19.4033 23.4331C19.4033 23.0347 19.1806 22.8317 18.7888 22.8317H18.451V23.9799Z" fill="#E1E0E6"/>
<path d="M25.735 21.9546V23.4477H24.567V22.8463H23.486V23.7784H24.769V24.6767H23.486V25.778H24.567V25.1498H25.735V26.6763H21.6621V25.778H22.0878V22.8463H21.6621V21.9546H25.735Z" fill="#E1E0E6"/>
<path d="M30.7645 23.1422C30.711 23.4472 30.6161 23.8926 30.5686 24.0481L29.8597 26.6753H28.4478L27.6914 23.9799C27.6576 23.8653 27.5697 23.4806 27.5496 23.1422H27.5223V25.8038H27.9076V26.6753H26.0771V25.8038H26.4417V22.8251H26.0832V21.9536H28.6433L29.3259 24.4798L29.9743 21.9536H32.548V22.8251H32.1768V25.7972H32.548V26.6753H30.4131V25.7972H30.7913V23.5411V23.1422H30.7645Z" fill="#E1E0E6"/>
<path d="M35.1301 21.9546V22.8463H34.7115V25.778H35.1301V26.6763H32.8877V25.778H33.3134V22.8463H32.8877V21.9546H35.1301Z" fill="#E1E0E6"/>
<path d="M37.5489 21.9546V22.8261H37.1838V24.2854C37.1838 25.3725 37.4267 25.6023 37.8594 25.6023C38.271 25.6023 38.5416 25.4402 38.5416 24.2783V22.8463H38.1771V21.9546H40.1761V22.8261H39.8115V24.4677C39.8115 26.0683 39.1425 26.7914 37.8726 26.7914C36.5082 26.751 35.7791 26.035 35.7791 24.5015V22.8327H35.4004V21.9551L37.5489 21.9546Z" fill="#E1E0E6"/>
<path d="M45.1755 22.8252V26.6753H43.7233L42.001 24.1016V25.8038H42.5211V26.6753H40.4473V25.8038H40.8462V22.8252H40.4543V21.9536H42.3928L44.0475 24.4324V22.8246H43.5885V21.9531H45.6214V22.8246L45.1755 22.8252Z" fill="#E1E0E6"/>
<path d="M21.1472 32.1527C21.1472 32.5854 20.9043 32.9313 20.4175 32.9313C20.0186 32.9313 19.7702 32.6783 19.6631 32.391C19.5465 32.4102 19.4152 32.4203 19.2834 32.4203C18.3008 32.4203 17.6191 31.8462 17.6191 30.6974C17.6191 29.7047 18.2761 29.0049 19.2541 29.0049C20.4024 29.0049 20.9184 29.6951 20.9184 30.7323C20.9184 31.2433 20.7821 31.6568 20.5145 31.9487C20.5533 32.0997 20.6074 32.2653 20.7286 32.2653C20.8164 32.2653 20.826 32.1284 20.826 32.0456V31.9048H21.1472V32.1527ZM19.8288 30.9211C19.8333 30.8626 19.8384 30.7994 19.8384 30.7313C19.8384 30.1718 19.6096 29.7143 19.2496 29.7143C18.9577 29.7088 18.6901 30.1279 18.6901 30.6964C18.6901 30.7939 18.6952 30.8817 18.7098 30.9646C18.8219 30.8479 18.9966 30.7308 19.2839 30.7308C19.4925 30.7313 19.6727 30.8095 19.8288 30.9211ZM19.5414 31.5831C19.5071 31.3402 19.4485 31.1746 19.2829 31.1746C19.1229 31.1746 19.0249 31.3347 18.9572 31.5301C19.0542 31.6371 19.1663 31.6902 19.2829 31.6902C19.3758 31.6902 19.4637 31.6513 19.5414 31.5831Z" fill="#E1E0E6"/>
<path d="M22.8455 29.0191V29.6467H22.5824V30.6975C22.5824 31.4817 22.7576 31.6468 23.0692 31.6468C23.3656 31.6468 23.5605 31.5306 23.5605 30.693V29.6614H23.2979V29.0186H24.7385V29.6462H24.4759V30.8288C24.4759 31.9821 23.9942 32.5027 23.0788 32.5027C22.0962 32.4734 21.5705 31.9578 21.5705 30.8525V29.6508H21.2979V29.0181H22.8455V29.0191Z" fill="#E1E0E6"/>
<path d="M26.7915 32.4198V31.7821H27.254L27.152 31.4519H26.1537L26.0517 31.7821H26.4314V32.4198H24.8838V31.7821H25.215L25.872 29.6462H25.6725V29.0186H27.5408L28.4022 31.7826H28.743V32.4203H26.7915V32.4198ZM26.9712 30.8676L26.6501 29.8169L26.334 30.8676H26.9712Z" fill="#E1E0E6"/>
<path d="M30.4746 29.0186V29.6613H30.2165V31.7735H30.8447V31.1555H31.6622V32.4203H28.9365V31.7735H29.2041V29.6613H28.9365V29.0186H30.4746Z" fill="#E1E0E6"/>
<path d="M33.5264 29.0186V29.6613H33.225V31.7735H33.5269V32.4203H31.9111V31.7735H32.2176V29.6613H31.9111V29.0186H33.5264Z" fill="#E1E0E6"/>
<path d="M36.9867 30.2839H36.2712V29.6613H35.8622V31.7735H36.2661V32.4203H34.4559V31.7735H34.8548V29.6613H34.4362V30.2839H33.7207V29.0186H36.9867V30.2839Z" fill="#E1E0E6"/>
<path d="M38.875 30.5515C38.8947 30.4541 39.0017 30.2496 39.0552 30.133L39.3224 29.6411H39.0552V29.0186H40.364V29.6411H40.101L39.2007 31.2231V31.7871H39.4733V32.4198H37.9161V31.7871H38.1938V31.213L37.2496 29.6411H37.0107V29.0186H38.6755V29.6411H38.422L38.7048 30.1567C38.7341 30.2496 38.8361 30.4682 38.8558 30.551L38.875 30.5515Z" fill="#E1E0E6"/>
<path d="M23.0845 37.3964L22.6376 36.0215L22.1912 37.3964H20.7461L21.915 38.2452L21.4692 39.6202L22.6376 38.7699L23.807 39.6202L23.3607 38.2452L24.5296 37.3964H23.0845Z" fill="#E1E0E6"/>
<path d="M29.6778 37.1722L28.9961 35.0742L28.314 37.1722H26.1084L27.8929 38.4689L27.2112 40.5675L28.9961 39.2703L30.7806 40.5675L30.0994 38.4689L31.8839 37.1722H29.6778Z" fill="#E1E0E6"/>
<path d="M37.2425 37.3964H35.7979L35.351 36.0215L34.9041 37.3964H33.459L34.6279 38.2452L34.1816 39.6202L35.351 38.7699L36.5199 39.6202L36.0736 38.2452L37.2425 37.3964Z" fill="#E1E0E6"/>
</svg>
