<svg width="90" height="81" viewBox="0 0 90 81" fill="none" xmlns="http://www.w3.org/2000/svg">
<path d="M55.2015 29.1205H33.9141C33.3837 29.1205 32.9533 28.6901 32.9533 28.1597L32.9589 26.7661H56.1703L56.1631 28.1597C56.1623 28.6901 55.7319 29.1205 55.2015 29.1205Z" fill="#555969"/>
<path d="M32.3829 21.7791C32.4293 22.0079 32.4733 22.2263 32.5149 22.4303C32.5589 22.6351 32.5989 22.8263 32.6357 23.0047C32.6757 23.1559 32.7133 23.2959 32.7461 23.4223C32.8797 23.9279 32.9565 24.2167 32.9565 24.2167L32.9533 25.8047H56.1638L56.1678 24.2167C56.1678 24.2167 56.2446 23.9279 56.379 23.4223C56.4118 23.2959 56.4494 23.1559 56.4886 23.0047C56.5262 22.8263 56.567 22.6351 56.6094 22.4303C56.6518 22.2255 56.695 22.0079 56.743 21.7791C56.7814 21.5511 56.8054 21.3111 56.839 21.0615C56.9158 20.5711 56.9278 20.0031 56.9414 19.4143C56.9246 19.1135 56.9086 18.8039 56.891 18.4879C56.8398 18.1647 56.795 17.8383 56.727 17.5062C56.5526 16.8422 56.3326 16.1494 55.9278 15.5174L55.7846 15.2798C55.7358 15.2006 55.6726 15.1294 55.6182 15.0558C55.5022 14.9078 55.3886 14.7598 55.2686 14.6174C55.0046 14.355 54.7486 14.0846 54.4494 13.8742C54.167 13.639 53.8526 13.471 53.5494 13.2886C53.2358 13.1382 52.927 12.9806 52.6102 12.8758C52.2966 12.7494 51.9814 12.6718 51.6734 12.5846C51.5182 12.547 51.363 12.5182 51.2118 12.4846C51.0598 12.4502 50.907 12.4238 50.7574 12.4046C50.1582 12.303 49.583 12.2758 49.0413 12.2542C48.5005 12.247 47.9941 12.2542 47.5301 12.2902C47.3925 12.299 47.2701 12.311 47.1405 12.323C47.1429 12.3646 47.1469 12.4046 47.1469 12.4454C47.1469 13.1574 46.9069 13.807 46.5133 14.307C46.5229 14.3238 46.5333 14.3366 46.5429 14.355C46.6557 14.5926 46.7533 14.871 46.8237 15.1854C46.8565 15.343 46.8853 15.5078 46.9109 15.6758C46.9269 15.8518 46.9565 16.0182 46.9637 16.1998C46.9901 16.5574 46.9941 16.9302 46.9877 17.3054C46.9805 17.4934 46.9733 17.6823 46.9669 17.8687C46.9517 18.0583 46.9389 18.2471 46.9245 18.4343C46.8909 18.8087 46.8493 19.1791 46.8029 19.5375C46.7501 19.8983 46.7085 20.2431 46.6469 20.5735C46.5893 20.9015 46.5413 21.2159 46.4813 21.4967C46.4317 21.7487 46.3853 21.9799 46.3429 22.1903C45.7773 22.1703 45.1861 22.1583 44.5621 22.1583C43.9381 22.1583 43.3461 22.1703 42.7813 22.1903C42.7397 21.9791 42.6933 21.7487 42.6429 21.4967C42.5829 21.2151 42.5349 20.9015 42.4773 20.5727C42.4165 20.2423 42.3741 19.8983 42.3213 19.5375C42.2733 19.1791 42.2333 18.8087 42.1997 18.4343C42.1853 18.2471 42.1717 18.0583 42.1573 17.8687C42.1501 17.6823 42.1429 17.4927 42.1357 17.3046C42.1293 16.9294 42.1349 16.5574 42.1605 16.1998C42.1677 16.0174 42.1973 15.851 42.2133 15.6758C42.2381 15.5078 42.2677 15.343 42.3013 15.1854C42.3717 14.871 42.4677 14.5926 42.5821 14.355C42.5917 14.3374 42.6021 14.3246 42.6117 14.307C42.2181 13.807 41.9781 13.1566 41.9781 12.4454C41.9781 12.4038 41.9821 12.3638 41.9829 12.323C41.8541 12.311 41.7317 12.299 41.5941 12.2902C41.1309 12.2542 40.6237 12.247 40.0829 12.2542C39.5413 12.275 38.9661 12.3022 38.3669 12.4046C38.2165 12.4238 38.0645 12.451 37.9133 12.4846C37.7605 12.5182 37.6061 12.547 37.4509 12.5846C37.1429 12.6718 36.8269 12.7494 36.5141 12.8758C36.1965 12.9806 35.8885 13.1382 35.5741 13.2886C35.2717 13.471 34.9573 13.639 34.6749 13.8742C34.3757 14.0846 34.1205 14.355 33.8573 14.6174C33.7365 14.7598 33.6237 14.9078 33.5077 15.0558C33.4517 15.1302 33.3893 15.2014 33.3405 15.2798L33.1973 15.5174C32.7925 16.1494 32.5725 16.8422 32.3981 17.5062C32.3293 17.8375 32.2845 18.1639 32.2333 18.4879C32.2165 18.8039 32.1997 19.1135 32.1837 19.4143C32.1965 20.0023 32.2085 20.5703 32.2853 21.0615C32.3189 21.3111 32.3437 21.5511 32.3829 21.7791ZM48.9014 13.8166C49.3782 13.903 49.8798 13.9982 50.3686 14.1542C50.4934 14.1878 50.615 14.2278 50.735 14.2734C50.8558 14.3182 50.9798 14.359 51.0982 14.4062C51.331 14.5126 51.5742 14.6054 51.791 14.7342C52.0206 14.8462 52.219 14.995 52.427 15.127C52.611 15.2846 52.811 15.4238 52.963 15.6006C53.1366 15.7582 53.2582 15.9518 53.3974 16.1246L53.5614 16.4134C53.587 16.4622 53.6198 16.5038 53.6406 16.555L53.6998 16.7078C53.8838 17.099 53.9454 17.5439 53.9998 17.9687C54.011 18.1887 54.0062 18.4119 54.0142 18.6223C53.995 18.8447 53.975 19.0615 53.9558 19.2719C53.8782 19.7031 53.8214 20.1055 53.7022 20.4879C53.6486 20.6775 53.6046 20.8607 53.5518 21.0287C53.4918 21.1935 53.4374 21.3487 53.3838 21.4951C53.3318 21.6407 53.2846 21.7775 53.2406 21.9039C53.1798 22.0495 53.1238 22.1831 53.0726 22.3031C52.9342 22.6351 52.8374 22.8655 52.7894 22.9799C51.9358 22.7767 50.8998 22.5855 49.6622 22.4383C49.6606 22.2303 49.659 22.0111 49.6574 21.7695C49.659 21.4487 49.6406 21.1079 49.6302 20.7455C49.6214 20.3855 49.5894 19.9983 49.5662 19.6031C49.5374 19.2055 49.4982 18.7942 49.4494 18.3758C49.4222 18.1654 49.3942 17.9551 49.3654 17.7431C49.3302 17.5295 49.2926 17.3159 49.2566 17.1015C49.1758 16.6734 49.0806 16.2446 48.959 15.8222C48.9053 15.611 48.8245 15.4006 48.7589 15.195C48.6813 14.987 48.6005 14.7838 48.511 14.5846C48.3669 14.2734 48.1917 13.979 47.9957 13.7006C48.2893 13.7326 48.5885 13.7686 48.9014 13.8166ZM35.1229 17.9703C35.1773 17.5455 35.2397 17.1006 35.4237 16.7094L35.4837 16.5566C35.5021 16.5062 35.5365 16.4638 35.5621 16.415L35.7261 16.1262C35.8653 15.9526 35.9861 15.7598 36.1613 15.6022C36.3117 15.4254 36.5125 15.2862 36.6965 15.1286C36.9045 14.9966 37.1029 14.847 37.3325 14.7358C37.5501 14.607 37.7925 14.5142 38.0245 14.4078C38.1445 14.3606 38.2677 14.3198 38.3885 14.275C38.5077 14.2286 38.6301 14.1894 38.7549 14.1558C39.2437 13.9998 39.7453 13.9046 40.2221 13.8182C40.5341 13.7702 40.8341 13.7342 41.1269 13.7038C40.9317 13.983 40.7549 14.2766 40.6125 14.5878C40.5229 14.787 40.4405 14.9902 40.3637 15.1982C40.2981 15.4038 40.2173 15.6142 40.1637 15.8254C40.0429 16.247 39.9469 16.6766 39.8653 17.1046C39.8301 17.319 39.7925 17.5326 39.7565 17.7454C39.7293 17.9582 39.7021 18.1687 39.6733 18.3791C39.6245 18.7975 39.5861 19.2087 39.5565 19.6063C39.5333 20.0007 39.5021 20.3879 39.4933 20.7487C39.4821 21.1111 39.4645 21.4519 39.4661 21.7727C39.4637 22.0143 39.4629 22.2343 39.4605 22.4415C38.2237 22.5895 37.1869 22.7799 36.3341 22.9831C36.2861 22.8687 36.1893 22.6383 36.0509 22.3063C36.0005 22.1863 35.9445 22.0527 35.8837 21.9071C35.8389 21.7807 35.7917 21.6439 35.7397 21.4983C35.6885 21.3519 35.6317 21.1967 35.5733 21.0319C35.5197 20.8639 35.4765 20.6815 35.4229 20.4911C35.3037 20.1095 35.2453 19.7071 35.1685 19.2751C35.1493 19.0639 35.1301 18.8479 35.1109 18.6255C35.1181 18.4127 35.1133 18.1903 35.1229 17.9703Z" fill="#555969"/>
<path d="M42.9375 12.4462C42.9375 11.4038 43.6647 10.5598 44.5607 10.5598C45.4583 10.5598 46.1847 11.4046 46.1847 12.4462C46.1847 13.4878 45.4583 14.331 44.5607 14.331C43.6647 14.3318 42.9375 13.4878 42.9375 12.4462Z" fill="#555969"/>
<path d="M36.6256 3.82935C36.6256 3.82935 36.2056 3.89576 35.416 4.02056C35.024 4.09336 34.5312 4.13895 33.968 4.27255C33.408 4.42055 32.764 4.58935 32.044 4.77975C29.1904 5.56696 25.1096 7.02617 20.9351 9.98779C16.7831 12.9174 12.5223 17.291 9.57668 22.9399C9.23668 23.6575 8.89347 24.3807 8.54707 25.1095L8.28787 25.6575C8.20787 25.8431 8.14707 26.0375 8.07667 26.2279C7.93907 26.6103 7.80147 26.9927 7.66307 27.3783C7.04386 28.8943 6.70466 30.5175 6.29106 32.1303C6.09826 32.9399 6.02946 33.7783 5.89186 34.6039L5.70866 35.8487C5.64546 36.2647 5.65906 36.6887 5.63026 37.1079C5.59186 37.9487 5.55425 38.7911 5.51665 39.6352C5.54145 40.4784 5.60546 41.3208 5.64866 42.1648L5.71986 43.4296L5.91826 44.6792C6.05906 45.5104 6.16466 46.348 6.33346 47.1696C6.78066 48.7896 7.11666 50.4368 7.76707 51.9696L8.19987 53.1336L8.41667 53.7144L8.68787 54.2688C9.04947 55.0072 9.40868 55.7424 9.76628 56.4728C9.92948 56.8464 10.1599 57.1816 10.3679 57.5264C10.5799 57.8704 10.7903 58.2129 11.0007 58.5545C11.2119 58.8961 11.4199 59.2353 11.6295 59.5745C11.8287 59.9193 12.0975 60.2161 12.3271 60.5361C12.8039 61.1649 13.2759 61.7881 13.7439 62.4073C14.2447 62.9969 14.7815 63.5481 15.2903 64.1113C15.5463 64.3905 15.8023 64.6681 16.0567 64.9441C16.3127 65.2177 16.6071 65.4505 16.8775 65.7033C17.4287 66.1985 17.9743 66.6873 18.5119 67.1705C19.0583 67.6425 19.6567 68.0345 20.2127 68.4609C20.4959 68.6697 20.7751 68.8753 21.0535 69.0809L21.4687 69.3881L21.9055 69.6529C22.4879 70.0017 23.0608 70.3449 23.6232 70.6817C23.904 70.8497 24.1824 71.0169 24.4576 71.1817C24.748 71.3193 25.036 71.4561 25.32 71.5905C26.4648 72.1137 27.5248 72.7009 28.6256 73.0393C29.1648 73.2329 29.6904 73.4217 30.2016 73.6049C30.4576 73.6929 30.7064 73.7962 30.9592 73.8682C31.2144 73.9322 31.4672 73.9945 31.7144 74.0569C32.7072 74.2962 33.6288 74.5578 34.4936 74.7338C35.3688 74.8618 36.172 74.9794 36.8968 75.085C37.26 75.1346 37.6016 75.1977 37.9264 75.2281C38.252 75.2425 38.5576 75.2561 38.8424 75.2689C39.4112 75.2937 39.8952 75.3154 40.2872 75.333C41.0721 75.3682 41.4897 75.3865 41.4897 75.3865V76.6721C41.4897 76.6721 41.0569 76.6482 40.2449 76.6026C39.8392 76.5794 39.3392 76.5506 38.7512 76.5186C38.4576 76.5018 38.1408 76.4834 37.8032 76.4642C37.468 76.429 37.1152 76.3602 36.74 76.305C35.9912 76.1866 35.1624 76.0554 34.26 75.9122C33.368 75.7202 32.4168 75.4393 31.3952 75.1793C31.1408 75.1121 30.8808 75.0434 30.6176 74.9737C30.3576 74.8961 30.1016 74.7873 29.8376 74.6937C29.3128 74.4977 28.772 74.2969 28.2184 74.0897C27.0888 73.7257 26.0008 73.1105 24.8288 72.5569C24.5376 72.4145 24.2432 72.2705 23.9456 72.1241C23.6632 71.9505 23.3784 71.7761 23.0912 71.6001C22.5168 71.2473 21.9319 70.8865 21.3359 70.5193L20.8895 70.2409L20.4663 69.9209C20.1831 69.7065 19.8975 69.4905 19.6103 69.2737C19.0431 68.8289 18.4335 68.4177 17.8775 67.9265C17.3311 67.4241 16.7775 66.9145 16.2175 66.3993C15.9423 66.1369 15.6439 65.8945 15.3839 65.6105C15.1263 65.3241 14.8671 65.0361 14.6063 64.7473C14.0911 64.1633 13.5487 63.5921 13.0423 62.9801C12.5695 62.3409 12.0927 61.6969 11.6127 61.0465C11.3823 60.7145 11.1111 60.4081 10.9103 60.0529C10.7007 59.7041 10.4911 59.3529 10.2791 59.0009C10.0679 58.6497 9.85668 58.2961 9.64388 57.9416C9.43428 57.5856 9.20388 57.24 9.04068 56.856C8.68467 56.1056 8.32547 55.3488 7.96547 54.5896L7.69507 54.0192L7.47987 53.424L7.05106 52.2296C6.40626 50.656 6.08146 48.9712 5.64626 47.3152C5.48466 46.4744 5.38625 45.6192 5.25345 44.7704L5.06705 43.4952L5.00865 42.2072C4.97585 41.3488 4.92145 40.4888 4.90625 39.632C4.95505 38.7759 5.00225 37.9191 5.05105 37.0647C5.08545 36.6383 5.07665 36.2095 5.14625 35.7871L5.34545 34.5247C5.49505 33.6871 5.57506 32.8383 5.78146 32.0191C6.21826 30.3863 6.58306 28.7471 7.22866 27.2175C7.37346 26.8295 7.51667 26.4431 7.66067 26.0575C7.73507 25.8663 7.79907 25.6711 7.88147 25.4831L8.15027 24.9327C8.50867 24.1999 8.86467 23.4719 9.21828 22.7495C12.2647 17.0718 16.6127 12.7174 20.8223 9.82138C25.0536 6.89417 29.1632 5.48056 32.0304 4.72615C32.7544 4.54375 33.4008 4.38215 33.9624 4.24135C34.5272 4.11495 35.0216 4.07415 35.4144 4.00695C36.204 3.89095 36.6256 3.82935 36.6256 3.82935Z" fill="#555969"/>
<path d="M31.1728 67.2585C31.1728 67.2585 31.8648 67.5458 32.736 68.1154C33.188 68.353 33.6872 68.661 34.1768 69.053C34.4208 69.249 34.6624 69.4658 34.8952 69.7026C35.012 69.8218 35.1256 69.9466 35.236 70.077C35.3496 70.1922 35.4608 70.3122 35.5664 70.4386C36.4144 71.4522 36.8296 72.6594 37.0208 73.6074C37.2128 74.5562 37.1696 75.245 37.1696 75.245C37.1696 75.245 36.2584 75.081 35.1112 74.6586C34.8264 74.5458 34.5216 74.4466 34.2248 74.2778C33.9288 74.1066 33.6304 73.9178 33.3416 73.7106C32.7624 73.2962 32.2224 72.8106 31.8088 72.2522C31.388 71.7162 31.1696 71.0442 31.036 70.473C30.9072 69.8874 30.884 69.3354 30.9056 68.8602C30.9512 67.9098 31.1728 67.2585 31.1728 67.2585Z" fill="#555969"/>
<path d="M25.8047 64.8672C25.8047 64.8672 26.4199 65.264 27.1383 65.9888C27.9047 66.6296 28.8039 67.5688 29.3823 68.7728C29.9935 69.8968 30.1487 71.1224 30.1415 72.056C30.1367 72.992 29.9575 73.6376 29.9575 73.6376C29.9575 73.6376 29.1223 73.3056 28.1135 72.6848C27.5975 72.4024 27.0991 71.9104 26.6231 71.4224C26.1527 70.9192 25.7319 70.3552 25.4447 69.7456C24.9055 68.4632 25.0239 67.2232 25.2431 66.336C25.4687 65.4424 25.8047 64.8672 25.8047 64.8672Z" fill="#555969"/>
<path d="M20.9654 61.4241C20.9654 61.4241 21.4814 61.9193 22.0374 62.7433C22.2982 63.1785 22.6638 63.5825 22.9414 64.1121C23.231 64.6281 23.4806 65.2105 23.635 65.8449C23.9782 67.0633 23.907 68.2209 23.7102 69.1105C23.5214 69.9937 23.2222 70.5665 23.2222 70.5665C23.2222 70.5665 22.491 70.0953 21.6502 69.3169C20.8662 68.4577 19.9974 67.2681 19.6958 65.9921C19.4478 64.6481 19.775 63.5153 20.1558 62.7097C20.5374 61.9065 20.9654 61.4241 20.9654 61.4241Z" fill="#555969"/>
<path d="M16.8742 57.0586C16.8742 57.0586 17.2782 57.6274 17.6582 58.5138C17.7558 58.7338 17.843 58.9826 17.9406 59.233C18.051 59.4746 18.1542 59.7322 18.2446 60.0034C18.4254 60.5466 18.5574 61.145 18.5862 61.773C18.6022 62.0874 18.5894 62.3954 18.5606 62.6898C18.5438 62.9714 18.5062 63.245 18.4534 63.5058C18.3478 64.0282 18.1814 64.5018 18.0062 64.8986C17.6558 65.6938 17.259 66.1787 17.259 66.1787C17.259 66.1787 17.1078 66.033 16.8742 65.7762C16.6526 65.5066 16.2974 65.1746 16.023 64.6762C15.735 64.1922 15.4398 63.629 15.2086 63.0282C14.987 62.421 14.7878 61.8146 14.815 61.1394C14.8294 59.8226 15.351 58.8122 15.863 58.1226C16.3766 57.4346 16.8742 57.0586 16.8742 57.0586Z" fill="#555969"/>
<path d="M13.7022 51.9321C13.7022 51.9321 13.9822 52.5497 14.1822 53.4641C14.3342 54.4057 14.6238 55.5377 14.4358 56.7418C14.3494 57.3394 14.1598 57.8938 13.9462 58.3762C13.7478 58.849 13.4998 59.2618 13.2582 59.6018C12.7726 60.2834 12.3038 60.6618 12.3038 60.6618C12.3038 60.6618 12.187 60.497 12.0126 60.2106C11.8246 59.9322 11.6262 59.501 11.4462 58.9866C11.2614 58.4754 11.0862 57.8874 10.9782 57.277C10.9246 56.9722 10.8878 56.6625 10.875 56.3537C10.8854 56.0337 10.9222 55.713 10.987 55.4034C11.2446 54.1593 11.9294 53.3033 12.5438 52.7481C13.159 52.1937 13.7022 51.9321 13.7022 51.9321Z" fill="#555969"/>
<path d="M11.6096 46.2368C11.6096 46.2368 11.76 46.8792 11.7776 47.7856C11.7992 48.2368 11.7336 48.772 11.7056 49.3048C11.6736 49.8384 11.5768 50.3992 11.3808 50.948C10.9984 52.0401 10.256 52.8929 9.68476 53.4297C9.09596 53.9753 8.57675 54.2393 8.57675 54.2393C8.57675 54.2393 8.49595 54.0609 8.38475 53.7577C8.29755 53.4433 8.19755 52.9953 8.11755 52.4777C7.96955 51.4377 7.85115 50.1352 8.38235 48.996C8.86235 47.872 9.67036 47.192 10.3584 46.7848C11.0456 46.38 11.6096 46.2368 11.6096 46.2368Z" fill="#555969"/>
<path d="M10.6936 40.1792C10.6936 40.1792 10.7104 40.8224 10.5536 41.6912C10.4824 42.1256 10.3352 42.6224 10.1824 43.1248C10.0504 43.6248 9.85357 44.1392 9.56316 44.6192C8.98476 45.5808 8.15116 46.232 7.46395 46.6328C6.77995 47.036 6.24874 47.1784 6.24874 47.1784C6.24874 47.1784 6.20075 46.9952 6.19115 46.6792C6.17355 46.364 6.16155 45.9232 6.18475 45.4192C6.23275 44.4096 6.39515 43.156 7.11355 42.1792C7.78315 41.2064 8.67756 40.7176 9.40476 40.4608C10.1336 40.2072 10.6936 40.1792 10.6936 40.1792Z" fill="#555969"/>
<path d="M10.9878 34.0119C10.9878 34.0119 10.879 34.6247 10.5614 35.4175C10.4134 35.8167 10.1686 36.2575 9.94138 36.7063C9.72058 37.1575 9.43418 37.6063 9.06858 38.0063C8.33737 38.8063 7.42617 39.2575 6.70136 39.5015C5.97416 39.7471 5.43736 39.7759 5.43736 39.7759C5.43736 39.7759 5.49176 39.0479 5.73016 38.1031C5.97576 37.1607 6.35656 36.0055 7.22457 35.2215C8.04377 34.4303 8.98298 34.1375 9.71898 34.0335C10.4542 33.9319 10.9878 34.0119 10.9878 34.0119Z" fill="#555969"/>
<path d="M12.5058 27.9927C12.5058 27.9927 12.2858 28.5527 11.8346 29.2439C11.6138 29.5911 11.3162 29.9671 10.9906 30.3415C10.6962 30.7231 10.3418 31.0927 9.92017 31.3991C9.07777 32.0127 8.13537 32.2599 7.40496 32.348C6.67536 32.436 6.16016 32.3584 6.16016 32.3584C6.16016 32.3584 6.35296 31.6823 6.76016 30.8399C6.96416 30.4191 7.22016 29.9583 7.53056 29.5255C7.82496 29.0879 8.28417 28.7135 8.73137 28.4151C9.65297 27.8263 10.593 27.7287 11.3058 27.7711C12.0186 27.8151 12.5058 27.9927 12.5058 27.9927Z" fill="#555969"/>
<path d="M15.2134 22.3478C15.2134 22.3478 14.8998 22.8382 14.3454 23.4094C14.0678 23.6958 13.7286 24.0038 13.3366 24.2878C12.9526 24.575 12.5742 24.871 12.1142 25.0758C11.207 25.4926 10.2774 25.5414 9.57736 25.4814C8.87736 25.4214 8.41016 25.2454 8.41016 25.2454C8.41016 25.2454 8.71896 24.6454 9.25976 23.9294C9.53016 23.5726 9.85816 23.187 10.231 22.8398C10.6414 22.511 11.1046 22.2254 11.5902 22.0342C12.5662 21.6534 13.4678 21.739 14.1286 21.9134C14.7894 22.0886 15.2134 22.3478 15.2134 22.3478Z" fill="#555969"/>
<path d="M19.015 17.3078C19.015 17.3078 18.6278 17.715 18.0006 18.155C17.3862 18.607 16.4606 19.0422 15.5685 19.295C14.6437 19.519 13.7645 19.3862 13.1237 19.1942C12.4813 19.0038 12.0781 18.7462 12.0781 18.7462C12.0781 18.7462 12.4789 18.239 13.1189 17.6662C13.7269 17.0694 14.6973 16.5158 15.6805 16.3398C16.6646 16.1622 17.4934 16.4102 18.0798 16.6966C18.667 16.9846 19.015 17.3078 19.015 17.3078Z" fill="#555969"/>
<path d="M23.7943 13.1053C23.7943 13.1053 23.7646 13.1213 23.7094 13.1509C23.6534 13.1781 23.5719 13.2197 23.4775 13.2805C23.2838 13.3965 23.0062 13.5501 22.6702 13.7005C22.007 14.0125 21.0734 14.2725 20.155 14.2997C19.2494 14.3413 18.4566 14.0509 17.8958 13.7493C17.3342 13.4485 17.0078 13.1301 17.0078 13.1301C17.0078 13.1301 17.4758 12.7269 18.179 12.3061C18.5198 12.0845 18.9558 11.9029 19.4206 11.7741C19.8822 11.6405 20.3694 11.5557 20.8446 11.5629C21.7966 11.5765 22.5254 11.9597 23.0214 12.3397C23.527 12.7349 23.7943 13.1053 23.7943 13.1053Z" fill="#555969"/>
<path d="M29.339 9.91101C29.339 9.91101 29.215 9.95261 29.0022 10.0038C28.7918 10.0622 28.5078 10.167 28.163 10.2446C27.4774 10.4062 26.5734 10.515 25.6862 10.3246C24.8214 10.1734 24.1494 9.77182 23.683 9.37742C23.219 8.98941 22.9766 8.62861 22.9766 8.62861C22.9766 8.62861 23.4886 8.33501 24.2222 8.07021C24.9838 7.8566 25.9838 7.71421 26.867 7.89981C27.7534 8.09181 28.355 8.571 28.7606 9.0502C29.159 9.51421 29.339 9.91101 29.339 9.91101Z" fill="#555969"/>
<path d="M35.4516 7.87261C35.4516 7.87261 34.9508 7.90622 34.2828 7.95422C33.6084 7.97822 32.7428 7.91262 31.9532 7.56862C31.1564 7.20382 30.6236 6.74381 30.2628 6.27661C29.9084 5.8254 29.754 5.44301 29.754 5.44301C29.754 5.44301 29.886 5.3982 30.1108 5.3398C30.338 5.2902 30.6452 5.1862 31.0268 5.1806C31.7796 5.1374 32.7356 5.18061 33.5236 5.52221C34.3116 5.85581 34.7876 6.44061 35.0756 6.96141C35.3596 7.46862 35.4516 7.87261 35.4516 7.87261Z" fill="#555969"/>
<path d="M26.4335 79.9074C26.4335 79.9074 27.4807 80.2778 28.9223 80.5122C29.6575 80.5802 30.4879 80.6138 31.3199 80.561C31.7359 80.5346 32.1519 80.4874 32.5559 80.413C32.7575 80.3754 32.9559 80.3306 33.1503 80.2794C33.3479 80.2138 33.5399 80.1386 33.7279 80.0578C35.2247 79.4026 36.0496 78.3834 36.5112 77.5361C36.9712 76.6873 37.0816 76.0081 37.0816 76.0081C37.0816 76.0081 36.1568 75.8921 34.8815 75.9449C34.5631 75.9513 34.2175 75.9961 33.8671 76.0033C33.5167 76.0089 33.1527 76.0265 32.7823 76.0641C32.0399 76.1385 31.2687 76.2865 30.5335 76.5505C29.7911 76.8361 29.1903 77.0954 28.6639 77.4578C28.1423 77.8066 27.7167 78.193 27.3847 78.5546C26.7183 79.2786 26.4335 79.9074 26.4335 79.9074Z" fill="#555969"/>
<path d="M18.8867 75.9209C18.8867 75.9209 19.8107 76.4585 21.1219 76.9665C22.4755 77.3913 24.2348 77.7401 25.746 77.4841C27.294 77.1513 28.2804 76.3449 28.8884 75.6297C29.4948 74.9137 29.7356 74.2921 29.7356 74.2921C29.7356 74.2921 28.8796 74.0049 27.6572 73.8089C27.034 73.7385 26.374 73.552 25.6484 73.496C24.9284 73.4248 24.166 73.4193 23.4171 73.5297C21.9539 73.6857 20.8251 74.2473 20.0499 74.8161C19.2787 75.3777 18.8867 75.9209 18.8867 75.9209Z" fill="#555969"/>
<path d="M12.3242 70.5512C12.3242 70.5512 13.0978 71.2288 14.2434 71.9512C14.7962 72.3344 15.537 72.6128 16.261 72.8768C16.9978 73.128 17.765 73.3056 18.5011 73.3376C20.0099 73.3536 21.1243 72.7504 21.8379 72.1992C22.5563 71.6384 22.9091 71.096 22.9091 71.096C22.9091 71.096 22.1507 70.6632 21.0259 70.248C19.9571 69.7496 18.5291 69.2352 17.0746 69.1464C15.6762 68.9936 14.4786 69.3352 13.6394 69.724C12.7994 70.1104 12.3242 70.5512 12.3242 70.5512Z" fill="#555969"/>
<path d="M6.98047 64.0298C6.98047 64.0298 7.58687 64.8114 8.53808 65.7058C8.77808 65.9274 9.02928 66.1634 9.31488 66.3802C9.61248 66.5874 9.92689 66.789 10.2525 66.9746C10.9037 67.3482 11.5997 67.6578 12.2933 67.8266C12.6405 67.9106 12.9709 67.9562 13.2845 67.969C13.6109 67.969 13.9173 67.9402 14.2029 67.8898C14.7741 67.7898 15.2605 67.6082 15.6581 67.4122C16.4517 67.0202 16.8933 66.577 16.8933 66.577C16.8933 66.577 16.7333 66.4378 16.4493 66.2258C16.1765 66.001 15.7309 65.7506 15.2877 65.397C14.8293 65.057 14.2853 64.6994 13.6829 64.3818C13.0901 64.0586 12.3957 63.8114 11.7637 63.5906C10.4613 63.1833 9.25728 63.2833 8.38688 63.4937C7.51567 63.7017 6.98047 64.0298 6.98047 64.0298Z" fill="#555969"/>
<path d="M3.05078 56.6114C3.05078 56.6114 3.47798 57.461 4.21159 58.4834C4.89639 59.5298 6.1004 60.6194 7.346 61.2042C7.97721 61.493 8.56601 61.6258 9.11321 61.6514C9.67562 61.6666 10.174 61.5882 10.5908 61.4802C11.422 61.2634 11.9276 60.9314 11.9276 60.9314C11.9276 60.9314 11.8012 60.7706 11.5708 60.5162C11.3268 60.2706 11.0268 59.8994 10.6596 59.4898C10.286 59.0826 9.83642 58.641 9.32282 58.2298C9.06602 58.0234 8.79321 57.8242 8.50601 57.641C8.24281 57.4442 7.96681 57.2618 7.67641 57.1042C6.5148 56.4714 5.354 56.3378 4.48759 56.3722C3.61959 56.4034 3.05078 56.6114 3.05078 56.6114Z" fill="#555969"/>
<path d="M0.699219 48.5944C0.699219 48.5944 0.940819 49.4752 1.44002 50.5776C1.70162 51.1232 1.97283 51.7384 2.40563 52.288C2.83443 52.8384 3.32403 53.3528 3.86484 53.7464C4.95684 54.532 6.00245 54.7 6.85045 54.652C7.68166 54.6088 8.22646 54.396 8.22646 54.396C8.22646 54.396 8.13606 54.22 7.96486 53.9368C7.81846 53.6432 7.61206 53.2328 7.33366 52.7784C6.79125 51.8632 5.91445 50.7824 4.98324 49.9456C4.00324 49.1272 2.93043 48.7792 2.10323 48.6448C1.27762 48.5072 0.699219 48.5944 0.699219 48.5944Z" fill="#555969"/>
<path d="M0 40.3279C0 40.3279 0.0592029 41.1991 0.317604 42.3255C0.454405 42.8871 0.606405 43.5143 0.886406 44.1143C1.18561 44.7135 1.54961 45.2911 1.98401 45.7655C2.85602 46.7175 3.84242 47.0767 4.61123 47.2071C5.38323 47.3351 5.95043 47.2399 5.95043 47.2399C5.95043 47.2399 5.89123 47.0583 5.82243 46.7511C5.74483 46.4439 5.62483 46.0191 5.44963 45.5351C5.10003 44.5687 4.50323 43.3759 3.78562 42.4103C3.01842 41.4511 2.07121 40.9207 1.31681 40.6383C0.562403 40.3551 0 40.3279 0 40.3279Z" fill="#555969"/>
<path d="M0.935941 32.1343C0.935941 32.1343 0.824741 32.9639 0.851941 34.0719C0.875141 34.6255 0.890342 35.2439 1.05034 35.8615C1.21754 36.4791 1.44954 37.0911 1.76875 37.6199C2.40555 38.6799 3.26716 39.2095 3.96636 39.4823C4.66476 39.7543 5.20877 39.7759 5.20877 39.7759C5.20877 39.7759 5.22397 39.0503 5.07917 38.0735C4.94236 37.0967 4.59596 35.8575 4.10636 34.8127C3.56716 33.7639 2.77675 33.0847 2.11915 32.6767C1.46154 32.2671 0.935941 32.1343 0.935941 32.1343Z" fill="#555969"/>
<path d="M3.4665 24.3215C3.4665 24.3215 3.2057 25.0767 3.0209 26.1215C2.9329 26.6431 2.84729 27.2319 2.85609 27.8352C2.89529 28.448 2.9961 29.0664 3.1937 29.6256C3.5905 30.7456 4.2993 31.4128 4.90411 31.8072C5.51051 32.2 6.01291 32.3264 6.01291 32.3264C6.01291 32.3264 6.16811 31.6464 6.22091 30.7008C6.24811 30.2272 6.24971 29.6856 6.19531 29.1224C6.12491 28.5544 6.10971 27.9992 5.94171 27.4487C5.63451 26.3583 5.02011 25.5679 4.4785 25.0583C3.9361 24.5463 3.4665 24.3215 3.4665 24.3215Z" fill="#555969"/>
<path d="M7.4747 17.2109C7.4747 17.2109 7.0915 17.8693 6.7251 18.8118C6.5419 19.283 6.3651 19.8246 6.2451 20.3838C6.1315 20.947 6.13549 21.5614 6.2083 22.1206C6.3699 23.2486 6.9075 24.0158 7.4003 24.5062C7.89231 24.995 8.34031 25.2142 8.34031 25.2142C8.34031 25.2142 8.61391 24.6038 8.84191 23.7246C8.95551 23.2838 9.05871 22.7734 9.11391 22.2342C9.20511 21.7142 9.25791 21.1678 9.21391 20.6238C9.12991 19.5382 8.69871 18.6781 8.28591 18.0957C7.8739 17.5117 7.4747 17.2109 7.4747 17.2109Z" fill="#555969"/>
<path d="M12.779 11.0757C12.779 11.0757 12.3006 11.6205 11.7878 12.4357C11.2886 13.2621 10.6942 14.3013 10.6702 15.4197C10.6126 16.5109 10.971 17.3381 11.339 17.8957C11.7078 18.4525 12.083 18.7469 12.083 18.7469C12.083 18.7469 12.4526 18.2245 12.8294 17.4381C13.1766 16.6261 13.659 15.6501 13.7806 14.6117C13.9006 13.5741 13.6558 12.6853 13.3758 12.0589C13.0958 11.4341 12.779 11.0757 12.779 11.0757Z" fill="#555969"/>
<path d="M19.1669 6.15234C19.1669 6.15234 19.1309 6.17554 19.0669 6.21874C19.0005 6.26194 18.9085 6.32835 18.8037 6.42675C18.5885 6.61555 18.2957 6.88835 17.9821 7.22275C17.3645 7.90195 16.6317 8.78435 16.3669 9.78436C16.1117 10.7988 16.2901 11.646 16.5269 12.2412C16.7661 12.8364 17.0597 13.1852 17.0597 13.1852C17.0597 13.1852 17.5013 12.762 17.9973 12.0924C18.2365 11.7444 18.5261 11.3788 18.7909 10.9756C19.0517 10.5684 19.2821 10.118 19.4357 9.64036C19.7405 8.68676 19.6749 7.80435 19.5301 7.16755C19.3965 6.54514 19.1669 6.15234 19.1669 6.15234Z" fill="#555969"/>
<path d="M26.3682 2.61182C26.3682 2.61182 26.2178 2.67101 25.973 2.78701C25.733 2.90861 25.4138 3.12142 25.0586 3.37182C24.3522 3.88222 23.5266 4.60623 23.0658 5.44623C22.625 6.32704 22.6402 7.17343 22.745 7.77264C22.8538 8.37744 23.0594 8.75985 23.0594 8.75985C23.0594 8.75985 23.549 8.44384 24.137 7.90704C24.7538 7.42143 25.4946 6.75103 25.9562 5.90862C26.4202 5.07502 26.517 4.22222 26.5154 3.63022C26.5082 3.02301 26.3682 2.61182 26.3682 2.61182Z" fill="#555969"/>
<path d="M34.0857 0.586914C34.0857 0.586914 33.4737 0.670912 32.7273 1.03651C31.9769 1.37812 31.0753 1.89892 30.4865 2.59652C29.8905 3.27332 29.7545 4.10933 29.7321 4.67814C29.7153 5.26374 29.8321 5.66135 29.8321 5.66135C29.8321 5.66135 29.9617 5.61015 30.1713 5.51015C30.3841 5.41895 30.6641 5.23814 31.0041 5.09174C31.6745 4.76854 32.4873 4.27093 33.0769 3.57573C33.6649 2.87252 33.9225 2.12053 34.0313 1.56533C34.1377 0.996522 34.0857 0.586914 34.0857 0.586914Z" fill="#555969"/>
<path d="M41.4885 3.46608C41.4885 3.46608 41.0869 3.76128 40.4581 4.06928C39.8269 4.37728 38.9781 4.69569 38.0245 4.74289C37.0757 4.86049 36.1845 4.73889 35.5069 4.55809C34.8301 4.38209 34.3789 4.17248 34.3789 4.17248C34.3789 4.17248 34.7189 3.84208 35.3229 3.47088C35.9261 3.10687 36.7989 2.67488 37.8093 2.55088C38.8269 2.49808 39.7645 2.72688 40.4261 2.96848C41.0909 3.21008 41.4885 3.46608 41.4885 3.46608Z" fill="#555969"/>
<path d="M52.7492 4.05908C52.7492 4.05908 53.1684 4.12069 53.954 4.23589C54.3444 4.30309 54.8356 4.34388 55.3972 4.46948C55.9548 4.60949 56.5972 4.77109 57.3156 4.95109C60.1652 5.7015 64.2477 7.1055 68.4525 10.0143C72.6357 12.8919 76.9557 17.2184 79.9838 22.86C80.335 23.5768 80.6886 24.3 81.0438 25.0288L81.3118 25.5768C81.3942 25.7624 81.4574 25.9576 81.531 26.1472C81.6734 26.5304 81.8158 26.9136 81.9598 27.3C82.6014 28.8192 82.9638 30.4488 83.3982 32.0704C83.603 32.8848 83.6822 33.728 83.831 34.5593L84.0294 35.8145C84.0982 36.2329 84.0902 36.6609 84.1238 37.0841C84.1726 37.9329 84.2198 38.7833 84.2678 39.6353C84.2526 40.4873 84.1982 41.3409 84.1654 42.1937L84.1086 43.4737L83.923 44.7417C83.791 45.5849 83.6934 46.4337 83.5334 47.2689C83.0998 48.9153 82.779 50.5897 82.1374 52.153L81.711 53.3402L81.4974 53.9306L81.2294 54.4978C80.8718 55.2522 80.515 56.0034 80.1614 56.749C79.999 57.1306 79.7694 57.4746 79.5613 57.8282C79.3501 58.1802 79.1406 58.5314 78.931 58.881C78.7205 59.2314 78.5126 59.5794 78.3037 59.9274C78.1037 60.2802 77.8349 60.585 77.6053 60.9138C77.1277 61.5602 76.6541 62.201 76.1853 62.8354C75.6821 63.4434 75.1421 64.0106 74.6301 64.5906C74.3717 64.8778 74.1141 65.165 73.8581 65.449C73.5997 65.7306 73.3037 65.9722 73.0301 66.233C72.4733 66.7458 71.9229 67.2514 71.3805 67.7506C70.8285 68.2387 70.2229 68.6466 69.6597 69.0898C69.3733 69.3058 69.0893 69.5203 68.8085 69.7331L68.3877 70.0514L67.9437 70.3283C67.3525 70.6923 66.7709 71.0499 66.2005 71.4019C65.9149 71.5771 65.6317 71.7507 65.3517 71.9227C65.0565 72.0675 64.7637 72.2099 64.4741 72.3523C63.3093 72.9027 62.2277 73.5139 61.1052 73.8755C60.554 74.0811 60.018 74.2803 59.4956 74.4747C59.2332 74.5683 58.9796 74.6763 58.7204 74.7539C58.4596 74.8235 58.202 74.8907 57.9484 74.9579C56.9316 75.2163 55.9892 75.4955 55.102 75.6859C54.2052 75.8283 53.3812 75.9587 52.6372 76.0763C52.2644 76.1315 51.9132 76.1995 51.5812 76.2347C51.2452 76.2539 50.9324 76.2715 50.6388 76.2883C50.0548 76.3211 49.5572 76.3491 49.1548 76.3715C48.3476 76.4171 47.918 76.4403 47.918 76.4403V75.1547C47.918 75.1547 48.334 75.1355 49.1124 75.1003C49.5012 75.0835 49.9828 75.0619 50.5476 75.0371C50.83 75.0243 51.1332 75.0115 51.458 74.9971C51.7804 74.9667 52.1196 74.9043 52.4804 74.8547C53.2012 74.7491 53.9988 74.6331 54.8676 74.5059C55.726 74.3315 56.642 74.0715 57.6284 73.8339C57.8748 73.7723 58.1244 73.7099 58.3788 73.6467C58.63 73.5755 58.8764 73.4723 59.1308 73.3851C59.6388 73.2027 60.1612 73.0155 60.6964 72.8227C61.79 72.4875 62.8437 71.9043 63.9805 71.3843C64.2629 71.2507 64.5485 71.1147 64.8373 70.9779C65.1109 70.8147 65.3877 70.6483 65.6661 70.4819C66.2245 70.1467 66.7933 69.8058 67.3717 69.4594L67.8069 69.1962L68.2197 68.8914C68.4949 68.6875 68.7725 68.4818 69.0533 68.2754C69.6061 67.8522 70.2013 67.4618 70.7445 66.993C71.2781 66.513 71.8197 66.0274 72.3677 65.5354C72.6365 65.285 72.9285 65.0538 73.1837 64.7818C73.4357 64.5074 73.6901 64.2314 73.9453 63.9538C74.4501 63.3938 74.9845 62.8474 75.4821 62.2618C75.9469 61.6474 76.4157 61.0274 76.8893 60.4026C77.1173 60.0842 77.3837 59.7898 77.5821 59.4474C77.7893 59.1114 77.9973 58.7722 78.2061 58.4338C78.4149 58.0946 78.6245 57.7538 78.8349 57.413C79.0421 57.069 79.2717 56.7362 79.4333 56.365C79.7877 55.6394 80.1454 54.9098 80.5038 54.1762L80.7742 53.625L80.9886 53.0482L81.4198 51.8922C82.067 50.3697 82.3982 48.7337 82.8438 47.1233C83.011 46.3073 83.115 45.4745 83.255 44.6489L83.4526 43.4057L83.5238 42.1497C83.5662 41.3113 83.6302 40.4737 83.655 39.6361C83.6174 38.7977 83.5798 37.9601 83.5422 37.1241C83.5142 36.7081 83.5278 36.2865 83.4646 35.8745L83.2822 34.6369C83.1454 33.816 83.0774 32.984 82.8862 32.18C82.475 30.5776 82.1382 28.964 81.523 27.4584C81.3862 27.0752 81.2494 26.6952 81.1126 26.3152C81.0414 26.1264 80.9822 25.9336 80.903 25.7488L80.6454 25.2056C80.3013 24.4808 79.9613 23.7616 79.6229 23.0488C76.6957 17.4368 72.4629 13.0903 68.3373 10.1791C64.1901 7.23591 60.1356 5.7879 57.3004 5.00469C56.5844 4.81589 55.9452 4.64709 55.3884 4.50069C54.83 4.36789 54.3396 4.32149 53.95 4.25109C53.1668 4.12629 52.7492 4.05908 52.7492 4.05908Z" fill="#555969"/>
<path d="M62.9715 79.9074C62.9715 79.9074 61.9243 80.2778 60.4827 80.5122C59.7475 80.5802 58.9163 80.6138 58.0842 80.561C57.669 80.5346 57.2538 80.4874 56.8498 80.413C56.6474 80.3754 56.449 80.3306 56.2546 80.2794C56.0578 80.2138 55.865 80.1386 55.6778 80.0578C54.1794 79.4026 53.3562 78.3834 52.8938 77.5361C52.4338 76.6873 52.3242 76.0081 52.3242 76.0081C52.3242 76.0081 53.249 75.8921 54.5242 75.9449C54.8418 75.9513 55.1882 75.9961 55.5386 76.0033C55.889 76.0089 56.253 76.0265 56.6242 76.0641C57.3658 76.1393 58.1362 76.2865 58.8723 76.5505C59.6139 76.8361 60.2155 77.0954 60.7411 77.4578C61.2627 77.8066 61.6891 78.193 62.0211 78.5546C62.6867 79.2786 62.9715 79.9074 62.9715 79.9074Z" fill="#555969"/>
<path d="M70.516 75.921C70.516 75.921 69.5928 76.4586 68.2816 76.9666C66.9272 77.3914 65.1688 77.7402 63.6568 77.4842C62.1072 77.1514 61.1224 76.345 60.5152 75.6298C59.908 74.9138 59.668 74.2922 59.668 74.2922C59.668 74.2922 60.524 74.005 61.7456 73.809C62.3688 73.7386 63.028 73.5522 63.7544 73.4954C64.4752 73.425 65.236 73.4194 65.9856 73.5298C67.4488 73.6866 68.5776 74.2474 69.3528 74.8162C70.124 75.3778 70.516 75.921 70.516 75.921Z" fill="#555969"/>
<path d="M77.0809 70.5512C77.0809 70.5512 76.3074 71.2288 75.1617 71.9512C74.6081 72.3344 73.8681 72.6128 73.1441 72.8768C72.4081 73.128 71.6401 73.3056 70.9033 73.3376C69.3953 73.3536 68.2809 72.7504 67.5665 72.1992C66.8489 71.6384 66.4961 71.096 66.4961 71.096C66.4961 71.096 67.2545 70.6632 68.3793 70.248C69.4489 69.7496 70.8761 69.2352 72.3305 69.1464C73.7289 68.9936 74.9273 69.3352 75.7666 69.724C76.6058 70.1104 77.0809 70.5512 77.0809 70.5512Z" fill="#555969"/>
<path d="M82.4238 64.0296C82.4238 64.0296 81.8174 64.812 80.8662 65.7056C80.6262 65.9272 80.3758 66.1632 80.0894 66.38C79.7918 66.5872 79.4774 66.7888 79.1518 66.9752C78.5013 67.348 77.8053 67.6576 77.1109 67.8264C76.7629 67.9096 76.4341 67.9552 76.1205 67.968C75.7941 67.968 75.4869 67.9392 75.2021 67.888C74.6309 67.7888 74.1437 67.6072 73.7469 67.4112C72.9533 67.0192 72.5117 66.576 72.5117 66.576C72.5117 66.576 72.6725 66.4376 72.9565 66.2248C73.2293 66 73.6733 65.7496 74.1181 65.396C74.5765 65.0568 75.1205 64.6984 75.7229 64.3808C76.3149 64.0576 77.0101 63.8104 77.6405 63.5896C78.9438 63.1824 80.147 63.2824 81.0182 63.4928C81.8894 63.7016 82.4238 64.0296 82.4238 64.0296Z" fill="#555969"/>
<path d="M86.3526 56.6113C86.3526 56.6113 85.9254 57.4609 85.1926 58.4833C84.5078 59.5306 83.303 60.6194 82.0566 61.2042C81.427 61.493 80.8382 61.6258 80.2902 61.6514C79.7278 61.6666 79.2294 61.589 78.8126 61.4802C77.9814 61.2634 77.4766 60.9314 77.4766 60.9314C77.4766 60.9314 77.603 60.7706 77.8334 60.5162C78.0774 60.2706 78.3774 59.9002 78.7446 59.4898C79.1174 59.0826 79.567 58.6409 80.0814 58.2297C80.3374 58.0233 80.6102 57.8241 80.8974 57.6409C81.1614 57.4449 81.4374 57.2617 81.7278 57.1041C82.8886 56.4721 84.0502 56.3377 84.9166 56.3721C85.7846 56.4033 86.3526 56.6113 86.3526 56.6113Z" fill="#555969"/>
<path d="M88.7069 48.5951C88.7069 48.5951 88.4637 49.4751 87.9653 50.5775C87.7029 51.1231 87.4333 51.7391 86.9997 52.2879C86.5717 52.8383 86.0813 53.3527 85.5405 53.7463C84.4493 54.5319 83.4037 54.6999 82.5549 54.6519C81.7237 54.6087 81.1797 54.3959 81.1797 54.3959C81.1797 54.3959 81.2693 54.2207 81.4405 53.9367C81.5869 53.6431 81.7933 53.2335 82.0717 52.7783C82.6149 51.8631 83.4909 50.7823 84.4221 49.9455C85.4021 49.1271 86.4757 48.7791 87.3021 48.6447C88.1277 48.5071 88.7069 48.5951 88.7069 48.5951Z" fill="#555969"/>
<path d="M89.4067 40.3279C89.4067 40.3279 89.3483 41.1991 89.0899 42.3255C88.9523 42.8871 88.7995 43.5143 88.5211 44.1143C88.2211 44.7135 87.8579 45.2911 87.4227 45.7655C86.5515 46.7175 85.5643 47.0767 84.7955 47.2071C84.0234 47.3351 83.457 47.2399 83.457 47.2399C83.457 47.2399 83.5154 47.0583 83.585 46.7511C83.6626 46.4439 83.7826 46.0191 83.957 45.5351C84.3074 44.5687 84.9035 43.3759 85.6219 42.4103C86.3891 41.4511 87.3355 40.9207 88.0899 40.6383C88.8443 40.3551 89.4067 40.3279 89.4067 40.3279Z" fill="#555969"/>
<path d="M88.4675 32.1343C88.4675 32.1343 88.5787 32.9639 88.5515 34.0719C88.5275 34.6255 88.5131 35.2439 88.3523 35.8615C88.1851 36.4791 87.9531 37.0911 87.6355 37.6199C86.9979 38.6799 86.1371 39.2095 85.4371 39.4823C84.7395 39.7543 84.1955 39.7759 84.1955 39.7759C84.1955 39.7759 84.1803 39.0503 84.3243 38.0735C84.4619 37.0967 84.8075 35.8575 85.2979 34.8127C85.8363 33.7639 86.6275 33.0847 87.2843 32.6767C87.9427 32.2671 88.4675 32.1343 88.4675 32.1343Z" fill="#555969"/>
<path d="M85.9404 24.3215C85.9404 24.3215 86.202 25.0767 86.386 26.1207C86.474 26.6432 86.5604 27.2319 86.5508 27.8352C86.5124 28.448 86.4108 29.0664 86.2132 29.6256C85.8164 30.7456 85.1084 31.4128 84.5028 31.8072C83.8971 32.2 83.3948 32.3264 83.3948 32.3264C83.3948 32.3264 83.2396 31.6464 83.1852 30.7008C83.1596 30.2264 83.158 29.6856 83.2124 29.1224C83.2828 28.5544 83.2979 27.9992 83.4651 27.4487C83.7724 26.3583 84.3876 25.5671 84.9292 25.0583C85.4708 24.5463 85.9404 24.3215 85.9404 24.3215Z" fill="#555969"/>
<path d="M81.9303 17.2109C81.9303 17.2109 82.3143 17.8693 82.6807 18.8118C82.8631 19.283 83.0399 19.8246 83.1607 20.3838C83.2735 20.947 83.2695 21.5614 83.1967 22.1206C83.0359 23.2486 82.4983 24.0158 82.0055 24.5062C81.5127 24.995 81.0655 25.2142 81.0655 25.2142C81.0655 25.2142 80.7919 24.6038 80.5639 23.7246C80.4495 23.2838 80.3471 22.7734 80.2919 22.2342C80.2007 21.7142 80.1479 21.1678 80.1911 20.6238C80.2759 19.5382 80.7071 18.6781 81.1199 18.0957C81.5319 17.5117 81.9303 17.2109 81.9303 17.2109Z" fill="#555969"/>
<path d="M76.627 11.075C76.627 11.075 77.1054 11.6206 77.6182 12.4358C78.1174 13.2614 78.7126 14.3014 78.7366 15.4198C78.7934 16.511 78.4358 17.3382 78.0678 17.8958C77.699 18.4526 77.323 18.747 77.323 18.747C77.323 18.747 76.9534 18.2246 76.5766 17.4382C76.2294 16.6254 75.747 15.6502 75.6254 14.6118C75.5046 13.5742 75.7494 12.6854 76.0294 12.059C76.3102 11.4333 76.627 11.075 76.627 11.075Z" fill="#555969"/>
<path d="M70.2377 6.15186C70.2377 6.15186 70.2729 6.17506 70.3385 6.21906C70.4033 6.26226 70.4961 6.32866 70.6009 6.42706C70.8153 6.61587 71.1097 6.88866 71.4225 7.22307C72.0409 7.90227 72.7729 8.78467 73.0393 9.78468C73.2945 10.7991 73.1161 11.6463 72.8777 12.2415C72.6401 12.8367 72.3465 13.1855 72.3465 13.1855C72.3465 13.1855 71.9049 12.7623 71.4081 12.0927C71.1697 11.7447 70.8793 11.3791 70.6145 10.9759C70.3545 10.5687 70.1233 10.1183 69.9705 9.64068C69.6649 8.68708 69.7305 7.80467 69.8761 7.16707C70.0089 6.54547 70.2377 6.15186 70.2377 6.15186Z" fill="#555969"/>
<path d="M63.0387 2.61182C63.0387 2.61182 63.1891 2.67101 63.4331 2.78701C63.6747 2.90861 63.9931 3.12142 64.3483 3.37182C65.0555 3.88222 65.8811 4.60623 66.3411 5.44623C66.7827 6.32704 66.7659 7.17343 66.6619 7.77264C66.5531 8.37664 66.3467 8.75985 66.3467 8.75985C66.3467 8.75985 65.8579 8.44384 65.2691 7.90704C64.6515 7.42143 63.9115 6.75103 63.4507 5.90862C62.9859 5.07502 62.8883 4.22222 62.8907 3.63022C62.8987 3.02301 63.0387 2.61182 63.0387 2.61182Z" fill="#555969"/>
<path d="M55.3211 0.586914C55.3211 0.586914 55.9331 0.670912 56.6795 1.03651C57.4299 1.37812 58.3323 1.89892 58.9211 2.59652C59.5163 3.27332 59.6523 4.10933 59.6747 4.67814C59.6915 5.26374 59.5739 5.66135 59.5739 5.66135C59.5739 5.66135 59.4451 5.61015 59.2355 5.51015C59.0227 5.41895 58.7427 5.23814 58.4027 5.09174C57.7315 4.76854 56.9187 4.27093 56.3291 3.57573C55.7419 2.87252 55.4843 2.12053 55.3763 1.56533C55.2691 0.996522 55.3211 0.586914 55.3211 0.586914Z" fill="#555969"/>
<path d="M58.2308 67.2585C58.2308 67.2585 57.5388 67.5458 56.6676 68.1154C56.2164 68.353 55.7172 68.661 55.2276 69.053C54.9828 69.249 54.7412 69.4658 54.5084 69.7026C54.3916 69.8218 54.278 69.9466 54.1676 70.077C54.0532 70.1922 53.9436 70.3122 53.8372 70.4386C52.9884 71.4522 52.574 72.6594 52.3836 73.6074C52.1908 74.5562 52.2348 75.245 52.2348 75.245C52.2348 75.245 53.1452 75.081 54.2924 74.6586C54.5772 74.5458 54.8828 74.4466 55.1788 74.2778C55.4748 74.1066 55.7732 73.9178 56.0628 73.7106C56.6412 73.2962 57.1812 72.8106 57.5948 72.2522C58.0148 71.7162 58.2348 71.0442 58.3676 70.473C58.4964 69.8874 58.5204 69.3354 58.498 68.8602C58.4524 67.9098 58.2308 67.2585 58.2308 67.2585Z" fill="#555969"/>
<path d="M63.6035 64.8672C63.6035 64.8672 62.9891 65.264 62.2699 65.9888C61.5043 66.6296 60.6043 67.5688 60.0259 68.7728C59.4147 69.8976 59.2587 71.1224 59.2659 72.056C59.2715 72.992 59.4507 73.6376 59.4507 73.6376C59.4507 73.6376 60.2851 73.3056 61.2947 72.6848C61.8107 72.4024 62.3091 71.9104 62.7851 71.4224C63.2563 70.9184 63.6763 70.3552 63.9635 69.7456C64.5035 68.4632 64.3851 67.2232 64.1651 66.336C63.9395 65.4424 63.6035 64.8672 63.6035 64.8672Z" fill="#555969"/>
<path d="M68.4369 61.4241C68.4369 61.4241 67.9201 61.9193 67.3641 62.7433C67.1048 63.1785 66.7385 63.5825 66.46 64.1121C66.172 64.6281 65.9216 65.2105 65.7664 65.8449C65.424 67.0633 65.496 68.2209 65.692 69.1105C65.8808 69.9937 66.18 70.5665 66.18 70.5665C66.18 70.5665 66.9104 70.0953 67.7521 69.3169C68.5369 68.4577 69.4057 67.2681 69.7065 65.9921C69.9553 64.6481 69.6273 63.5153 69.2465 62.7105C68.8657 61.9065 68.4369 61.4241 68.4369 61.4241Z" fill="#555969"/>
<path d="M72.5358 57.0586C72.5358 57.0586 72.1318 57.6274 71.7518 58.5138C71.6534 58.7338 71.5678 58.9826 71.4686 59.233C71.359 59.4746 71.255 59.7322 71.1638 60.0034C70.983 60.5466 70.8526 61.145 70.823 61.773C70.8078 62.0874 70.8198 62.3954 70.8486 62.6898C70.8654 62.9714 70.9022 63.245 70.9566 63.5058C71.0622 64.0282 71.2278 64.5018 71.4038 64.8986C71.7534 65.6938 72.151 66.1787 72.151 66.1787C72.151 66.1787 72.3022 66.033 72.5358 65.7762C72.7574 65.5066 73.1118 65.1746 73.3862 64.6762C73.675 64.1922 73.9694 63.629 74.2006 63.029C74.4222 62.421 74.6222 61.8146 74.5934 61.1394C74.5806 59.8226 74.0582 58.8122 73.5462 58.1226C73.0334 57.4346 72.5358 57.0586 72.5358 57.0586Z" fill="#555969"/>
<path d="M75.7051 51.9329C75.7051 51.9329 75.4251 52.5497 75.2259 53.4641C75.0739 54.4057 74.7835 55.5377 74.9715 56.7417C75.0579 57.3393 75.2475 57.8937 75.4611 58.3761C75.6603 58.8489 75.9083 59.2617 76.1499 59.6017C76.6339 60.2833 77.1043 60.6617 77.1043 60.6617C77.1043 60.6617 77.2211 60.4969 77.3955 60.2105C77.5835 59.9321 77.7819 59.5009 77.9619 58.9865C78.1475 58.4753 78.3219 57.8873 78.4291 57.2769C78.4827 56.9721 78.5195 56.6625 78.5323 56.3537C78.5219 56.0337 78.4851 55.7129 78.4211 55.4033C78.1635 54.1593 77.4787 53.3033 76.8635 52.7481C76.2491 52.1937 75.7051 51.9329 75.7051 51.9329Z" fill="#555969"/>
<path d="M77.7976 46.2368C77.7976 46.2368 77.6464 46.8792 77.6296 47.7856C77.6072 48.2368 77.6728 48.772 77.7016 49.3048C77.7336 49.8384 77.8296 50.3992 78.0256 50.948C78.408 52.0401 79.1504 52.8929 79.7216 53.4297C80.3104 53.9761 80.8304 54.2401 80.8304 54.2401C80.8304 54.2401 80.9104 54.0617 81.0224 53.7569C81.1088 53.4425 81.2088 52.9945 81.2888 52.4769C81.4376 51.4368 81.556 50.1344 81.0248 48.996C80.5448 47.8712 79.736 47.1912 79.048 46.784C78.3608 46.38 77.7976 46.2368 77.7976 46.2368Z" fill="#555969"/>
<path d="M78.7114 40.1792C78.7114 40.1792 78.6954 40.8224 78.8522 41.6912C78.9226 42.1256 79.0698 42.6224 79.2226 43.1248C79.3546 43.6248 79.5522 44.1392 79.8402 44.6192C80.4202 45.5808 81.253 46.232 81.9402 46.6336C82.6242 47.036 83.1554 47.1784 83.1554 47.1784C83.1554 47.1784 83.205 46.996 83.2138 46.6792C83.2306 46.364 83.2434 45.9232 83.2194 45.4192C83.1714 44.4096 83.0098 43.156 82.2914 42.1792C81.6218 41.2064 80.7266 40.7176 79.9994 40.4608C79.2714 40.2072 78.7114 40.1792 78.7114 40.1792Z" fill="#555969"/>
<path d="M78.418 34.0119C78.418 34.0119 78.5276 34.6247 78.8444 35.4175C78.9932 35.8167 79.2372 36.2575 79.4652 36.7063C79.686 37.1575 79.9716 37.6063 80.3372 38.0063C81.0684 38.8063 81.9796 39.2575 82.7044 39.5015C83.4324 39.7471 83.9693 39.7759 83.9693 39.7759C83.9693 39.7759 83.9149 39.0479 83.6757 38.1031C83.4301 37.1607 83.0493 36.0055 82.1812 35.2215C81.362 34.4303 80.4228 34.1375 79.6876 34.0335C78.9524 33.9319 78.418 34.0119 78.418 34.0119Z" fill="#555969"/>
<path d="M76.9023 27.9927C76.9023 27.9927 77.1223 28.5527 77.5735 29.2439C77.7951 29.5911 78.0919 29.9671 78.4176 30.3415C78.7128 30.7231 79.0672 31.0927 79.488 31.3991C80.3312 32.0127 81.2736 32.2591 82.004 32.3479C82.7328 32.4359 83.248 32.3583 83.248 32.3583C83.248 32.3583 83.056 31.6823 82.648 30.8399C82.4448 30.4191 82.1888 29.9583 81.8776 29.5255C81.5832 29.0887 81.1248 28.7142 80.6776 28.4158C79.756 27.827 78.8152 27.7295 78.1024 27.7719C77.3895 27.8151 76.9023 27.9927 76.9023 27.9927Z" fill="#555969"/>
<path d="M74.1914 22.3478C74.1914 22.3478 74.5058 22.8382 75.0602 23.4094C75.3378 23.6958 75.6754 24.0038 76.0682 24.2878C76.4522 24.575 76.8314 24.871 77.2914 25.0758C78.1978 25.4926 79.1282 25.5414 79.8274 25.4806C80.5274 25.4214 80.9954 25.2454 80.9954 25.2454C80.9954 25.2454 80.6858 24.6454 80.1458 23.9294C79.8746 23.5718 79.5474 23.187 79.1746 22.8398C78.7642 22.511 78.301 22.2254 77.8146 22.0342C76.8378 21.6534 75.937 21.739 75.2762 21.9134C74.6162 22.0886 74.1914 22.3478 74.1914 22.3478Z" fill="#555969"/>
<path d="M70.3867 17.3078C70.3867 17.3078 70.7739 17.715 71.4019 18.155C72.0155 18.607 72.9419 19.0414 73.8339 19.295C74.7595 19.519 75.638 19.3862 76.2788 19.1942C76.922 19.003 77.3244 18.7462 77.3244 18.7462C77.3244 18.7462 76.9244 18.239 76.2844 17.6662C75.6756 17.0694 74.7059 16.5158 73.7219 16.3398C72.7387 16.1622 71.9099 16.4102 71.3227 16.6966C70.7363 16.9846 70.3867 17.3078 70.3867 17.3078Z" fill="#555969"/>
<path d="M65.6133 13.1053C65.6133 13.1053 65.6437 13.1213 65.6981 13.1509C65.7549 13.1781 65.8357 13.2197 65.9309 13.2805C66.1245 13.3965 66.4013 13.5501 66.7373 13.7005C67.4013 14.0125 68.3349 14.2725 69.2517 14.2997C70.1581 14.3413 70.9509 14.0509 71.5109 13.7493C72.0725 13.4477 72.3989 13.1293 72.3989 13.1293C72.3989 13.1293 71.9309 12.7269 71.2277 12.3061C70.8877 12.0845 70.4517 11.9029 69.9861 11.7741C69.5245 11.6405 69.0381 11.5557 68.5621 11.5621C67.6109 11.5765 66.8821 11.9597 66.3853 12.3397C65.8805 12.7349 65.6133 13.1053 65.6133 13.1053Z" fill="#555969"/>
<path d="M60.0664 9.91095C60.0664 9.91095 60.1904 9.95255 60.4032 10.0037C60.6136 10.0621 60.8976 10.167 61.2424 10.2446C61.928 10.4062 62.8328 10.515 63.72 10.3246C64.584 10.1734 65.2568 9.77176 65.7224 9.37735C66.1872 8.98935 66.4296 8.62855 66.4296 8.62855C66.4296 8.62855 65.9168 8.33574 65.184 8.07094C64.4224 7.85734 63.4224 7.71494 62.5384 7.90054C61.652 8.09254 61.0512 8.57175 60.6448 9.05095C60.2464 9.51415 60.0664 9.91095 60.0664 9.91095Z" fill="#555969"/>
<path d="M53.9532 7.87261C53.9532 7.87261 54.454 7.90622 55.122 7.95422C55.7956 7.97822 56.6628 7.91262 57.4524 7.56862C58.2492 7.20382 58.782 6.74381 59.1412 6.27661C59.4964 5.8254 59.6516 5.44301 59.6516 5.44301C59.6516 5.44301 59.5188 5.3982 59.2948 5.3398C59.0676 5.2902 58.7604 5.1862 58.378 5.1806C57.6252 5.1374 56.6692 5.18061 55.8812 5.52221C55.0932 5.85581 54.6172 6.44061 54.33 6.96141C54.046 7.46862 53.9532 7.87261 53.9532 7.87261Z" fill="#555969"/>
<path d="M47.918 3.69816C47.918 3.69816 48.3132 3.44295 48.9732 3.20055C49.6308 2.95735 50.5628 2.72854 51.574 2.78134C52.5788 2.90534 53.4468 3.33655 54.0452 3.70055C54.646 4.07095 54.9836 4.40055 54.9836 4.40055C54.9836 4.40055 54.534 4.61015 53.8628 4.78615C53.1876 4.96855 52.302 5.09095 51.3612 4.97255C50.4116 4.92695 49.5692 4.60856 48.9428 4.30136C48.318 3.99416 47.918 3.69816 47.918 3.69816Z" fill="#555969"/>
<path d="M21.8196 33.8702C24.3028 33.8702 24.7732 34.9406 24.7732 36.1598C24.7732 37.5726 23.4892 38.279 21.958 38.279H21.1444V39.9374H21.7964V41.3502H18.3516V39.9374H18.9516V35.271H18.3516V33.8694H21.8196V33.8702ZM21.146 37.123H21.6276C22.2476 37.123 22.6756 36.8022 22.6756 36.2358C22.6756 35.6038 22.3012 35.2606 21.6812 35.2606H21.146V37.123Z" fill="#555969"/>
<path d="M28.6823 33.8702C31.1648 33.8702 31.6464 34.8542 31.6464 36.075C31.6464 36.9102 30.9832 37.4982 30.0952 37.6262C30.8336 37.7334 31.4968 38.3758 31.4968 39.1454C31.4968 39.6054 31.5616 39.8734 31.7536 39.8734C31.9144 39.8734 32 39.7446 32 39.5302V39.1774H32.7168V39.7662C32.7168 40.6542 32.3424 41.479 31.1544 41.479C29.752 41.479 29.0775 40.7398 29.0775 39.4886C29.0775 38.5142 28.9607 38.279 28.0079 38.279V39.9374H28.6599V41.3502H25.2031V39.9374H25.8031V35.271H25.2031V33.8694H28.6823V33.8702ZM28.0079 37.0798H28.4895C29.1103 37.0798 29.5167 36.7806 29.5167 36.2134C29.5167 35.5822 29.1639 35.2606 28.5431 35.2606H28.0079V37.0798Z" fill="#555969"/>
<path d="M39.5466 33.8704V36.236H37.6962V35.2832H35.9834V36.76H38.0162V38.1832H35.9834V39.928H37.6962V38.9328H39.5466V41.3512H33.0938V39.928H33.7682V35.2832H33.0938V33.8704H39.5466Z" fill="#555969"/>
<path d="M47.5122 35.7526C47.4274 36.2358 47.277 36.9414 47.2018 37.1878L46.0786 41.3502H43.8418L42.6434 37.0798C42.5898 36.8982 42.4506 36.2886 42.4186 35.7526H42.3754V39.9694H42.9858V41.3502H40.0858V39.9694H40.6634V35.2502H40.0954V33.8694H44.1514L45.233 37.8718L46.2602 33.8694H50.3378V35.2502H49.7498V39.959H50.3378V41.3502H46.9554V39.959H47.5546V36.3846V35.7526H47.5122Z" fill="#555969"/>
<path d="M54.4317 33.8704V35.2832H53.7685V39.928H54.4317V41.3512H50.8789V39.928H51.5533V35.2832H50.8789V33.8704H54.4317Z" fill="#555969"/>
<path d="M58.2634 33.8704V35.2512H57.685V37.5632C57.685 39.2856 58.0698 39.6496 58.7554 39.6496C59.4074 39.6496 59.8362 39.3928 59.8362 37.552V35.2832H59.2586V33.8704H62.4258V35.2512H61.8482V37.852C61.8482 40.388 60.7882 41.5336 58.7762 41.5336C56.6146 41.4696 55.4594 40.3352 55.4594 37.9056V35.2616H54.8594V33.8712L58.2634 33.8704Z" fill="#555969"/>
<path d="M70.3467 35.2503V41.3503H68.0459L65.3171 37.2727V39.9695H66.1411V41.3503H62.8555V39.9695H63.4875V35.2503H62.8667V33.8694H65.9379L68.5595 37.7967V35.2495H67.8323V33.8687H71.0531V35.2495L70.3467 35.2503Z" fill="#555969"/>
<path d="M32.2732 50.0287C32.2732 50.7143 31.8884 51.2623 31.1172 51.2623C30.4852 51.2623 30.0916 50.8615 29.922 50.4063C29.7372 50.4367 29.5292 50.4527 29.3204 50.4527C27.7636 50.4527 26.6836 49.5431 26.6836 47.7231C26.6836 46.1503 27.7244 45.0415 29.274 45.0415C31.0932 45.0415 31.9108 46.1351 31.9108 47.7783C31.9108 48.5879 31.6948 49.2431 31.2708 49.7055C31.3324 49.9447 31.418 50.2071 31.61 50.2071C31.7492 50.2071 31.7644 49.9903 31.7644 49.8591V49.6359H32.2732V50.0287ZM30.1844 48.0775C30.1916 47.9847 30.1996 47.8847 30.1996 47.7767C30.1996 46.8903 29.8372 46.1655 29.2668 46.1655C28.8044 46.1567 28.3804 46.8207 28.3804 47.7215C28.3804 47.8759 28.3884 48.0151 28.4116 48.1463C28.5892 47.9615 28.866 47.7759 29.3212 47.7759C29.6516 47.7767 29.9372 47.9007 30.1844 48.0775ZM29.7292 49.1263C29.6748 48.7415 29.582 48.4791 29.3196 48.4791C29.066 48.4791 28.9108 48.7327 28.8036 49.0423C28.9572 49.2119 29.1348 49.2959 29.3196 49.2959C29.4668 49.2959 29.606 49.2343 29.7292 49.1263Z" fill="#555969"/>
<path d="M34.9598 45.0631V46.0575H34.543V47.7223C34.543 48.9647 34.8206 49.2263 35.3142 49.2263C35.7838 49.2263 36.0926 49.0423 36.0926 47.7151V46.0807H35.6766V45.0623H37.959V46.0567H37.543V47.9303C37.543 49.7575 36.7798 50.5824 35.3294 50.5824C33.7726 50.536 32.9398 49.7191 32.9398 47.9679V46.0639H32.5078V45.0615H34.9598V45.0631Z" fill="#555969"/>
<path d="M41.2177 50.4518V49.4414H41.9505L41.7889 48.9182H40.2073L40.0457 49.4414H40.6473V50.4518H38.1953V49.4414H38.7201L39.7609 46.0574H39.4449V45.063H42.4049L43.7697 49.4422H44.3097V50.4526H41.2177V50.4518ZM41.5025 47.9926L40.9937 46.3278L40.4929 47.9926H41.5025Z" fill="#555969"/>
<path d="M47.054 45.063V46.0814H46.6452V49.4278H47.6404V48.4486H48.9356V50.4526H44.6172V49.4278H45.0412V46.0814H44.6172V45.063H47.054Z" fill="#555969"/>
<path d="M51.8834 45.063V46.0814H51.4058V49.4278H51.8842V50.4526H49.3242V49.4278H49.8098V46.0814H49.3242V45.063H51.8834Z" fill="#555969"/>
<path d="M57.3697 47.0678H56.2361V46.0814H55.5881V49.4278H56.2281V50.4526H53.3601V49.4278H53.9921V46.0814H53.3289V47.0678H52.1953V45.063H57.3697V47.0678Z" fill="#555969"/>
<path d="M60.3638 47.4918C60.395 47.3374 60.5646 47.0134 60.6494 46.8286L61.0726 46.0494H60.6494V45.063H62.723V46.0494H62.3062L60.8798 48.5558V49.4494H61.3118V50.4518H58.8446V49.4494H59.2846V48.5398L57.7886 46.0494H57.4102V45.063H60.0478V46.0494H59.6462L60.0942 46.8662C60.1406 47.0134 60.3022 47.3598 60.3334 47.491L60.3638 47.4918Z" fill="#555969"/>
<path d="M35.3414 58.3376L34.6334 56.1592L33.9262 58.3376H31.6366L33.4886 59.6824L32.7822 61.8608L34.6334 60.5136L36.4863 61.8608L35.7791 59.6824L37.6311 58.3376H35.3414Z" fill="#555969"/>
<path d="M45.7841 57.9825L44.7041 54.6584L43.6233 57.9825H40.1289L42.9561 60.0369L41.8761 63.3617L44.7041 61.3065L47.5313 63.3617L46.4521 60.0369L49.2794 57.9825H45.7841Z" fill="#555969"/>
<path d="M57.7718 58.3376H55.483L54.775 56.1592L54.067 58.3376H51.7773L53.6293 59.6824L52.9222 61.8608L54.775 60.5136L56.627 61.8608L55.9198 59.6824L57.7718 58.3376Z" fill="#555969"/>
</svg>
