<svg width="75" height="75" viewBox="0 0 75 75" fill="none" xmlns="http://www.w3.org/2000/svg">
<path d="M37.494 0C16.819 0 0 16.821 0 37.497C0 58.176 16.819 74.997 37.494 74.997C58.173 74.997 74.991 58.176 74.991 37.497C74.991 16.822 58.172 0 37.494 0ZM37.494 71.689C18.615 71.689 3.30598 56.379 3.30598 37.498C3.30598 18.619 18.616 3.30899 37.494 3.30899C56.376 3.30899 71.685 18.619 71.685 37.498C71.685 56.379 56.375 71.689 37.494 71.689Z" fill="#555969"/>
<path d="M37.4882 6.69092C50.4992 6.69092 61.6372 14.8669 66.0452 26.3499H67.2332C62.7732 14.2459 51.1242 5.58594 37.4892 5.58594C23.8532 5.58594 12.2032 14.2449 7.74219 26.3499H8.92819C13.3322 14.8659 24.4682 6.69092 37.4882 6.69092Z" fill="#555969"/>
<path d="M34.625 9.35596L35.854 25.518H36.876L34.625 9.35596Z" fill="#555969"/>
<path d="M24.2188 12.686L30.9187 25.518H31.9767L24.2188 12.686Z" fill="#555969"/>
<path d="M61.8084 24.239L59.0234 25.518H59.4284L61.8084 24.239Z" fill="#555969"/>
<path d="M29.25 10.491L33.547 25.518H34.586L29.25 10.491Z" fill="#555969"/>
<path d="M45.4923 10.3979L40.3203 25.518H41.3603L45.4923 10.3979Z" fill="#555969"/>
<path d="M50.5444 12.5349L42.8984 25.5179H43.9524L50.5444 12.5349Z" fill="#555969"/>
<path d="M15.9766 19.844L22.9276 25.518H23.8936L15.9766 19.844Z" fill="#555969"/>
<path d="M58.8727 19.6011L50.8047 25.5181H51.7847L58.8727 19.6011Z" fill="#555969"/>
<path d="M40.1051 9.323L38.0391 25.518H39.0651L40.1051 9.323Z" fill="#555969"/>
<path d="M55.0666 15.645L46.1406 25.518H47.2036L55.0666 15.645Z" fill="#555969"/>
<path d="M19.7344 15.845L27.6204 25.518H28.6824L19.7344 15.845Z" fill="#555969"/>
<path d="M13.1016 24.5171L15.0166 25.5181H15.3466L13.1016 24.5171Z" fill="#555969"/>
<path d="M49.5229 26.4641L50.8109 25.5181H47.2109L46.4609 26.4641H49.5229Z" fill="#555969"/>
<path d="M67.3751 26.4641L66.907 25.5181H59.4261L57.6641 26.4641H67.3751Z" fill="#555969"/>
<path d="M56.9633 26.4641L59.0243 25.5181H51.7903L50.6562 26.4641H56.9633Z" fill="#555969"/>
<path d="M37.924 26.4641L38.044 25.5181H36.875L37.006 26.4641H37.924Z" fill="#555969"/>
<path d="M35.9199 26.4641L35.8489 25.5181H34.5859L34.9179 26.4641H35.9199Z" fill="#555969"/>
<path d="M33.8185 26.4641L33.5466 25.5181H31.9766L32.5466 26.4641H33.8185Z" fill="#555969"/>
<path d="M28.3934 26.4641L27.6214 25.5181H23.8984L25.2184 26.4641H28.3934Z" fill="#555969"/>
<path d="M8.06039 25.5181L7.60938 26.442L16.8254 26.4641L15.0174 25.5181H8.06039Z" fill="#555969"/>
<path d="M45.2866 26.4641L46.1415 25.5181H43.9525L43.4766 26.4641H45.2866Z" fill="#555969"/>
<path d="M24.0858 26.4641L22.9258 25.5181H15.3438L17.4677 26.4641H24.0858Z" fill="#555969"/>
<path d="M42.3418 26.4641L42.8988 25.5181H41.3568L41.0938 26.4641H42.3418Z" fill="#555969"/>
<path d="M39.9968 26.4641L40.3198 25.5181H39.0678L39.0078 26.4641H39.9968Z" fill="#555969"/>
<path d="M31.4137 26.4641L30.9197 25.5181H28.6797L29.5557 26.4641H31.4137Z" fill="#555969"/>
<path d="M25.2157 26.4641L23.8957 25.5181H22.9297L24.0897 26.4641H25.2157Z" fill="#555969"/>
<path d="M34.9179 26.4641L34.5859 25.5181H33.5469L33.8188 26.4641H34.9179Z" fill="#555969"/>
<path d="M37.0045 26.4641L36.8735 25.5181H35.8516L35.9225 26.4641H37.0045Z" fill="#555969"/>
<path d="M39.0079 26.4641L39.0679 25.5181H38.0419L37.9219 26.4641H39.0079Z" fill="#555969"/>
<path d="M32.5499 26.4641L31.9799 25.5181H30.9219L31.4159 26.4641H32.5499Z" fill="#555969"/>
<path d="M29.5552 26.4641L28.6792 25.5181H27.6172L28.3892 26.4641H29.5552Z" fill="#555969"/>
<path d="M57.6649 26.4641L59.4269 25.5181H59.0219L56.9609 26.4641H57.6649Z" fill="#555969"/>
<path d="M50.6496 26.4641L51.7836 25.5181H50.8036L49.5156 26.4641H50.6496Z" fill="#555969"/>
<path d="M46.4571 26.4641L47.2071 25.5181H46.144L45.2891 26.4641H46.4571Z" fill="#555969"/>
<path d="M15.3456 25.5181H15.0156L16.8236 26.4641H17.4696L15.3456 25.5181Z" fill="#555969"/>
<path d="M41.1 26.4641L41.363 25.5181H40.323L40 26.4641H41.1Z" fill="#555969"/>
<path d="M43.4788 26.4641L43.9547 25.5181H42.9008L42.3438 26.4641H43.4788Z" fill="#555969"/>
<path d="M37.4882 68.826C50.4992 68.826 61.6372 60.65 66.0452 49.166H67.2332C62.7732 61.271 51.1242 69.93 37.4892 69.93C23.8532 69.93 12.2032 61.272 7.74219 49.166H8.92819C13.3322 60.65 24.4682 68.826 37.4882 68.826Z" fill="#555969"/>
<path d="M34.625 66.1611L35.854 49.9951H36.876L34.625 66.1611Z" fill="#555969"/>
<path d="M24.2188 62.8291L30.9187 49.9951H31.9767L24.2188 62.8291Z" fill="#555969"/>
<path d="M61.8084 51.2761L59.0234 49.9951H59.4284L61.8084 51.2761Z" fill="#555969"/>
<path d="M29.25 65.0251L33.547 49.9951H34.586L29.25 65.0251Z" fill="#555969"/>
<path d="M45.4923 65.1191L40.3203 49.9951H41.3603L45.4923 65.1191Z" fill="#555969"/>
<path d="M50.5444 62.9841L42.8984 49.9951H43.9524L50.5444 62.9841Z" fill="#555969"/>
<path d="M15.9766 55.6701L22.9276 49.9951H23.8936L15.9766 55.6701Z" fill="#555969"/>
<path d="M58.8727 55.9181L50.8047 49.9951H51.7847L58.8727 55.9181Z" fill="#555969"/>
<path d="M40.1051 66.1961L38.0391 49.9951H39.0651L40.1051 66.1961Z" fill="#555969"/>
<path d="M55.0666 59.8701L46.1406 49.9951H47.2036L55.0666 59.8701Z" fill="#555969"/>
<path d="M19.7344 59.6711L27.6204 49.9951H28.6824L19.7344 59.6711Z" fill="#555969"/>
<path d="M13.1016 50.9991L15.0166 49.9951H15.3466L13.1016 50.9991Z" fill="#555969"/>
<path d="M49.5229 49.052L50.8109 49.995H47.2109L46.4609 49.052H49.5229Z" fill="#555969"/>
<path d="M67.3751 49.052L66.907 49.995H59.4261L57.6641 49.052H67.3751Z" fill="#555969"/>
<path d="M56.9633 49.052L59.0243 49.995H51.7903L50.6562 49.052H56.9633Z" fill="#555969"/>
<path d="M37.924 49.052L38.044 49.995H36.875L37.006 49.052H37.924Z" fill="#555969"/>
<path d="M35.9199 49.052L35.8489 49.995H34.5859L34.9179 49.052H35.9199Z" fill="#555969"/>
<path d="M33.8185 49.052L33.5466 49.995H31.9766L32.5466 49.052H33.8185Z" fill="#555969"/>
<path d="M28.3934 49.052L27.6214 49.995H23.8984L25.2184 49.052H28.3934Z" fill="#555969"/>
<path d="M8.06039 49.995L7.60938 49.072L16.8254 49.052L15.0174 49.995H8.06039Z" fill="#555969"/>
<path d="M45.2866 49.052L46.1415 49.995H43.9525L43.4766 49.052H45.2866Z" fill="#555969"/>
<path d="M24.0858 49.052L22.9258 49.995H15.3438L17.4677 49.052H24.0858Z" fill="#555969"/>
<path d="M42.3418 49.052L42.8988 49.995H41.3568L41.0938 49.052H42.3418Z" fill="#555969"/>
<path d="M39.9968 49.052L40.3198 49.995H39.0678L39.0078 49.052H39.9968Z" fill="#555969"/>
<path d="M31.4137 49.052L30.9197 49.995H28.6797L29.5557 49.052H31.4137Z" fill="#555969"/>
<path d="M25.2157 49.052L23.8957 49.995H22.9297L24.0897 49.052H25.2157Z" fill="#555969"/>
<path d="M34.9179 49.052L34.5859 49.995H33.5469L33.8188 49.052H34.9179Z" fill="#555969"/>
<path d="M37.0045 49.052L36.8735 49.995H35.8516L35.9225 49.052H37.0045Z" fill="#555969"/>
<path d="M39.0079 49.052L39.0679 49.995H38.0419L37.9219 49.052H39.0079Z" fill="#555969"/>
<path d="M32.5499 49.052L31.9799 49.995H30.9219L31.4159 49.052H32.5499Z" fill="#555969"/>
<path d="M29.5552 49.052L28.6792 49.995H27.6172L28.3892 49.052H29.5552Z" fill="#555969"/>
<path d="M57.6649 49.052L59.4269 49.995H59.0219L56.9609 49.052H57.6649Z" fill="#555969"/>
<path d="M50.6496 49.052L51.7836 49.995H50.8036L49.5156 49.052H50.6496Z" fill="#555969"/>
<path d="M46.4571 49.052L47.2071 49.995H46.144L45.2891 49.052H46.4571Z" fill="#555969"/>
<path d="M15.3456 49.995H15.0156L16.8236 49.052H17.4696L15.3456 49.995Z" fill="#555969"/>
<path d="M41.1 49.052L41.363 49.995H40.323L40 49.052H41.1Z" fill="#555969"/>
<path d="M43.4788 49.052L43.9547 49.995H42.9008L42.3438 49.052H43.4788Z" fill="#555969"/>
<path d="M21.1511 34.7718V36.8518H19.3804V30.6011H20.0844C20.2551 30.6011 20.5093 30.594 20.8471 30.5798C21.1848 30.562 21.464 30.5531 21.6844 30.5531C22.4524 30.5531 23.0248 30.722 23.4017 31.0598C23.7822 31.3976 23.9724 31.9149 23.9724 32.6118C23.9724 33.0243 23.8817 33.3905 23.7004 33.7105C23.5226 34.0305 23.2862 34.2847 22.9911 34.4731C23.1511 34.5123 23.288 34.6029 23.4017 34.7451C23.5191 34.8874 23.6097 35.0563 23.6737 35.2518C23.7377 35.4438 23.7928 35.6394 23.8391 35.8385C23.8888 36.034 23.944 36.2278 24.0044 36.4198C24.0684 36.6118 24.1377 36.7558 24.2124 36.8518H22.2444C22.2053 36.802 22.1751 36.6634 22.1537 36.4358C22.1324 36.2047 22.1022 35.9291 22.0631 35.6091C22.0275 35.2856 21.976 35.0154 21.9084 34.7985C21.9013 34.7985 21.8924 34.7985 21.8817 34.7985C21.8142 34.7985 21.7413 34.7985 21.6631 34.7985C21.5884 34.7949 21.5226 34.7914 21.4657 34.7878C21.4088 34.7843 21.3484 34.7807 21.2844 34.7771C21.224 34.7736 21.1795 34.7718 21.1511 34.7718ZM21.1511 33.7798H21.3217C21.4106 33.7798 21.4853 33.7763 21.5457 33.7691C21.6062 33.762 21.672 33.7496 21.7431 33.7318C21.8177 33.7105 21.8782 33.6785 21.9244 33.6358C21.9742 33.5931 22.0204 33.538 22.0631 33.4705C22.1057 33.4029 22.1377 33.3158 22.1591 33.2091C22.1804 33.1025 22.1911 32.978 22.1911 32.8358V32.4145C22.1911 32.1051 22.1093 31.89 21.9457 31.7691C21.7857 31.6447 21.5546 31.5825 21.2524 31.5825H21.1511V33.7798ZM28.334 36.8518H24.5526V30.6011H28.254L28.1473 31.8598L26.318 31.8065V33.0118H27.758V34.2598L26.318 34.1531V35.5718L28.334 35.5185V36.8518ZM31.8849 36.8518L31.6449 35.8545H30.1303L29.9276 36.8518H28.3596L29.9863 31.0331L29.8583 30.6011H32.0609L33.8423 36.8518H31.8849ZM30.8183 32.4358L30.3489 34.7665H31.3836L30.8183 32.4358ZM36.1593 35.9771C36.4295 35.9771 36.6358 35.81 36.778 35.4758C36.9238 35.1416 36.9966 34.5905 36.9966 33.8225V33.2838C36.9966 32.722 36.9291 32.2883 36.794 31.9825C36.6589 31.6767 36.4669 31.5238 36.218 31.5238H35.818V35.9771H36.1593ZM36.3246 36.8891C36.1966 36.8891 35.9975 36.882 35.7273 36.8678C35.4606 36.8571 35.1851 36.8518 34.9006 36.8518H34.0526V30.6011H34.9006C35.1389 30.5976 35.3984 30.5887 35.6793 30.5745C35.9602 30.5603 36.1806 30.5531 36.3406 30.5531C37.2473 30.5531 37.8962 30.8074 38.2873 31.3158C38.682 31.8243 38.8793 32.5656 38.8793 33.5398C38.8793 33.8705 38.8562 34.1851 38.81 34.4838C38.7673 34.7825 38.6855 35.0829 38.5646 35.3851C38.4438 35.6838 38.2909 35.9416 38.106 36.1585C37.9211 36.3754 37.6758 36.5514 37.37 36.6865C37.0642 36.8216 36.7158 36.8891 36.3246 36.8891ZM40.5274 36.8518V34.8998L38.7568 30.6011H40.7781L41.3274 32.2118L41.6954 33.5291L41.9994 32.2118L42.4154 30.6011H44.0048L42.4421 34.8678V36.8518H40.5274ZM47.2165 36.8518V32.0145H45.9685V30.6011H50.2672V32.0145H49.0192V36.8518H47.2165ZM52.5481 34.4358C52.5481 35.026 52.5926 35.4367 52.6815 35.6678C52.7739 35.8989 52.9339 36.0145 53.1615 36.0145C53.3286 36.0145 53.4548 35.9736 53.5401 35.8918C53.6255 35.8065 53.6895 35.634 53.7321 35.3745C53.7784 35.1114 53.8015 34.7185 53.8015 34.1958V32.9105C53.8015 32.402 53.7517 32.0234 53.6521 31.7745C53.5526 31.5256 53.389 31.4011 53.1615 31.4011C52.9339 31.4011 52.7739 31.5238 52.6815 31.7691C52.5926 32.0109 52.5481 32.4536 52.5481 33.0971V34.4358ZM53.0495 36.9638C52.7544 36.9638 52.4877 36.9371 52.2495 36.8838C52.0148 36.8305 51.8121 36.7558 51.6415 36.6598C51.4708 36.5638 51.3215 36.4411 51.1935 36.2918C51.069 36.1425 50.9677 35.9825 50.8895 35.8118C50.8148 35.6411 50.7544 35.442 50.7081 35.2145C50.6619 34.9834 50.6299 34.754 50.6121 34.5265C50.5944 34.2954 50.5855 34.0358 50.5855 33.7478C50.5855 33.3211 50.6068 32.9496 50.6495 32.6331C50.6957 32.3167 50.7793 32.0198 50.9001 31.7425C51.021 31.4616 51.181 31.234 51.3801 31.0598C51.5828 30.8856 51.8424 30.7487 52.1588 30.6491C52.4788 30.5496 52.8557 30.4998 53.2895 30.4998C53.5881 30.4998 53.8566 30.5283 54.0948 30.5851C54.333 30.6385 54.5375 30.7131 54.7081 30.8091C54.8788 30.9051 55.0264 31.0296 55.1508 31.1825C55.2788 31.3354 55.3801 31.4989 55.4548 31.6731C55.533 31.8438 55.5953 32.0447 55.6415 32.2758C55.6877 32.5069 55.7197 32.7363 55.7375 32.9638C55.7553 33.1914 55.7641 33.4491 55.7641 33.7371C55.7641 34.1638 55.741 34.5354 55.6948 34.8518C55.6486 35.1683 55.565 35.4651 55.4441 35.7425C55.3233 36.0163 55.1615 36.2403 54.9588 36.4145C54.7561 36.5851 54.4948 36.7203 54.1748 36.8198C53.8584 36.9158 53.4833 36.9638 53.0495 36.9638ZM13.1405 44.9638C12.8668 44.9638 12.6108 44.9389 12.3725 44.8891C12.1379 44.8429 11.9405 44.7807 11.7805 44.7025C11.6205 44.6243 11.489 44.5496 11.3859 44.4785C11.2863 44.4074 11.2028 44.3363 11.1352 44.2651L11.2685 42.9691C11.4143 43.1647 11.6099 43.3354 11.8552 43.4811C12.1005 43.6234 12.3654 43.6945 12.6499 43.6945C12.9343 43.6945 13.1388 43.6643 13.2632 43.6038C13.3912 43.5434 13.4552 43.4331 13.4552 43.2731C13.4552 43.1025 13.3823 42.9567 13.2365 42.8358C13.0943 42.7149 12.8472 42.5691 12.4952 42.3985C12.3672 42.3345 12.2588 42.2776 12.1699 42.2278C12.081 42.1745 11.9619 42.0891 11.8125 41.9718C11.6668 41.8509 11.5477 41.7265 11.4552 41.5985C11.3628 41.4669 11.281 41.2998 11.2099 41.0971C11.1388 40.8909 11.1032 40.6705 11.1032 40.4358C11.1032 39.1665 11.8197 38.5318 13.2525 38.5318C13.4801 38.5318 13.6934 38.5567 13.8925 38.6065C14.0952 38.6527 14.2534 38.7043 14.3672 38.7611C14.481 38.818 14.5841 38.8856 14.6765 38.9638C14.7725 39.0385 14.833 39.0918 14.8579 39.1238C14.8828 39.1523 14.9005 39.1754 14.9112 39.1931L14.6445 40.2225C14.5059 40.0589 14.3317 39.938 14.1219 39.8598C13.9157 39.778 13.7183 39.7371 13.5299 39.7371C13.0748 39.7371 12.8472 39.8794 12.8472 40.1638C12.8472 40.2385 12.8614 40.306 12.8899 40.3665C12.9183 40.4269 12.9645 40.482 13.0285 40.5318C13.0925 40.5816 13.1512 40.6243 13.2045 40.6598C13.2614 40.6954 13.3379 40.7398 13.4339 40.7931C13.5334 40.8429 13.6081 40.8838 13.6579 40.9158C14.177 41.1363 14.5574 41.3976 14.7992 41.6998C15.0445 42.002 15.1672 42.37 15.1672 42.8038C15.1672 43.5078 14.993 44.0447 14.6445 44.4145C14.2997 44.7807 13.7983 44.9638 13.1405 44.9638ZM18.1483 44.9638C17.7821 44.9638 17.4568 44.9283 17.1723 44.8571C16.8914 44.786 16.6603 44.69 16.479 44.5691C16.3012 44.4483 16.1537 44.2989 16.0363 44.1211C15.9226 43.9398 15.8426 43.7496 15.7963 43.5505C15.7501 43.3514 15.727 43.1309 15.727 42.8891V38.6011H17.6257V42.6491C17.6257 43.1007 17.6719 43.4118 17.7643 43.5825C17.8603 43.7496 17.999 43.8331 18.1803 43.8331C18.2799 43.8331 18.367 43.8171 18.4417 43.7851C18.5163 43.7496 18.5857 43.6909 18.6497 43.6091C18.7137 43.5238 18.7617 43.4029 18.7937 43.2465C18.8292 43.0865 18.847 42.8927 18.847 42.6651V38.6011H20.5323V42.9211C20.5323 43.1594 20.511 43.3745 20.4683 43.5665C20.4292 43.7585 20.3546 43.9451 20.2443 44.1265C20.1377 44.3043 19.9954 44.4536 19.8177 44.5745C19.6434 44.6918 19.4141 44.786 19.1297 44.8571C18.8488 44.9283 18.5217 44.9638 18.1483 44.9638ZM23.0133 44.8518H21.248V38.6011H21.952C22.1404 38.6011 22.4248 38.594 22.8053 38.5798C23.1857 38.562 23.4986 38.5531 23.744 38.5531C24.4337 38.5531 24.9564 38.7363 25.312 39.1025C25.6675 39.4687 25.8453 40.018 25.8453 40.7505C25.8453 41.1914 25.7866 41.5931 25.6693 41.9558C25.5555 42.3149 25.4008 42.61 25.2053 42.8411C25.0097 43.0723 24.7875 43.25 24.5386 43.3745C24.2897 43.4989 24.0266 43.5611 23.7493 43.5611C23.7137 43.5611 23.6764 43.5611 23.6373 43.5611C23.6017 43.5611 23.568 43.5611 23.536 43.5611C23.5075 43.5576 23.472 43.5558 23.4293 43.5558C23.3902 43.5523 23.3582 43.5505 23.3333 43.5505C23.312 43.5469 23.28 43.5451 23.2373 43.5451C23.1982 43.5416 23.1715 43.5398 23.1573 43.5398C23.1431 43.5398 23.1164 43.538 23.0773 43.5345C23.0382 43.5309 23.0168 43.5291 23.0133 43.5291V44.8518ZM24.096 40.5158C24.096 40.2527 24.0248 40.0394 23.8826 39.8758C23.7404 39.7123 23.536 39.6305 23.2693 39.6305H23.0133V42.4038H23.2106C23.4915 42.4038 23.7084 42.3096 23.8613 42.1211C24.0177 41.9327 24.096 41.6607 24.096 41.3051V40.5158ZM28.0133 44.8518H26.248V38.6011H26.952C27.1404 38.6011 27.4248 38.594 27.8053 38.5798C28.1857 38.562 28.4986 38.5531 28.744 38.5531C29.4337 38.5531 29.9564 38.7363 30.312 39.1025C30.6675 39.4687 30.8453 40.018 30.8453 40.7505C30.8453 41.1914 30.7866 41.5931 30.6693 41.9558C30.5555 42.3149 30.4008 42.61 30.2053 42.8411C30.0097 43.0723 29.7875 43.25 29.5386 43.3745C29.2897 43.4989 29.0266 43.5611 28.7493 43.5611C28.7137 43.5611 28.6764 43.5611 28.6373 43.5611C28.6017 43.5611 28.568 43.5611 28.536 43.5611C28.5075 43.5576 28.472 43.5558 28.4293 43.5558C28.3902 43.5523 28.3582 43.5505 28.3333 43.5505C28.312 43.5469 28.28 43.5451 28.2373 43.5451C28.1982 43.5416 28.1715 43.5398 28.1573 43.5398C28.1431 43.5398 28.1164 43.538 28.0773 43.5345C28.0382 43.5309 28.0168 43.5291 28.0133 43.5291V44.8518ZM29.096 40.5158C29.096 40.2527 29.0248 40.0394 28.8826 39.8758C28.7404 39.7123 28.536 39.6305 28.2693 39.6305H28.0133V42.4038H28.2106C28.4915 42.4038 28.7084 42.3096 28.8613 42.1211C29.0177 41.9327 29.096 41.6607 29.096 41.3051V40.5158ZM33.056 42.4358C33.056 43.026 33.1004 43.4367 33.1893 43.6678C33.2817 43.8989 33.4417 44.0145 33.6693 44.0145C33.8364 44.0145 33.9626 43.9736 34.048 43.8918C34.1333 43.8065 34.1973 43.634 34.24 43.3745C34.2862 43.1114 34.3093 42.7185 34.3093 42.1958V40.9105C34.3093 40.402 34.2595 40.0234 34.16 39.7745C34.0604 39.5256 33.8968 39.4011 33.6693 39.4011C33.4417 39.4011 33.2817 39.5238 33.1893 39.7691C33.1004 40.0109 33.056 40.4536 33.056 41.0971V42.4358ZM33.5573 44.9638C33.2622 44.9638 32.9955 44.9371 32.7573 44.8838C32.5226 44.8305 32.32 44.7558 32.1493 44.6598C31.9786 44.5638 31.8293 44.4411 31.7013 44.2918C31.5768 44.1425 31.4755 43.9825 31.3973 43.8118C31.3226 43.6411 31.2622 43.442 31.216 43.2145C31.1697 42.9834 31.1377 42.754 31.12 42.5265C31.1022 42.2954 31.0933 42.0358 31.0933 41.7478C31.0933 41.3211 31.1146 40.9496 31.1573 40.6331C31.2035 40.3167 31.2871 40.0198 31.408 39.7425C31.5288 39.4616 31.6888 39.234 31.888 39.0598C32.0906 38.8856 32.3502 38.7487 32.6666 38.6491C32.9866 38.5496 33.3635 38.4998 33.7973 38.4998C34.096 38.4998 34.3644 38.5283 34.6026 38.5851C34.8408 38.6385 35.0453 38.7131 35.216 38.8091C35.3866 38.9051 35.5342 39.0296 35.6586 39.1825C35.7866 39.3354 35.888 39.4989 35.9626 39.6731C36.0408 39.8438 36.1031 40.0447 36.1493 40.2758C36.1955 40.5069 36.2275 40.7363 36.2453 40.9638C36.2631 41.1914 36.272 41.4491 36.272 41.7371C36.272 42.1638 36.2488 42.5354 36.2026 42.8518C36.1564 43.1683 36.0728 43.4651 35.952 43.7425C35.8311 44.0163 35.6693 44.2403 35.4666 44.4145C35.264 44.5851 35.0026 44.7203 34.6826 44.8198C34.3662 44.9158 33.9911 44.9638 33.5573 44.9638ZM38.5807 42.7718V44.8518H36.8101V38.6011H37.5141C37.6847 38.6011 37.939 38.594 38.2767 38.5798C38.6145 38.562 38.8936 38.5531 39.1141 38.5531C39.8821 38.5531 40.4545 38.722 40.8314 39.0598C41.2119 39.3976 41.4021 39.9149 41.4021 40.6118C41.4021 41.0243 41.3114 41.3905 41.1301 41.7105C40.9523 42.0305 40.7159 42.2847 40.4207 42.4731C40.5807 42.5123 40.7176 42.6029 40.8314 42.7451C40.9488 42.8874 41.0394 43.0563 41.1034 43.2518C41.1674 43.4438 41.2225 43.6394 41.2687 43.8385C41.3185 44.034 41.3736 44.2278 41.4341 44.4198C41.4981 44.6118 41.5674 44.7558 41.6421 44.8518H39.6741C39.635 44.802 39.6047 44.6634 39.5834 44.4358C39.5621 44.2047 39.5319 43.9291 39.4927 43.6091C39.4572 43.2856 39.4056 43.0154 39.3381 42.7985C39.331 42.7985 39.3221 42.7985 39.3114 42.7985C39.2439 42.7985 39.171 42.7985 39.0928 42.7985C39.0181 42.7949 38.9523 42.7914 38.8954 42.7878C38.8385 42.7843 38.7781 42.7807 38.7141 42.7771C38.6536 42.7736 38.6092 42.7718 38.5807 42.7718ZM38.5807 41.7798H38.7514C38.8403 41.7798 38.915 41.7763 38.9754 41.7691C39.0359 41.762 39.1016 41.7496 39.1727 41.7318C39.2474 41.7105 39.3079 41.6785 39.3541 41.6358C39.4039 41.5931 39.4501 41.538 39.4927 41.4705C39.5354 41.4029 39.5674 41.3158 39.5887 41.2091C39.6101 41.1025 39.6207 40.978 39.6207 40.8358V40.4145C39.6207 40.1051 39.539 39.89 39.3754 39.7691C39.2154 39.6447 38.9843 39.5825 38.6821 39.5825H38.5807V41.7798ZM42.9743 44.8518V40.0145H41.7263V38.6011H46.025V40.0145H44.777V44.8518H42.9743ZM49.7852 44.8518V42.8998L48.0146 38.6011H50.0359L50.5852 40.2118L50.9532 41.5291L51.2573 40.2118L51.6732 38.6011H53.2626L51.6999 42.8678V44.8518H49.7852ZM55.1497 42.4358C55.1497 43.026 55.1942 43.4367 55.283 43.6678C55.3755 43.8989 55.5355 44.0145 55.763 44.0145C55.9302 44.0145 56.0564 43.9736 56.1417 43.8918C56.227 43.8065 56.291 43.634 56.3337 43.3745C56.3799 43.1114 56.403 42.7185 56.403 42.1958V40.9105C56.403 40.402 56.3533 40.0234 56.2537 39.7745C56.1542 39.5256 55.9906 39.4011 55.763 39.4011C55.5355 39.4011 55.3755 39.5238 55.283 39.7691C55.1942 40.0109 55.1497 40.4536 55.1497 41.0971V42.4358ZM55.651 44.9638C55.3559 44.9638 55.0893 44.9371 54.851 44.8838C54.6164 44.8305 54.4137 44.7558 54.243 44.6598C54.0724 44.5638 53.923 44.4411 53.795 44.2918C53.6706 44.1425 53.5693 43.9825 53.491 43.8118C53.4164 43.6411 53.3559 43.442 53.3097 43.2145C53.2635 42.9834 53.2315 42.754 53.2137 42.5265C53.1959 42.2954 53.187 42.0358 53.187 41.7478C53.187 41.3211 53.2084 40.9496 53.251 40.6331C53.2973 40.3167 53.3808 40.0198 53.5017 39.7425C53.6226 39.4616 53.7826 39.234 53.9817 39.0598C54.1844 38.8856 54.4439 38.7487 54.7604 38.6491C55.0804 38.5496 55.4573 38.4998 55.891 38.4998C56.1897 38.4998 56.4582 38.5283 56.6964 38.5851C56.9346 38.6385 57.139 38.7131 57.3097 38.8091C57.4804 38.9051 57.6279 39.0296 57.7524 39.1825C57.8804 39.3354 57.9817 39.4989 58.0564 39.6731C58.1346 39.8438 58.1968 40.0447 58.243 40.2758C58.2893 40.5069 58.3213 40.7363 58.339 40.9638C58.3568 41.1914 58.3657 41.4491 58.3657 41.7371C58.3657 42.1638 58.3426 42.5354 58.2964 42.8518C58.2502 43.1683 58.1666 43.4651 58.0457 43.7425C57.9248 44.0163 57.763 44.2403 57.5604 44.4145C57.3577 44.5851 57.0964 44.7203 56.7764 44.8198C56.4599 44.9158 56.0848 44.9638 55.651 44.9638ZM61.3358 44.9638C60.9696 44.9638 60.6443 44.9283 60.3598 44.8571C60.0789 44.786 59.8478 44.69 59.6665 44.5691C59.4887 44.4483 59.3412 44.2989 59.2238 44.1211C59.1101 43.9398 59.0301 43.7496 58.9838 43.5505C58.9376 43.3514 58.9145 43.1309 58.9145 42.8891V38.6011H60.8132V42.6491C60.8132 43.1007 60.8594 43.4118 60.9518 43.5825C61.0478 43.7496 61.1865 43.8331 61.3678 43.8331C61.4674 43.8331 61.5545 43.8171 61.6292 43.7851C61.7038 43.7496 61.7732 43.6909 61.8372 43.6091C61.9012 43.5238 61.9492 43.4029 61.9812 43.2465C62.0167 43.0865 62.0345 42.8927 62.0345 42.6651V38.6011H63.7198V42.9211C63.7198 43.1594 63.6985 43.3745 63.6558 43.5665C63.6167 43.7585 63.5421 43.9451 63.4318 44.1265C63.3252 44.3043 63.1829 44.4536 63.0052 44.5745C62.8309 44.6918 62.6016 44.786 62.3172 44.8571C62.0363 44.9283 61.7092 44.9638 61.3358 44.9638Z" fill="#555969"/>
</svg>
