<svg width="26" height="26" viewBox="0 0 26 26" fill="none" xmlns="http://www.w3.org/2000/svg">
<g clip-path="url(#clip0_26_2368)">
<path d="M2.25 6.47726H23.6786M8.5 6.47726V5.5844C8.5 4.4004 8.97034 3.26489 9.80756 2.42768C10.6448 1.59046 11.7803 1.12012 12.9643 1.12012C14.1483 1.12012 15.2838 1.59046 16.121 2.42768C16.9582 3.26489 17.4286 4.4004 17.4286 5.5844V6.47726M10.2857 10.0487V19.8701M15.6429 10.0487V19.8701M4.92857 6.47726H21V22.5487C21 23.0223 20.8119 23.4765 20.477 23.8114C20.1421 24.1463 19.6879 24.3344 19.2143 24.3344H6.71429C6.24068 24.3344 5.78648 24.1463 5.45159 23.8114C5.11671 23.4765 4.92857 23.0223 4.92857 22.5487V6.47726Z" stroke="#FF861D" stroke-linecap="round" stroke-linejoin="round"/>
</g>
<defs>
<clipPath id="clip0_26_2368">
<rect width="25" height="25" fill="white" transform="translate(0.46875 0.227295)"/>
</clipPath>
</defs>
</svg>
